<svg width="45" height="45" viewBox="0 0 45 45" fill="none" xmlns="http://www.w3.org/2000/svg">
<g clip-path="url(#clip0_634_206)">
<path d="M21.0024 23.755L16.2127 18.9654C15.3859 18.1385 14.0459 18.1385 13.219 18.9654C12.3922 19.7922 12.3922 21.1322 13.219 21.9591L21.0024 29.7424C21.8292 30.5693 23.1692 30.5693 23.9961 29.7424L31.7794 21.9591C32.6063 21.1322 32.6063 19.7922 31.7794 18.9654C30.9526 18.1385 29.6126 18.1385 28.7857 18.9654L23.9961 23.755C23.1692 24.5819 21.8292 24.5819 21.0024 23.755Z" fill="#FAC03D"/>
<path d="M24.7797 8.55311C24.7797 7.29408 23.759 6.27344 22.5 6.27344C21.241 6.27344 20.2203 7.29408 20.2203 8.55311V25.3949C20.2203 26.6539 21.241 27.6746 22.5 27.6746C23.759 27.6746 24.7797 26.6539 24.7797 25.3949V8.55311Z" fill="#FAC03D"/>
<path d="M33.6248 34.4781H11.3752C10.6797 34.4781 10.1171 33.9139 10.1171 33.22C10.1171 32.5245 10.6812 31.9619 11.3752 31.9619H33.6248C34.3203 31.9619 34.8829 32.526 34.8829 33.22C34.8829 33.9155 34.3188 34.4781 33.6248 34.4781Z" fill="#FAC03D"/>
<path d="M22.5 0C10.0738 0 0 10.0738 0 22.5C0 34.9262 10.0738 45 22.5 45C34.9262 45 45 34.9262 45 22.5C45 10.0738 34.9262 0 22.5 0ZM22.5 41.3711C12.0784 41.3711 3.62893 32.9216 3.62893 22.5C3.62893 12.0784 12.0784 3.62893 22.5 3.62893C32.9216 3.62893 41.3711 12.0784 41.3711 22.5C41.3711 32.9216 32.9216 41.3711 22.5 41.3711Z" fill="#FAC03D"/>
</g>
<defs>
<clipPath id="clip0_634_206">
<rect width="45" height="45" fill="white"/>
</clipPath>
</defs>
</svg>
