<svg width="15" height="15" viewBox="0 0 15 15" fill="none" xmlns="http://www.w3.org/2000/svg">
<g clip-path="url(#clip0_629_53)">
<path d="M4.4765 13.1725L2.0775 13.472L5.42157 10.1279C5.32124 10.048 5.22383 9.96074 5.13078 9.86769C5.03772 9.77464 4.95049 9.67723 4.87052 9.5769L1.52646 12.921L1.82597 10.522C1.85214 10.3082 1.70093 10.1134 1.4872 10.0872C1.27347 10.0611 1.07864 10.2123 1.05247 10.426L0.611928 13.9518C0.611928 13.9518 0.611928 13.9562 0.611928 13.9591C0.611928 13.9664 0.611928 13.9736 0.610474 13.9823C0.610474 13.9882 0.610474 13.9954 0.610474 14.0012C0.610474 14.0071 0.610474 14.0129 0.610474 14.0201C0.610474 14.0274 0.610474 14.0361 0.611928 14.0434C0.611928 14.0463 0.611928 14.0478 0.611928 14.0507C0.611928 14.0536 0.611928 14.0565 0.611928 14.058C0.611928 14.0667 0.614835 14.0739 0.616289 14.0812C0.616289 14.0856 0.619197 14.0914 0.619197 14.0958C0.620651 14.103 0.623559 14.1103 0.625013 14.1176C0.626467 14.1234 0.627921 14.1292 0.630829 14.135C0.633737 14.1408 0.635191 14.1466 0.638099 14.1525C0.641006 14.1583 0.643914 14.1641 0.646822 14.1714C0.64973 14.1757 0.651184 14.1815 0.654092 14.1859C0.657 14.1917 0.661362 14.199 0.664269 14.2048C0.667177 14.2092 0.670085 14.2135 0.672993 14.2179C0.677355 14.2237 0.681717 14.2295 0.684625 14.2353C0.687533 14.2397 0.691894 14.2441 0.694802 14.2484C0.699164 14.2542 0.703526 14.2586 0.707888 14.2644C0.71225 14.2688 0.716611 14.2731 0.720973 14.2775C0.725335 14.2819 0.729697 14.2862 0.734059 14.2906C0.73842 14.2949 0.744236 14.2993 0.750052 14.3037C0.754414 14.3066 0.758776 14.3109 0.763137 14.3138C0.768953 14.3182 0.774769 14.3226 0.780585 14.3255C0.784947 14.3284 0.789308 14.3313 0.79367 14.3342C0.799486 14.3386 0.805302 14.3415 0.812571 14.3444C0.816933 14.3473 0.822749 14.3502 0.827111 14.3516C0.832927 14.3546 0.838742 14.3575 0.846012 14.3604C0.851828 14.3633 0.857644 14.3647 0.863459 14.3676C0.869275 14.3691 0.875091 14.372 0.880907 14.3735C0.888176 14.3764 0.895446 14.3778 0.902716 14.3793C0.907078 14.3793 0.912893 14.3822 0.917255 14.3822C0.924525 14.3836 0.933249 14.3851 0.940518 14.3865C0.943426 14.3865 0.946334 14.3865 0.947788 14.3865C0.95215 14.3865 0.955058 14.3865 0.95942 14.3865C0.962327 14.3865 0.965235 14.3865 0.968143 14.3865C0.979775 14.3865 0.989952 14.3865 1.00158 14.3865C1.00304 14.3865 1.00595 14.3865 1.0074 14.3865C1.01903 14.3865 1.03212 14.3865 1.04375 14.3836L4.56956 13.9431C4.65825 13.9315 4.73676 13.8907 4.79637 13.8326C4.87779 13.7512 4.92286 13.6334 4.90832 13.5084C4.88215 13.2946 4.68732 13.1434 4.4736 13.1696L4.4765 13.1725Z" fill="white"/>
<path d="M1.37817 4.91124C1.46686 4.89961 1.54537 4.8589 1.60498 4.80074C1.68641 4.71932 1.73148 4.60155 1.71694 4.47651L1.41743 2.07751L4.77748 5.43757C4.88362 5.29217 5.00139 5.1526 5.13225 5.02174C5.1875 4.96649 5.2442 4.9127 5.30381 4.86181L1.96702 1.52647L4.36602 1.82598C4.4896 1.84197 4.60737 1.7969 4.69025 1.71403C4.74986 1.65441 4.79057 1.5759 4.80075 1.48721C4.82692 1.27348 4.67571 1.07865 4.46198 1.05248L0.937625 0.613392C0.937625 0.613392 0.933264 0.613392 0.930356 0.613392C0.923086 0.613392 0.915816 0.613392 0.907093 0.611938C0.901277 0.611938 0.895461 0.611938 0.888191 0.611938C0.882376 0.611938 0.87656 0.611938 0.86929 0.611938C0.86202 0.611938 0.854751 0.611938 0.846027 0.613392C0.843119 0.613392 0.841665 0.613392 0.838757 0.613392C0.835849 0.613392 0.832942 0.613392 0.831488 0.613392C0.822764 0.613392 0.815494 0.6163 0.806771 0.617754C0.802409 0.617754 0.796593 0.620662 0.792231 0.620662C0.784962 0.622116 0.777692 0.625024 0.770422 0.626478C0.764606 0.627932 0.758791 0.629386 0.754429 0.632294C0.748613 0.635202 0.742797 0.636655 0.735528 0.639563C0.729712 0.642471 0.723896 0.645379 0.71808 0.646833C0.712265 0.649741 0.707903 0.652649 0.702087 0.655557C0.696271 0.658465 0.690455 0.662826 0.68464 0.665734C0.680278 0.668642 0.674462 0.67155 0.6701 0.674458C0.664284 0.67882 0.658469 0.681728 0.654107 0.686089C0.649745 0.688997 0.645383 0.693359 0.639567 0.697721C0.635206 0.702083 0.62939 0.706445 0.625028 0.709353C0.620666 0.713714 0.61485 0.718076 0.610489 0.722438C0.606127 0.7268 0.603219 0.731162 0.598857 0.73407C0.594495 0.739885 0.58868 0.744247 0.584318 0.750063C0.58141 0.754425 0.578502 0.757333 0.57414 0.761694C0.569778 0.76751 0.565416 0.773326 0.561055 0.780596C0.558147 0.784957 0.555239 0.789319 0.553785 0.792227C0.549423 0.798043 0.546515 0.805313 0.542153 0.811128C0.539246 0.81549 0.537792 0.819852 0.534884 0.825668C0.531976 0.831484 0.529068 0.838753 0.52616 0.844569C0.523252 0.850385 0.521798 0.856201 0.51889 0.862016C0.517436 0.867832 0.514529 0.873648 0.513075 0.879464C0.511621 0.886733 0.508713 0.892549 0.507259 0.899819C0.507259 0.905635 0.504351 0.909996 0.504351 0.915812C0.502897 0.923082 0.501443 0.931806 0.499989 0.939075C0.499989 0.941983 0.499989 0.944891 0.499989 0.947799C0.499989 0.950707 0.499989 0.952161 0.499989 0.955069C0.499989 0.962338 0.499989 0.969608 0.498535 0.978332C0.498535 0.984147 0.498535 0.991417 0.498535 0.997233C0.498535 1.00305 0.498535 1.00886 0.498535 1.01613C0.498535 1.0234 0.498535 1.03213 0.499989 1.0394C0.499989 1.04231 0.499989 1.04376 0.499989 1.04667L0.940533 4.57247C0.966704 4.7862 1.16153 4.93741 1.37526 4.91124H1.37817Z" fill="white"/>
<path d="M13.5113 10.1978C13.2976 10.224 13.1464 10.4188 13.1726 10.6325L13.4721 13.0315L10.1382 9.69763C10.0873 9.75579 10.0335 9.81249 9.97827 9.8692C9.84741 10.0001 9.70783 10.1193 9.56244 10.224L12.9225 13.584L10.5235 13.2845C10.3098 13.2583 10.1149 13.4095 10.0888 13.6233C10.0626 13.837 10.2138 14.0318 10.4275 14.058L13.9533 14.4985C13.9533 14.4985 13.9606 14.4985 13.965 14.4985C13.9679 14.4985 13.9708 14.4985 13.9737 14.4985C13.9853 14.4985 13.9955 14.4985 14.0071 14.4985C14.0086 14.4985 14.0115 14.4985 14.013 14.4985C14.0246 14.4985 14.0377 14.4985 14.0493 14.4956C14.0595 14.4956 14.0697 14.4927 14.0798 14.4898C14.0798 14.4898 14.0798 14.4898 14.0813 14.4898C14.0915 14.4884 14.1016 14.4855 14.1118 14.4826C14.1118 14.4826 14.1147 14.4826 14.1162 14.4826C14.1235 14.4796 14.1322 14.4767 14.1394 14.4738C14.1424 14.4738 14.1438 14.4724 14.1467 14.4709C14.1554 14.468 14.1627 14.4637 14.1714 14.4607C14.1743 14.4607 14.1772 14.4578 14.1802 14.4564C14.186 14.4535 14.1903 14.4506 14.1961 14.4477C14.1991 14.4462 14.202 14.4433 14.2063 14.4418C14.2136 14.4375 14.2209 14.4331 14.2267 14.4288C14.2296 14.4273 14.231 14.4258 14.234 14.4229C14.2398 14.4186 14.2441 14.4157 14.2499 14.4113C14.2529 14.4099 14.2543 14.4069 14.2572 14.4055C14.263 14.3997 14.2703 14.3939 14.2761 14.388C14.2819 14.3822 14.2877 14.375 14.2936 14.3691C14.295 14.3662 14.2979 14.3648 14.2994 14.3619C14.3037 14.3575 14.3081 14.3517 14.311 14.3459C14.3125 14.343 14.3154 14.3415 14.3168 14.3386C14.3212 14.3313 14.3256 14.3255 14.3299 14.3183C14.3314 14.3153 14.3343 14.3124 14.3357 14.3081C14.3386 14.3023 14.3415 14.2979 14.3445 14.2921C14.3459 14.2892 14.3474 14.2863 14.3488 14.2834C14.3532 14.2761 14.3561 14.2674 14.359 14.2586C14.359 14.2557 14.3604 14.2543 14.3619 14.2514C14.3648 14.2441 14.3677 14.2368 14.3692 14.2281C14.3692 14.2267 14.3692 14.2252 14.3692 14.2238C14.3721 14.2136 14.375 14.2034 14.3764 14.1947C14.3764 14.1947 14.3764 14.1932 14.3764 14.1918C14.3779 14.1816 14.3808 14.1714 14.3823 14.1612C14.3837 14.1496 14.3852 14.1365 14.3852 14.1249C14.3852 14.1234 14.3852 14.1205 14.3852 14.1191C14.3852 14.1074 14.3852 14.0973 14.3852 14.0856C14.3852 14.0827 14.3852 14.0798 14.3852 14.0769C14.3852 14.0725 14.3852 14.0696 14.3852 14.0653L13.9446 10.5395C13.9184 10.3257 13.7236 10.1745 13.5099 10.2007L13.5113 10.1978Z" fill="white"/>
<path d="M14.3721 0.601809C14.3721 0.601809 14.3619 0.593085 14.3561 0.588723C14.3517 0.585815 14.3474 0.581453 14.343 0.578546C14.3372 0.574184 14.3314 0.569822 14.3256 0.566914C14.3212 0.564006 14.3168 0.561098 14.3125 0.55819C14.3067 0.553829 14.3008 0.550921 14.2936 0.548013C14.2892 0.545105 14.2834 0.542197 14.279 0.540743C14.2732 0.537835 14.2674 0.534927 14.2601 0.532019C14.2543 0.529112 14.2485 0.527658 14.2427 0.52475C14.2369 0.523296 14.231 0.520388 14.2252 0.518934C14.218 0.516026 14.2107 0.514572 14.2034 0.513118C14.1991 0.513118 14.1932 0.51021 14.1889 0.51021C14.1816 0.508756 14.1729 0.507302 14.1656 0.505848C14.1627 0.505848 14.1598 0.505848 14.1583 0.505848C14.1554 0.505848 14.154 0.505848 14.1511 0.505848C14.1438 0.505848 14.1365 0.505848 14.1278 0.504395C14.122 0.504395 14.1162 0.504395 14.1089 0.504395C14.1031 0.504395 14.0973 0.504395 14.09 0.504395C14.0827 0.504395 14.0755 0.504395 14.0667 0.505848C14.0638 0.505848 14.0624 0.505848 14.0595 0.505848L10.5337 0.946393C10.3199 0.972564 10.1687 1.16739 10.1949 1.38112C10.2211 1.59485 10.4159 1.74606 10.6296 1.71989L13.0286 1.42038L9.68457 4.76444C9.78489 4.84441 9.88231 4.93165 9.97536 5.0247C10.0684 5.11775 10.1542 5.21516 10.2356 5.31549L13.5797 1.97142L13.2802 4.37042C13.254 4.58415 13.4052 4.77898 13.6189 4.80515C13.7425 4.82115 13.8603 4.77607 13.9432 4.6932C14.0028 4.63359 14.0435 4.55507 14.0537 4.46638L14.4942 0.940577C14.4957 0.928945 14.4971 0.91586 14.4971 0.904228C14.4971 0.902774 14.4971 0.899867 14.4971 0.898413C14.4971 0.886781 14.4971 0.876603 14.4971 0.864972C14.4971 0.862064 14.4971 0.859156 14.4971 0.856248C14.4971 0.851886 14.4971 0.848979 14.4971 0.844617C14.4971 0.841709 14.4971 0.838801 14.4971 0.837347C14.4971 0.828623 14.4942 0.821354 14.4928 0.814084C14.4928 0.809722 14.4898 0.803906 14.4898 0.799545C14.4884 0.792275 14.4855 0.785005 14.484 0.777735C14.4826 0.77192 14.4797 0.766104 14.4782 0.760288C14.4753 0.754472 14.4739 0.748657 14.4709 0.742841C14.468 0.737025 14.4651 0.731209 14.4622 0.72394C14.4593 0.719578 14.4579 0.713762 14.455 0.7094C14.452 0.703584 14.4477 0.696315 14.4448 0.690499C14.4419 0.686137 14.439 0.681775 14.4361 0.677414C14.4317 0.671598 14.4273 0.665782 14.4244 0.659966C14.4215 0.655604 14.4171 0.651243 14.4142 0.646881C14.4099 0.641065 14.4055 0.636703 14.4012 0.630887C14.3968 0.626526 14.3924 0.622164 14.3881 0.617802C14.3837 0.61344 14.3793 0.609078 14.375 0.604716L14.3721 0.601809Z" fill="white"/>
</g>
<defs>
<clipPath id="clip0_629_53">
<rect width="14" height="14" fill="white" transform="translate(0.5 0.5)"/>
</clipPath>
</defs>
</svg>
