<svg width="35" height="29" viewBox="0 0 35 29" fill="none" xmlns="http://www.w3.org/2000/svg">
<g clip-path="url(#clip0_457_37319)">
<path d="M7.90787 25.5186C7.49383 25.5186 7.1626 25.8636 7.1626 26.2776C7.1626 26.6917 7.49383 27.0367 7.90787 27.0367H18.4796L17.8862 26.1396C17.624 25.7532 17.1961 25.5186 16.7269 25.5186H7.89406H7.90787Z" fill="#333333"/>
<path d="M3.6158 21.6956C3.03615 21.6956 2.4841 21.4886 2.08386 21.1297C1.71123 20.7985 1.50421 20.3569 1.50421 19.9014V3.3123C1.50421 2.85686 1.71123 2.41522 2.08386 2.07019C2.4841 1.71136 3.03615 1.50434 3.6158 1.50434H26.5397C27.1193 1.50434 27.6714 1.71136 28.0716 2.07019C28.4443 2.40142 28.6513 2.84306 28.6513 3.3123V6.29338C28.6513 6.76262 28.8721 7.21806 29.2585 7.49409L30.1418 8.14275V3.3123C30.1418 2.42902 29.7416 1.55954 29.0515 0.938486C28.3753 0.33123 27.4782 0 26.5259 0H3.6158C2.66351 0 1.78023 0.33123 1.10397 0.938486C0.413908 1.55954 0.0136719 2.42902 0.0136719 3.3123V19.9014C0.0136719 20.7847 0.413908 21.6542 1.10397 22.2752C1.78023 22.8825 2.67732 23.2137 3.6158 23.2137H19.1698L17.6379 22.013C17.3757 21.806 17.072 21.7094 16.7408 21.7094H3.6158V21.6956Z" fill="#333333"/>
<path d="M21.4197 28.389C21.1575 28.389 20.8677 28.251 20.5916 27.8508C20.4122 27.6024 20.4398 27.2297 20.6468 27.0089C20.8539 26.7881 21.1575 26.8157 21.3231 27.0641C21.4335 27.2297 21.4611 27.2573 21.9303 26.8433C22.303 26.5259 22.7722 26.1118 23.3933 26.1118C24.0833 26.1118 24.456 26.4154 24.7458 26.6501C24.9942 26.8571 25.1736 26.9951 25.5739 26.9951C25.9741 26.9951 26.1535 26.8433 26.402 26.6501C26.6918 26.4016 27.0644 26.1118 27.7545 26.1118C28.4445 26.1118 28.8034 26.4154 29.107 26.6501C29.3554 26.8571 29.5348 26.9951 29.9213 26.9951C30.3077 26.9951 30.5009 26.8433 30.7494 26.6501C31.0392 26.4016 31.4118 26.1118 32.1019 26.1118C32.7229 26.1118 33.1784 26.5121 33.5648 26.8433C34.0479 27.2573 34.0617 27.2297 34.1721 27.0641C34.3515 26.8157 34.6413 26.7881 34.8483 27.0089C35.0553 27.2297 35.0692 27.6024 34.9035 27.8508C34.1997 28.8445 33.4682 28.2096 33.0266 27.8232C32.7229 27.5609 32.4331 27.3125 32.1157 27.3125C31.7154 27.3125 31.536 27.4643 31.2876 27.6576C30.9978 27.906 30.6251 28.1958 29.9351 28.1958C29.245 28.1958 28.8862 27.8922 28.5826 27.6576C28.3341 27.4505 28.1547 27.3125 27.7683 27.3125C27.3818 27.3125 27.1886 27.4643 26.9402 27.6576C26.6504 27.906 26.2777 28.1958 25.5877 28.1958C24.8976 28.1958 24.525 27.8922 24.2352 27.6576C23.9867 27.4505 23.8073 27.3125 23.4071 27.3125C23.0897 27.3125 22.7998 27.5609 22.4962 27.8232C22.234 28.0578 21.8475 28.3752 21.4335 28.3752L21.4197 28.389Z" fill="#F58220"/>
<path d="M34.5173 27.9474C34.2551 27.9474 34.0343 27.6852 34.0343 27.354V10.4612C34.0343 10.2956 33.9239 10.1576 33.7997 10.1576H21.6822C21.5579 10.1576 21.4475 10.2956 21.4475 10.4612V27.354C21.4475 27.6852 21.2267 27.9474 20.9645 27.9474C20.7023 27.9474 20.4814 27.6852 20.4814 27.354V10.4612C20.4814 9.64696 21.0197 8.9707 21.6822 8.9707H33.7997C34.4621 8.9707 35.0004 9.63316 35.0004 10.4612V27.354C35.0004 27.6852 34.7796 27.9474 34.5173 27.9474Z" fill="#F58220"/>
<path d="M31.4532 14.1874H24.0143C23.7521 14.1874 23.5312 13.9252 23.5312 13.5939C23.5312 13.2627 23.7521 13.0005 24.0143 13.0005H31.4532C31.7154 13.0005 31.9362 13.2627 31.9362 13.5939C31.9362 13.9252 31.7154 14.1874 31.4532 14.1874Z" fill="#F58220"/>
<path d="M29.8245 18.3832H23.9314C23.7243 18.3832 23.5449 18.121 23.5449 17.7897C23.5449 17.4585 23.7105 17.1963 23.9314 17.1963H29.8245C30.0315 17.1963 30.2109 17.4585 30.2109 17.7897C30.2109 18.121 30.0453 18.3832 29.8245 18.3832Z" fill="#F58220"/>
<path d="M28.3892 22.5648H23.8347C23.6691 22.5648 23.5449 22.3026 23.5449 21.9714C23.5449 21.6402 23.6829 21.3779 23.8347 21.3779H28.3892C28.5548 21.3779 28.679 21.6402 28.679 21.9714C28.679 22.3026 28.541 22.5648 28.3892 22.5648Z" fill="#F58220"/>
<path d="M17.348 14.5189L17.3756 5.60325C17.3756 5.12021 16.9615 4.95459 16.5751 4.95459C16.1887 4.95459 15.7608 5.12021 15.7608 5.60325L15.7884 9.34339C15.7884 9.34339 15.7884 9.4124 15.7884 9.4538V11.8966H15.5814V9.4538C15.5814 8.97076 15.1536 8.74994 14.7533 8.74994C14.3531 8.74994 13.9253 8.97076 13.9253 9.4538V11.0685V12.7385H13.7459V11.0685V10.9167C13.6768 10.4613 13.318 10.2543 12.9868 10.2543C12.6142 10.2543 12.2139 10.5027 12.2139 11.0547L12.1863 12.6557C12.1863 12.6557 12.1863 12.7109 12.1863 12.7247V14.3394H11.9931V12.7247C11.9931 12.2141 11.5515 11.9794 11.1374 11.9794C10.7234 11.9794 10.2817 12.2141 10.2817 12.7247V15.7472C10.2817 16.106 10.3783 16.451 10.5716 16.7409L12.1311 19.1561H17.4032L18.9213 17.0445C19.2664 16.5615 19.4458 15.968 19.4182 15.3745L19.2388 10.9305C19.2388 10.4475 18.7833 10.1991 18.3417 10.2129C18.1209 10.2129 17.9138 10.2819 17.7758 10.3923C17.624 10.5165 17.5412 10.6959 17.5412 10.9029H17.5274V14.5189H17.3342H17.348Z" fill="#333333"/>
</g>
<defs>
<clipPath id="clip0_457_37319">
<rect width="35" height="28.3892" fill="white"/>
</clipPath>
</defs>
</svg>
