<svg width="35" height="32" viewBox="0 0 35 32" fill="none" xmlns="http://www.w3.org/2000/svg">
<g clip-path="url(#clip0_457_37332)">
<path d="M18.1286 19.0062C17.8854 19.0062 17.6153 18.8711 17.3586 18.4794C17.1965 18.2362 17.2235 17.8715 17.3991 17.6554C17.5883 17.4392 17.8719 17.4663 18.034 17.7094C18.1421 17.8715 18.1556 17.8985 18.6014 17.4933C18.9526 17.1826 19.3849 16.7773 19.9657 16.7773C20.6006 16.7773 20.9518 17.0745 21.222 17.3042C21.4516 17.5068 21.6137 17.6419 21.992 17.6419C22.3702 17.6419 22.5323 17.4933 22.7619 17.3042C23.0321 17.061 23.3833 16.7773 24.0182 16.7773C24.6531 16.7773 25.0043 17.0745 25.2745 17.3042C25.5041 17.5068 25.6662 17.6419 26.0445 17.6419C26.4227 17.6419 26.5848 17.4933 26.8144 17.3042C27.0846 17.061 27.4358 16.7773 28.0707 16.7773C28.638 16.7773 29.0838 17.1691 29.4215 17.4933C29.8673 17.8985 29.8808 17.8715 29.9889 17.7094C30.151 17.4663 30.4346 17.4392 30.6238 17.6554C30.8129 17.8715 30.8264 18.2362 30.6643 18.4794C30.0159 19.452 29.327 18.8306 28.9082 18.4524C28.6245 18.1957 28.3544 17.9526 28.0572 17.9526C27.6925 17.9526 27.5169 18.1012 27.2872 18.2903C27.017 18.5334 26.6658 18.8171 26.0309 18.8171C25.3961 18.8171 25.0448 18.5199 24.7747 18.2903C24.545 18.0876 24.3829 17.9526 24.0047 17.9526C23.6265 17.9526 23.4644 18.1012 23.2347 18.2903C22.9646 18.5334 22.6133 18.8171 21.9785 18.8171C21.3436 18.8171 20.9923 18.5199 20.7222 18.2903C20.4925 18.0876 20.3304 17.9526 19.9522 17.9526C19.655 17.9526 19.3849 18.1957 19.1012 18.4524C18.8445 18.682 18.4933 18.9927 18.1151 18.9927L18.1286 19.0062Z" fill="#F58220"/>
<path d="M30.3128 18.5604C30.0697 18.5604 29.8671 18.3037 29.8671 17.9795V1.4589C29.8671 1.2968 29.759 1.16171 29.6374 1.16171H18.358C18.2364 1.16171 18.1284 1.2968 18.1284 1.4589V17.9931C18.1284 18.3173 17.9257 18.5739 17.6826 18.5739C17.4394 18.5739 17.2368 18.3173 17.2368 17.9931V1.4589C17.2368 0.661907 17.7366 0 18.358 0H29.6374C30.2588 0 30.7586 0.648398 30.7586 1.4589V17.9931C30.7586 18.3173 30.556 18.5739 30.3128 18.5739V18.5604Z" fill="#F58220"/>
<path d="M27.4626 5.10605H20.5464C20.3032 5.10605 20.1006 4.84939 20.1006 4.52519C20.1006 4.20099 20.3032 3.94434 20.5464 3.94434H27.4626C27.7058 3.94434 27.9084 4.20099 27.9084 4.52519C27.9084 4.84939 27.7058 5.10605 27.4626 5.10605Z" fill="#F58220"/>
<path d="M25.9362 9.2125H20.4518C20.2627 9.2125 20.1006 8.95584 20.1006 8.63164C20.1006 8.30744 20.2627 8.05078 20.4518 8.05078H25.9362C26.1253 8.05078 26.2874 8.30744 26.2874 8.63164C26.2874 8.95584 26.1253 9.2125 25.9362 9.2125Z" fill="#F58220"/>
<path d="M24.6124 13.3058H20.3708C20.2222 13.3058 20.1006 13.0491 20.1006 12.7249C20.1006 12.4007 20.2222 12.144 20.3708 12.144H24.6124C24.7609 12.144 24.8825 12.4007 24.8825 12.7249C24.8825 13.0491 24.7609 13.3058 24.6124 13.3058Z" fill="#F58220"/>
<path d="M13.2246 28.489H1.98572C0.891548 28.489 0 27.5975 0 26.5033V19.8978C0 18.709 0.499807 17.5473 1.36434 16.7233L6.37592 11.9684C6.8352 11.5361 7.42956 11.293 8.05095 11.293H13.2246V28.4755V28.489ZM8.05095 12.6573C7.76727 12.6573 7.51061 12.7654 7.29448 12.9545L2.2829 17.7094C1.68854 18.2768 1.33732 19.0737 1.33732 19.8978V26.5033C1.33732 26.8545 1.621 27.1382 1.97221 27.1382H11.8603V12.6573H8.03744H8.05095Z" fill="#333333"/>
<path d="M32.4468 7.34847H32.1091V8.6993H32.4468C33.1087 8.6993 33.6491 9.23963 33.6491 9.91505V25.9359C33.6491 26.5978 33.1087 27.1381 32.4468 27.1381H14.4403C13.7784 27.1381 13.238 26.5978 13.238 25.9359V9.90154C13.238 9.23963 13.7784 8.68579 14.4403 8.68579H15.8992V7.33496H14.4403C13.0354 7.33496 11.8872 8.48317 11.8872 9.90154V25.9224C11.8872 27.3272 13.0354 28.4754 14.4403 28.4754H32.4468C33.8517 28.4754 34.9999 27.3272 34.9999 25.9224V9.90154C34.9999 8.49667 33.8517 7.33496 32.4468 7.33496V7.34847Z" fill="#333333"/>
<path d="M29.4479 30.6907C31.177 30.6907 32.5818 29.2858 32.5818 27.5568C32.5818 25.8277 31.177 24.4229 29.4479 24.4229C27.7188 24.4229 26.314 25.8277 26.314 27.5568C26.314 29.2858 27.7188 30.6907 29.4479 30.6907Z" fill="white"/>
<path d="M29.448 31.1636C27.4623 31.1636 25.8413 29.5426 25.8413 27.5569C25.8413 25.5712 27.4623 23.9502 29.448 23.9502C31.4337 23.9502 33.0547 25.5712 33.0547 27.5569C33.0547 29.5426 31.4337 31.1636 29.448 31.1636ZM29.448 24.9093C27.9891 24.9093 26.7869 26.098 26.7869 27.5704C26.7869 29.0428 27.9756 30.2316 29.448 30.2316C30.9204 30.2316 32.1092 29.0428 32.1092 27.5704C32.1092 26.098 30.9204 24.9093 29.448 24.9093Z" fill="#333333"/>
<path d="M13.4406 30.6907C15.1696 30.6907 16.5745 29.2858 16.5745 27.5568C16.5745 25.8277 15.1696 24.4229 13.4406 24.4229C11.7115 24.4229 10.3066 25.8277 10.3066 27.5568C10.3066 29.2858 11.7115 30.6907 13.4406 30.6907Z" fill="white"/>
<path d="M13.4407 31.1636C11.455 31.1636 9.83398 29.5426 9.83398 27.5569C9.83398 25.5712 11.455 23.9502 13.4407 23.9502C15.4264 23.9502 17.0474 25.5712 17.0474 27.5569C17.0474 29.5426 15.4264 31.1636 13.4407 31.1636ZM13.4407 24.9093C11.9818 24.9093 10.7796 26.098 10.7796 27.5704C10.7796 29.0428 11.9683 30.2316 13.4407 30.2316C14.9131 30.2316 16.1018 29.0428 16.1018 27.5704C16.1018 26.098 14.9131 24.9093 13.4407 24.9093Z" fill="#333333"/>
</g>
<defs>
<clipPath id="clip0_457_37332">
<rect width="35" height="31.1636" fill="white"/>
</clipPath>
</defs>
</svg>
