<svg width="33" height="30" viewBox="0 0 33 30" fill="none" xmlns="http://www.w3.org/2000/svg">
<g clip-path="url(#clip0_457_37348)">
<path d="M0 1.91509C0 1.64789 0.0445344 1.39552 0.148448 1.17285C0.0593792 1.39552 0 1.66273 0 1.91509Z" fill="white"/>
<path d="M20.9162 7.68957L20.1888 6.91764L18.0215 4.6167L20.1888 6.91764L20.9162 7.68957Z" fill="white"/>
<path d="M19.4169 8.28359L19.1052 7.94216L16.9378 5.64121L13.3305 1.79641L13.0485 1.49951H1.79612C1.64767 1.49951 1.48438 1.67765 1.48438 1.93001V24.2269C1.48438 24.4793 1.64767 24.6574 1.79612 24.6574H9.23336L19.4169 13.1824V8.29843V8.28359Z" fill="white"/>
<path d="M18.0215 4.61673L14.4142 0.77193L13.7017 0L14.4142 0.77193L18.0215 4.61673Z" fill="white"/>
<path d="M0.148448 24.9688C0.0593792 24.7461 0 24.4789 0 24.2266C0 24.4938 0.0445344 24.7461 0.148448 24.9688Z" fill="black"/>
<path d="M1.79617 25.3996C1.52896 25.3996 1.26176 25.2808 1.06877 25.073C0.96486 24.9691 0.890636 24.8355 0.831256 24.7019C0.771877 24.5534 0.742188 24.3902 0.742188 24.2269V1.91512C0.742188 1.75183 0.771877 1.58854 0.831256 1.44009C0.994549 1.00959 1.38051 0.727539 1.79617 0.727539H13.3751L20.1592 7.9718V11.1931V8.58044L19.417 7.8382H13.39C13.2118 7.8382 13.0634 7.68975 13.0634 7.51161V1.49947L12.3211 0.757229H1.79617C1.21722 0.757229 0.742188 1.2768 0.742188 1.92997V24.2269C0.742188 24.8652 1.21722 25.3996 1.79617 25.3996Z" fill="#333333"/>
<path d="M13.8057 2.2861L16.9379 5.62618L18.3185 7.09582H13.7908V2.2861M13.7018 0H1.79622C1.05398 0 0.415655 0.489879 0.148448 1.17274C0.0445344 1.41026 0 1.66262 0 1.91498V24.2119C0 24.4791 0.0445344 24.7314 0.148448 24.9541C0.237517 25.1768 0.37112 25.3846 0.534413 25.5628C0.860999 25.9042 1.30634 26.1269 1.81107 26.1269H7.91228L9.23347 24.6275H1.79622C1.64777 24.6275 1.48448 24.4494 1.48448 24.197V1.91498C1.48448 1.66262 1.64777 1.48448 1.79622 1.48448H12.3212V7.51147C12.3212 8.10526 12.7962 8.5803 13.39 8.5803H19.417V13.1525L20.9163 11.475V7.68961L20.1889 6.91768L18.0216 4.61673L14.4143 0.77193L13.7018 0Z" fill="#333333"/>
<path d="M7.03662 5.44781C7.03662 5.1806 7.08116 4.92824 7.18507 4.70557C7.096 4.92824 7.03662 5.19544 7.03662 5.44781Z" fill="white"/>
<path d="M27.9528 11.2076L27.2254 10.4357L25.0581 8.13477L27.2254 10.4357L27.9528 11.2076Z" fill="white"/>
<path d="M26.4535 11.8017L26.1418 11.4602L23.9744 9.15928L20.3672 5.31447L20.0851 5.01758H8.83274C8.68429 5.01758 8.521 5.19572 8.521 5.44808V27.745C8.521 27.9973 8.68429 28.1755 8.83274 28.1755H16.27L26.4535 16.7004V11.8165V11.8017Z" fill="white"/>
<path d="M25.0581 8.1348L21.4508 4.29L20.7383 3.51807L21.4508 4.29L25.0581 8.1348Z" fill="white"/>
<path d="M7.18507 28.4869C7.096 28.2642 7.03662 27.997 7.03662 27.7446C7.03662 28.0118 7.08116 28.2642 7.18507 28.4869Z" fill="black"/>
<path d="M8.83279 28.918C8.56558 28.918 8.29838 28.7992 8.10539 28.5914C8.00148 28.4875 7.92726 28.3539 7.86788 28.2203C7.8085 28.0718 7.77881 27.9085 7.77881 27.7452V5.43348C7.77881 5.27019 7.8085 5.1069 7.86788 4.95845C8.03117 4.52795 8.41714 4.26074 8.83279 4.26074H20.4117L27.1958 11.505V14.7263V12.1136L26.4536 11.3714H20.4266C20.2484 11.3714 20.1 11.223 20.1 11.0448V5.01783L19.3578 4.27559H8.83279C8.25384 4.27559 7.77881 4.79516 7.77881 5.44833V27.7452C7.77881 28.3835 8.25384 28.918 8.83279 28.918Z" fill="#333333"/>
<path d="M20.8423 5.80436L23.9745 9.14444L25.3551 10.6141H20.8274V5.78952M20.7235 3.50342H8.84769C8.10545 3.50342 7.46712 3.9933 7.18507 4.67616C7.096 4.89883 7.03662 5.16604 7.03662 5.4184V27.7153C7.03662 27.9825 7.08116 28.2349 7.18507 28.4575C7.27414 28.6802 7.40774 28.888 7.57103 29.0662C7.89762 29.4076 8.34296 29.6303 8.84769 29.6303H14.9489L16.2701 28.131H8.83284C8.68439 28.131 8.5211 27.9528 8.5211 27.7005V5.44809C8.5211 5.19573 8.68439 5.01759 8.83284 5.01759H19.3578V11.0446C19.3578 11.6384 19.8328 12.1134 20.4266 12.1134H26.4536V16.6856L27.9529 15.0081V11.2227L27.2256 10.4508L25.0582 8.14984L21.4509 4.30504L20.7235 3.53311V3.50342Z" fill="#333333"/>
<path d="M32.1392 20.5306H18.8976C18.4226 20.5306 18.0366 20.1446 18.0366 19.6696C18.0366 19.1946 18.4226 18.8086 18.8976 18.8086H32.1392C32.6142 18.8086 33.0002 19.1946 33.0002 19.6696C33.0002 20.1446 32.6142 20.5306 32.1392 20.5306Z" fill="#F58220"/>
<path d="M29.2294 25.0731H18.7341C18.363 25.0731 18.0513 24.6871 18.0513 24.2121C18.0513 23.737 18.3482 23.3511 18.7341 23.3511H29.2294C29.6005 23.3511 29.9123 23.737 29.9123 24.2121C29.9123 24.6871 29.6154 25.0731 29.2294 25.0731Z" fill="#F58220"/>
<path d="M26.6761 29.6156H18.5708C18.2888 29.6156 18.0513 29.2296 18.0513 28.7546C18.0513 28.2795 18.2888 27.8936 18.5708 27.8936H26.6761C26.9582 27.8936 27.1957 28.2795 27.1957 28.7546C27.1957 29.2296 26.9582 29.6156 26.6761 29.6156Z" fill="#F58220"/>
</g>
<defs>
<clipPath id="clip0_457_37348">
<rect width="33" height="29.6599" fill="white"/>
</clipPath>
</defs>
</svg>
