<?xml version="1.0" encoding="utf-8"?>
<!-- Generator: Adobe Illustrator 27.1.1, SVG Export Plug-In . SVG Version: 6.00 Build 0)  -->
<svg version="1.1" id="레이어_1" xmlns="http://www.w3.org/2000/svg" xmlns:xlink="http://www.w3.org/1999/xlink" x="0px"
	 y="0px" viewBox="0 0 61 52.5" style="enable-background:new 0 0 61 52.5;" xml:space="preserve">
<style type="text/css">
	.st0{fill:#FF9015;}
	.st1{fill:#93D500;}
</style>
<path class="st0" d="M38.7,27.6c1,1.7,0.8,3.9-0.6,5.6c-1.5,1.9-4,2.6-6.4,1.8c-2.1-0.7-2.7-0.2-3.3,0.5c-0.3,0.3-0.7,1.1-0.5,1.9
	c0.2,1.2,1.6,2,2.8,2.5c4.1,1.7,10.7,1.3,15.7-3.6c1.5-1.5,2.2-3,2.9-4.5c0.6-1.2,1.1-2.4,2-3.3c1.5-1.5,3.5-2.3,5.5-2.2
	c1.4,0.1,2.8,0.6,3.9,1.4c-1.7-11.2-11.7-12.2-14.9-12.2l0.1-0.1c0,0,0.3-14.4-13.9-15.1C20-0.6,13.4,12,13.1,23.8
	C21.9,20.5,35,21.5,38.7,27.6"/>
<path class="st1" d="M60.7,31.8c-0.1-0.6-0.4-1.1-0.8-1.6c-1.7-2-4.7-2.4-6.9-0.1c-1.5,1.5-1.7,4.6-4.9,7.8
	c-6,5.9-13.9,6.1-18.4,4.2c-6-2.5-4.5-7-3.1-8.4c1.3-1.3,2.9-2.1,5.9-1.1c3,1,5-2,4-3.7c-2.5-4.1-13.9-6.4-23.2-2.5
	c-0.1,0-0.1,0.1-0.2,0.1c-9.1,4-12.7,12.2-12.7,12.2c6.1-2.4,11.4,2.7,16.1,6.2c4.7,3.5,10.9,7.7,20.2,7.4c9.2-0.3,16-5.9,18.8-8.9
	C57.8,40.7,61.6,35.4,60.7,31.8"/>
</svg>
