<svg width="20" height="14" viewBox="0 0 20 14" fill="none" xmlns="http://www.w3.org/2000/svg">
<g clip-path="url(#clip0_457_35917)">
<path d="M19.5822 2.08157C19.3513 1.26276 18.674 0.615675 17.8142 0.397885C16.2551 0 10.0011 0 10.0011 0C10.0011 0 3.74492 0 2.18582 0.397885C1.326 0.617769 0.646509 1.26276 0.417812 2.08157C0 3.56631 0 6.66562 0 6.66562C0 6.66562 0 9.76493 0.417812 11.2497C0.648708 12.0685 1.326 12.7156 2.18582 12.9334C3.74492 13.3312 9.9989 13.3312 9.9989 13.3312C9.9989 13.3312 16.2529 13.3312 17.812 12.9334C18.6718 12.7135 19.3513 12.0685 19.58 11.2497C19.9978 9.76493 19.9978 6.66562 19.9978 6.66562C19.9978 6.66562 20 3.56631 19.5822 2.08157ZM13.1963 6.66562L8 9.52411V3.80922" fill="white"/>
</g>
<defs>
<clipPath id="clip0_457_35917">
<rect width="20" height="13.3333" fill="white"/>
</clipPath>
</defs>
</svg>
