<svg width="24" height="24" viewBox="0 0 24 24" fill="none" xmlns="http://www.w3.org/2000/svg">
<path d="M6.20759 10.8665C6.02216 10.6856 5.91863 10.441 5.91979 10.1863C5.92095 9.93169 6.0267 9.68793 6.21378 9.50867C6.40086 9.32941 6.65394 9.22933 6.91734 9.23045C7.18075 9.23157 7.43291 9.3338 7.61834 9.51465L11.1205 12.9001V1.81055C11.1205 1.55673 11.2248 1.3133 11.4104 1.13382C11.5961 0.954346 11.8479 0.853516 12.1105 0.853516C12.373 0.853516 12.6248 0.954346 12.8105 1.13382C12.9962 1.3133 13.1005 1.55673 13.1005 1.81055V12.9001L16.6026 9.51465C16.6944 9.4251 16.8036 9.35392 16.9239 9.30515C17.0441 9.25639 17.1732 9.23101 17.3036 9.23045C17.434 9.2299 17.5633 9.25418 17.684 9.30192C17.8047 9.34965 17.9145 9.41991 18.0072 9.50867C18.0998 9.59743 18.1734 9.70296 18.2239 9.81923C18.2743 9.9355 18.3006 10.0602 18.3011 10.1863C18.3017 10.3124 18.2766 10.4374 18.2272 10.5541C18.1778 10.6708 18.1052 10.7769 18.0133 10.8665L12.8158 15.8909C12.6266 16.0677 12.3737 16.1666 12.1105 16.1666C11.8472 16.1666 11.5943 16.0677 11.4051 15.8909L6.20759 10.8665ZM23.0005 14.252C22.7379 14.252 22.4861 14.3528 22.3004 14.5323C22.1148 14.7117 22.0105 14.9552 22.0105 15.209V21.9082H2.21047V15.209C2.21047 14.9552 2.10617 14.7117 1.9205 14.5323C1.73484 14.3528 1.48303 14.252 1.22047 14.252C0.957904 14.252 0.706094 14.3528 0.520433 14.5323C0.334772 14.7117 0.230469 14.9552 0.230469 15.209V21.9082C0.230469 22.4158 0.439075 22.9027 0.810397 23.2617C1.18172 23.6206 1.68534 23.8223 2.21047 23.8223H22.0105C22.5356 23.8223 23.0392 23.6206 23.4105 23.2617C23.7819 22.9027 23.9905 22.4158 23.9905 21.9082V15.209C23.9905 14.9552 23.8862 14.7117 23.7005 14.5323C23.5148 14.3528 23.263 14.252 23.0005 14.252Z" fill="#333333"/>
</svg>
