<svg width="51" height="28" viewBox="0 0 51 28" fill="none" xmlns="http://www.w3.org/2000/svg">
<g clip-path="url(#clip0_1138_114)">
<path d="M42.1798 10.3533C45.0099 10.3533 47.3247 8.03851 47.3247 5.17667C47.3247 2.31484 45.0099 0 42.1798 0C39.3496 0 37.0507 2.31484 37.0507 5.17667C37.0507 8.03851 39.3417 10.3533 42.1798 10.3533Z" fill="#FF9015"/>
<path d="M9.2964 10.3533C12.1265 10.3533 14.4255 8.03851 14.4255 5.17667C14.4255 2.31484 12.1345 0 9.2964 0C6.45835 0 4.1673 2.31484 4.1673 5.17667C4.1673 8.03851 6.45835 10.3533 9.2964 10.3533Z" fill="#FF9015"/>
<path d="M30.7324 24.9241L39.0404 24.06C39.9442 23.9886 40.7766 23.3941 41.1254 22.4586L44.1299 14.4677C43.1548 17.5753 42.5682 19.8901 41.4504 22.966C40.8558 24.6308 39.1752 24.6149 37.8355 24.7735V25.7406H48.7517V14.4677C48.7517 12.3431 47.5546 10.4801 45.7788 9.56848C44.8037 10.3771 43.5512 10.8686 42.1797 10.8686C41.3077 10.8686 40.4753 10.6783 39.7301 10.3057C38.5648 11.3205 37.8355 12.8188 37.8355 14.4677V17.171L37.0744 19.2242L30.1061 20.9603C26.8717 21.2378 27.4821 25.1936 30.7324 24.9082V24.9241Z" fill="#FF9015"/>
<path d="M50.8208 26.2798H0.679199V28.0001H50.8208V26.2798Z" fill="#FF9015"/>
<path d="M13.6486 24.7893C12.3247 24.6308 10.6282 24.6467 10.0337 22.9819C8.93967 19.906 8.32925 17.5912 7.35417 14.4836L10.3587 22.4745C10.7075 23.402 11.5399 24.0045 12.4436 24.0759L20.7675 24.94C24.002 25.2174 24.6282 21.2695 21.3779 20.9921L14.4097 19.2559L13.6486 17.2027V14.4994C13.6486 12.8505 12.9193 11.3601 11.7539 10.3375C11.0246 10.7101 10.1922 10.9003 9.30434 10.9003C7.93287 10.9003 6.68033 10.4088 5.70524 9.60022C3.95326 10.5119 2.73242 12.3749 2.73242 14.4994V25.7724H13.6486V24.8052V24.7893Z" fill="#FF9015"/>
</g>
<defs>
<clipPath id="clip0_1138_114">
<rect width="50.1416" height="28" fill="white" transform="translate(0.679199)"/>
</clipPath>
</defs>
</svg>
