<svg width="25" height="24" viewBox="0 0 25 24" fill="none" xmlns="http://www.w3.org/2000/svg">
<g clip-path="url(#clip0_1157_300)">
<path d="M10.2 21.1826L10.2 20.2276L10.2 20.2272M10.2 21.1826L13.8 15.7663C12.9 16.1967 12.1748 16.7641 11.6244 17.4685C11.074 18.1728 10.7992 19.0924 10.8 20.2272H10.2M10.2 21.1826H1.80004V18.4957C1.80004 17.9385 1.94081 17.4352 2.22242 16.973C2.50138 16.5152 2.88384 16.1676 3.38311 15.924L3.38367 15.9238C4.54495 15.3557 5.74883 14.9206 6.99598 14.6178C8.23876 14.3162 9.50643 14.1652 10.8 14.1652C11.2724 14.1652 11.745 14.1977 12.2182 14.2629C12.5454 14.308 12.8727 14.3592 13.2 14.4167V15.3984M10.2 21.1826L13.2 15.3984M10.2 20.2272C10.1992 18.9952 10.4988 17.9346 11.1517 17.099C11.6923 16.4072 12.3787 15.8417 13.2 15.3984M10.2 20.2272L13.2 15.3984M24.6 20.1391V21.1826H13.8V20.1391C13.8 19.7827 13.8933 19.4571 14.0847 19.1501C14.2631 18.8642 14.512 18.6585 14.854 18.5279L14.8541 18.5281L14.8665 18.523C15.5494 18.2446 16.2564 18.0356 16.9882 17.8958C17.7215 17.7558 18.4585 17.6862 19.1994 17.687H19.2C19.9421 17.687 20.6796 17.7569 21.4131 17.897C22.145 18.0368 22.8517 18.2455 23.5339 18.5231L23.5338 18.5233L23.5455 18.5277C23.8889 18.6592 24.1383 18.8654 24.3165 19.1513C24.5079 19.4581 24.6006 19.783 24.6 20.1381V20.1391ZM19.2 15.313C18.5107 15.313 17.9532 15.0865 17.4896 14.6331C17.0267 14.1802 16.8 13.6409 16.8 12.9783C16.8 12.3156 17.0267 11.7764 17.4896 11.3235C17.9532 10.87 18.5107 10.6435 19.2 10.6435C19.8894 10.6435 20.4469 10.87 20.9105 11.3235C21.3734 11.7764 21.6 12.3156 21.6 12.9783C21.6 13.6409 21.3734 14.1802 20.9105 14.6331C20.4469 15.0865 19.8894 15.313 19.2 15.313ZM10.8 11.7913C9.63622 11.7913 8.65702 11.3925 7.82962 10.5831C7.00262 9.77404 6.60004 8.82224 6.60004 7.69565C6.60004 6.56907 7.00262 5.61727 7.82962 4.80825C8.65702 3.99883 9.63622 3.6 10.8 3.6C11.9639 3.6 12.9431 3.99883 13.7705 4.80825C14.5975 5.61727 15 6.56907 15 7.69565C15 8.82224 14.5975 9.77404 13.7705 10.5831C12.9431 11.3925 11.9639 11.7913 10.8 11.7913Z" stroke="#333333" stroke-width="1.2"/>
</g>
<defs>
<clipPath id="clip0_1157_300">
<rect width="24" height="24" fill="white" transform="translate(0.800018)"/>
</clipPath>
</defs>
</svg>
