<svg width="25" height="24" viewBox="0 0 25 24" fill="none" xmlns="http://www.w3.org/2000/svg">
<path d="M8.84998 19.5V22.5M4.34998 1.5H13.35C13.7478 1.5 14.1293 1.65804 14.4106 1.93934C14.6919 2.22064 14.85 2.60218 14.85 3V22.3125C14.85 22.3622 14.8302 22.4099 14.7951 22.4451C14.7599 22.4802 14.7122 22.5 14.6625 22.5H2.84998V3C2.84998 2.60218 3.00801 2.22064 3.28932 1.93934C3.57062 1.65804 3.95215 1.5 4.34998 1.5ZM15.6 9H20.85C21.2478 9 21.6293 9.15804 21.9106 9.43934C22.1919 9.72064 22.35 10.1022 22.35 10.5V22.5H14.85V9.75C14.85 9.55109 14.929 9.36032 15.0696 9.21967C15.2103 9.07902 15.4011 9 15.6 9Z" stroke="#333333" stroke-width="1.25" stroke-linecap="round" stroke-linejoin="round"/>
<path d="M5.19748 20.2437C5.04215 20.264 4.88436 20.2351 4.74625 20.1612C4.60814 20.0873 4.49665 19.972 4.42742 19.8314C4.3582 19.6909 4.33471 19.5322 4.36026 19.3777C4.38581 19.2231 4.45912 19.0804 4.56989 18.9697C4.68066 18.8589 4.82334 18.7856 4.97789 18.76C5.13245 18.7345 5.29112 18.758 5.43165 18.8272C5.57218 18.8964 5.6875 19.0079 5.76144 19.146C5.83537 19.2841 5.8642 19.4419 5.84389 19.5973C5.82245 19.7612 5.74745 19.9134 5.63055 20.0303C5.51365 20.1472 5.3614 20.2222 5.19748 20.2437ZM5.19748 16.4937C5.04215 16.514 4.88436 16.4851 4.74625 16.4112C4.60814 16.3373 4.49665 16.222 4.42742 16.0814C4.3582 15.9409 4.33471 15.7822 4.36026 15.6277C4.38581 15.4731 4.45912 15.3304 4.56989 15.2197C4.68066 15.1089 4.82334 15.0356 4.97789 15.01C5.13245 14.9845 5.29112 15.008 5.43165 15.0772C5.57218 15.1464 5.6875 15.2579 5.76144 15.396C5.83537 15.5341 5.8642 15.6919 5.84389 15.8473C5.82245 16.0112 5.74745 16.1634 5.63055 16.2803C5.51365 16.3972 5.3614 16.4722 5.19748 16.4937ZM5.19748 12.7437C5.04215 12.764 4.88436 12.7351 4.74625 12.6612C4.60814 12.5873 4.49665 12.472 4.42742 12.3314C4.3582 12.1909 4.33471 12.0322 4.36026 11.8777C4.38581 11.7231 4.45912 11.5804 4.56989 11.4697C4.68066 11.3589 4.82334 11.2856 4.97789 11.26C5.13245 11.2345 5.29112 11.258 5.43165 11.3272C5.57218 11.3964 5.6875 11.5079 5.76144 11.646C5.83537 11.7841 5.8642 11.9419 5.84389 12.0973C5.82245 12.2612 5.74745 12.4134 5.63055 12.5303C5.51365 12.6472 5.3614 12.7222 5.19748 12.7437ZM5.19748 8.99367C5.04215 9.01398 4.88436 8.98515 4.74625 8.91122C4.60814 8.83728 4.49665 8.72196 4.42742 8.58143C4.3582 8.4409 4.33471 8.28223 4.36026 8.12767C4.38581 7.97312 4.45912 7.83044 4.56989 7.71967C4.68066 7.6089 4.82334 7.5356 4.97789 7.51004C5.13245 7.48449 5.29112 7.50798 5.43165 7.57721C5.57218 7.64643 5.6875 7.75792 5.76144 7.89603C5.83537 8.03414 5.8642 8.19193 5.84389 8.34726C5.82245 8.51119 5.74745 8.66343 5.63055 8.78033C5.51365 8.89723 5.3614 8.97223 5.19748 8.99367ZM5.19748 5.24367C5.04215 5.26398 4.88436 5.23515 4.74625 5.16122C4.60814 5.08728 4.49665 4.97196 4.42742 4.83143C4.3582 4.6909 4.33471 4.53223 4.36026 4.37767C4.38581 4.22312 4.45912 4.08044 4.56989 3.96967C4.68066 3.8589 4.82334 3.7856 4.97789 3.76004C5.13245 3.73449 5.29112 3.75798 5.43165 3.8272C5.57218 3.89643 5.6875 4.00792 5.76144 4.14603C5.83537 4.28414 5.8642 4.44193 5.84389 4.59726C5.82245 4.76119 5.74745 4.91343 5.63055 5.03033C5.51365 5.14723 5.3614 5.22223 5.19748 5.24367ZM8.94748 16.4937C8.79215 16.514 8.63436 16.4851 8.49625 16.4112C8.35814 16.3373 8.24665 16.222 8.17742 16.0814C8.1082 15.9409 8.08471 15.7822 8.11026 15.6277C8.13582 15.4731 8.20912 15.3304 8.31989 15.2197C8.43066 15.1089 8.57334 15.0356 8.72789 15.01C8.88245 14.9845 9.04112 15.008 9.18165 15.0772C9.32218 15.1464 9.4375 15.2579 9.51143 15.396C9.58537 15.5341 9.6142 15.6919 9.59389 15.8473C9.57245 16.0112 9.49745 16.1634 9.38055 16.2803C9.26365 16.3972 9.1114 16.4722 8.94748 16.4937ZM8.94748 12.7437C8.79215 12.764 8.63436 12.7351 8.49625 12.6612C8.35814 12.5873 8.24665 12.472 8.17742 12.3314C8.1082 12.1909 8.08471 12.0322 8.11026 11.8777C8.13582 11.7231 8.20912 11.5804 8.31989 11.4697C8.43066 11.3589 8.57334 11.2856 8.72789 11.26C8.88245 11.2345 9.04112 11.258 9.18165 11.3272C9.32218 11.3964 9.4375 11.5079 9.51143 11.646C9.58537 11.7841 9.6142 11.9419 9.59389 12.0973C9.57245 12.2612 9.49745 12.4134 9.38055 12.5303C9.26365 12.6472 9.1114 12.7222 8.94748 12.7437ZM8.94748 8.99367C8.79215 9.01398 8.63436 8.98515 8.49625 8.91122C8.35814 8.83728 8.24665 8.72196 8.17742 8.58143C8.1082 8.4409 8.08471 8.28223 8.11026 8.12767C8.13582 7.97312 8.20912 7.83044 8.31989 7.71967C8.43066 7.6089 8.57334 7.5356 8.72789 7.51004C8.88245 7.48449 9.04112 7.50798 9.18165 7.57721C9.32218 7.64643 9.4375 7.75792 9.51143 7.89603C9.58537 8.03414 9.6142 8.19193 9.59389 8.34726C9.57245 8.51119 9.49745 8.66343 9.38055 8.78033C9.26365 8.89723 9.1114 8.97223 8.94748 8.99367ZM8.94748 5.24367C8.79215 5.26398 8.63436 5.23515 8.49625 5.16122C8.35814 5.08728 8.24665 4.97196 8.17742 4.83143C8.1082 4.6909 8.08471 4.53223 8.11026 4.37767C8.13582 4.22312 8.20912 4.08044 8.31989 3.96967C8.43066 3.8589 8.57334 3.7856 8.72789 3.76004C8.88245 3.73449 9.04112 3.75798 9.18165 3.8272C9.32218 3.89643 9.4375 4.00792 9.51143 4.14603C9.58537 4.28414 9.6142 4.44193 9.59389 4.59726C9.57245 4.76119 9.49745 4.91343 9.38055 5.03033C9.26365 5.14723 9.1114 5.22223 8.94748 5.24367ZM12.6975 20.2437C12.5421 20.264 12.3844 20.2351 12.2462 20.1612C12.1081 20.0873 11.9966 19.972 11.9274 19.8314C11.8582 19.6909 11.8347 19.5322 11.8603 19.3777C11.8858 19.2231 11.9591 19.0804 12.0699 18.9697C12.1807 18.8589 12.3233 18.7856 12.4779 18.76C12.6324 18.7345 12.7911 18.758 12.9316 18.8272C13.0722 18.8964 13.1875 19.0079 13.2614 19.146C13.3354 19.2841 13.3642 19.4419 13.3439 19.5973C13.3224 19.7612 13.2474 19.9134 13.1305 20.0303C13.0137 20.1472 12.8614 20.2222 12.6975 20.2437ZM12.6975 16.4937C12.5421 16.514 12.3844 16.4851 12.2462 16.4112C12.1081 16.3373 11.9966 16.222 11.9274 16.0814C11.8582 15.9409 11.8347 15.7822 11.8603 15.6277C11.8858 15.4731 11.9591 15.3304 12.0699 15.2197C12.1807 15.1089 12.3233 15.0356 12.4779 15.01C12.6324 14.9845 12.7911 15.008 12.9316 15.0772C13.0722 15.1464 13.1875 15.2579 13.2614 15.396C13.3354 15.5341 13.3642 15.6919 13.3439 15.8473C13.3224 16.0112 13.2474 16.1634 13.1305 16.2803C13.0137 16.3972 12.8614 16.4722 12.6975 16.4937ZM12.6975 12.7437C12.5421 12.764 12.3844 12.7351 12.2462 12.6612C12.1081 12.5873 11.9966 12.472 11.9274 12.3314C11.8582 12.1909 11.8347 12.0322 11.8603 11.8777C11.8858 11.7231 11.9591 11.5804 12.0699 11.4697C12.1807 11.3589 12.3233 11.2856 12.4779 11.26C12.6324 11.2345 12.7911 11.258 12.9316 11.3272C13.0722 11.3964 13.1875 11.5079 13.2614 11.646C13.3354 11.7841 13.3642 11.9419 13.3439 12.0973C13.3224 12.2612 13.2474 12.4134 13.1305 12.5303C13.0137 12.6472 12.8614 12.7222 12.6975 12.7437Z" fill="#333333"/>
<path d="M13.1313 8.78105C13.4233 8.48907 13.4221 8.01449 13.1286 7.72105C12.8352 7.42761 12.3606 7.42642 12.0687 7.7184C11.7767 8.01038 11.7779 8.48495 12.0713 8.77839C12.3647 9.07184 12.8393 9.07302 13.1313 8.78105Z" fill="#333333"/>
<path d="M12.6975 5.24367C12.5421 5.26398 12.3844 5.23515 12.2462 5.16122C12.1081 5.08728 11.9967 4.97196 11.9274 4.83143C11.8582 4.6909 11.8347 4.53223 11.8603 4.37767C11.8858 4.22312 11.9591 4.08044 12.0699 3.96967C12.1807 3.8589 12.3233 3.7856 12.4779 3.76004C12.6324 3.73449 12.7911 3.75798 12.9317 3.8272C13.0722 3.89643 13.1875 4.00792 13.2614 4.14603C13.3354 4.28414 13.3642 4.44193 13.3439 4.59726C13.3224 4.76119 13.2474 4.91343 13.1306 5.03033C13.0137 5.14723 12.8614 5.22223 12.6975 5.24367ZM19.35 18.7498C19.2016 18.7498 19.0566 18.7937 18.9333 18.8762C18.81 18.9586 18.7138 19.0757 18.6571 19.2127C18.6003 19.3498 18.5855 19.5006 18.6144 19.6461C18.6433 19.7916 18.7148 19.9252 18.8196 20.0301C18.9245 20.135 19.0582 20.2064 19.2037 20.2354C19.3491 20.2643 19.4999 20.2494 19.637 20.1927C19.774 20.1359 19.8912 20.0398 19.9736 19.9164C20.056 19.7931 20.1 19.6481 20.1 19.4998C20.1 19.3008 20.021 19.1101 19.8803 18.9694C19.7397 18.8288 19.5489 18.7498 19.35 18.7498ZM19.35 14.9998C19.2016 14.9998 19.0566 15.0437 18.9333 15.1262C18.81 15.2086 18.7138 15.3257 18.6571 15.4627C18.6003 15.5998 18.5855 15.7506 18.6144 15.8961C18.6433 16.0416 18.7148 16.1752 18.8196 16.2801C18.9245 16.385 19.0582 16.4564 19.2037 16.4854C19.3491 16.5143 19.4999 16.4994 19.637 16.4427C19.774 16.3859 19.8912 16.2898 19.9736 16.1664C20.056 16.0431 20.1 15.8981 20.1 15.7498C20.1 15.5508 20.021 15.3601 19.8803 15.2194C19.7397 15.0788 19.5489 14.9998 19.35 14.9998ZM19.35 11.2498C19.2016 11.2498 19.0566 11.2937 18.9333 11.3762C18.81 11.4586 18.7138 11.5757 18.6571 11.7127C18.6003 11.8498 18.5855 12.0006 18.6144 12.1461C18.6433 12.2916 18.7148 12.4252 18.8196 12.5301C18.9245 12.635 19.0582 12.7064 19.2037 12.7354C19.3491 12.7643 19.4999 12.7494 19.637 12.6927C19.774 12.6359 19.8912 12.5398 19.9736 12.4164C20.056 12.2931 20.1 12.1481 20.1 11.9998C20.1 11.8008 20.021 11.6101 19.8803 11.4694C19.7397 11.3288 19.5489 11.2498 19.35 11.2498ZM16.35 18.7498C16.2016 18.7498 16.0566 18.7937 15.9333 18.8762C15.81 18.9586 15.7138 19.0757 15.6571 19.2127C15.6003 19.3498 15.5855 19.5006 15.6144 19.6461C15.6433 19.7916 15.7148 19.9252 15.8196 20.0301C15.9245 20.135 16.0582 20.2064 16.2037 20.2354C16.3491 20.2643 16.4999 20.2494 16.637 20.1927C16.774 20.1359 16.8912 20.0398 16.9736 19.9164C17.056 19.7931 17.1 19.6481 17.1 19.4998C17.1 19.3008 17.021 19.1101 16.8803 18.9694C16.7397 18.8288 16.5489 18.7498 16.35 18.7498ZM16.35 14.9998C16.2016 14.9998 16.0566 15.0437 15.9333 15.1262C15.81 15.2086 15.7138 15.3257 15.6571 15.4627C15.6003 15.5998 15.5855 15.7506 15.6144 15.8961C15.6433 16.0416 15.7148 16.1752 15.8196 16.2801C15.9245 16.385 16.0582 16.4564 16.2037 16.4854C16.3491 16.5143 16.4999 16.4994 16.637 16.4427C16.774 16.3859 16.8912 16.2898 16.9736 16.1664C17.056 16.0431 17.1 15.8981 17.1 15.7498C17.1 15.5508 17.021 15.3601 16.8803 15.2194C16.7397 15.0788 16.5489 14.9998 16.35 14.9998ZM16.35 11.2498C16.2016 11.2498 16.0566 11.2937 15.9333 11.3762C15.81 11.4586 15.7138 11.5757 15.6571 11.7127C15.6003 11.8498 15.5855 12.0006 15.6144 12.1461C15.6433 12.2916 15.7148 12.4252 15.8196 12.5301C15.9245 12.635 16.0582 12.7064 16.2037 12.7354C16.3491 12.7643 16.4999 12.7494 16.637 12.6927C16.774 12.6359 16.8912 12.5398 16.9736 12.4164C17.056 12.2931 17.1 12.1481 17.1 11.9998C17.1 11.8008 17.021 11.6101 16.8803 11.4694C16.7397 11.3288 16.5489 11.2498 16.35 11.2498Z" fill="#333333"/>
</svg>
