<svg width="68" height="68" viewBox="0 0 68 68" fill="none" xmlns="http://www.w3.org/2000/svg">
<path d="M18.1255 67H50.7088" stroke="white" stroke-width="2" stroke-linecap="round" stroke-linejoin="round"/>
<path d="M1.8335 50.708V8.34967C1.8335 6.62135 2.52007 4.96381 3.74218 3.74169C4.9643 2.51958 6.62184 1.83301 8.35016 1.83301H60.4835C62.2118 1.83301 63.8694 2.51958 65.0915 3.74169C66.3136 4.96381 67.0002 6.62135 67.0002 8.34967V50.708C67.0002 52.4363 66.3136 54.0939 65.0915 55.316C63.8694 56.5381 62.2118 57.2247 60.4835 57.2247H8.35016C6.62184 57.2247 4.9643 56.5381 3.74218 55.316C2.52007 54.0939 1.8335 52.4363 1.8335 50.708Z" stroke="white" stroke-width="2"/>
<path d="M49.62 34.7319C50.4075 32.8129 50.835 30.7585 50.835 28.5009C50.835 26.8754 50.5875 25.3176 50.16 23.8727C48.6975 24.2114 47.1675 24.392 45.57 24.392C42.2984 24.3955 39.074 23.6098 36.1684 22.101C33.2629 20.5923 30.7615 18.4047 28.875 15.7228C26.857 20.6222 23.05 24.5631 18.2325 26.7399C18.1425 27.3043 18.1425 27.9139 18.1425 28.5009C18.1425 30.6562 18.5656 32.7905 19.3876 34.7818C20.2097 36.7731 21.4146 38.5824 22.9335 40.1065C26.0011 43.1845 30.1617 44.9137 34.5 44.9137C36.8625 44.9137 39.135 44.3945 41.1825 43.4688C42.465 45.9296 43.05 47.1488 43.005 47.1488C39.315 48.3904 36.4575 49 34.5 49C29.055 49 23.8575 46.8553 20.0325 42.9947C17.706 40.6675 15.9766 37.809 14.9925 34.6641H12V24.392H14.4525C15.1955 20.7629 16.9039 17.4033 19.3962 14.6698C21.8885 11.9362 25.0718 9.93063 28.6084 8.86583C32.145 7.80103 35.903 7.71673 39.4834 8.62189C43.0639 9.52705 46.3334 11.3879 48.945 14.007C51.7805 16.8408 53.7146 20.4549 54.5025 24.392H57V34.6641H56.865L48.855 42.0465L36.93 40.692V36.9218H47.7975L49.62 34.7319ZM28.3575 27.9816C29.0325 27.9816 29.685 28.2525 30.1575 28.7492C30.6324 29.2295 30.8988 29.8787 30.8988 30.5553C30.8988 31.2319 30.6324 31.881 30.1575 32.3614C29.685 32.8355 29.0325 33.1064 28.3575 33.1064C26.94 33.1064 25.7925 31.9776 25.7925 30.5553C25.7925 29.133 26.94 27.9816 28.3575 27.9816ZM40.62 27.9816C42.0375 27.9816 43.1625 29.133 43.1625 30.5553C43.1625 31.9776 42.0375 33.1064 40.62 33.1064C39.2025 33.1064 38.055 31.9776 38.055 30.5553C38.055 29.8727 38.3252 29.2181 38.8063 28.7354C39.2873 28.2528 39.9397 27.9816 40.62 27.9816Z" fill="white"/>
</svg>
