<svg width="155" height="43" viewBox="0 0 155 43" fill="none" xmlns="http://www.w3.org/2000/svg">
<g clip-path="url(#clip0_457_36051)">
<path d="M84.3427 7.25414C84.3427 5.86196 83.2276 4.73031 81.8559 4.72217H81.8398C80.4681 4.72217 79.353 5.85382 79.353 7.25414V36.2212C79.353 36.2212 79.3611 36.2863 79.3691 36.327C79.4413 37.6622 80.5162 38.7206 81.8479 38.7206C83.1795 38.7206 84.3427 37.5889 84.3427 36.1886C84.3427 36.1886 84.3427 36.1886 84.3427 36.1805V7.27042C84.3427 7.27042 84.3427 7.27042 84.3427 7.26228V7.25414Z" fill="#FF9015"/>
<path d="M119.35 28.3888C119.35 28.3888 119.326 28.3888 119.31 28.3888H108.248V25.0915H115.652C115.789 25.0915 115.909 25.0752 116.021 25.0508C116.984 24.8961 117.714 24.0657 117.714 23.048C117.714 21.9245 116.815 21.0127 115.7 21.0127C115.66 21.0127 115.628 21.0208 115.588 21.029H100.082C99.8891 21.029 99.7447 20.9883 99.6484 20.8987C99.5522 20.8091 99.504 20.6382 99.504 20.3695V18.0248H106.443L114.032 18.0167C114.898 18.0167 115.54 17.7724 115.965 17.2839C116.382 16.7954 116.599 16.1197 116.599 15.2649V8.47496C116.591 7.93762 116.438 7.53056 116.15 7.26189C115.901 7.02579 115.556 6.91995 115.147 6.87925C115.067 6.87925 114.994 6.84668 114.906 6.84668H96.6723C96.6723 6.84668 96.6643 6.84668 96.6562 6.84668C95.5412 6.84668 94.6427 7.75851 94.6427 8.88202C94.6427 10.0055 95.5492 10.9174 96.6562 10.9174H96.6643H109.283H111.794V13.9541H97.2739C97.2739 13.9541 97.2579 13.9541 97.2499 13.9541C96.913 13.9541 96.6161 14.003 96.3514 14.0844C95.9423 14.2065 95.5974 14.3937 95.3487 14.6868C94.9235 15.1753 94.7149 15.851 94.7149 16.7059V20.744C94.7149 20.744 94.7149 20.7929 94.7149 20.8173V22.3479C94.7149 23.2027 94.9235 23.8784 95.3487 24.3669C95.5974 24.66 95.9423 24.8554 96.3514 24.9694C96.6242 25.0508 96.929 25.0997 97.282 25.0997H99.0147C99.0147 25.0997 99.0789 25.1078 99.119 25.1078H103.274V28.4051H92.6132C92.6132 28.4051 92.5891 28.4051 92.5731 28.4051C91.4019 28.4051 90.4473 29.3657 90.4473 30.5544C90.4473 31.743 91.4019 32.7037 92.5731 32.7037H119.35C119.479 32.7037 119.583 32.6874 119.687 32.663C120.706 32.5083 121.484 31.629 121.484 30.5462C121.484 29.3576 120.53 28.3969 119.358 28.3969L119.35 28.3888Z" fill="#FF9015"/>
<path d="M153.019 21.2085C153.019 21.2085 152.986 21.2085 152.97 21.2085C152.97 21.2085 152.962 21.2085 152.954 21.2085H126.009C126.009 21.2085 125.993 21.2085 125.977 21.2085C124.886 21.2085 123.995 22.104 123.995 23.2113C123.995 24.3185 124.886 25.2141 125.977 25.2141H136.878V27.4774H130.902C130.148 27.4774 129.57 27.6728 129.153 28.0391C129.089 28.0961 129.017 28.145 128.961 28.2101C128.584 28.6497 128.383 29.244 128.343 29.9768C128.343 30.0582 128.327 30.1396 128.327 30.2291V35.977C128.327 36.8318 128.536 37.5075 128.961 37.996C129.017 38.0611 129.089 38.11 129.153 38.167C129.57 38.5334 130.148 38.7287 130.902 38.7287H147.836C148.59 38.7287 149.16 38.5334 149.577 38.167C149.641 38.11 149.713 38.0611 149.77 37.996C150.171 37.532 150.371 36.9051 150.395 36.1154C150.395 36.0665 150.403 36.0258 150.403 35.977V35.9444L150.395 30.2291C150.395 29.3743 150.187 28.6986 149.762 28.2101C149.344 27.7216 148.695 27.4774 147.828 27.4774H141.876V25.2141H152.962C152.962 25.2141 152.986 25.2141 152.994 25.2141C153.002 25.2141 153.01 25.2141 153.027 25.2141C154.118 25.2141 155.008 24.3185 155.008 23.2113C155.008 22.104 154.118 21.2085 153.027 21.2085H153.019ZM145.518 31.4748V34.7313H133.806C133.613 34.7313 133.469 34.6906 133.373 34.6255C133.276 34.5522 133.228 34.3812 133.228 34.1126V31.4829H145.518V31.4748Z" fill="#FF9015"/>
<path d="M66.5742 7.39258C61.2717 7.39258 56.98 11.7482 56.98 17.1297C56.98 22.5111 61.2717 26.8668 66.5742 26.8668C71.8767 26.8668 76.1685 22.503 76.1685 17.1297C76.1685 11.7564 71.8687 7.39258 66.5742 7.39258ZM66.5742 22.4134C63.7024 22.4134 61.376 20.0524 61.376 17.1297C61.376 14.2069 63.7024 11.8459 66.5742 11.8459C69.4461 11.8459 71.7805 14.2069 71.7805 17.1297C71.7805 20.0524 69.4541 22.4134 66.5742 22.4134Z" fill="#FF9015"/>
<path d="M139.333 20.0686C143.761 20.0686 147.355 16.4212 147.355 11.9272C147.355 7.43314 143.761 3.79395 139.333 3.79395C134.905 3.79395 131.311 7.43314 131.311 11.9272C131.311 16.4212 134.897 20.0686 139.333 20.0686ZM139.333 8.19843C141.363 8.19843 143.015 9.86741 143.015 11.9353C143.015 14.0032 141.371 15.6722 139.333 15.6722C137.295 15.6722 135.659 14.0032 135.659 11.9353C135.659 9.86741 137.303 8.19843 139.333 8.19843Z" fill="#FF9015"/>
<path d="M30.6997 22.446C31.5019 23.7975 31.3094 25.6211 30.2265 26.9808C28.9911 28.5358 27.0177 29.0812 25.0844 28.4055C23.3757 27.8112 22.9104 28.2834 22.4211 28.7881C22.2206 28.9998 21.8836 29.6674 22.02 30.3269C22.2125 31.2957 23.3356 31.9551 24.2421 32.3378C27.507 33.7218 32.8496 33.3799 36.8446 29.3662C38.0799 28.1287 38.6254 26.9075 39.1469 25.727C39.5881 24.7337 40.0132 23.7975 40.7833 23.024C42.0267 21.7784 43.591 21.1271 45.1874 21.2004C46.3265 21.2492 47.4014 21.6563 48.3079 22.3565C46.9121 13.2707 38.9142 12.4403 36.3312 12.4158L36.3713 12.3588C36.3713 12.3588 36.5879 0.627112 25.2208 0.016509C15.7148 -0.496398 10.4443 9.76988 10.2197 19.3197C17.2389 16.6575 27.7557 17.4961 30.6997 22.446Z" fill="#FF9015"/>
<path d="M47.7386 24.5871C46.3508 22.9344 44.0004 22.6658 42.1954 24.4731C40.9681 25.7025 40.8076 28.2589 38.2566 30.8153C33.4675 35.6187 27.1382 35.7734 23.4722 34.2184C18.6831 32.1912 19.8543 28.5275 20.9934 27.3552C22.0283 26.2887 23.3118 25.6374 25.7344 26.4759C28.165 27.3226 29.7855 24.8476 28.9753 23.4962C26.9938 20.1664 17.7927 18.2776 10.3323 21.469C10.2761 21.4934 10.22 21.5178 10.1558 21.5504C2.82372 24.7662 0 31.4666 0 31.4666C4.87734 29.5127 9.15304 33.6403 12.8993 36.498C16.6455 39.3637 21.6833 42.7505 29.0876 42.4982C36.4838 42.2376 41.9387 37.711 44.1528 35.2279C46.062 33.0786 49.1264 28.8044 48.3884 25.8653C48.2761 25.4013 48.0675 24.9698 47.7466 24.5871H47.7386Z" fill="#93D500"/>
</g>
<defs>
<clipPath id="clip0_457_36051">
<rect width="155" height="42.5143" fill="white"/>
</clipPath>
</defs>
</svg>
