<svg width="25" height="25" viewBox="0 0 25 25" fill="none" xmlns="http://www.w3.org/2000/svg">
<path d="M13.5319 2C13.8406 2 14.1168 2.19215 14.2207 2.47985L14.962 4.5347C15.2277 4.60085 15.4555 4.667 15.6487 4.7363C15.8598 4.8119 16.1317 4.92635 16.4677 5.0828L18.1939 4.1693C18.3348 4.09465 18.4961 4.06771 18.6536 4.09251C18.8111 4.11731 18.9564 4.19252 19.0675 4.30685L20.5858 5.8766C20.7874 6.08555 20.8441 6.3911 20.7307 6.6578L19.9212 8.55515C20.0556 8.8019 20.1627 9.01295 20.2446 9.18935C20.3328 9.3815 20.442 9.6461 20.5722 9.98735L22.459 10.7959C22.7425 10.9166 22.9179 11.2001 22.899 11.5036L22.7604 13.6823C22.7509 13.8238 22.7001 13.9595 22.6142 14.0724C22.5283 14.1853 22.4112 14.2706 22.2774 14.3176L20.4903 14.9528C20.4388 15.1996 20.3853 15.4106 20.3286 15.5891C20.2371 15.8648 20.1327 16.136 20.0157 16.4018L20.9134 18.3863C20.9768 18.5257 20.9938 18.6818 20.9621 18.8316C20.9303 18.9815 20.8515 19.1172 20.737 19.219L19.0297 20.7436C18.9173 20.8435 18.777 20.9068 18.6276 20.9248C18.4782 20.9428 18.3269 20.9147 18.1939 20.8444L16.4341 19.912C16.1588 20.0577 15.8748 20.1864 15.5836 20.2973L14.815 20.585L14.1325 22.475C14.0819 22.6134 13.9907 22.7333 13.8708 22.8189C13.7509 22.9046 13.6078 22.9519 13.4605 22.9549L11.4655 23C11.3143 23.004 11.1655 22.961 11.0397 22.8769C10.9139 22.7929 10.8173 22.6719 10.7631 22.5307L9.95876 20.4023C9.68434 20.3085 9.41263 20.207 9.14396 20.0978C8.92421 20.0027 8.70779 19.9001 8.49506 19.7902L6.50006 20.6428C6.36861 20.6988 6.22369 20.7155 6.08294 20.6907C5.94219 20.6659 5.81169 20.6007 5.70731 20.5031L4.23101 19.1182C4.1211 19.0155 4.04625 18.8809 4.01704 18.7333C3.98783 18.5858 4.00575 18.4328 4.06826 18.296L4.92611 16.427C4.81202 16.2056 4.70625 15.9801 4.60901 15.7508C4.49551 15.4702 4.39046 15.1862 4.29401 14.8993L2.41451 14.327C2.26174 14.2808 2.12849 14.1855 2.03545 14.0558C1.94242 13.9261 1.89481 13.7694 1.90001 13.6099L1.97351 11.5928C1.97875 11.4612 2.01986 11.3335 2.0924 11.2236C2.16495 11.1137 2.26617 11.0257 2.38511 10.9691L4.35701 10.022C4.44836 9.68705 4.52816 9.42665 4.59851 9.2366C4.69757 8.98276 4.80757 8.73333 4.92821 8.489L4.07351 6.683C4.00865 6.54585 3.98895 6.39167 4.01725 6.24262C4.04555 6.09357 4.1204 5.95733 4.23101 5.8535L5.70521 4.4612C5.80856 4.36373 5.93786 4.2982 6.07757 4.2725C6.21728 4.24679 6.36145 4.262 6.49271 4.3163L8.48561 5.1395C8.70611 4.9925 8.90561 4.87385 9.08621 4.7783C9.30146 4.66385 9.58916 4.54415 9.95141 4.415L10.6444 2.48195C10.6956 2.34048 10.7893 2.21828 10.9126 2.13202C11.0359 2.04576 11.1828 1.99966 11.3332 2H13.5319ZM13.0174 3.44585H11.8488L11.2135 5.22455C11.1762 5.32827 11.1157 5.42214 11.0368 5.49908C10.9578 5.57602 10.8625 5.63402 10.7578 5.6687C10.3 5.82095 9.96926 5.9522 9.77606 6.05405C9.57131 6.1622 9.30986 6.32705 8.99906 6.54755C8.89734 6.61894 8.77924 6.66349 8.65571 6.67708C8.53218 6.69066 8.40722 6.67283 8.29241 6.62525L6.37091 5.8325L5.62226 6.5402L6.40241 8.1887C6.44912 8.28678 6.47283 8.39423 6.47174 8.50286C6.47065 8.61148 6.44478 8.71843 6.39611 8.81555C6.18611 9.2366 6.04436 9.5474 5.97296 9.7385C5.86347 10.0566 5.76887 10.3797 5.68946 10.7066C5.66308 10.8089 5.61464 10.9042 5.54753 10.9859C5.48041 11.0675 5.39626 11.1334 5.30096 11.1791L3.42146 12.0811L3.38366 13.1101L5.08466 13.6267C5.31041 13.6949 5.48891 13.8682 5.56346 14.0908C5.73146 14.5948 5.86586 14.9665 5.96246 15.1996C6.09046 15.4954 6.23201 15.7851 6.38666 16.0679C6.43898 16.1652 6.46802 16.2733 6.47148 16.3837C6.47494 16.4941 6.45274 16.6038 6.40661 16.7042L5.61806 18.4241L6.36461 19.1255L8.23571 18.3254C8.3365 18.2823 8.44561 18.2622 8.55513 18.2666C8.66465 18.271 8.77182 18.2997 8.86886 18.3506C9.25211 18.5522 9.53771 18.6919 9.71831 18.7685C9.90206 18.8452 10.2538 18.9733 10.7641 19.1476C10.8654 19.1821 10.9578 19.2387 11.0348 19.3131C11.1118 19.3875 11.1713 19.478 11.2093 19.5781L11.9527 21.5426L12.925 21.5216L13.5519 19.7849C13.5877 19.6858 13.6447 19.5957 13.7189 19.5208C13.793 19.4459 13.8826 19.3881 13.9813 19.3513L15.0702 18.9439C15.3453 18.842 15.6792 18.6814 16.0687 18.4609C16.1765 18.4003 16.2978 18.3678 16.4215 18.3663C16.5451 18.3648 16.6672 18.3945 16.7764 18.4525L18.4323 19.3292L19.3636 18.4987L18.5488 16.7C18.507 16.6077 18.4852 16.5075 18.4851 16.4061C18.4849 16.3047 18.5062 16.2045 18.5478 16.112C18.7389 15.6847 18.868 15.3623 18.9331 15.1565C18.9972 14.9549 19.0633 14.6641 19.1274 14.2903C19.1494 14.1633 19.2049 14.0445 19.2881 13.9461C19.3714 13.8477 19.4793 13.7733 19.6009 13.7306L21.3313 13.1164L21.4069 11.9194L19.7059 11.1907C19.6154 11.1521 19.5336 11.0956 19.4655 11.0244C19.3975 10.9533 19.3446 10.8691 19.3101 10.777C19.1888 10.4423 19.0564 10.1117 18.9132 9.78575C18.7776 9.50197 18.6304 9.22384 18.4722 8.95205C18.4173 8.85603 18.3855 8.74861 18.3791 8.63822C18.3727 8.52782 18.392 8.41745 18.4354 8.31575L19.1967 6.53075L18.3945 5.70125L16.8321 6.52865C16.7301 6.58275 16.6168 6.61217 16.5014 6.61454C16.3859 6.61691 16.2715 6.59217 16.1674 6.5423C15.8358 6.37741 15.4966 6.22815 15.151 6.095C14.8563 5.99604 14.5558 5.91539 14.2512 5.8535C14.1303 5.82787 14.0179 5.77193 13.9246 5.69093C13.8313 5.60993 13.7601 5.50653 13.7178 5.39045L13.0164 3.4448L13.0174 3.44585ZM12.4252 7.92305C14.982 7.92305 17.0557 9.9737 17.0557 12.5021C17.0557 15.0305 14.982 17.0801 12.4252 17.0801C9.86741 17.0801 7.79471 15.0305 7.79471 12.5021C7.79471 9.9737 9.86741 7.9241 12.4252 7.9241V7.92305ZM12.4252 9.36995C10.6749 9.36995 9.25631 10.7717 9.25631 12.5021C9.25631 14.2325 10.6749 15.6353 12.4252 15.6353C14.1745 15.6353 15.5931 14.2325 15.5931 12.5021C15.5931 10.7717 14.1756 9.36995 12.4252 9.36995Z" fill="#333333"/>
</svg>
