<svg width="31" height="36" viewBox="0 0 31 36" fill="none" xmlns="http://www.w3.org/2000/svg">
<g clip-path="url(#clip0_1138_122)">
<path d="M14.1588 17.2548L14.9021 19.118H15.5919L16.2698 17.4291L15.1876 14.0454L14.1588 17.2548Z" fill="#FF9015"/>
<path d="M18.6603 12.4888L16.0141 19.118H26.8486V16.8401C26.575 14.6043 23.0012 12.4226 19.7723 11.5992C19.4333 11.9298 19.0706 12.2363 18.6662 12.4888H18.6603Z" fill="#FF9015"/>
<path d="M15.253 12.9936C18.5354 12.9936 21.2114 10.265 21.2114 6.89925C21.2114 3.53355 18.5414 0.804932 15.253 0.804932C11.9646 0.804932 9.28271 3.53355 9.28271 6.89925C9.28271 10.265 11.9527 12.9936 15.253 12.9936Z" fill="#FF9015"/>
<path d="M29.8456 33.302H0.654361C0.434341 33.302 0.25 33.4883 0.25 33.7167V34.1675C0.25 34.7264 0.695986 35.1952 1.25496 35.1952H29.2569C29.804 35.1952 30.25 34.7264 30.25 34.1675V33.7167C30.25 33.4883 30.0657 33.302 29.8456 33.302Z" fill="#FF9015"/>
<path d="M11.8397 12.4888C11.4353 12.2363 11.0726 11.9298 10.7337 11.5992C7.49878 12.4226 3.94278 14.6043 3.65735 16.8401V19.118H14.4918L11.8457 12.4888H11.8397Z" fill="#FF9015"/>
<path d="M28.1628 20.4101C28.1628 19.9173 27.7703 19.5206 27.3005 19.5206H3.21135C2.72969 19.5206 2.33722 19.9173 2.33722 20.4101V32.9053H28.1628V20.4101ZM15.2589 28.7523C13.9923 28.7523 12.9636 27.7005 12.9636 26.4083C12.9636 25.1161 13.9923 24.0643 15.2589 24.0643C16.5255 24.0643 17.5424 25.1161 17.5424 26.4083C17.5424 27.7005 16.5255 28.7523 15.2589 28.7523Z" fill="#FF9015"/>
</g>
<defs>
<clipPath id="clip0_1138_122">
<rect width="30" height="34.3902" fill="white" transform="translate(0.25 0.804932)"/>
</clipPath>
</defs>
</svg>
