<svg width="20" height="24" viewBox="0 0 20 24" fill="none" xmlns="http://www.w3.org/2000/svg">
<path d="M6.19997 11.3333H5.53331V12.6667H6.19997V11.3333ZM14.2 12.6667H14.8666V11.3333H14.2V12.6667ZM6.19997 7.33333H5.53331V8.66667H6.19997V7.33333ZM8.86664 8.66667H9.53331V7.33333H8.86664V8.66667ZM14.2 2.66667L14.672 2.19467L14.476 2H14.2V2.66667ZM18.2 6.66667H18.8666V6.39067L18.672 6.19467L18.2 6.66667ZM10.2 17.3333L10.4986 17.9293L10.552 17.9027L10.6 17.8667L10.2 17.3333ZM6.19997 12.6667H14.2V11.3333H6.19997V12.6667ZM6.19997 8.66667H8.86664V7.33333H6.19997V8.66667ZM16.8666 20.6667H3.53331V22H16.8666V20.6667ZM2.86664 20V4H1.53331V20H2.86664ZM3.53331 3.33333H14.2V2H3.53331V3.33333ZM17.5333 6.66667V20H18.8666V6.66667H17.5333ZM13.728 3.13867L17.728 7.13867L18.672 6.19467L14.672 2.19467L13.728 3.13867ZM3.53331 20.6667C3.3565 20.6667 3.18693 20.5964 3.0619 20.4714C2.93688 20.3464 2.86664 20.1768 2.86664 20H1.53331C1.53331 20.5304 1.74402 21.0391 2.11909 21.4142C2.49417 21.7893 3.00287 22 3.53331 22V20.6667ZM16.8666 22C17.3971 22 17.9058 21.7893 18.2809 21.4142C18.6559 21.0391 18.8666 20.5304 18.8666 20H17.5333C17.5333 20.1768 17.4631 20.3464 17.338 20.4714C17.213 20.5964 17.0435 20.6667 16.8666 20.6667V22ZM2.86664 4C2.86664 3.82319 2.93688 3.65362 3.0619 3.5286C3.18693 3.40357 3.3565 3.33333 3.53331 3.33333V2C3.00287 2 2.49417 2.21071 2.11909 2.58579C1.74402 2.96086 1.53331 3.46957 1.53331 4H2.86664ZM7.49864 17.544C7.64664 17.1 8.06797 16.688 8.60531 16.544C9.10797 16.4093 9.75464 16.4973 10.3946 17.1387L11.3386 16.1947C10.3786 15.2347 9.24664 14.9907 8.25997 15.256C7.30931 15.512 6.53064 16.2333 6.23331 17.1227L7.49864 17.544ZM10.3946 17.1387C10.4322 17.1751 10.4673 17.2138 10.5 17.2547L11.5533 16.436C11.4868 16.3516 11.4151 16.2715 11.3386 16.196L10.3946 17.1387ZM10.5 17.2547C10.604 17.388 10.58 17.4307 10.584 17.4013C10.5866 17.3827 10.592 17.4133 10.512 17.4853C10.3967 17.5817 10.266 17.6579 10.1253 17.7107C9.9563 17.7787 9.78003 17.827 9.59997 17.8547C9.49013 17.8756 9.3778 17.8801 9.26664 17.868C9.24397 17.8627 9.29064 17.868 9.35997 17.9173C9.445 17.9829 9.50749 18.0734 9.53879 18.1761C9.57009 18.2789 9.56864 18.3888 9.53464 18.4907C9.52708 18.5128 9.51678 18.5338 9.50397 18.5533C9.50131 18.556 9.52397 18.5267 9.59997 18.464C9.75197 18.3413 10.032 18.1627 10.4986 17.9307L9.90131 16.7373C9.39864 16.988 9.02131 17.2173 8.76264 17.4267C8.63146 17.5291 8.51484 17.6488 8.41597 17.7827C8.29023 17.951 8.22451 18.1566 8.22931 18.3667C8.23506 18.4896 8.26866 18.6097 8.32755 18.7178C8.38645 18.8259 8.46911 18.9192 8.56931 18.9907C8.71997 19.1027 8.88664 19.1507 9.00931 19.176C9.25864 19.2253 9.54264 19.212 9.79997 19.1733C10.3066 19.096 10.9626 18.8773 11.4093 18.472C11.6413 18.26 11.8613 17.956 11.908 17.5573C11.956 17.1493 11.8093 16.7667 11.552 16.4373L10.5 17.2547ZM10.6 17.8667C10.8133 17.7035 11.0451 17.5661 11.2906 17.4573L10.7613 16.2333C10.4413 16.372 10.1213 16.56 9.79997 16.8L10.6 17.8667ZM11.2906 17.4573C12.1573 17.0827 12.932 17.28 13.7253 17.6573C13.9253 17.7533 14.12 17.8573 14.3173 17.964C14.5093 18.068 14.712 18.1787 14.904 18.2773C15.272 18.4627 15.728 18.6667 16.2 18.6667V17.3333C16.0746 17.3333 15.8693 17.2707 15.5066 17.088C15.336 17 15.1573 16.9013 14.952 16.7907C14.752 16.6827 14.5306 16.564 14.2986 16.4547C13.368 16.0107 12.1506 15.6333 10.7613 16.2333L11.2906 17.4573Z" fill="#333333"/>
</svg>
