<svg width="22" height="21" viewBox="0 0 22 21" fill="none" xmlns="http://www.w3.org/2000/svg">
<path d="M11.0023 0C4.92362 0 0 3.84634 0 8.58823C0 11.642 2.04282 14.3107 5.1048 15.8421L4.06753 19.6661C4.02677 19.7825 4.05847 19.9078 4.14453 19.9929C4.20342 20.0511 4.28495 20.0825 4.37101 20.0825C4.43895 20.0825 4.50237 20.0556 4.56125 20.0108L9.01832 17.0332C9.66605 17.1227 10.3274 17.1765 10.9977 17.1765C17.0719 17.1765 22 13.3301 22 8.58823C22 3.84634 17.0764 0 11.0023 0ZM5.12292 11.3062C5.12292 11.5032 5.06403 11.6599 4.95079 11.7763C4.83755 11.8972 4.67902 11.9555 4.48878 11.9555C4.33025 11.9555 4.19436 11.9107 4.08565 11.8256C3.97241 11.736 3.90447 11.6196 3.87276 11.4719C3.8637 11.4181 3.85917 11.3644 3.8637 11.3062L3.86823 7.22701H2.66337C2.50031 7.22701 2.35536 7.18671 2.2376 7.11506C2.11983 7.04342 2.04735 6.93596 2.02018 6.79715C2.01112 6.76132 2.00659 6.72103 2.00206 6.67625C2.00206 6.50162 2.06547 6.36729 2.18777 6.27326C2.31007 6.17922 2.4686 6.12549 2.65884 6.12549H6.31872C6.48178 6.12549 6.62672 6.16579 6.74449 6.23743C6.86226 6.31356 6.93926 6.41654 6.96644 6.55535C6.97097 6.59117 6.9755 6.63147 6.9755 6.67177C6.9755 6.85088 6.91209 6.98073 6.79432 7.07924C6.67202 7.17327 6.51802 7.22253 6.32777 7.22253H5.13197L5.12292 11.3062ZM10.3545 11.7898C10.2368 11.9017 10.0964 11.9555 9.93329 11.9555C9.63887 11.9555 9.44863 11.8346 9.36257 11.5972L9.03644 10.6435H6.99815L6.66749 11.5972C6.59049 11.8346 6.40025 11.9555 6.1013 11.9555C5.95182 11.9555 5.82952 11.9196 5.72535 11.8435C5.6257 11.7674 5.55775 11.6599 5.53057 11.5211C5.52152 11.4808 5.51699 11.436 5.51699 11.3868C5.51246 11.3241 5.52604 11.248 5.55322 11.1584C5.57587 11.0689 5.60758 10.9793 5.63928 10.8898L7.27898 6.42998C7.3288 6.28669 7.40581 6.1837 7.50999 6.12549C7.60964 6.0628 7.74099 6.03594 7.89953 6.03594H8.20301C8.36607 6.03594 8.50649 6.06728 8.6152 6.13445C8.72843 6.19713 8.8145 6.32699 8.87791 6.51057L10.4089 10.8898C10.4587 11.0241 10.4904 11.1405 10.5131 11.239C10.5267 11.3017 10.5312 11.3554 10.5357 11.3913C10.5312 11.5435 10.4723 11.6778 10.3545 11.7898ZM14.5851 11.7092C14.4628 11.8032 14.3043 11.8525 14.1141 11.8525H11.4733C11.2786 11.8525 11.12 11.8122 10.9977 11.7316C10.8754 11.6554 10.7939 11.5256 10.7577 11.3465C10.7441 11.2704 10.735 11.1853 10.7305 11.0913V6.67625C10.7305 6.48371 10.7894 6.32251 10.9026 6.20609C11.0159 6.08967 11.1699 6.02698 11.3692 6.02698C11.5277 6.02698 11.6636 6.07176 11.7768 6.15684C11.8855 6.24639 11.958 6.36281 11.9897 6.51057C11.9988 6.56431 12.0033 6.62252 11.9988 6.67625V10.7554H14.1141C14.2817 10.7554 14.4266 10.7913 14.5444 10.8674C14.6576 10.9435 14.7346 11.051 14.7573 11.1853C14.7663 11.2211 14.7708 11.2659 14.7754 11.3062C14.7754 11.4808 14.712 11.6151 14.5851 11.7092ZM19.3457 11.8122C19.2189 11.9107 19.0649 11.9599 18.8837 11.9599C18.7523 11.9599 18.6481 11.9375 18.5666 11.8928C18.4851 11.839 18.4035 11.754 18.3175 11.6196L16.859 9.2957L16.1614 10.0121L16.1705 11.3107C16.1659 11.5077 16.1116 11.6644 15.9984 11.7808C15.8851 11.9017 15.7266 11.9599 15.5318 11.9599C15.3733 11.9599 15.2374 11.9152 15.1242 11.8301C15.0109 11.7405 14.943 11.6241 14.9113 11.4763C14.9022 11.4226 14.8977 11.3689 14.9022 11.3107V6.68073C14.9022 6.48818 14.9611 6.32699 15.0743 6.21057C15.1876 6.09415 15.3416 6.03146 15.5363 6.03146C15.6949 6.03146 15.8308 6.07624 15.9395 6.16131C16.0527 6.25087 16.1207 6.36729 16.1524 6.51505C16.1659 6.56878 16.1705 6.62699 16.1659 6.68073L16.1705 8.57927L18.1589 6.31803C18.2495 6.21952 18.3265 6.15236 18.399 6.1031C18.4715 6.05833 18.5575 6.03146 18.6617 6.03146C18.8021 6.03146 18.929 6.07176 19.0422 6.14788C19.1554 6.224 19.2234 6.32251 19.2551 6.45236C19.2551 6.45684 19.2596 6.47475 19.2642 6.50162C19.2642 6.51953 19.2642 6.54192 19.2687 6.55535C19.2687 6.6449 19.2506 6.7255 19.2098 6.79267C19.169 6.86431 19.1192 6.93148 19.0603 7.00312L17.7603 8.40912L19.3004 10.8181L19.3457 10.8898C19.4499 11.0554 19.5133 11.1719 19.5269 11.2525C19.5269 11.2569 19.5314 11.2748 19.5359 11.2928C19.5359 11.3151 19.5359 11.3241 19.5359 11.3331C19.5359 11.5525 19.4725 11.7137 19.3457 11.8122Z" fill="white"/>
<path d="M8.03107 7.44238L7.28369 9.73944H8.76938L8.04918 7.44238H8.03107Z" fill="white"/>
</svg>
