<svg width="58" height="59" viewBox="0 0 58 59" fill="none" xmlns="http://www.w3.org/2000/svg">
<path d="M14.7666 58.1826H43.0999H14.7666Z" fill="white"/>
<path d="M14.7666 58.1826H43.0999" stroke="#222222" stroke-linecap="round" stroke-linejoin="round"/>
<path d="M0.600098 43.8076V6.43262C0.600098 4.90762 1.19712 3.44509 2.25983 2.36675C3.32253 1.28842 4.76387 0.682617 6.26676 0.682617H51.6001C53.103 0.682617 54.5443 1.28842 55.607 2.36675C56.6697 3.44509 57.2668 4.90762 57.2668 6.43262V43.8076C57.2668 45.3326 56.6697 46.7951 55.607 47.8735C54.5443 48.9518 53.103 49.5576 51.6001 49.5576H6.26676C4.76387 49.5576 3.32253 48.9518 2.25983 47.8735C1.19712 46.7951 0.600098 45.3326 0.600098 43.8076Z" fill="white" stroke="#222222"/>
<path d="M41.096 29.6883C41.726 28.1305 42.068 26.4628 42.068 24.6302C42.068 23.3106 41.87 22.0461 41.528 20.8732C40.358 21.1481 39.134 21.2947 37.856 21.2947C35.2387 21.2976 32.6592 20.6597 30.3348 19.435C28.0103 18.2102 26.0092 16.4344 24.5 14.2573C22.8856 18.2345 19.84 21.4336 15.986 23.2007C15.914 23.6588 15.914 24.1537 15.914 24.6302C15.914 26.3798 16.2525 28.1123 16.9101 29.7288C17.5677 31.3453 18.5317 32.814 19.7468 34.0512C22.2009 36.5498 25.5294 37.9535 29 37.9535C30.89 37.9535 32.708 37.532 34.346 36.7806C35.372 38.7782 35.84 39.7679 35.804 39.7679C32.852 40.7758 30.566 41.2706 29 41.2706C24.644 41.2706 20.486 39.5296 17.426 36.3958C15.5648 34.5066 14.1813 32.1862 13.394 29.6333H11V21.2947H12.962C13.5564 18.3488 14.9231 15.6216 16.9169 13.4026C18.9108 11.1836 21.4575 9.5555 24.2868 8.69113C27.116 7.82676 30.1224 7.75834 32.9868 8.49311C35.8511 9.22788 38.4667 10.7385 40.556 12.8645C42.8244 15.165 44.3717 18.0988 45.002 21.2947H47V29.6333H46.892L40.484 35.6261L30.944 34.5265V31.4659H39.638L41.096 29.6883ZM24.086 24.2086C24.626 24.2086 25.148 24.4286 25.526 24.8317C25.9059 25.2217 26.119 25.7486 26.119 26.2979C26.119 26.8471 25.9059 27.3741 25.526 27.764C25.148 28.1488 24.626 28.3688 24.086 28.3688C22.952 28.3688 22.034 27.4524 22.034 26.2979C22.034 25.1433 22.952 24.2086 24.086 24.2086ZM33.896 24.2086C35.03 24.2086 35.93 25.1433 35.93 26.2979C35.93 27.4524 35.03 28.3688 33.896 28.3688C32.762 28.3688 31.844 27.4524 31.844 26.2979C31.844 25.7438 32.0602 25.2124 32.445 24.8206C32.8298 24.4288 33.3518 24.2086 33.896 24.2086Z" fill="black"/>
</svg>
