<svg width="120" height="106" viewBox="0 0 120 106" fill="none" xmlns="http://www.w3.org/2000/svg">
<path d="M55.6211 79.249C54.4935 79.249 53.359 78.9002 52.3881 78.1838L21.3508 55.2864C18.9169 53.491 18.3917 50.052 20.179 47.6061C21.9656 45.1602 25.3877 44.6324 27.8216 46.4286L54.8613 66.3766L110.46 4.01657C112.475 1.75651 115.932 1.5658 118.181 3.59077C120.43 5.61574 120.62 9.08939 118.605 11.3495L59.696 77.4203C58.6222 78.6249 57.1282 79.2483 55.6218 79.2483L55.6211 79.249Z" fill="#FF4D15"/>
<path d="M103.464 39.3038L99.4793 43.1533C100.122 46.2906 100.46 49.5389 100.46 52.8648C100.46 79.3829 78.9925 100.956 52.6048 100.956C26.2172 100.956 4.74976 79.3829 4.74976 52.8648C4.74976 26.3468 26.2172 4.77324 52.6048 4.77324C65.5865 4.77324 77.377 9.99447 86.007 18.457L89.3815 15.0659C84.6462 10.4106 79.1657 6.74134 73.082 4.15535C66.5946 1.39806 59.705 0 52.6048 0C45.5047 0 38.615 1.39806 32.1277 4.15535C25.8632 6.81832 20.2377 10.6297 15.4072 15.4834C10.5767 20.3378 6.78409 25.991 4.13491 32.2865C1.39118 38.8059 0 45.7289 0 52.8648C0 60.0008 1.39118 66.9238 4.13491 73.4426C6.78478 79.738 10.5774 85.3912 15.4072 90.2456C20.2377 95.1 25.8632 98.9114 32.1277 101.574C38.6143 104.332 45.504 105.73 52.6048 105.73C59.7057 105.73 66.5946 104.332 73.082 101.574C79.3465 98.9114 84.9719 95.1 89.8024 90.2456C94.6329 85.3912 98.4256 79.738 101.075 73.4426C103.819 66.9238 105.21 60.0001 105.21 52.8648C105.21 48.2379 104.624 43.6998 103.465 39.3038H103.464Z" fill="#333333"/>
</svg>
