<svg width="8" height="8" viewBox="0 0 8 8" fill="none" xmlns="http://www.w3.org/2000/svg">
<path d="M5.06364 3.87229C5.19596 4.10542 5.1642 4.42 4.98557 4.65454C4.7818 4.92278 4.4563 5.01687 4.13741 4.90031C3.85557 4.79779 3.77883 4.87924 3.69811 4.96631C3.66503 5.00283 3.60946 5.11799 3.63195 5.23175C3.66371 5.39887 3.84895 5.51262 3.99847 5.57863C4.53701 5.81738 5.41825 5.75839 6.0772 5.06603C6.28097 4.85256 6.37094 4.6419 6.45695 4.43826C6.52973 4.26693 6.59985 4.10542 6.72688 3.972C6.93197 3.75713 7.19 3.64478 7.45331 3.65742C7.6412 3.66585 7.81851 3.73606 7.96803 3.85684C7.73779 2.28954 6.41858 2.14629 5.99251 2.14208L5.99913 2.13225C5.99913 2.13225 6.03485 0.108514 4.1599 0.00318473C2.59193 -0.0852921 1.7226 1.68565 1.68555 3.333C2.84333 2.87377 4.57803 3.01842 5.06364 3.87229Z" fill="#757575"/>
<path d="M7.87427 4.24191C7.64536 3.95682 7.25767 3.91048 6.95995 4.22225C6.7575 4.43432 6.73104 4.8753 6.31027 5.31628C5.52033 6.14487 4.47633 6.17155 3.87164 5.90331C3.0817 5.55362 3.27488 4.92164 3.46277 4.71941C3.63347 4.53543 3.84517 4.42308 4.24478 4.56773C4.6457 4.71379 4.91298 4.28685 4.77934 4.05373C4.45252 3.47933 2.93482 3.15351 1.70426 3.70403C1.695 3.70824 1.68574 3.71246 1.67515 3.71807C0.465761 4.27281 0 5.42863 0 5.42863C0.804496 5.09157 1.50975 5.8036 2.12768 6.29654C2.74561 6.79089 3.57657 7.37512 4.79787 7.33158C6.01784 7.28664 6.91761 6.5058 7.28281 6.07746C7.59773 5.7067 8.10318 4.96939 7.98145 4.4624C7.96293 4.38235 7.92852 4.30792 7.8756 4.24191H7.87427Z" fill="#757575"/>
</svg>
