<svg width="18" height="21" viewBox="0 0 18 21" fill="none" xmlns="http://www.w3.org/2000/svg">
<g clip-path="url(#clip0_457_35789)">
<path d="M14.1561 13.44H4.15096C3.98343 13.44 3.83452 13.5144 3.72283 13.6354L1.4612 16.2786C1.11683 16.6789 0.465332 16.4369 0.465332 15.9157V1.46168C0.465332 1.20108 0.558403 0.940484 0.716625 0.754342C0.874846 0.568199 1.09822 0.46582 1.32159 0.46582H14.1561C14.3795 0.46582 14.6029 0.568199 14.7611 0.754342C14.9193 0.940484 15.0124 1.19178 15.0124 1.46168V12.4348C15.0124 12.6954 14.9193 12.956 14.7611 13.1421C14.6029 13.3283 14.3795 13.4307 14.1561 13.4307V13.44Z" stroke="#333333" stroke-miterlimit="10"/>
<path d="M5.73322 2.4668C4.98865 2.4668 4.393 2.66225 3.93695 3.05315C3.4902 3.46266 3.27614 4.0304 3.28545 4.8122V4.84012H4.94212C4.94212 4.54229 5.02588 4.30961 5.1841 4.15139C5.34232 4.00247 5.53777 3.91871 5.74253 3.91871C6.00313 3.91871 6.2265 4.02109 6.38472 4.19792C6.53364 4.38407 6.60809 4.64467 6.60809 4.94249C6.60809 5.25894 6.55225 5.52884 6.41264 5.76152C6.29165 5.9942 6.11482 6.18965 5.89144 6.34787C5.45401 6.68293 5.15618 6.98076 4.99796 7.25066C4.83043 7.51126 4.73736 7.93009 4.73736 8.42336H6.44057C6.44057 8.11623 6.47779 7.86494 6.55225 7.6881C6.62671 7.51126 6.77562 7.33443 6.98969 7.17621C7.37128 6.93422 7.68772 6.6457 7.93901 6.2548C8.19031 5.85459 8.3113 5.45439 8.3113 4.9518C8.3113 4.19792 8.07862 3.59296 7.62257 3.14622C7.16652 2.69948 6.55225 2.4668 5.76115 2.4668H5.73322Z" fill="#333333"/>
<path d="M6.42196 9.41895H4.71875V11.4014H6.42196V9.41895Z" fill="#333333"/>
<path d="M11.5313 9.41895H9.82812V11.4014H11.5313V9.41895Z" fill="#333333"/>
<path d="M11.5313 2.4668H9.82812V8.42336H11.5313V2.4668Z" fill="#333333"/>
<path d="M17.9999 7.03642V20.0013C17.9999 20.3456 17.5718 20.5038 17.3484 20.2432L14.5749 17.0137H5.15606C4.93269 17.0137 4.70932 16.9113 4.5511 16.7251C4.39288 16.539 4.2998 16.2877 4.2998 16.0178V15.0219H16.2781V6.03125H17.1343C17.3577 6.03125 17.5811 6.13363 17.7393 6.31977C17.8975 6.50591 17.9906 6.75721 17.9906 7.02711L17.9999 7.03642Z" fill="#333333"/>
</g>
<defs>
<clipPath id="clip0_457_35789">
<rect width="18" height="20.3733" fill="white"/>
</clipPath>
</defs>
</svg>
