<svg width="18" height="16" viewBox="0 0 18 16" fill="none" xmlns="http://www.w3.org/2000/svg">
<path d="M11.3937 8.20483C11.6914 8.6988 11.6199 9.36536 11.218 9.8623C10.7595 10.4307 10.0272 10.63 9.30966 10.3831C8.67552 10.1658 8.50284 10.3384 8.32124 10.5229C8.24681 10.6003 8.12177 10.8443 8.17238 11.0853C8.24383 11.4394 8.66063 11.6805 8.99705 11.8203C10.2088 12.3262 12.1916 12.2012 13.6742 10.7342C14.1327 10.2819 14.3351 9.83552 14.5286 9.40404C14.6924 9.04101 14.8502 8.6988 15.136 8.41611C15.5974 7.96082 16.178 7.72277 16.7704 7.74955C17.1932 7.7674 17.5921 7.91619 17.9286 8.1721C17.4105 4.8512 14.4423 4.54768 13.4836 4.53876L13.4985 4.51793C13.4985 4.51793 13.5789 0.229926 9.36027 0.00674798C5.83233 -0.180722 3.87633 3.57165 3.79297 7.06216C6.39799 6.0891 10.3011 6.3956 11.3937 8.20483Z" fill="black" fill-opacity="0.5"/>
<path d="M17.7171 8.98669C17.2021 8.38262 16.3298 8.28442 15.6599 8.94502C15.2044 9.39436 15.1448 10.3287 14.1981 11.2631C12.4207 13.0188 10.0718 13.0753 8.71119 12.5069C6.93382 11.766 7.36848 10.4269 7.79124 9.99843C8.1753 9.60861 8.65164 9.37055 9.55075 9.67705C10.4528 9.98652 11.0542 9.08191 10.7535 8.58794C10.0182 7.37087 6.60335 6.68051 3.83459 7.84699C3.81375 7.85591 3.79291 7.86484 3.76909 7.87674C1.04796 9.05215 0 11.5012 0 11.5012C1.81012 10.787 3.39695 12.2957 4.78728 13.3401C6.17762 14.3876 8.04728 15.6255 10.7952 15.5332C13.5401 15.438 15.5646 13.7835 16.3863 12.8759C17.0949 12.0904 18.2322 10.5281 17.9583 9.45387C17.9166 9.28426 17.8392 9.12654 17.7201 8.98669H17.7171Z" fill="black" fill-opacity="0.5"/>
</svg>
