<svg width="18" height="18" viewBox="0 0 18 18" fill="none" xmlns="http://www.w3.org/2000/svg">
<g clip-path="url(#clip0_457_35780)">
<path d="M3.61145 9.9558C3.45695 9.9558 3.32175 9.82061 3.32175 9.65645V6.16074C3.32175 6.07383 3.20587 3.6307 4.77025 1.90216C5.76489 0.801297 7.18441 0.241211 8.99986 0.241211C9.15437 0.241211 9.28956 0.376404 9.28956 0.540567C9.28956 0.70473 9.16403 0.839923 8.99986 0.839923C7.34858 0.839923 6.06424 1.33241 5.19514 2.29808C3.80459 3.84314 3.90115 6.11246 3.90115 6.13177V9.63713C3.90115 9.8013 3.77562 9.93649 3.61145 9.93649V9.9558Z" fill="#333333" stroke="#333333" stroke-width="0.5" stroke-miterlimit="10"/>
<path d="M14.3881 9.95591C14.2336 9.95591 14.0984 9.82072 14.0984 9.65656V6.16085C14.0984 6.16085 14.1949 3.85291 12.8044 2.30784C11.9256 1.34218 10.6509 0.849689 8.99966 0.849689C8.84515 0.849689 8.70996 0.714496 8.70996 0.550333C8.70996 0.38617 8.8355 0.250977 8.99966 0.250977C10.8151 0.250977 12.2346 0.811062 13.2293 1.90226C14.7937 3.64046 14.6874 6.07394 14.6778 6.18016V9.65656C14.6778 9.82072 14.5522 9.95591 14.3881 9.95591Z" fill="#333333" stroke="#333333" stroke-width="0.5" stroke-miterlimit="10"/>
<path d="M14.3981 12.8723C14.2436 12.8723 14.1084 12.7371 14.1084 12.5729V6.0933C14.1084 5.92914 14.2339 5.79395 14.3981 5.79395C16.2522 5.79395 17.7683 7.38729 17.7683 9.33794C17.7683 11.2886 16.2618 12.8819 14.3981 12.8819V12.8723ZM14.6878 6.40231V12.2542C16.0977 12.0997 17.1889 10.8444 17.1889 9.32828C17.1889 7.81219 16.088 6.55682 14.6878 6.40231Z" fill="#333333" stroke="#333333" stroke-width="0.5" stroke-miterlimit="10"/>
<path d="M3.61138 12.8722C1.75731 12.8722 0.241211 11.2788 0.241211 9.32817C0.241211 7.37753 1.74765 5.78418 3.61138 5.78418C3.76589 5.78418 3.90108 5.91937 3.90108 6.08354V12.5632C3.90108 12.7273 3.77555 12.8625 3.61138 12.8625V12.8722ZM3.32168 6.40221C1.91181 6.55671 0.82061 7.81208 0.82061 9.32817C0.82061 10.8443 1.92147 12.0996 3.32168 12.2541V6.40221Z" fill="#333333" stroke="#333333" stroke-width="0.5" stroke-miterlimit="10"/>
<path d="M12.1579 16.6292C12.0614 16.6292 11.9648 16.5809 11.9165 16.4843C11.8296 16.3395 11.8682 16.156 12.0034 16.0691C13.9734 14.7558 14.0989 12.3416 14.0989 12.3126C14.0989 12.1485 14.2438 12.0133 14.3983 12.0229C14.5528 12.0229 14.6783 12.1678 14.6687 12.3416C14.6687 12.4575 14.5238 15.1034 12.3028 16.5809C12.2545 16.6099 12.2062 16.6292 12.1483 16.6292H12.1579Z" fill="#333333" stroke="#333333" stroke-width="0.5" stroke-miterlimit="10"/>
<path d="M11.1247 17.759H8.59461C7.89933 17.759 7.32959 17.1603 7.32959 16.4264C7.32959 15.6925 7.89933 15.0938 8.59461 15.0938H11.1247C11.8199 15.0938 12.3897 15.6925 12.3897 16.4264C12.3897 17.1603 11.8199 17.759 11.1247 17.759Z" fill="#333333" stroke="#333333" stroke-width="0.5" stroke-miterlimit="10"/>
</g>
<defs>
<clipPath id="clip0_457_35780">
<rect width="18" height="18" fill="white"/>
</clipPath>
</defs>
</svg>
