<svg width="125" height="34" viewBox="0 0 125 34" fill="none" xmlns="http://www.w3.org/2000/svg">
<g clip-path="url(#clip0_860_184)">
<path d="M63.9941 5.80159V28.9674C63.9941 28.9674 64.0006 29.0195 64.0071 29.0521C64.0653 30.1199 64.9322 30.9663 66.0061 30.9663C67.08 30.9663 68.0181 30.0613 68.0181 28.9414C68.0181 28.9414 68.0181 28.9414 68.0181 28.9349V5.81461C68.0181 5.81461 68.0181 5.81461 68.0181 5.8081C68.0181 4.68822 67.1188 3.7832 66.0061 3.7832C64.8934 3.7832 63.9941 4.68822 63.9941 5.8081" fill="#808080"/>
<mask id="mask0_860_184" style="mask-type:luminance" maskUnits="userSpaceOnUse" x="63" y="3" width="6" height="28">
<path d="M63.9941 5.80159V28.9674C63.9941 28.9674 64.0006 29.0195 64.0071 29.0521C64.0653 30.1199 64.9322 30.9663 66.0061 30.9663C67.08 30.9663 68.0181 30.0613 68.0181 28.9414C68.0181 28.9414 68.0181 28.9414 68.0181 28.9349V5.81461C68.0181 5.81461 68.0181 5.81461 68.0181 5.8081C68.0181 4.68822 67.1188 3.7832 66.0061 3.7832C64.8934 3.7832 63.9941 4.68822 63.9941 5.8081" fill="white"/>
</mask>
<g mask="url(#mask0_860_184)">
<path d="M68.0181 3.7832H63.9941V30.9728H68.0181V3.7832Z" fill="#808080"/>
</g>
<path d="M77.9548 5.45605C77.9548 5.45605 77.9483 5.45605 77.9418 5.45605C77.0426 5.45605 76.318 6.18528 76.318 7.08378C76.318 7.98229 77.0491 8.71151 77.9418 8.71151H77.9483H88.1245H90.1494V11.1401H78.44C78.44 11.1401 78.427 11.1401 78.4205 11.1401C78.1488 11.1401 77.9095 11.1791 77.696 11.2443C77.366 11.3419 77.0879 11.4917 76.8873 11.7261C76.5444 12.1167 76.3762 12.6571 76.3762 13.3408V16.5702C76.3762 16.5702 76.3762 16.6093 76.3762 16.6288V17.8528C76.3762 18.5365 76.5444 19.0769 76.8873 19.4675C77.0879 19.7019 77.366 19.8582 77.696 19.9494C77.9224 20.0145 78.1618 20.0535 78.4464 20.0535H79.8438C79.8438 20.0535 79.8956 20.06 79.9279 20.06H83.279V22.697H74.6813C74.6813 22.697 74.6619 22.697 74.6489 22.697C73.7044 22.697 72.9346 23.4652 72.9346 24.4158C72.9346 25.3664 73.7044 26.1347 74.6489 26.1347H96.2435C96.347 26.1347 96.4311 26.1217 96.5152 26.1022C97.3368 25.9785 97.9643 25.2753 97.9643 24.4093C97.9643 23.4587 97.1945 22.6904 96.25 22.6904C96.2435 22.6904 96.2306 22.6904 96.2176 22.6904H87.2964V20.0535H93.2676C93.3776 20.0535 93.4746 20.0405 93.5652 20.021C94.3415 19.8973 94.9302 19.2332 94.9302 18.4193C94.9302 17.5208 94.2057 16.7916 93.3064 16.7916C93.2741 16.7916 93.2482 16.7981 93.2159 16.8046H80.7107C80.5554 16.8046 80.439 16.772 80.3613 16.7004C80.2837 16.6288 80.2449 16.4921 80.2449 16.2772V14.4021H85.8408L91.9608 14.3955C92.6595 14.3955 93.177 14.2002 93.5199 13.8096C93.8563 13.4189 94.031 12.8785 94.031 12.1949V6.76475C94.0245 6.33503 93.9016 6.00948 93.6687 5.79462C93.4682 5.60581 93.19 5.52116 92.86 5.48861C92.7889 5.48861 92.7371 5.46257 92.666 5.46257H77.9612L77.9548 5.45605Z" fill="#808080"/>
<mask id="mask1_860_184" style="mask-type:luminance" maskUnits="userSpaceOnUse" x="72" y="5" width="26" height="22">
<path d="M77.9548 5.45605C77.9548 5.45605 77.9483 5.45605 77.9418 5.45605C77.0426 5.45605 76.318 6.18528 76.318 7.08378C76.318 7.98229 77.0491 8.71151 77.9418 8.71151H77.9483H88.1245H90.1494V11.1401H78.44C78.44 11.1401 78.427 11.1401 78.4205 11.1401C78.1488 11.1401 77.9095 11.1791 77.696 11.2443C77.366 11.3419 77.0879 11.4917 76.8873 11.7261C76.5444 12.1167 76.3762 12.6571 76.3762 13.3408V16.5702C76.3762 16.5702 76.3762 16.6093 76.3762 16.6288V17.8528C76.3762 18.5365 76.5444 19.0769 76.8873 19.4675C77.0879 19.7019 77.366 19.8582 77.696 19.9494C77.9224 20.0145 78.1618 20.0535 78.4464 20.0535H79.8438C79.8438 20.0535 79.8956 20.06 79.9279 20.06H83.279V22.697H74.6813C74.6813 22.697 74.6619 22.697 74.6489 22.697C73.7044 22.697 72.9346 23.4652 72.9346 24.4158C72.9346 25.3664 73.7044 26.1347 74.6489 26.1347H96.2435C96.347 26.1347 96.4311 26.1217 96.5152 26.1022C97.3368 25.9785 97.9643 25.2753 97.9643 24.4093C97.9643 23.4587 97.1945 22.6904 96.25 22.6904C96.2435 22.6904 96.2306 22.6904 96.2176 22.6904H87.2964V20.0535H93.2676C93.3776 20.0535 93.4746 20.0405 93.5652 20.021C94.3415 19.8973 94.9302 19.2332 94.9302 18.4193C94.9302 17.5208 94.2057 16.7916 93.3064 16.7916C93.2741 16.7916 93.2482 16.7981 93.2159 16.8046H80.7107C80.5554 16.8046 80.439 16.772 80.3613 16.7004C80.2837 16.6288 80.2449 16.4921 80.2449 16.2772V14.4021H85.8408L91.9608 14.3955C92.6595 14.3955 93.177 14.2002 93.5199 13.8096C93.8563 13.4189 94.031 12.8785 94.031 12.1949V6.76475C94.0245 6.33503 93.9016 6.00948 93.6687 5.79462C93.4682 5.60581 93.19 5.52116 92.86 5.48861C92.7889 5.48861 92.7371 5.46257 92.666 5.46257H77.9612L77.9548 5.45605Z" fill="white"/>
</mask>
<g mask="url(#mask1_860_184)">
<path d="M97.964 5.45605H72.9277V26.1412H97.964V5.45605Z" fill="#808080"/>
</g>
<path d="M107.559 27.6841C107.481 27.6255 107.442 27.4888 107.442 27.2739V25.1709H117.353V27.7752H107.908C107.753 27.7752 107.636 27.7427 107.559 27.6906M123.363 16.9736C123.363 16.9736 123.357 16.9736 123.35 16.9736H101.62C101.62 16.9736 101.607 16.9736 101.594 16.9736C100.714 16.9736 99.9961 17.6898 99.9961 18.5753C99.9961 19.4608 100.714 20.177 101.594 20.177H110.386V21.987H105.566C104.958 21.987 104.492 22.1433 104.156 22.4363C104.104 22.4819 104.046 22.5209 104.001 22.573C103.697 22.9246 103.535 23.3999 103.502 23.9859C103.502 24.051 103.49 24.1161 103.49 24.1877V28.7844C103.49 29.4681 103.658 30.0085 104.001 30.3991C104.046 30.4512 104.104 30.4903 104.156 30.5359C104.492 30.8289 104.958 30.9851 105.566 30.9851H119.223C119.831 30.9851 120.29 30.8289 120.627 30.5359C120.678 30.4903 120.737 30.4512 120.782 30.3991C121.105 30.028 121.267 29.5267 121.287 28.8951C121.287 28.8561 121.293 28.8235 121.293 28.7844V28.7584L121.287 24.1877C121.287 23.5041 121.118 22.9637 120.776 22.573C120.439 22.1824 119.915 21.987 119.216 21.987H114.416V20.177H123.357C123.357 20.177 123.376 20.177 123.383 20.177C123.389 20.177 123.396 20.177 123.409 20.177C124.288 20.177 125.006 19.4608 125.006 18.5753C125.006 17.6898 124.288 16.9736 123.409 16.9736C123.396 16.9736 123.383 16.9736 123.37 16.9736" fill="#808080"/>
<mask id="mask2_860_184" style="mask-type:luminance" maskUnits="userSpaceOnUse" x="99" y="16" width="27" height="15">
<path d="M107.559 27.6841C107.481 27.6255 107.442 27.4888 107.442 27.2739V25.1709H117.353V27.7752H107.908C107.753 27.7752 107.636 27.7427 107.559 27.6906M123.363 16.9736C123.363 16.9736 123.357 16.9736 123.35 16.9736H101.62C101.62 16.9736 101.607 16.9736 101.594 16.9736C100.714 16.9736 99.9961 17.6898 99.9961 18.5753C99.9961 19.4608 100.714 20.177 101.594 20.177H110.386V21.987H105.566C104.958 21.987 104.492 22.1433 104.156 22.4363C104.104 22.4819 104.046 22.5209 104.001 22.573C103.697 22.9246 103.535 23.3999 103.502 23.9859C103.502 24.051 103.49 24.1161 103.49 24.1877V28.7844C103.49 29.4681 103.658 30.0085 104.001 30.3991C104.046 30.4512 104.104 30.4903 104.156 30.5359C104.492 30.8289 104.958 30.9851 105.566 30.9851H119.223C119.831 30.9851 120.29 30.8289 120.627 30.5359C120.678 30.4903 120.737 30.4512 120.782 30.3991C121.105 30.028 121.267 29.5267 121.287 28.8951C121.287 28.8561 121.293 28.8235 121.293 28.7844V28.7584L121.287 24.1877C121.287 23.5041 121.118 22.9637 120.776 22.573C120.439 22.1824 119.915 21.987 119.216 21.987H114.416V20.177H123.357C123.357 20.177 123.376 20.177 123.383 20.177C123.389 20.177 123.396 20.177 123.409 20.177C124.288 20.177 125.006 19.4608 125.006 18.5753C125.006 17.6898 124.288 16.9736 123.409 16.9736C123.396 16.9736 123.383 16.9736 123.37 16.9736" fill="white"/>
</mask>
<g mask="url(#mask2_860_184)">
<path d="M125 16.9609H99.9961V30.9659H125V16.9609Z" fill="#808080"/>
</g>
<path d="M49.4964 13.6992C49.4964 11.3683 51.3725 9.47358 53.6949 9.47358C56.0174 9.47358 57.8935 11.3617 57.8935 13.6992C57.8935 16.0366 56.0174 17.9247 53.6949 17.9247C51.3725 17.9247 49.4964 16.0366 49.4964 13.6992ZM45.9512 13.6992C45.9512 18.0029 49.4123 21.4862 53.6885 21.4862C57.9647 21.4862 61.4258 17.9964 61.4258 13.6992C61.4258 9.40196 57.9582 5.91211 53.6885 5.91211C49.4187 5.91211 45.9512 9.39545 45.9512 13.6992Z" fill="#808080"/>
<mask id="mask3_860_184" style="mask-type:luminance" maskUnits="userSpaceOnUse" x="45" y="5" width="17" height="17">
<path d="M49.4964 13.6992C49.4964 11.3683 51.3725 9.47358 53.6949 9.47358C56.0174 9.47358 57.8935 11.3617 57.8935 13.6992C57.8935 16.0366 56.0174 17.9247 53.6949 17.9247C51.3725 17.9247 49.4964 16.0366 49.4964 13.6992ZM45.9512 13.6992C45.9512 18.0029 49.4123 21.4862 53.6885 21.4862C57.9647 21.4862 61.4258 17.9964 61.4258 13.6992C61.4258 9.40196 57.9582 5.91211 53.6885 5.91211C49.4187 5.91211 45.9512 9.39545 45.9512 13.6992Z" fill="white"/>
</mask>
<g mask="url(#mask3_860_184)">
<path d="M61.4258 5.91211H45.9512V21.4927H61.4258V5.91211Z" fill="#808080"/>
</g>
<path d="M109.402 9.53858C109.402 7.89132 110.728 6.55007 112.365 6.55007C114.002 6.55007 115.335 7.88481 115.335 9.53858C115.335 11.1924 114.008 12.5271 112.365 12.5271C110.722 12.5271 109.402 11.1924 109.402 9.53858ZM105.902 9.53858C105.902 13.1326 108.794 16.0495 112.372 16.0495C115.949 16.0495 118.841 13.1326 118.841 9.53858C118.841 5.94456 115.943 3.03418 112.372 3.03418C108.801 3.03418 105.902 5.94456 105.902 9.53858Z" fill="#808080"/>
<mask id="mask4_860_184" style="mask-type:luminance" maskUnits="userSpaceOnUse" x="105" y="3" width="14" height="14">
<path d="M109.402 9.53858C109.402 7.89132 110.728 6.55007 112.365 6.55007C114.002 6.55007 115.335 7.88481 115.335 9.53858C115.335 11.1924 114.008 12.5271 112.365 12.5271C110.722 12.5271 109.402 11.1924 109.402 9.53858ZM105.902 9.53858C105.902 13.1326 108.794 16.0495 112.372 16.0495C115.949 16.0495 118.841 13.1326 118.841 9.53858C118.841 5.94456 115.943 3.03418 112.372 3.03418C108.801 3.03418 105.902 5.94456 105.902 9.53858Z" fill="white"/>
</mask>
<g mask="url(#mask4_860_184)">
<path d="M118.834 3.02734H105.902V16.0427H118.834V3.02734Z" fill="#808080"/>
</g>
<path d="M24.7583 17.9504C25.4053 19.0312 25.25 20.4896 24.3766 21.577C23.3804 22.8205 21.7954 23.2568 20.2298 22.7164C18.8519 22.2411 18.4766 22.6187 18.082 23.0224C17.9138 23.1917 17.6486 23.7256 17.7585 24.2529C17.9138 25.0277 18.8195 25.5551 19.5505 25.8611C22.1835 26.968 26.4921 26.6945 29.7138 23.4847C30.7101 22.495 31.15 21.5184 31.5705 20.5743C31.9263 19.7799 32.2692 19.0312 32.8903 18.4127C33.893 17.4165 35.1545 16.8956 36.4419 16.9542C37.3606 16.9933 38.2274 17.3188 38.9585 17.8788C37.8328 10.6126 31.3829 9.94847 29.2998 9.92894L29.3321 9.88336C29.3321 9.88336 29.5068 0.50113 20.3398 0.0128116C12.6737 -0.397376 8.42333 7.81289 8.24219 15.4502C13.9028 13.3211 22.3841 13.9917 24.7583 17.9439" fill="#808080"/>
<path d="M39.0229 20.685C38.9323 20.3138 38.7641 19.9688 38.5053 19.6628C37.3861 18.341 35.4906 18.1262 34.035 19.5716C33.0388 20.5548 32.9158 22.5992 30.8586 24.6436C26.9964 28.485 21.8921 28.6088 18.9357 27.3652C15.0735 25.744 16.018 22.814 16.9367 21.8765C17.7712 21.0235 18.7998 20.5027 20.76 21.1733C22.7137 21.8504 24.027 19.8711 23.3736 18.7903C21.7757 16.1273 14.3554 14.6168 8.33894 17.1691C8.29366 17.1886 8.24837 17.2081 8.19662 17.2342C2.2772 19.806 0 25.1645 0 25.1645C3.93334 23.6019 7.38148 26.9029 10.4027 29.1882C13.4238 31.4801 17.4865 34.1886 23.4577 33.9868C29.4224 33.7784 33.8216 30.1584 35.6071 28.1725C37.1468 26.4536 39.6181 23.0354 39.0293 20.685" fill="#808080"/>
</g>
<defs>
<clipPath id="clip0_860_184">
<rect width="125" height="34" fill="white"/>
</clipPath>
</defs>
</svg>
