<svg width="20" height="21" viewBox="0 0 20 21" fill="none" xmlns="http://www.w3.org/2000/svg">
<path d="M15.7832 14.4179L20 18.6337L18.6069 20.0269L14.3911 15.8101C12.8224 17.0675 10.8713 17.7515 8.86088 17.7486C3.96968 17.7486 0 13.7789 0 8.88774C0 3.99653 3.96968 0.0268555 8.86088 0.0268555C13.7521 0.0268555 17.7218 3.99653 17.7218 8.88774C17.7246 10.8982 17.0407 12.8493 15.7832 14.4179ZM13.8082 13.6874C15.0577 12.4024 15.7555 10.68 15.7527 8.88774C15.7527 5.07953 12.6681 1.99594 8.86088 1.99594C5.05267 1.99594 1.96909 5.07953 1.96909 8.88774C1.96909 12.695 5.05267 15.7795 8.86088 15.7795C10.6532 15.7824 12.3756 15.0846 13.6605 13.8351L13.8082 13.6874Z" fill="black"/>
</svg>
