<svg width="35" height="10" viewBox="0 0 35 10" fill="none" xmlns="http://www.w3.org/2000/svg">
<path d="M21.9512 9.19141L20.0723 2.29785H21.9766L23.0557 6.95703H23.1191L24.249 2.29785H26.1152L27.2578 6.93164H27.3213L28.3877 2.29785H30.292L28.4004 9.19141H26.4199L25.2266 4.81152H25.1377L23.9443 9.19141H21.9512Z" fill="#FF6B00"/>
<path d="M16.3018 9.33105C14.1943 9.33105 12.8994 7.95996 12.8994 5.77637C12.8994 3.64355 14.207 2.20898 16.2256 2.20898C18.041 2.20898 19.4629 3.35156 19.4629 5.7002V6.2334H14.7529C14.7529 7.27441 15.375 7.92188 16.3398 7.92188C16.9746 7.92188 17.4316 7.64258 17.6221 7.22363H19.4121C19.1455 8.49316 18.0029 9.33105 16.3018 9.33105ZM14.7529 5.05273H17.6855C17.6855 4.21484 17.1016 3.61816 16.2637 3.61816C15.4004 3.61816 14.7847 4.25928 14.7529 5.05273Z" fill="#FF6B00"/>
<path d="M11.668 0V9.19141H10.0176L5.98047 3.35156H5.9043V9.19141H4V0H5.67578L9.6875 5.83984H9.77637V0H11.668Z" fill="#FF6B00"/>
</svg>
