<?xml version="1.0" encoding="utf-8"?>
<!-- Generator: Adobe Illustrator 27.1.1, SVG Export Plug-In . SVG Version: 6.00 Build 0)  -->
<svg version="1.1" id="레이어_1" xmlns="http://www.w3.org/2000/svg" xmlns:xlink="http://www.w3.org/1999/xlink" x="0px"
	 y="0px" viewBox="0 0 148 148" style="enable-background:new 0 0 148 148;" xml:space="preserve">
<style type="text/css">
	.st0{clip-path:url(#SVGID_00000158019917164410829760000008405916795365562812_);}
	.st1{fill:#FF9015;}
	.st2{fill:#1C3E58;}
	.st3{clip-path:url(#SVGID_00000119103235029596900940000002403938706694562466_);}
	.st4{fill:none;stroke:#FF9015;stroke-width:2.5;stroke-miterlimit:10;}
	.st5{fill:#FFFFFF;}
	.st6{fill:#333333;}
</style>
<g>
	<defs>
		<rect id="SVGID_1_" x="20" y="38.5" width="115" height="109"/>
	</defs>
	<clipPath id="SVGID_00000014603338068826901840000004404674531810732990_">
		<use xlink:href="#SVGID_1_"  style="overflow:visible;"/>
	</clipPath>
	<g style="clip-path:url(#SVGID_00000014603338068826901840000004404674531810732990_);">
		<path class="st1" d="M38,89.2l13.2,2.6L50.7,96l5.6,21.5l-9.7,4.4l-14.1-4.7l3.7-8.9l1.4-7.5c-1.6-3.1-1.8-6.7-0.3-9.8L38,89.2
			L38,89.2z"/>
		<path class="st1" d="M107.1,115.8h6.2l5.9,13.3l5.2-1.4l-6.3-17.9c-0.5-2.2-2.1-3.6-4.9-3.4l-1.8,2.2l-2.1,0.6l-3.5-1.2l2.6-4.9
			l-7.6-4.6L98,88L95,82.9l-5-1.3l-3.8-2.3l-2.1,5.8l-1.5,11l0.7,9.8c2.1-0.8,3.9-1.2,6.3-1.2C98.4,104.8,104.8,109.3,107.1,115.8
			L107.1,115.8z"/>
		<path class="st1" d="M39.1,88.1l2.4-4v-2.2c-3.6-4.5-5.1-10.3-4.4-16l0.4-3.6l9.6,2.1l2.6,1.8c2.3,1.4,3.4,4.1,2.8,6.8l-1,4.2
			l-3-3.2l-4.1,3.5l6.9,7.6l0.2,7.1l-5,0.4l-8.5-2.7L39.1,88.1L39.1,88.1z"/>
		<path d="M90.4,107.7h-1.2v12.7h1.2V107.7z"/>
		<path d="M90.4,127.6h-1.2v11.7h1.2V127.6z"/>
		<path d="M86.6,123.3h-13v1.2h13V123.3z"/>
		<path d="M105.3,123.3h-12v1.2h12V123.3z"/>
		<path d="M87.3,125.8l-9,8.9l0.8,0.8l9-8.9L87.3,125.8z"/>
		<path d="M100.9,112.3l-8.5,8.5l0.8,0.8l8.5-8.5L100.9,112.3z"/>
		<path d="M92.6,126.1l-0.8,0.8l8.6,8.6l0.8-0.8L92.6,126.1z"/>
		<path d="M78.5,112.1l-0.8,0.8l9,8.9l0.8-0.8L78.5,112.1z"/>
		<path d="M58.9,141.7c-0.7-0.2-1.7-0.8-2-2.9c-0.2-1.4-0.5-2.7-1-3.9l-4.3-11l1.1-0.4l4.3,11c0.5,1.3,0.8,2.6,1.1,4.1
			c0.1,0.6,0.3,1.7,1,1.9L58.9,141.7L58.9,141.7z"/>
		<path d="M32.7,141.7c-1.8-1.4-0.9-3.8-0.6-4.6c0-0.1,0-0.1,0.1-0.2l3.3-15.6l1.2,0.2l-3.3,15.6c0,0,0,0.1-0.1,0.3
			c-0.4,1.1-0.8,2.5,0.2,3.3L32.7,141.7L32.7,141.7z"/>
		<path d="M52.2,77.7H51c0-0.5,0.2-1.4,0.4-2.4c0.4-1.8,1-4.2,0.6-5.6c-0.2-0.7-1.2-1.6-2.3-2.4c-2.1-1.7-4.8-3.8-4.4-7.4l1.2,0.1
			c-0.3,3,2,4.8,4,6.4c1.3,1,2.4,1.9,2.7,3c0.5,1.7-0.1,4.2-0.5,6.2C52.4,76.5,52.2,77.3,52.2,77.7L52.2,77.7z"/>
		<path class="st2" d="M43,51.5l-0.2-1.2c5.6-1,8-7.7,8-7.8l1.1,0.4C51.9,43.2,49.3,50.3,43,51.5L43,51.5z"/>
		<path d="M43.5,63.8l-8.9-1.4l-0.1-0.4c-0.1-0.5-3.6-13.1,2-19.7c2.5-2.9,7-5,11.7-3.2c5.2,2.1,6.3,8.6,6.2,11.7
			c-0.2,3.9-1.5,8.4-4.9,8.9c-0.6,0.1-1,0-1.6-0.1c-1.6-0.3-2.4-0.9-3.4-1.6l0.7-0.9c0.9,0.7,1.6,1.2,2.9,1.4
			c0.5,0.1,0.8,0.1,1.2,0.1c2.6-0.4,3.7-4.3,3.9-7.8c0.1-3.3-1.2-8.8-5.5-10.6c-4.1-1.7-8.1,0.2-10.3,2.9
			c-4.7,5.5-2.4,16.2-1.9,18.3l6.2,1c-0.7-2.2-2-8.1,0.2-14l1.1,0.4c-2.5,7,0.1,14,0.1,14.1L43.5,63.8L43.5,63.8z"/>
		<path d="M135,140.6H20v1.2h115V140.6z"/>
		<path d="M117.3,136c-1.1,0-2-0.9-2-2c0-1.1,0.9-2,2-2s2,0.9,2,2C119.3,135.1,118.4,136,117.3,136z M117.3,133.2
			c-0.5,0-0.8,0.4-0.8,0.8c0,0.5,0.4,0.8,0.8,0.8c0.5,0,0.8-0.4,0.8-0.8C118.1,133.6,117.8,133.2,117.3,133.2z"/>
		<path d="M44.3,146.3h-5.1v1.2h5.1V146.3z"/>
		<path d="M112.9,146.3H49.7v1.2h63.2V146.3z"/>
		<path d="M48.1,92.6c-3.6,0-7.2-1-10.3-2.9l0.6-1c3.9,2.4,8.4,3.2,12.8,2.5l0.2,1.2C50.2,92.5,49.1,92.6,48.1,92.6z"/>
		<path d="M65.3,91.2c-0.2,0-0.4,0-0.6,0c-11.5-1.9-20.8-9.9-24.3-21l1.1-0.4C45,80.5,53.9,88.2,65,90c0.1,0,0.2,0,0.4,0
			c1.1,0,2-0.8,2.2-1.9c0.2-1.2-0.6-2.4-1.9-2.6c-8.9-1.5-17.1-7.8-19.4-15.1l1.1-0.4c2.2,6.8,10.1,12.9,18.5,14.3
			c1.9,0.3,3.1,2.1,2.8,3.9C68.5,90,67,91.2,65.3,91.2L65.3,91.2z"/>
		<path d="M46.7,122.5l-15.2-5l4.1-9.6l1.3-6.3c0.1-0.6,0-1.3-0.2-1.8c-0.6-1.2-1.2-3.2-0.8-6.3c0.1-1.1,0.4-1.9,0.9-3.1
			c1-2.4,2-3.6,2.8-4.5c0.6-0.7,1-1.2,1.3-2.1c0.5-1.4,0-2.1-0.9-3.5c-0.9-1.4-2.1-3.3-2.9-6.8c-0.6-2.8-0.8-8.2-0.2-11.3l1.2,0.2
			c-0.6,3-0.4,8.2,0.2,10.8c0.7,3.3,1.9,5.1,2.8,6.4c0.9,1.5,1.7,2.6,1,4.5c-0.4,1.1-0.9,1.7-1.5,2.5c-0.8,0.9-1.7,2-2.6,4.2
			c-0.5,1.2-0.7,1.8-0.9,2.8c-0.4,2.9,0.3,4.8,0.7,5.6c0.4,0.8,0.5,1.6,0.3,2.5l-1.3,6.5l-3.7,8.4l13.5,4.5l9.5-4.1l0.5,1.1
			L46.7,122.5L46.7,122.5z"/>
		<path d="M44.4,141.4c-0.6-1.6-2-2.3-4.7-3.3c-0.4-0.2-0.9-0.4-1.2-0.6c-1.3-0.8-1.9-2.5-1.4-3.9l10.5-30.2
			c2.2-5.4,3.5-12.2,3.5-18.3h1.2c0,6.2-1.3,13.2-3.5,18.7L38.3,134c-0.3,1,0,2.1,0.9,2.6c0.3,0.2,0.6,0.3,1,0.5
			c2.5,0.9,4.6,1.8,5.4,4L44.4,141.4L44.4,141.4z"/>
		<path d="M69,141.3c-0.4-1.4-2.3-2.6-5.2-3.2c-0.1,0-0.1,0-0.1,0c-2.4-0.7-3.2-2.9-3.7-4.8l-9.8-37.3l1.1-0.3l9.8,37.3
			c0.5,2,1.2,3.5,3,4h0.1c2,0.5,5.4,1.6,6,4L69,141.3L69,141.3z"/>
		<path d="M89.5,139.9c-9,0-16.4-7.3-16.4-16.4s7.3-16.4,16.4-16.4s16.4,7.3,16.4,16.4S98.5,139.9,89.5,139.9z M89.5,108.3
			c-8.4,0-15.2,6.8-15.2,15.2s6.8,15.2,15.2,15.2s15.2-6.8,15.2-15.2S97.9,108.3,89.5,108.3z"/>
		<path d="M117.3,139.9c-3.2,0-5.9-2.6-5.9-5.8c0-3.2,2.6-5.8,5.9-5.8c3.2,0,5.8,2.6,5.8,5.8C123.1,137.2,120.5,139.9,117.3,139.9z
			 M117.3,129.3c-2.6,0-4.7,2.1-4.7,4.7s2.1,4.7,4.7,4.7c2.6,0,4.7-2.1,4.7-4.7S119.9,129.3,117.3,129.3z"/>
		<path d="M89.9,127.8c-2.2,0-4-1.8-4-3.9c0-2.2,1.8-3.9,4-3.9c2.2,0,4,1.8,4,3.9C93.9,126.1,92.1,127.8,89.9,127.8z M89.9,121.1
			c-1.5,0-2.8,1.2-2.8,2.8c0,1.5,1.2,2.8,2.8,2.8s2.8-1.2,2.8-2.8C92.7,122.3,91.5,121.1,89.9,121.1z"/>
		<path d="M109.7,110c-0.5,0-0.9-0.1-1.4-0.3c-3.2-1.2-7.3-3.3-10.3-5.2c-1.3-0.9-2.4-2.1-3.1-3.5l-3.3-6.5l1-0.5l3.3,6.5
			c0.6,1.2,1.6,2.3,2.7,3c2.9,1.9,6.9,3.9,10.1,5.1c1.2,0.5,2.6,0,3.2-1.2c0.2-0.3,0.2-0.7,0.1-1.1c-0.2-0.7-1-1.4-2.1-2
			c-0.6-0.3-1.3-0.6-2-1c-2.6-1.2-5.5-2.6-7.3-4.2c-0.7-0.6-1.1-2.2-1.8-5.3c-1-3.9-2.3-9.2-4.4-10.9l-0.9-0.5l0.2-2.7L95,80
			l-0.2,1.9l0.3,0.2c2.5,1.9,3.8,7.3,4.9,11.6c0.5,2,1.1,4.3,1.5,4.7c1.7,1.5,4.5,2.9,7,4c0.7,0.3,1.4,0.7,2,1
			c1.4,0.7,2.4,1.7,2.7,2.7c0.2,0.7,0.1,1.4-0.2,2C112.3,109.3,111.1,110,109.7,110L109.7,110z"/>
		<path d="M79.8,108.5l-4.7-17.3c-0.5-1.8-2.1-3-4-3h-3V87h3c2.4,0,4.5,1.6,5.1,3.9l4.7,17.3L79.8,108.5z"/>
		<path d="M114.8,127.1l-3.4-7.4h-5.2v-1.2h6l3.7,8L114.8,127.1z"/>
		<path d="M83.2,106.6l-0.1-1c-0.4-3.4-1.1-8.6-0.7-12.6c0.5-6.8,2.5-11.8,3.3-13.7l0.3-0.6l0.6,0.4c0.2,0.1,0.5,0.3,0.8,0.5
			c0.9,0.6,2.1,1.4,3.2,1.7c1.7,0.5,3.1,0.6,4.1,0.6v1.2c-1.1,0-2.6-0.1-4.5-0.7c-1.3-0.4-2.6-1.2-3.5-1.9c-0.1,0-0.1-0.1-0.2-0.1
			c-0.9,2.2-2.4,6.8-2.9,12.7c-0.3,3.9,0.3,9,0.7,12.4l0.1,1L83.2,106.6L83.2,106.6z"/>
		<path d="M95.4,79.4c0,0-0.3,0-0.4,0c-1-0.1-2-0.4-2.9-1l0.6-1c0.7,0.5,1.5,0.7,2.3,0.8c0.6,0,1.2,0,1.8-0.2
			c0.4-0.1,0.7-0.5,0.8-0.9c0-0.2,0.1-0.4,0.1-0.6c0.2-0.9,0.4-1.6,0.5-3c0.1-2.3,0-4.5-0.5-6.8l1.2-0.2c0.5,2.3,0.7,4.7,0.5,7.1
			c-0.1,1.4-0.3,2.2-0.5,3.2c0,0.2-0.1,0.4-0.1,0.6c-0.2,0.8-0.8,1.5-1.6,1.7C96.6,79.3,96,79.4,95.4,79.4L95.4,79.4z"/>
		<path d="M89.6,73.8h-3.3v-1.2h2.1v-3.1l0.3-1.4c0.3-1.3,1.6-2.1,2.9-1.8c0.6,0.1,1.1,0.2,1.7,0.2c2.2,0,4.1-0.5,4.8-0.9l0.6,1
			c-0.9,0.5-3.1,1.1-5.4,1.1c-0.7,0-1.3-0.1-1.9-0.2c-0.7-0.1-1.3,0.3-1.5,0.9l-0.3,1.3L89.6,73.8L89.6,73.8z"/>
		<path d="M86.8,79.6l-1.1-0.3c0,0,0.5-2,0.3-4.5c-0.2-2.5-1.4-5.4-1.5-5.5c-0.4-0.9-1.1-3.1-0.1-5.6c0.2-0.4,0.7-1.8,2-2.8
			c1.3-1,2.9-1.5,4.8-1.4c1.3,0.1,2.1,0.4,2.9,0.8c0.7,0.3,1.4,0.6,2.4,0.8c1.1,0.1,2.2,0,3.3-0.4l0.5-0.2l0.2,0.5
			c0.2,0.6,0.7,2.1,0,3.7c-0.6,1.5-2.1,2.4-4,2.6l-0.2-1.2c0,0,0,0,0.1,0c0.9-0.1,2.5-0.5,3.1-1.9c0.4-0.9,0.3-1.8,0.2-2.3
			c-1.1,0.3-2.1,0.3-3.2,0.2c-1.3-0.1-2.1-0.5-2.8-0.9c-0.7-0.3-1.4-0.6-2.4-0.7c-0.6,0-2.4-0.1-4,1.2c-1.1,0.9-1.5,1.9-1.6,2.3
			c-0.8,2.1-0.2,4,0.1,4.7c0.1,0.1,1.3,3.2,1.5,5.8C87.4,77.3,86.8,79.5,86.8,79.6L86.8,79.6z"/>
		<path d="M108.1,102.9l-2.6,5l1,0.5l2.6-5L108.1,102.9z"/>
		<path d="M133,134.1h-9V133h7.8v-0.4c0-2.3-1.9-4.1-4.2-4.1H124l-7-19.4c-0.4-1.2-1.6-1.9-2.8-1.9h-1.6V106h1.6
			c1.7-0.1,3.4,1,3.9,2.7l6.7,18.6h2.8c2.9,0,5.3,2.4,5.3,5.3L133,134.1L133,134.1z"/>
	</g>
</g>
<g>
	<defs>
		<rect id="SVGID_00000076600052791879249950000016128367507306866842_" y="0.5" width="148" height="59"/>
	</defs>
	<clipPath id="SVGID_00000080165001366355096070000018119493734790776451_">
		<use xlink:href="#SVGID_00000076600052791879249950000016128367507306866842_"  style="overflow:visible;"/>
	</clipPath>
	<g style="clip-path:url(#SVGID_00000080165001366355096070000018119493734790776451_);">
		<path class="st4" d="M107.9,1.9H16.8C8.3,1.9,1.4,8.7,1.4,17.2v1.1c0,8.4,6.9,15.3,15.4,15.3h91.1c8.5,0,15.4-6.8,15.4-15.3v-1.1
			C123.4,8.7,116.5,1.9,107.9,1.9z"/>
		<path class="st5" d="M112.1,49.7c12.4,0,22.4-9.9,22.4-22.2s-10-22.2-22.4-22.2c-12.4,0-22.4,9.9-22.4,22.2S99.8,49.7,112.1,49.7z
			"/>
		<path class="st1" d="M147.9,55.6c-0.2,0.7-0.5,1.3-1,1.8l-0.7,0.8c-1.5,1.7-4.2,1.9-5.9,0.3l-13.9-11.9c-1.1,0.1-2.2-0.2-3-0.9
			l-1.6-1.4l1-1.1l1.6,1.4c0.6,0.5,1.3,0.7,2.1,0.5c0.2-0.1,0.4,0,0.6,0.2l14.2,12.2c1.2,1,2.9,0.9,3.9-0.2l0.7-0.8
			c0.5-0.6,0.7-1.2,0.7-2c-0.1-0.7-0.4-1.4-0.9-1.9l-14.2-12.3c-0.2-0.1-0.3-0.4-0.3-0.6c0.1-0.8-0.2-1.5-0.8-1.9l-1.1-0.9l1-1.1
			l1.1,0.9c0.8,0.7,1.3,1.7,1.3,2.8l14,12.1c0.8,0.8,1.3,1.8,1.4,2.9C148,54.8,148,55.2,147.9,55.6L147.9,55.6z"/>
		<path class="st1" d="M131.2,32c-0.3,1.1-0.6,2.1-1,3.2c-4.3,10.1-16.1,14.9-26.3,10.7c-10.2-4.2-15.1-15.9-10.8-26
			c4.3-10.1,16.1-14.9,26.3-10.7C128.5,12.9,133.4,22.7,131.2,32z M93.5,23.3c-2,8.6,2.5,17.7,11,21.2c9.5,3.9,20.4-0.5,24.4-9.9
			c4-9.4-0.5-20.2-10-24.2c-9.5-3.9-20.4,0.5-24.4,9.9C94,21.3,93.7,22.3,93.5,23.3L93.5,23.3z"/>
		<path class="st1" d="M131.4,39.7l-2.5,3l1.1,0.9l2.5-3L131.4,39.7z"/>
		<path d="M117.3,14.5l-0.6,1.3c-6.4-2.6-13.8,0.4-16.5,6.7c-2.7,6.3,0.4,13.6,6.8,16.3l-0.6,1.3C99.4,37.2,96,29,99,22
			C102,14.9,110.2,11.6,117.3,14.5z"/>
		<path d="M125.5,30.6c-0.2,0.7-0.4,1.4-0.7,2.1l-1.3-0.6c0.3-0.6,0.5-1.3,0.6-1.9L125.5,30.6L125.5,30.6z M125.9,28.3l-1.4-0.1
			c0.1-0.7,0.1-1.3,0-2l1.4-0.1C125.9,26.8,126,27.6,125.9,28.3L125.9,28.3z M125.5,23.9l-1.4,0.4c-0.2-0.6-0.4-1.3-0.7-1.9l1.3-0.6
			C125,22.4,125.3,23.1,125.5,23.9L125.5,23.9z M123.6,19.8l-1.2,0.8c-0.4-0.6-0.8-1.1-1.2-1.6l1.1-0.9
			C122.8,18.6,123.2,19.1,123.6,19.8L123.6,19.8z M120.6,16.4l-0.9,1.1c-0.5-0.4-1.1-0.8-1.7-1.1l0.7-1.3
			C119.4,15.6,120,16,120.6,16.4z"/>
		<path class="st6" d="M23.8,12.4v0.7c0,1.8-2.2,3.3-4.5,3.7l0.5,0.9c2.6-0.4,5.1-2.2,5.1-4.6v-0.7H23.8z M24,12.4v0.7
			c0,2.4,2.5,4.2,5.1,4.6l0.5-0.9c-2.3-0.4-4.5-1.9-4.5-3.7v-0.7H24z M23.8,19.8v4.8H25v-4.8H23.8z M18.7,19.1v1h11.4v-1H18.7z
			 M33.1,19.2v5.2h8.5v-5.2h-1.2v1.7h-6.2v-1.7H33.1z M34.2,21.8h6.2v1.7h-6.2V21.8z M33,12.5v1h8.1v-1H33z M31.6,17.1v1H43v-1H31.6
			z M40.4,12.5v0.9c0,1,0,2.2-0.4,3.9l1.2,0c0.4-1.7,0.4-2.9,0.4-3.9v-0.9H40.4z M47.6,13.7v2.1c0,2.1-1.5,4.6-3.3,5.4l0.7,0.9
			c2-1,3.6-3.7,3.6-6.4v-2.1H47.6z M47.8,13.7v2.1c0,2.5,1.5,5.1,3.5,6l0.7-0.9c-1.8-0.9-3.3-3.1-3.3-5.1v-2.1H47.8z M44.7,13.2v1
			h6.8v-1H44.7z M53,11.9v12.7h1.2V11.9H53z M53.9,17v1h2.4v-1H53.9z M61,22v1h11.5v-1H61z M66.2,18.9v3.4h1.1v-3.4H66.2z
			 M66.2,13.5v0.8c0,2-2.4,3.8-4.6,4.1l0.5,0.9c2.5-0.5,5.1-2.5,5.1-5.1v-0.8H66.2z M66.4,13.5v0.8c0,2.6,2.6,4.5,5.1,5l0.5-0.9
			c-2.2-0.4-4.6-2.1-4.6-4.1v-0.8H66.4z M62,13.1v1h9.6v-1H62z M77.5,19.5v2.1h1.2v-2.1H77.5z M83.1,11.9v12.7h1.2V11.9H83.1z
			 M74.1,22.2c2.3,0,5.4,0,8.2-0.5l-0.1-0.9c-2.7,0.4-5.9,0.4-8.3,0.4L74.1,22.2z M74.3,13.5v0.9h7.7v-0.9H74.3z M78.1,15.1
			c-1.8,0-3,0.9-3,2.3c0,1.4,1.2,2.3,3,2.3c1.8,0,3.1-0.9,3.1-2.3C81.1,16.1,79.9,15.1,78.1,15.1z M78.1,16c1.1,0,1.9,0.6,1.9,1.4
			s-0.8,1.4-1.9,1.4c-1.1,0-1.9-0.6-1.9-1.4S77,16,78.1,16z M77.5,11.9V14h1.2v-2.1H77.5z"/>
	</g>
</g>
</svg>
