<?xml version="1.0" encoding="utf-8"?>
<!-- Generator: Adobe Illustrator 27.1.1, SVG Export Plug-In . SVG Version: 6.00 Build 0)  -->
<svg version="1.1" id="레이어_1" xmlns="http://www.w3.org/2000/svg" xmlns:xlink="http://www.w3.org/1999/xlink" x="0px"
	 y="0px" viewBox="0 0 200 160" style="enable-background:new 0 0 200 160;" xml:space="preserve">
<style type="text/css">
	.st0{clip-path:url(#SVGID_00000048498207063868921810000007687662785694154425_);}
	.st1{opacity:0.2;fill:#0046AB;enable-background:new    ;}
	.st2{fill:#01223F;}
	.st3{fill:#01447D;}
	.st4{fill:#FF9015;}
	.st5{fill:url(#SVGID_00000098197448646868210390000002054418828257053859_);}
	.st6{fill:url(#SVGID_00000148635333146505613430000001612145961203742345_);}
	.st7{fill:url(#SVGID_00000132802810153260053730000004854793427282733709_);}
	.st8{fill:url(#SVGID_00000044152205818016536350000013216781574899311780_);}
	.st9{fill:url(#SVGID_00000041257789740862100680000006414550960159715718_);}
	.st10{fill:#F8B62D;}
	.st11{fill:url(#SVGID_00000062888154090307157810000000003164883491858365_);}
	.st12{fill:url(#SVGID_00000127752404304421572990000001309082616457509022_);}
	.st13{fill:url(#SVGID_00000095332951391499244350000017148432230867161218_);}
	.st14{fill:url(#SVGID_00000084501500894295307500000018414638325606432939_);}
	.st15{fill:url(#SVGID_00000157989636426211013580000004671541065759065479_);}
	.st16{fill:url(#SVGID_00000171704401985021503660000013759324540695265177_);}
	.st17{fill:url(#SVGID_00000169547236129913586240000015720753626941039546_);}
</style>
<g>
	<defs>
		<rect id="SVGID_1_" x="44.5" y="1.5" width="115" height="157"/>
	</defs>
	<clipPath id="SVGID_00000121271229495457434950000005374691748519846057_">
		<use xlink:href="#SVGID_1_"  style="overflow:visible;"/>
	</clipPath>
	<g style="clip-path:url(#SVGID_00000121271229495457434950000005374691748519846057_);">
		<path class="st1" d="M51.2,134.9c9-5.4,23.7-5.3,32.7,0.1c9.1,5.4,9.1,14.1,0.1,19.5c-9,5.4-23.7,5.3-32.7-0.1
			C42.3,149,42.2,140.3,51.2,134.9z"/>
		<path class="st2" d="M74.1,147.6c2.6-1.8,14-5.1,11.6,0.1c-2.4,5.2-13.9,9.2-15.4,7.3c-1.5-1.9-0.3-4-0.3-4S71.5,149.3,74.1,147.6
			z"/>
		<path class="st2" d="M58.8,138.2c2.6-1.8,14-5.1,11.6,0.1c-2.4,5.2-13.9,9.2-15.4,7.3c-1.5-1.9-0.3-4-0.3-4S56.2,139.9,58.8,138.2
			z"/>
		<path class="st3" d="M78.8,122.7c0,0-1.6,24.9-1.6,26.6c0,3.8-6.1,4.3-6.3,2.7c-0.2-1.6-2-32.1-2-32.1L67.1,95l-2.1-0.2l-0.3,19.8
			c0,0-3,20.6-3.1,23.6c-0.2,3-6.1,5.1-6.1,2.6c0-2.5-1.8-61.2-1.8-61.2L78.9,85L78.8,122.7L78.8,122.7z"/>
		<path class="st4" d="M56.8,35.4c4.1-2.1,20.4,6.6,20.4,6.6c0,5.2,1.7,42.9,1.7,42.9s-2.1,2-9.4,2s-15.7-6.6-15.7-6.6
			s-1.4-18.5-1.2-29.3S52.7,37.6,56.8,35.4L56.8,35.4z"/>
		
			<linearGradient id="SVGID_00000092431626352603651000000003483786539411047851_" gradientUnits="userSpaceOnUse" x1="100.8289" y1="106.8219" x2="93.5077" y2="106.8219" gradientTransform="matrix(1 0 0 -1 0 161)">
			<stop  offset="0" style="stop-color:#FFE2C4"/>
			<stop  offset="1" style="stop-color:#FFB870"/>
		</linearGradient>
		<path style="fill:url(#SVGID_00000092431626352603651000000003483786539411047851_);" d="M94.7,50c0.7-0.1,0.8,1.3,0.8,1.3
			s0.3-0.3,0.9-2c0.6-1.7,2-2.9,3.3-1.1c1.7,2.4,1.6,4.1-0.4,7.5c-2.1,3.7-3.3,5.4-3.3,5.4l-2.5-3.5c0,0,0-1.6,0.3-4.4
			C94,50.2,94,50.1,94.7,50L94.7,50z"/>
		<path class="st4" d="M97.6,59.3c-3,5.7-11.1,12.6-11.1,12.6c-4,2.3-5.2-4.9-5.2-4.9s11.3-11.4,12.1-12
			C95.7,54.9,98.1,58.4,97.6,59.3L97.6,59.3z"/>
		<path class="st4" d="M74.5,42.4c3.1-1.1,6.5,1.4,8.9,9.9c1.3,4.6,3.7,11,4,14.9c0.3,3.4-1.1,4.7-2.3,5.1
			c-2.6,1-8.4-11.2-10.1-16.8C73.7,51.4,71.4,43.6,74.5,42.4L74.5,42.4z"/>
		
			<linearGradient id="SVGID_00000103966745151186203530000009236661558544093877_" gradientUnits="userSpaceOnUse" x1="70.1597" y1="127.5113" x2="62.5906" y2="127.5113" gradientTransform="matrix(1 0 0 -1 0 161)">
			<stop  offset="0" style="stop-color:#FFE2C4"/>
			<stop  offset="1" style="stop-color:#FFB870"/>
		</linearGradient>
		<path style="fill:url(#SVGID_00000103966745151186203530000009236661558544093877_);" d="M69.9,30c0.5,2.1,0.3,6.9-0.4,8.4
			c-4.1,1.5-6.9-2-6.9-2v-8C62.6,28.3,69.4,27.9,69.9,30L69.9,30z"/>
		
			<linearGradient id="SVGID_00000074432383142587944910000018191710975727760829_" gradientUnits="userSpaceOnUse" x1="77.1996" y1="135.6838" x2="60.7764" y2="135.6838" gradientTransform="matrix(1 0 0 -1 0 161)">
			<stop  offset="0" style="stop-color:#FFE2C4"/>
			<stop  offset="1" style="stop-color:#FFB870"/>
		</linearGradient>
		<path style="fill:url(#SVGID_00000074432383142587944910000018191710975727760829_);" d="M77.1,21.5c0,0,1.3,13-5.7,14.3
			c-7,1.3-10.4-4.7-10.6-11.2C60.1,16.4,74.8,8.5,77.1,21.5L77.1,21.5z"/>
		<path class="st3" d="M71,14.1c2.3,0.4,4.6,1.9,6.2,1.3c3.8-1.4,2.1,4.7,0.5,6.6c-2.2,2.6-6.9,4.4-6,9c0,0-3.2,4.3-6.8,4.3
			c-3.6,0-5.4-9-5.4-11.6C59.5,21.1,61.9,12.7,71,14.1L71,14.1z"/>
		
			<linearGradient id="SVGID_00000034805781427811986920000001522138811040025733_" gradientUnits="userSpaceOnUse" x1="73.8518" y1="132.7318" x2="70.359" y2="132.7318" gradientTransform="matrix(1 0 0 -1 0 161)">
			<stop  offset="0" style="stop-color:#FFE2C4"/>
			<stop  offset="1" style="stop-color:#FFB870"/>
		</linearGradient>
		<path style="fill:url(#SVGID_00000034805781427811986920000001522138811040025733_);" d="M73.3,27.3c1.4,2.3-0.3,4.6-1.2,3.6
			c-1-1-2.5-2.8-1.2-4.9C72.1,24,73.3,27.3,73.3,27.3z"/>
		<path class="st1" d="M119.9,118.3c9-5.4,23.7-5.3,32.7,0.1c9.1,5.4,9.1,14.1,0.1,19.5c-9,5.4-23.7,5.3-32.7-0.1
			C110.9,132.4,110.9,123.7,119.9,118.3z"/>
		<path class="st2" d="M146.7,121.3c0,0,1.9-0.6,3,1c1.2,1.6-5.1,10.2-8.4,11.1c-4.4,1.2,0.2-7.6,2.1-9.4
			C145.2,122.2,146.7,121.3,146.7,121.3L146.7,121.3z"/>
		<path class="st2" d="M123.9,124.7c2.4-0.8,4.1-1,4.1-1s1.9,0.3,2.3,2.2c0.4,1.9-9.4,6.3-12.2,6.3
			C114.3,132.3,121.5,125.5,123.9,124.7L123.9,124.7z"/>
		<path class="st3" d="M131.3,1.5c6.3,0,7.4,4.4,8.9,10.4c1.5,5.9,6,3.7,7.5,7.7c1.4,4-1.5,7.6-0.2,10.2c1.3,2.6,7,2.5,7.9,6.9
			c0.9,4.4-5.3,13.6-10.4,12.7c-5.1-0.9-16.6-11.1-16.6-14.6s-6.9-25-6.9-25C121.4,5.9,125,1.5,131.3,1.5L131.3,1.5z"/>
		
			<linearGradient id="SVGID_00000134945632981813193740000002745066254687396506_" gradientUnits="userSpaceOnUse" x1="124.278" y1="108.0122" x2="113.6691" y2="108.0122" gradientTransform="matrix(1 0 0 -1 0 161)">
			<stop  offset="0" style="stop-color:#FFE2C4"/>
			<stop  offset="1" style="stop-color:#FFB870"/>
		</linearGradient>
		<path style="fill:url(#SVGID_00000134945632981813193740000002745066254687396506_);" d="M114.9,53.3c1.2-0.8,1.4-1.1,1.4-1.1
			s-1.1,0.2-1.2-0.4c-0.1-0.6,0.1-0.6,2.3-1.4c2.2-0.8,3.5-1.1,3.5-1.1l3.3,1.4c0,0-0.8,1.8-3.7,3.8c-2.9,2.1-4.2,2.5-5.9,1.8
			C113,55.6,113.7,54.1,114.9,53.3L114.9,53.3z"/>
		<path class="st10" d="M129.7,40.4l8.4-6.7c0,0,2.4,4.4-0.3,7.8c0,0-10.6,10-16.1,12c-0.9,0.3-3.2-1.9-2.8-4.1
			C119.6,48.9,129.7,40.4,129.7,40.4L129.7,40.4z"/>
		
			<linearGradient id="SVGID_00000072246595386456362280000008337993355614469051_" gradientUnits="userSpaceOnUse" x1="147.4951" y1="50.759" x2="129.1602" y2="50.759" gradientTransform="matrix(1 0 0 -1 0 161)">
			<stop  offset="0" style="stop-color:#FFE2C4"/>
			<stop  offset="1" style="stop-color:#FFB870"/>
		</linearGradient>
		<path style="fill:url(#SVGID_00000072246595386456362280000008337993355614469051_);" d="M147.5,122.5c0,0-1.1,2.3-3.3,1.6
			c-1.5-2.8-15-25.8-15-25.8l6.3-2.1L147.5,122.5z"/>
		
			<linearGradient id="SVGID_00000140707668842714675840000006587999967667772039_" gradientUnits="userSpaceOnUse" x1="128.2699" y1="50.4237" x2="121.6951" y2="50.4237" gradientTransform="matrix(1 0 0 -1 0 161)">
			<stop  offset="0" style="stop-color:#FFE2C4"/>
			<stop  offset="1" style="stop-color:#FFB870"/>
		</linearGradient>
		<path style="fill:url(#SVGID_00000140707668842714675840000006587999967667772039_);" d="M128.3,125.2c0,0-1.9,1.6-3.6,0
			c-0.2-3.2-2.9-30-2.9-30l6.6,0.9V125.2z"/>
		<path class="st3" d="M138.5,56.3c0,0,2.2,1.7,2.9,7.3c0.7,5.6-1.6,14.6-1.7,22.1c-0.1,7.5,4.4,9.5,4.4,9.5s-6.5,5-11,5
			c-4.5,0-9,0.2-12.1-1.4c-1.8-9,1-41,1-41L138.5,56.3L138.5,56.3z"/>
		<path class="st4" d="M125.8,23.6c2.6-0.6,11.5,4.1,14,5.4c6,3.1,2.4,7.1-0.3,14.9c-0.7,2.2-1.1,13.6-1.1,13.6s0.8,1-4.8,1
			c-5.6,0-11.6-0.7-11.6-0.7l-1-14.4c-3.3-5.4,0.5-11.7,0.6-12.8C121.6,29.5,123.2,24.2,125.8,23.6L125.8,23.6z"/>
		<path class="st4" d="M139.1,29.7c2.9-1.2,4.1,1.1,6.8,7.8c2.1,5,5,13.5,2.5,14.5c-1.1,0.5-2.7,4.2-4.5,1.6
			c-2.1-3.1-2.5-9.2-4.3-13.3C136.3,32.8,136.3,30.9,139.1,29.7L139.1,29.7z"/>
		
			<linearGradient id="SVGID_00000016036033337431553830000000918244269860640166_" gradientUnits="userSpaceOnUse" x1="140.6542" y1="98.3467" x2="131.7352" y2="100.025" gradientTransform="matrix(1 0 0 -1 0 161)">
			<stop  offset="0" style="stop-color:#FFE2C4"/>
			<stop  offset="1" style="stop-color:#FFB870"/>
		</linearGradient>
		<path style="fill:url(#SVGID_00000016036033337431553830000000918244269860640166_);" d="M133.6,61.1c0,0-1.1,0.3-1.2-0.3
			c-0.1-0.6,0-0.6,2.2-1.6c2.2-1,3.4-1.4,3.4-1.4l3.4,1.1c0,0-0.7,1.8-3.4,4.2c-2.7,2.3-3.9,2.9-5.7,2.3c-1.8-0.6-1.2-2.1,0-3.1
			C133.4,61.4,133.6,61.1,133.6,61.1L133.6,61.1z"/>
		<path class="st4" d="M147,47.5c0,0,4,2,1.6,5.7c0,0-4.1,6.3-9.5,8.8c-0.9,0.4-3.4-1.6-3.2-3.8c0.6-0.7,8-10.2,8-10.2L147,47.5
			L147,47.5z"/>
		
			<linearGradient id="SVGID_00000130617535197457516830000009960039377391026066_" gradientUnits="userSpaceOnUse" x1="135.6567" y1="136.7165" x2="128.0287" y2="136.7165" gradientTransform="matrix(1 0 0 -1 0 161)">
			<stop  offset="0" style="stop-color:#FFE2C4"/>
			<stop  offset="1" style="stop-color:#FFB870"/>
		</linearGradient>
		<path style="fill:url(#SVGID_00000130617535197457516830000009960039377391026066_);" d="M135.7,19.4v7.5c0,0-1.3,2.8-4.3,2.1
			c-3.1-0.6-3.6-4.3-3.2-6.3C128.6,20.8,135.7,19.4,135.7,19.4z"/>
		
			<linearGradient id="SVGID_00000059287190176633893020000008254908262426520747_" gradientUnits="userSpaceOnUse" x1="137.3689" y1="146.2572" x2="121.9311" y2="146.2572" gradientTransform="matrix(1 0 0 -1 0 161)">
			<stop  offset="0" style="stop-color:#FFE2C4"/>
			<stop  offset="1" style="stop-color:#FFB870"/>
		</linearGradient>
		<path style="fill:url(#SVGID_00000059287190176633893020000008254908262426520747_);" d="M137.4,14.1c-0.2,6.1-3.4,11.7-10,10.5
			c-6.6-1.2-5.3-13.5-5.3-13.5C124.2-1,138,6.4,137.4,14.1L137.4,14.1z"/>
		
			<linearGradient id="SVGID_00000071525417269390476110000011041149051050651830_" gradientUnits="userSpaceOnUse" x1="134.6979" y1="131.2919" x2="128.0057" y2="131.2919" gradientTransform="matrix(1 0 0 -1 0 161)">
			<stop  offset="0" style="stop-color:#FFE2C4"/>
			<stop  offset="1" style="stop-color:#FFB870"/>
		</linearGradient>
		<path style="fill:url(#SVGID_00000071525417269390476110000011041149051050651830_);" d="M128.2,25.6c-0.1-0.7,3.4,0.4,3.4,0.4
			l3.1,2.1c0,0-5.7,4-6.7,5.8C128.4,30.4,128.3,26.4,128.2,25.6z"/>
		<path class="st3" d="M123.3,4.7c2.1-2.7,10.2-1.3,10.2-1.3l3.2,7c0,0,1.6,4.2,1.6,4.7c0,0.5-0.1,3.1-0.2,3.3
			c0,0.1-1.1,2.3-1.5,3.2c0,0.1-0.2,0.1-0.2,0l-0.6-0.6c0,0-1.4-2.8-3.1-5.6c-1.6-2.8-5.9-3-9.9-3.8C117.2,10.4,123.3,4.7,123.3,4.7
			L123.3,4.7z"/>
		
			<linearGradient id="SVGID_00000018218878368976470520000011857422842311996582_" gradientUnits="userSpaceOnUse" x1="136.3348" y1="144.1893" x2="133.0572" y2="144.1893" gradientTransform="matrix(1 0 0 -1 0 161)">
			<stop  offset="0" style="stop-color:#FFE2C4"/>
			<stop  offset="1" style="stop-color:#FFB870"/>
		</linearGradient>
		<path style="fill:url(#SVGID_00000018218878368976470520000011857422842311996582_);" d="M135.9,14.7c1.2,2-0.3,3.6-1.2,4.6
			c-0.9,0.9-2.5-1.2-1.2-3.4C133.6,15.9,134.7,12.8,135.9,14.7L135.9,14.7z"/>
		<path class="st2" d="M126.5,130.4l3.4-2.5l0.1-2.5l-3.5,3.2L126.5,130.4z"/>
		<path class="st2" d="M148.3,127.9l2-3.8l-0.9-2.3l-1.8,4.4L148.3,127.9z"/>
		<path class="st2" d="M123.6,128.1h2.9v2.3l-3.3-1.2L123.6,128.1z"/>
		<path class="st2" d="M145.5,125.6h2.9v2.3l-3.3-1.2L145.5,125.6z"/>
	</g>
</g>
</svg>
