<?xml version="1.0" encoding="utf-8"?>
<!-- Generator: Adobe Illustrator 27.1.1, SVG Export Plug-In . SVG Version: 6.00 Build 0)  -->
<svg version="1.1" id="레이어_1" xmlns="http://www.w3.org/2000/svg" xmlns:xlink="http://www.w3.org/1999/xlink" x="0px"
	 y="0px" viewBox="0 0 300 150" style="enable-background:new 0 0 300 150;" xml:space="preserve">
<style type="text/css">
	.st0{clip-path:url(#SVGID_00000178177697767060633860000003324808053046223529_);}
	.st1{fill:none;stroke:#FF9015;stroke-miterlimit:10;}
	.st2{fill:#FF9015;}
	.st3{fill:none;stroke:#122641;stroke-linecap:round;stroke-miterlimit:10;}
	.st4{fill:none;stroke:#FFFFFF;stroke-linecap:round;stroke-miterlimit:10;}
	.st5{fill:none;stroke:#122641;stroke-miterlimit:10;}
	.st6{fill:none;stroke:#FF9015;stroke-linecap:round;stroke-miterlimit:10;}
	.st7{fill:#122641;}
	.st8{fill:#FFFFFF;}
	.st9{fill:none;stroke:#FFA159;stroke-linecap:round;stroke-miterlimit:10;}
	.st10{fill:#FFFFFF;filter:url(#Adobe_OpacityMaskFilter);}
	.st11{mask:url(#mask0_457_32117_00000171697939015519582790000000611689375933489062_);}
	.st12{fill:#DAE5EB;}
	.st13{fill:#FFFFFF;stroke:#DAE5EB;stroke-linecap:round;stroke-miterlimit:10;}
</style>
<g>
	<defs>
		<rect id="SVGID_1_" x="24" y="17.5" width="252.1" height="115"/>
	</defs>
	<clipPath id="SVGID_00000127004943133929525020000010097194046678211738_">
		<use xlink:href="#SVGID_1_"  style="overflow:visible;"/>
	</clipPath>
	<g style="clip-path:url(#SVGID_00000127004943133929525020000010097194046678211738_);">
		<path class="st1" d="M260.7,39.7h-109c-2.9,0-5.3,2.3-5.3,5.2v69.2c0,2.9,2.4,5.2,5.3,5.2h109c2.9,0,5.3-2.3,5.3-5.2V44.9
			C266,42,263.7,39.7,260.7,39.7z"/>
		<path class="st2" d="M158.7,27.2h-109c-2.9,0-5.3,2.3-5.3,5.2v69.2c0,2.9,2.4,5.2,5.3,5.2h109c2.9,0,5.3-2.3,5.3-5.2V32.4
			C164,29.5,161.6,27.2,158.7,27.2z"/>
		<path class="st3" d="M44.5,81.8V32.5c0-2.9,2.4-5.2,5.3-5.2h93.6"/>
		<path class="st3" d="M142.8,106.9h-23.2"/>
		<path class="st4" d="M146.5,104.7V44.2c0-2.5,2.1-4.6,4.6-4.6h11"/>
		<path class="st5" d="M52.4,31.6c0,0.7-0.5,1.2-1.2,1.2c-0.7,0-1.2-0.5-1.2-1.2c0-0.7,0.5-1.2,1.2-1.2
			C51.9,30.4,52.4,30.9,52.4,31.6z"/>
		<path class="st5" d="M56.5,32.8c0.7,0,1.2-0.5,1.2-1.2c0-0.7-0.5-1.2-1.2-1.2c-0.7,0-1.2,0.5-1.2,1.2
			C55.3,32.2,55.8,32.8,56.5,32.8z"/>
		<path class="st5" d="M61.7,32.8c0.7,0,1.2-0.5,1.2-1.2c0-0.7-0.5-1.2-1.2-1.2c-0.7,0-1.2,0.5-1.2,1.2C60.5,32.2,61,32.8,61.7,32.8
			z"/>
		<path class="st3" d="M48.4,35.5h111"/>
		<path class="st6" d="M150.8,47.8h111"/>
		<path class="st7" d="M131.2,60c0,0-0.1-4.6,2.8-2.1c2.3,2,8.6,7.2,7.6,9.4c-0.3,0.6-1.2,1-2.7,1C131.8,68.7,131.2,60,131.2,60z"/>
		<path class="st7" d="M92.5,73.3c-1.2-0.7-2.2-1.9-2.7-3.2c-0.6-1.3-0.8-2.8-0.9-4.2l-4.7,0.7l0.2,7.2L92.5,73.3L92.5,73.3z"/>
		<path class="st7" d="M92.6,73c-2.5-1.5-3.3-4.4-3.4-7.1c0-0.2-0.2-0.4-0.4-0.3c-1.6,0.2-3.1,0.5-4.7,0.7c-0.1,0-0.3,0.2-0.3,0.3
			c0,2.1,0.1,4.2,0.2,6.3l0,0.9c0,0.2,0.2,0.4,0.4,0.4c2.4-0.2,4.7-0.3,7.1-0.5l1-0.1c0.5,0,0.5-0.7,0-0.7c-2.4,0.2-4.7,0.3-7.1,0.5
			l-1,0.1l0.4,0.4c0-2.1-0.1-4.2-0.2-6.3l0-0.9l-0.3,0.3c1.6-0.2,3.1-0.5,4.7-0.7l-0.4-0.3c0.2,3,1.1,6.1,3.8,7.7
			C92.7,73.8,93,73.2,92.6,73z"/>
		<path class="st8" d="M76.5,51.3l-3.1,19.3c0,0-6.9,2.4-12.6,8.3c-4,4.1-7.2,10.6-7.9,16.3c-1.2,9.4-0.7,14.1,6.1,16.8
			c3.3,1.3,8.1,2.5,15.2,2.8c1.5,0.1,3-0.5,3-0.5l3.4-10.8l22.3,0.2c0,0,0.2-10.7-1.1-17.4l-6.1-13.8l-8.9-0.7L89.1,55l1.1-4.6H80.1
			L76.5,51.3L76.5,51.3z"/>
		<path class="st7" d="M77.8,61.4c0.5,0,0.5-0.7,0-0.7C77.3,60.7,77.3,61.4,77.8,61.4z"/>
		<path class="st8" d="M92.1,50.4c0.8,3.6,1.1,6.8,0.6,10.4c-0.4,3.6-2,5.1-3.3,5.9c-1.9,1.1-4.6,1-6.6,0.1c-2.8-1.2-4.7-4-5.1-5.8"
			/>
		<path class="st7" d="M91.8,50.5c0.6,2.5,0.9,5,0.8,7.6c-0.1,2.1-0.2,4.5-1.4,6.4c-2,3.3-6.8,3.2-9.7,1.2c-1.5-1.1-2.9-2.8-3.4-4.7
			c-0.1-0.4-0.8-0.3-0.7,0.2c0.4,1.8,1.6,3.4,3,4.6c1.7,1.5,3.9,2.2,6.2,2.1c1.8-0.1,3.5-0.8,4.7-2.2c1.4-1.7,1.8-3.9,1.9-6
			c0.2-3.1-0.1-6.2-0.8-9.3C92.4,49.9,91.7,50.1,91.8,50.5L91.8,50.5z"/>
		<path class="st7" d="M89.1,57c0,0.3,0.3,0.6,0.6,0.6s0.6-0.3,0.6-0.6c0-0.3-0.3-0.6-0.6-0.6S89.1,56.7,89.1,57z"/>
		<path class="st7" d="M82.7,57c0,0.3,0.3,0.6,0.6,0.6s0.6-0.3,0.6-0.6c0-0.3-0.3-0.6-0.6-0.6S82.7,56.7,82.7,57z"/>
		<path class="st7" d="M86.6,57.2c0,1.1,0,2.1-0.1,3.2c0,0.2,0.2,0.4,0.4,0.4c0.2,0,0.3-0.2,0.4-0.4c0.1-1.1,0.1-2.1,0.1-3.2
			C87.3,56.8,86.6,56.8,86.6,57.2z"/>
		<path class="st7" d="M82.9,62.1c0.4,0.4,1,0.7,1.6,0.8c0.6,0.1,1.2,0.1,1.8-0.1l-0.4-0.4c0,0.1,0,0.1-0.1,0.2c0,0,0-0.1,0,0
			c0,0,0,0.1,0,0.1c0,0.1-0.1,0.1-0.1,0.2c0,0,0,0.1-0.1,0.1c0.1-0.1,0,0,0,0c0,0-0.1,0.1-0.1,0.1c0,0,0,0,0,0c-0.1,0.1,0,0,0,0
			c0,0-0.1,0.1-0.1,0.1c0,0,0,0-0.1,0c0,0,0.1,0,0,0c0,0-0.1,0-0.2,0c-0.1,0,0,0,0,0c0,0-0.1,0-0.1,0c-0.2,0-0.5,0-0.7-0.1
			c0,0-0.1,0,0,0c0,0,0,0-0.1,0c0,0-0.1,0-0.1-0.1c0,0-0.1,0-0.1-0.1c0.1,0,0,0-0.1-0.1c0,0-0.1-0.1-0.1-0.1c0,0,0,0,0,0
			c0,0.1,0,0,0,0c0-0.1-0.1-0.1-0.1-0.2c0-0.1,0,0,0,0c0,0,0-0.1,0-0.1c0-0.1,0-0.1,0-0.2c0,0,0,0,0,0c0-0.1,0,0.1,0,0
			c0,0,0-0.1,0-0.1c0,0,0-0.1,0-0.1c0,0,0-0.2,0,0c0-0.2,0-0.4-0.2-0.4c-0.2,0-0.4,0.1-0.4,0.2c-0.1,0.6,0.1,1.1,0.5,1.6
			c0.4,0.4,0.9,0.6,1.4,0.6c0.5,0.1,1-0.2,1.4-0.6c0.2-0.2,0.4-0.5,0.4-0.8c0.1-0.3-0.2-0.5-0.4-0.4c-0.4,0.1-0.9,0.1-1.4,0.1
			c-0.2,0-0.5-0.1-0.7-0.2c-0.2-0.1-0.4-0.2-0.6-0.4C83,61.2,82.5,61.7,82.9,62.1L82.9,62.1z"/>
		<path class="st8" d="M77.3,56.7c-0.4-0.6-0.4-0.8-0.7-1c-0.3-0.3-0.8-0.4-1.3-0.3c-0.5,0.1-0.9,0.7-1,1.2
			c-0.1,0.7,0.2,1.5,0.7,2.1c0.5,0.6,1.2,1,1.8,1.3"/>
		<path class="st7" d="M77.6,56.6c-0.3-0.5-0.5-1-1-1.3c-0.5-0.3-1.3-0.4-1.8-0.1c-0.5,0.3-0.8,1-0.8,1.6c0,0.7,0.3,1.4,0.8,2
			c0.5,0.6,1.2,1,2,1.4c0.4,0.2,0.8-0.4,0.4-0.6c-0.7-0.3-1.3-0.7-1.8-1.2c-0.4-0.5-0.8-1.2-0.6-1.9c0.1-0.3,0.2-0.5,0.4-0.7
			c0.2-0.1,0.5-0.1,0.8,0c0.5,0.2,0.8,0.7,1,1.2C77.2,57.3,77.8,57,77.6,56.6L77.6,56.6z"/>
		<path class="st7" d="M86.7,67.6c-0.1,1.6-0.1,3.2-0.2,4.8c0,0.5,0.7,0.5,0.7,0c0.1-1.6,0.1-3.2,0.2-4.8
			C87.5,67.2,86.7,67.2,86.7,67.6z"/>
		<path class="st7" d="M87.9,46.9c-0.3,2.4-1.8,4.6-3.8,6.1c-2.2,1.6-4.9,2.3-7.6,2.3c-0.5,0-0.5,0.7,0,0.7c2.9-0.1,5.8-0.8,8.1-2.6
			c2.1-1.6,3.6-3.9,3.9-6.5C88.6,46.5,87.9,46.5,87.9,46.9L87.9,46.9z"/>
		<path class="st7" d="M86.3,48.8c1.1,2.8,3.5,5,6.4,5.9c0.4,0.1,0.6-0.5,0.2-0.7c-2.6-0.8-4.9-2.9-5.9-5.4
			C86.8,48.2,86.1,48.4,86.3,48.8L86.3,48.8z"/>
		<path class="st7" d="M69.5,72.4c-4.3-1.6-7.1-4.1-8.6-5.7c-0.6-0.6-0.3-1.6,0.5-1.9c3-1.1,7-4.1,8.1-8.4c1.3-5.2,1.1-5.8,3.4-9.3
			c1.2-1.8,3.8-3.6,5.8-4.3c2.3-0.8,4.9-0.6,7.2,0.1c1.9,0.5,3.6,1.5,5,2.9c2.6,2.8,3.4,6.4,2.2,11.2l-0.2-2.6c0,0-2.4-0.9-3.8-2.4
			c-1.4-1.5-1.8-2.2-1.8-2.2s-1.9,4.7-8,5.6c0,0-1.8,0.5-2.9,0.3c0,0-0.9-0.6-1.6,0c-0.7,0.6-0.5,2.6,1.8,4.1l-0.4,7.1l-0.3,2
			c0,0-0.8,0.9-2.4,1.6s-2.8,1.3-2.8,1.3L69.5,72.4L69.5,72.4z"/>
		<path class="st3" d="M85,84.5c0.6,4.7,1.4,14.6-0.1,24.2"/>
		<path class="st8" d="M135.9,54.5l-4.6,10.7l4,3.9c0,0,5.8-2.5,6.6-5.3c0.8-2.8,4.5-9.9,4.5-9.9l-7.4-3L135.9,54.5z"/>
		<path class="st8" d="M132.9,60.7c0-1.4,0.2-2.8,0.5-4.2c0.2-0.9,0.5-1.8,0.6-2.7c0.1-1.3-0.4-2.8,0.3-4c0.1-0.2,0.4-0.5,0.6-0.5
			c0.6-0.2,1.2,0.5,1.4,1.1c0.5,1.5,0.5,3.1,0.8,4.6c0.3,1.6,1,3.1,1.4,4.7c0.4,1.6,0.3,3.4-0.7,4.7"/>
		<path class="st7" d="M133.3,60.7c0-1,0.1-2,0.3-2.9c0.2-1,0.5-1.8,0.7-2.8c0.2-0.9,0.2-1.7,0.1-2.5c-0.1-0.8-0.1-1.7,0.3-2.5
			c0.7-1.1,1.3,0.3,1.5,1c0.3,0.9,0.3,1.8,0.5,2.8c0.2,1.8,0.9,3.5,1.4,5.2c0.5,1.7,0.7,3.8-0.4,5.3c-0.3,0.4,0.3,0.7,0.6,0.4
			c1.1-1.5,1.1-3.4,0.7-5.1c-0.2-1-0.6-2-1-3.1c-0.3-1-0.6-2.1-0.7-3.2c-0.1-1-0.2-2-0.6-3c-0.2-0.7-0.8-1.4-1.6-1.4
			c-0.9,0-1.3,1-1.4,1.7c-0.2,0.9,0,1.9,0,2.8c0,1.2-0.5,2.4-0.7,3.6c-0.3,1.2-0.4,2.5-0.4,3.7C132.6,61.2,133.3,61.2,133.3,60.7
			L133.3,60.7z"/>
		<path class="st8" d="M144.6,54.4c0.9-1.2,1.8-2.4,2.8-3.5c0.3-0.4,0.8-0.9,1.4-0.8c0.5,0.1,0.8,0.7,0.7,1.2
			c-0.1,0.5-0.4,1-0.7,1.4c-1.9,2.7-3.5,5.6-4.6,8.6c-0.3,0.8-0.6,1.6-0.9,2.3c-1.1,2.2-3.3,3.9-5.8,4.4"/>
		<path class="st7" d="M144.8,54.7c0.6-0.8,1.3-1.6,1.9-2.5c0.3-0.4,0.6-0.8,0.9-1.1c0.2-0.3,0.7-0.8,1.1-0.7c0.3,0.2,0.4,0.7,0.3,1
			c-0.1,0.4-0.4,0.8-0.7,1.2c-0.6,0.8-1.1,1.6-1.6,2.4c-1,1.6-1.8,3.2-2.5,4.9c-0.7,1.7-1.2,3.5-2.4,5c-1.2,1.5-2.8,2.4-4.6,2.8
			c-0.4,0.1-0.3,0.8,0.2,0.7c1.8-0.4,3.4-1.3,4.6-2.7c1.4-1.6,2-3.5,2.8-5.4c0.8-2,1.9-4,3-5.8c0.3-0.4,0.5-0.8,0.8-1.3
			c0.3-0.4,0.7-0.9,0.9-1.4c0.3-0.7,0.2-1.6-0.5-2c-1-0.6-1.8,0.5-2.3,1.1c-0.8,1.1-1.7,2.1-2.5,3.2C144,54.5,144.5,55,144.8,54.7
			L144.8,54.7z"/>
		<path class="st8" d="M142.8,53c0.7-2.7,1.8-5.2,3.2-7.6c0.3-0.5,0.8-1,1.3-0.9c0.3,0.1,0.5,0.4,0.5,0.8c0,0.3-0.1,0.7-0.2,1
			c-1,3-2,6.1-3,9.1"/>
		<path class="st7" d="M143.2,53.1c0.4-1.6,1-3.1,1.7-4.6c0.3-0.7,0.7-1.5,1.1-2.2c0.2-0.4,0.4-0.8,0.7-1.1c0.3-0.3,0.8-0.5,0.9,0
			c0.1,0.4-0.1,0.9-0.3,1.3c-0.1,0.4-0.3,0.8-0.4,1.2c-0.3,0.8-0.5,1.7-0.8,2.5c-0.6,1.7-1.1,3.4-1.7,5c-0.1,0.4,0.5,0.6,0.7,0.2
			c0.5-1.5,1-3.1,1.5-4.6c0.5-1.5,1.1-3.1,1.6-4.7c0.2-0.6,0.2-1.2-0.3-1.7c-0.4-0.4-1-0.4-1.4,0c-0.6,0.4-0.9,1.1-1.2,1.7
			c-0.4,0.7-0.7,1.3-1,2c-0.7,1.6-1.3,3.2-1.8,4.8C142.4,53.4,143,53.6,143.2,53.1L143.2,53.1z"/>
		<path class="st8" d="M140.1,53.3c0.7-3.2,1.6-6.4,2.4-9.5c0.1-0.4,0.2-0.8,0.5-1.1c0.3-0.3,0.7-0.5,1.1-0.4
			c0.6,0.2,0.6,1.1,0.5,1.7c-0.5,3.7-1,7.3-1.8,10.9"/>
		<path class="st7" d="M140.5,53.4c0.7-3.2,1.5-6.4,2.4-9.5c0.1-0.3,0.2-0.6,0.3-0.9c0.2-0.3,0.6-0.6,0.9-0.3
			c0.4,0.4,0.2,1.3,0.1,1.7c-0.2,1.6-0.4,3.3-0.7,4.9c-0.3,1.8-0.6,3.7-1,5.5c-0.1,0.4,0.6,0.6,0.7,0.2c0.4-1.9,0.7-3.7,1-5.6
			s0.6-3.7,0.8-5.5c0.1-0.6,0-1.3-0.4-1.7c-0.5-0.5-1.2-0.4-1.6,0c-0.6,0.5-0.7,1.3-0.9,2c-0.3,0.9-0.5,1.8-0.7,2.7
			c-0.6,2.1-1.1,4.2-1.5,6.3C139.7,53.6,140.4,53.8,140.5,53.4L140.5,53.4z"/>
		<path class="st8" d="M137.1,54.1c0.4-3.3,0.9-6.5,1.7-9.7c0.1-0.5,0.3-1.1,0.8-1.2c0.5-0.1,1,0.2,1.2,0.7c0.2,0.4,0.2,1,0.1,1.4
			c-0.2,2.8-0.4,5.7-0.7,8.5"/>
		<path class="st7" d="M137.5,54.1c0.3-2.9,0.8-5.8,1.5-8.6c0.1-0.6,0.2-1.3,0.5-1.8c0.2-0.3,0.5-0.3,0.8,0c0.3,0.2,0.3,0.6,0.3,0.9
			c0,0.7-0.1,1.4-0.1,2.1c-0.1,0.7-0.1,1.5-0.2,2.2c-0.1,1.7-0.3,3.3-0.4,5c0,0.5,0.7,0.5,0.7,0c0.2-1.7,0.3-3.5,0.5-5.2
			c0.1-0.9,0.1-1.7,0.2-2.6c0.1-0.7,0.2-1.5-0.1-2.2c-0.2-0.5-0.7-1-1.2-1c-0.6,0-1,0.4-1.2,0.9c-0.3,0.7-0.4,1.4-0.6,2.1
			c-0.2,0.8-0.4,1.7-0.5,2.5c-0.4,1.9-0.6,3.8-0.9,5.7C136.7,54.5,137.4,54.5,137.5,54.1L137.5,54.1z"/>
		<path class="st8" d="M102.2,88c3.5-0.3,6.9-0.6,10.4-0.9c1.3-0.1,2.5-0.4,3.7-0.8c2.3-0.8,4.5-2,6.4-3.5c7.6-6,10.7-7.9,18.5-15
			c-4.6-1.4-6.5-3.4-9.1-10.1c-6,4-11.7,8.4-17.3,13c-0.4,0.4-0.9,0.8-1.5,0.9c-0.9,0.3-1.9,0-2.9-0.1c-8.7-0.7-15.2-0.2-23.5,0.6"
			/>
		<path class="st7" d="M102.2,88.3c3.5-0.3,7.1-0.6,10.6-1c3.1-0.3,6.2-1.7,8.8-3.5c1.3-0.9,2.4-1.8,3.6-2.8
			c1.1-0.8,2.2-1.7,3.2-2.5c1.9-1.4,3.8-2.9,5.6-4.4c2.5-2,5-4.2,7.4-6.4c0.2-0.2,0.1-0.5-0.2-0.6c-1.5-0.5-3-1-4.2-2.1
			c-1.3-1.1-2.2-2.6-3-4.1c-0.6-1.2-1.1-2.4-1.6-3.7c-0.1-0.2-0.3-0.4-0.5-0.2c-5.5,3.7-10.8,7.7-16,11.9c-0.6,0.5-1.3,1.1-1.9,1.6
			c-0.7,0.5-1.4,0.6-2.3,0.5c-1.7-0.3-3.3-0.3-5-0.4c-3.1-0.1-6.2-0.1-9.2,0c-3.5,0.2-7,0.5-10.6,0.9c-0.4,0-0.5,0.8,0,0.7
			c6.3-0.7,12.5-1.1,18.8-0.9c1.7,0.1,3.4,0.1,5.1,0.3c0.8,0.1,1.5,0.3,2.3,0.1c0.7-0.1,1.3-0.6,1.8-1c2.6-2.2,5.3-4.3,8-6.3
			c3.1-2.3,6.2-4.5,9.3-6.7l-0.5-0.2c1.4,3.5,3,7.4,6.5,9.3c0.9,0.5,1.8,0.8,2.8,1.1l-0.2-0.6c-3.9,3.5-7.9,6.8-12.1,10
			c-2.2,1.6-4.3,3.3-6.4,5c-2.5,1.9-5.4,3.4-8.5,4.1c-1.9,0.4-3.9,0.4-5.9,0.6c-1.9,0.2-3.9,0.4-5.9,0.5
			C101.8,87.7,101.8,88.4,102.2,88.3L102.2,88.3z"/>
		<path class="st7" d="M99.7,83.9c2.9,5,4,11.5,0.9,16.6c-0.2,0.4,0.4,0.8,0.6,0.4c3.2-5.4,2.1-12.1-0.9-17.3
			C100.1,83.1,99.5,83.5,99.7,83.9L99.7,83.9z"/>
		<path class="st7" d="M73.9,48.7c3,0,5.4-2.4,5.4-5.3c0-3-2.4-5.3-5.4-5.3c-3,0-5.4,2.4-5.4,5.3C68.5,46.3,70.9,48.7,73.9,48.7z"/>
		<path class="st9" d="M76.4,58.3c0.2,0.4,0.2,1,0.1,1.6c-0.2,1.1-0.9,2-1.5,1.9c-0.6-0.1-1-1.1-0.8-2.3c0.1-0.6,0.4-1.1,0.7-1.5"/>
		<path class="st7" d="M68.4,87.7C67,92,66.1,96.5,66,101c0,0.5,0.7,0.5,0.7,0c0.1-4.5,0.9-8.9,2.4-13.1
			C69.3,87.5,68.6,87.3,68.4,87.7z"/>
		<path class="st2" d="M95.5,92.8L89.2,96c-0.2,0.1-0.4,0.3-0.5,0.5l-7.4,23.5c-0.1,0.5,0.1,1,0.6,1.1l22.4,7c0.5,0.1,1-0.1,1.2-0.6
			l8.9-28.3c0.1-0.5-0.1-1-0.6-1.1l-17.6-5.5C95.9,92.6,95.7,92.7,95.5,92.8L95.5,92.8z"/>
		<path class="st4" d="M96.2,94L95,97.6c-0.1,0.5-0.7,0.8-1.2,0.6l-3.7-1.1"/>
		<path class="st3" d="M72.6,71.5l10.5,11c0.8,0.9,2,0.7,2.8-0.3l4.7-9.6"/>
		<path class="st8" d="M80.2,103.6c2-1.4,4.8-1.1,7.3-0.4c0.6,0.2,1.4,0.4,1.9,0.8c0.6,0.4,0.5,1.9-0.2,2.3c1.2,0.9,1.4,2,0.4,2.9
			c-0.1,0.1-0.2,0.2-0.3,0.3c0,0.2,0.1,0.4,0.2,0.6c0.4,0.7,0.2,1.5-0.4,2c-0.1,0.1-0.3,0.2-0.4,0.4c-0.1,0.2,0,0.3-0.1,0.5
			c0,0.7-0.6,1.4-1.4,1.7c-0.7,0.3-1.6,0.3-2.4,0.3c-2.6-0.1-5.3-0.7-7.5-1.9"/>
		<path class="st7" d="M80.4,103.9c1.7-1.1,3.9-1,5.8-0.7c1,0.2,2,0.4,2.9,0.9c0.6,0.3,0.6,1.4,0,1.8c-0.2,0.1-0.2,0.5,0,0.6
			c0.4,0.3,0.9,0.8,0.9,1.4c0,0.6-0.6,0.8-0.9,1.3c-0.3,0.5,0.3,1,0.3,1.6c0,0.3-0.1,0.5-0.3,0.7c-0.2,0.2-0.4,0.3-0.6,0.5
			c-0.2,0.2-0.2,0.4-0.2,0.7c0,0.3-0.1,0.6-0.3,0.8c-0.4,0.6-1.1,0.8-1.8,0.9c-1.4,0.2-2.8,0-4.2-0.3c-1.6-0.3-3.1-0.8-4.5-1.5
			c-0.4-0.2-0.8,0.4-0.4,0.6c1.4,0.8,2.9,1.3,4.5,1.6c1.6,0.3,3.3,0.5,4.9,0.3c0.7-0.1,1.4-0.4,1.9-0.9c0.2-0.2,0.4-0.4,0.5-0.7
			c0.1-0.3,0-0.7,0.2-1c0.1-0.2,0.5-0.4,0.6-0.6c0.2-0.3,0.3-0.6,0.4-0.9c0-0.3,0-0.6,0-0.9c0-0.1-0.1-0.3-0.2-0.4
			c0-0.1-0.1-0.2-0.1-0.3c0,0,0.2-0.2,0.2-0.2c0.5-0.5,0.8-1.1,0.7-1.7c-0.1-0.7-0.6-1.3-1.2-1.7v0.6c0.7-0.4,0.9-1.5,0.7-2.3
			c-0.2-0.5-0.6-0.7-1-0.9c-0.6-0.3-1.2-0.5-1.8-0.6c-2.3-0.5-5.1-0.8-7.2,0.6C79.7,103.5,80,104.1,80.4,103.9L80.4,103.9z"/>
		<path class="st7" d="M86.8,105.9C86.8,105.9,86.8,105.9,86.8,105.9L86.8,105.9c0,0.2,0,0.3,0,0.5l0-0.1c0,0.1,0,0.1,0,0.2
			c0,0.1,0,0.2,0,0.3c0,0.1,0.1,0.1,0.2,0.2c0.1,0,0.2,0,0.3,0c0.1,0,0.1-0.1,0.2-0.2c0-0.1,0.1-0.3,0.1-0.5s0-0.3,0-0.5
			c0-0.1-0.1-0.2-0.2-0.2c-0.1,0-0.2-0.1-0.3,0c-0.1,0-0.2,0.1-0.2,0.2l0,0.1C86.8,105.7,86.8,105.8,86.8,105.9L86.8,105.9z"/>
		<path class="st7" d="M86.4,108.8c0,0.1,0,0.2,0,0.3l0-0.1c0,0.2-0.1,0.4-0.1,0.6c-0.1,0.2,0.1,0.4,0.2,0.4c0.2,0,0.4-0.1,0.4-0.2
			c0.1-0.3,0.2-0.7,0.2-1c0-0.2-0.2-0.4-0.4-0.4C86.6,108.5,86.4,108.6,86.4,108.8L86.4,108.8z"/>
		<path class="st7" d="M85.6,111.7c0,0.1-0.1,0.3-0.1,0.4l0-0.1c-0.1,0.1-0.1,0.2-0.2,0.4l0.1-0.1c0,0,0,0-0.1,0.1
			c-0.1,0.1-0.1,0.2-0.1,0.2c0,0.1,0,0.2,0.1,0.2c0.1,0.1,0.2,0.1,0.2,0.1c0.1,0,0.2,0,0.2-0.1c0.2-0.3,0.4-0.6,0.5-1
			c0-0.1,0-0.2,0-0.3c0-0.1-0.1-0.1-0.2-0.2c-0.1,0-0.2,0-0.3,0C85.6,111.6,85.6,111.6,85.6,111.7L85.6,111.7z"/>
		<path class="st7" d="M65.1,101.6c4.5-0.4,9.1-0.3,13.5,0.4c0.5,0.1,1.1,0.2,1.6,0.3c0.2,0,0.6,0.2,0.8,0.1l0.1,0
			c0-0.1-0.1-0.1-0.1-0.1c0,0-0.1,0.1-0.1,0.1c-0.2,0.4-0.5,0.8-0.7,1.3c-0.7,1.4-1.4,2.8-1.9,4.3c-0.8,2.1-1.3,4.2-1.5,6.4l0.3-0.3
			c-0.9,0.2-1.9,0.2-2.9,0.3c-2.5,0.1-5-0.1-7.5-0.5c-3.4-0.6-6.8-1.7-9.9-3.3c-2-1-3.1-3-3.6-5.1c-0.6-2.5-0.6-5.2-0.3-7.8
			c0.3-2.8,0.9-5.5,1.9-8.2c1.1-3,2.6-5.8,4.5-8.3c1.9-2.5,4.3-4.6,6.9-6.4c2.5-1.7,5.1-3,7.9-4.3c0.6-0.3,1.5-0.5,1.9-1.1
			c0.4-0.6,0.4-1.5,0.5-2.2c0.2-1.8,0.3-3.6,0.4-5.4c0-0.9,0.1-1.8,0.2-2.7c0-0.5-0.7-0.5-0.7,0c-0.2,1.9-0.2,3.8-0.3,5.7
			c-0.1,0.9-0.1,1.8-0.2,2.7c0,0.4-0.1,0.8-0.2,1.2c-0.1,0.5-0.5,0.7-0.9,0.9c-2.8,1.3-5.6,2.6-8.2,4.3c-2.6,1.7-5.1,3.8-7.1,6.2
			c-2,2.4-3.6,5.2-4.8,8.2c-1.1,2.7-1.8,5.5-2.2,8.4c-0.4,2.7-0.5,5.4,0,8c0.4,2.1,1.2,4.4,3,5.8c1.2,0.9,2.7,1.5,4.1,2.1
			c1.6,0.7,3.3,1.2,5,1.6c4.1,1,8.5,1.4,12.6,0.7c0.1,0,0.1,0,0.2,0c0.2,0,0.2-0.2,0.3-0.3c0.3-3.7,1.7-7.3,3.5-10.6
			c0.2-0.4,0.5-0.8,0.7-1.2c0.5-1-1-1.1-1.6-1.2c-2.3-0.4-4.6-0.6-6.9-0.8c-2.7-0.1-5.3-0.1-8,0.2C64.7,100.9,64.7,101.6,65.1,101.6
			L65.1,101.6z"/>
		<path class="st7" d="M71.2,72.3c-0.5,0.5-1,1-1.5,1.6c-0.3,0.3-0.5,0.6-0.8,0.9c-0.2,0.2-0.4,0.4-0.5,0.6
			c-0.3,0.7,0.3,1.1,0.8,1.3l1.9,0.6l0.9,0.3c0.1,0,0.3,0.1,0.4,0.1l-0.1-0.2c0,0.3-0.2,0.8-0.3,1.1c-0.1,0.3-0.3,0.6-0.2,1
			c0,0.5,0.7,0.7,1.1,0.9c1,0.5,2.1,0.9,3.2,1.4c2.2,0.9,4.4,1.8,6.7,2.7c0.4,0.2,0.6-0.5,0.2-0.7c-3.1-1.2-6.1-2.5-9.1-3.8
			c-0.3-0.1-0.6-0.3-0.9-0.4c-0.1,0-0.1-0.1-0.2-0.1c-0.2-0.1-0.2,0-0.2-0.2c0-0.2,0.2-0.6,0.3-0.8c0.2-0.6,0.6-1.3-0.2-1.6
			c-0.9-0.3-1.8-0.6-2.6-0.9c-0.3-0.1-1.1-0.2-0.7-0.6c0.8-0.9,1.6-1.8,2.5-2.7C72,72.5,71.5,72,71.2,72.3L71.2,72.3z"/>
		<path class="st7" d="M86.7,84c1.5-1.1,3.1-2.2,4.6-3.3c0.5-0.4,1.3-0.8,1.2-1.5c-0.2-0.8-0.7-1.4-1-2.1l-0.2,0.4
			c0.7-0.2,1.3-0.3,2-0.5c0.4-0.1,1-0.2,1.1-0.8c0-0.5-0.5-1.1-0.8-1.5c-0.4-0.6-0.8-1.2-1.1-1.8c-0.2-0.4-0.9,0-0.6,0.4
			c0.5,0.8,1.1,1.7,1.7,2.6c0.1,0.2,0.2,0.2,0,0.3c-0.2,0.1-0.5,0.1-0.7,0.2c-0.5,0.1-1,0.3-1.5,0.4c-0.2,0-0.3,0.3-0.2,0.4
			c0.2,0.6,0.6,1.1,0.8,1.7c0.1,0.2,0.2,0.4,0,0.6c-0.1,0.1-0.3,0.2-0.4,0.3c-0.3,0.2-0.6,0.5-1,0.7c-1.3,0.9-2.6,1.9-3.9,2.8
			C86,83.6,86.3,84.2,86.7,84L86.7,84z"/>
		<defs>
			<filter id="Adobe_OpacityMaskFilter" filterUnits="userSpaceOnUse" x="153" y="48.4" width="103" height="75.5">
				<feColorMatrix  type="matrix" values="1 0 0 0 0  0 1 0 0 0  0 0 1 0 0  0 0 0 1 0"/>
			</filter>
		</defs>
		
			<mask maskUnits="userSpaceOnUse" x="153" y="48.4" width="103" height="75.5" id="mask0_457_32117_00000171697939015519582790000000611689375933489062_">
			<path class="st10" d="M202.5,119.4h22.4l5.4,13.1H276v-97H151.6l-1.5,32.9"/>
		</mask>
		<g class="st11">
			<path class="st7" d="M171.6,66.6c0,0,0.1-4.6-2.8-2.1c-2.3,2-8.6,7.2-7.6,9.4c0.3,0.6,1.2,1,2.7,1
				C171,75.3,171.6,66.6,171.6,66.6z"/>
			<path class="st8" d="M219.1,55.5l-5.3,6.6l0.8,4.6c0,0,0.1,9,5.2,9.1l0.1,3.5L216,79l7.5,6.4l7.7-3.8l3.7-2.1
				c0,0-2.5-0.9-2.5-1.4c0-0.5-1-10.2-1-10.2L232,61l-8.8-7.1L219.1,55.5L219.1,55.5z"/>
			<path class="st7" d="M232.8,121.3c-0.1,0.5-0.2,0.9-0.6,1.3c-0.3,0.4-0.8,0.6-1.3,0.6c-0.7,0-1.2-0.6-1.6-1.1
				c-0.8-1.1-1.3-2.3-1.6-3.5l4.1-1L232.8,121.3L232.8,121.3z"/>
			<path class="st7" d="M232.4,121.2c-0.1,0.6-0.4,1.3-1,1.6c-0.6,0.3-1.2-0.1-1.6-0.5c-0.9-1-1.5-2.4-1.8-3.7l-0.2,0.4l4.1-1
				l-0.4-0.2c0.3,1.2,0.6,2.5,1,3.7c0.1,0.4,0.8,0.3,0.7-0.2c-0.3-1.2-0.6-2.5-1-3.7c-0.1-0.2-0.3-0.3-0.4-0.2l-4.1,1
				c-0.2,0-0.3,0.3-0.2,0.4c0.2,0.9,0.5,1.7,0.9,2.5c0.4,0.7,0.8,1.5,1.4,2c0.6,0.5,1.4,0.7,2.1,0.3c0.7-0.4,1.1-1.2,1.2-2
				C233.2,121,232.5,120.8,232.4,121.2L232.4,121.2z"/>
			<path class="st2" d="M215.8,78.7c0,0,2.7,3.4,4.9,4.4c1.1,0.5,2,2.3,3.6,1.8c4.1-1.1,10.5-5.5,10.5-5.5c4.1,1.6,9.9,5.4,13.2,9.1
				c1.7,2,2.8,4.3,4,6c3.4,4.9,4.1,16.9,3.1,19.8c-1,2.8,0.2,3.5-7.2,6.9c-7.4,3.3-17,2-17,2c0-3-2.1-7.8-2.1-7.8h-6
				c0,0-14.1,5.6-14.5,5.6c-0.3,0-3.5-1.2-3.5-1.2l0.6-10.9l1.9-15.2c3.5-8.3-2.3-12.9,6.5-15H215.8z"/>
			<path class="st8" d="M166.9,61l4.6,10.7l-4,3.9c0,0-5.8-2.5-6.6-5.3c-0.8-2.8-4.5-9.9-4.5-9.9l7.4-3L166.9,61z"/>
			<path class="st8" d="M169.9,67.3c0-1.4-0.2-2.8-0.5-4.2c-0.2-0.9-0.5-1.8-0.6-2.7c-0.1-1.3,0.4-2.8-0.3-4
				c-0.1-0.2-0.4-0.5-0.6-0.5c-0.6-0.2-1.2,0.5-1.4,1.1c-0.5,1.5-0.5,3.1-0.8,4.6c-0.3,1.6-1,3.1-1.4,4.7c-0.4,1.6-0.3,3.4,0.7,4.7"
				/>
			<path class="st7" d="M170.2,67.3c0-1.1-0.1-2.2-0.3-3.3c-0.2-1.1-0.6-2.1-0.8-3.2c-0.1-1,0.1-2,0-2.9c0-0.8-0.2-1.8-1-2.2
				c-0.7-0.4-1.4,0-1.8,0.7c-0.5,0.8-0.6,1.9-0.8,2.8c-0.1,1.1-0.3,2.1-0.6,3.2c-0.3,1-0.7,2-1,3.1c-0.6,1.9-0.8,4.2,0.5,5.9
				c0.3,0.4,0.9,0,0.6-0.4c-1-1.3-1-3.1-0.6-4.6c0.4-1.8,1.2-3.5,1.5-5.4c0.1-0.9,0.2-1.8,0.4-2.7c0.1-0.5,0.4-2.1,1.2-2
				c0.4,0.1,0.6,0.6,0.7,0.9c0.1,0.4,0.1,0.8,0.1,1.2c0,0.8-0.1,1.7,0,2.5c0.1,1,0.5,2,0.7,3c0.2,1.1,0.3,2.2,0.3,3.4
				C169.5,67.7,170.2,67.7,170.2,67.3L170.2,67.3z"/>
			<path class="st8" d="M158.3,60.9c-0.9-1.2-1.8-2.4-2.8-3.5c-0.3-0.4-0.8-0.9-1.4-0.8c-0.5,0.1-0.8,0.7-0.7,1.2
				c0.1,0.5,0.4,1,0.7,1.4c1.9,2.7,3.5,5.6,4.6,8.6c0.3,0.8,0.6,1.6,0.9,2.3c1.1,2.2,3.3,3.9,5.8,4.4"/>
			<path class="st7" d="M158.5,60.7c-0.7-1-1.5-1.9-2.2-2.9c-0.5-0.6-1.1-1.7-2-1.6c-0.8,0-1.3,0.9-1.2,1.6c0.1,1,0.9,1.8,1.4,2.5
				c1.2,1.8,2.3,3.7,3.1,5.7c0.9,2,1.3,4,2.6,5.7c1.3,1.7,3.1,2.8,5.1,3.2c0.4,0.1,0.6-0.6,0.2-0.7c-1.6-0.4-3.1-1.2-4.2-2.4
				c-1.3-1.4-1.8-3.1-2.5-4.8c-0.7-1.7-1.5-3.4-2.4-5c-0.5-0.8-1-1.6-1.5-2.4c-0.4-0.6-1.3-1.5-1.1-2.3c0.4-1.4,1.7,0.6,2.1,1
				c0.7,0.9,1.5,1.9,2.2,2.8C158.3,61.6,158.8,61.1,158.5,60.7L158.5,60.7z"/>
			<path class="st8" d="M160,59.5c-0.7-2.7-1.8-5.2-3.2-7.6c-0.3-0.5-0.8-1-1.3-0.9c-0.3,0.1-0.5,0.4-0.5,0.8c0,0.3,0.1,0.7,0.2,1
				c1,3,2,6.1,3,9.1"/>
			<path class="st7" d="M160.3,59.5c-0.4-1.4-0.9-2.8-1.5-4.2c-0.3-0.7-0.7-1.4-1-2.1c-0.3-0.6-0.6-1.3-1.1-1.8
				c-0.3-0.4-0.9-0.7-1.4-0.5c-0.6,0.2-0.8,0.8-0.7,1.3c0.1,0.8,0.4,1.6,0.7,2.3c0.2,0.7,0.5,1.5,0.8,2.3c0.6,1.8,1.2,3.5,1.8,5.3
				c0.1,0.4,0.8,0.2,0.7-0.2c-0.5-1.7-1.1-3.3-1.6-5c-0.3-0.8-0.5-1.7-0.8-2.5c-0.1-0.4-0.3-0.9-0.4-1.3c-0.1-0.4-0.4-0.9-0.3-1.3
				c0.1-0.6,0.6-0.4,0.9,0c0.3,0.3,0.4,0.7,0.6,1c0.4,0.7,0.8,1.4,1.1,2.2c0.7,1.5,1.3,3.1,1.7,4.7
				C159.7,60.1,160.4,59.9,160.3,59.5L160.3,59.5z"/>
			<path class="st8" d="M162.7,59.8c-0.7-3.2-1.6-6.4-2.4-9.5c-0.1-0.4-0.2-0.8-0.5-1.1c-0.3-0.3-0.7-0.5-1.1-0.4
				c-0.6,0.2-0.6,1.1-0.5,1.7c0.5,3.7,1,7.3,1.8,10.9"/>
			<path class="st7" d="M163,59.7c-0.4-1.8-0.9-3.7-1.3-5.5c-0.2-0.9-0.5-1.9-0.8-2.8c-0.2-0.7-0.3-1.6-0.8-2.3
				c-0.4-0.5-1.1-0.9-1.7-0.6c-0.5,0.3-0.7,0.8-0.7,1.4c0,0.8,0.2,1.6,0.3,2.4c0.1,0.9,0.3,1.9,0.4,2.8c0.3,2.1,0.7,4.3,1.1,6.4
				c0.1,0.4,0.8,0.3,0.7-0.2c-0.7-3.2-1.1-6.5-1.6-9.7c-0.1-0.6-0.3-1.4-0.2-2c0.1-0.3,0.2-0.5,0.6-0.5c0.4,0.1,0.6,0.4,0.7,0.7
				c0.3,0.7,0.4,1.5,0.6,2.3c0.2,0.8,0.4,1.6,0.6,2.3c0.5,1.8,0.9,3.6,1.3,5.4C162.5,60.3,163.1,60.1,163,59.7L163,59.7z"/>
			<path class="st8" d="M165.7,60.6c-0.4-3.3-0.9-6.5-1.7-9.7c-0.1-0.5-0.3-1.1-0.8-1.2c-0.5-0.1-1,0.2-1.2,0.7
				c-0.2,0.4-0.2,1-0.1,1.4c0.2,2.8,0.4,5.7,0.7,8.5"/>
			<path class="st7" d="M166.1,60.6c-0.2-1.7-0.4-3.4-0.7-5.1c-0.3-1.7-0.6-3.3-1-4.9c-0.1-0.5-0.4-1.1-1-1.3
				c-0.6-0.2-1.1,0.1-1.5,0.5c-0.4,0.5-0.4,1.2-0.3,1.9c0.1,0.9,0.1,1.7,0.2,2.6c0.2,2,0.3,4,0.5,5.9c0,0.5,0.8,0.5,0.7,0
				c-0.3-2.9-0.5-5.8-0.7-8.7c0-0.5-0.1-1.5,0.7-1.6c0.6-0.1,0.8,1,0.9,1.4c0.3,1.4,0.6,2.8,0.9,4.2c0.3,1.6,0.5,3.3,0.7,4.9
				C165.4,61,166.1,61,166.1,60.6L166.1,60.6z"/>
			<path class="st2" d="M206.5,95.6c-3.4-0.4-13.1-1.6-16.6-2c-1.3-0.1-2.5-0.5-3.7-0.9c-2.3-0.8-4.4-2.1-6.3-3.7
				c-7.5-6.1-10.4-7.5-18.1-14.8c4.7-1.3,6.1-3.5,8.8-10.1c5.9,4.2,11.9,8.2,17.3,13c0.4,0.4,0.9,0.8,1.4,1c0.9,0.3,1.9,0,2.9-0.1
				c8.7-0.5,16.7-0.4,23.7,1"/>
			<path class="st7" d="M206.8,94.8c-5.4-0.5-10.9-1.1-16.3-1.6c-2-0.2-4-0.8-5.9-1.6c-1.9-0.9-3.6-2.1-5.3-3.4
				c-2.7-2.1-5.4-4.1-8.1-6.2c-3.2-2.5-6.4-5.2-9.4-8l-0.2,0.6c1.6-0.5,3.2-1.1,4.5-2.2c1.3-1.1,2.4-2.7,3.2-4.2
				c0.6-1.3,1.2-2.6,1.7-3.9l-0.5,0.2c3.2,2.2,6.4,4.4,9.5,6.8c1.6,1.2,3.2,2.4,4.7,3.7c0.7,0.6,1.5,1.2,2.2,1.8
				c0.6,0.5,1.3,1.2,2,1.5c0.8,0.4,1.7,0.3,2.5,0.2c0.9-0.1,1.7-0.2,2.6-0.2c1.6-0.1,3.3-0.1,4.9-0.1c3.4,0,6.9,0.1,10.3,0.4
				c3.4,0.3,6.8,0.6,10.1,1.2c0.4,0.1,0.6-0.6,0.2-0.7c-6.2-1.1-12.6-1.6-18.9-1.6c-1.7,0-3.4,0-5.1,0c-0.8,0-1.6,0.1-2.4,0.1
				c-0.9,0.1-1.7,0.2-2.6,0.3c-1,0.1-1.7-0.3-2.5-1c-0.8-0.6-1.5-1.2-2.2-1.8c-1.5-1.2-3-2.4-4.5-3.6c-3.5-2.7-7-5.2-10.6-7.7
				c-0.2-0.1-0.4,0-0.5,0.2c-1.3,3.4-2.8,7.1-6.2,8.8c-0.8,0.4-1.7,0.8-2.6,1c-0.2,0.1-0.4,0.4-0.2,0.6c2.8,2.5,5.6,5,8.6,7.3
				c2.7,2.1,5.4,4.1,8,6.2c1.6,1.3,3.2,2.6,5.1,3.6c1.8,1,3.9,1.8,6,2.2c1.3,0.2,2.6,0.3,3.9,0.4c1.5,0.1,3,0.3,4.6,0.5
				c3.1,0.3,6.2,0.6,9.3,0.9C207.3,95.6,207.3,94.9,206.8,94.8L206.8,94.8z"/>
			<path class="st7" d="M215.2,58.7c-0.6,2.7-1,5.5-0.8,8.3c0.1,2.2,0.3,4.7,1.6,6.6c2.4,3.4,7.5,3.4,10.7,1.1
				c1.7-1.2,3.1-3.1,3.7-5.1c0.1-0.4-0.6-0.6-0.7-0.2c-0.4,1.6-1.5,3.1-2.8,4.2c-1.6,1.4-3.8,2.1-6,1.9c-1.6-0.1-3.2-0.9-4.1-2.2
				c-1.2-1.7-1.5-3.8-1.6-5.8c-0.2-2.9,0.2-5.8,0.8-8.6C216,58.5,215.3,58.3,215.2,58.7L215.2,58.7z"/>
			<path class="st7" d="M218.6,65.4c0,0.3-0.3,0.6-0.6,0.6c-0.3,0-0.6-0.3-0.6-0.6s0.3-0.6,0.6-0.6
				C218.3,64.8,218.6,65.1,218.6,65.4z"/>
			<path class="st7" d="M225.1,65.4c0,0.3-0.3,0.6-0.6,0.6s-0.6-0.3-0.6-0.6s0.3-0.6,0.6-0.6S225.1,65.1,225.1,65.4z"/>
			<path class="st7" d="M220.4,65.7c0,1.1,0,2.2,0.1,3.2c0,0.2,0.1,0.4,0.4,0.4c0.2,0,0.4-0.2,0.4-0.4c-0.1-1.1-0.1-2.2-0.1-3.2
				C221.1,65.2,220.4,65.2,220.4,65.7z"/>
			<path class="st7" d="M221.4,71.4c0.5,0.2,1.1,0.3,1.6,0.1c0.5-0.2,0.9-0.5,1.2-0.9c0.1-0.2,0-0.4-0.1-0.5c-0.2-0.1-0.4,0-0.5,0.1
				c0,0,0,0.1-0.1,0.1c0,0-0.1,0.1-0.1,0.1c-0.1,0.1-0.1,0.1-0.2,0.2c0,0-0.1,0-0.1,0c0,0-0.1,0-0.1,0.1c0,0-0.1,0-0.1,0.1
				c0.1,0-0.1,0-0.1,0c0,0-0.1,0-0.1,0c0,0-0.1,0-0.1,0c-0.1,0-0.2,0-0.3,0c0,0-0.1,0-0.1,0c0,0,0,0,0,0c0,0-0.1,0-0.2,0
				c-0.1,0-0.2-0.1-0.2-0.1c-0.2-0.1-0.4,0-0.5,0.1C221.2,71.1,221.2,71.3,221.4,71.4L221.4,71.4z"/>
			<path class="st7" d="M219.5,76c0.1,1.6,0.1,3.2,0.2,4.8c0,0.5,0.7,0.5,0.7,0c-0.1-1.6-0.1-3.2-0.2-4.8
				C220.1,75.5,219.4,75.5,219.5,76z"/>
			<path class="st8" d="M227.3,112.3l-2.5-0.1l1.9,4.1l3.3,2L227.3,112.3z"/>
			<path class="st8" d="M226.2,112.3c-3-0.3-8.2-0.5-10.8,0.1c-2.8,0.7-5.6,2.1-7,4.6c-0.2,0.3-0.3,0.8-0.1,1
				c0.1,0.1,0.3,0.2,0.5,0.3c0.6,0.1,1.2-0.1,1.8-0.4c-0.3,0.3-0.6,0.6-0.8,1c-0.1,0.4,0,0.9,0.4,1.1c0.2,0.1,0.4,0.1,0.7,0
				c0.6-0.1,1.1-0.3,1.6-0.5c-0.4,0.3-0.5,0.7-0.4,1c0.1,0.3,0.5,0.4,0.9,0.4c0.4,0,0.7-0.1,1.1-0.2c1.5-0.6,2.9-1.4,4.4-2.2
				c-0.9,0.7-1.6,1.6-2.1,2.6c-0.1,0.2-0.1,0.4-0.1,0.5c0.1,0.2,0.3,0.3,0.5,0.3c0.7,0.2,1.5-0.1,2.1-0.5c0.6-0.4,1.2-0.9,1.8-1.3
				c0.2-0.1,0.4-0.2,0.7-0.3c0.3,0,0.6,0,0.9,0.1c2.4,0.5,5.5,0.4,7.6-1.2"/>
			<path class="st7" d="M226.2,111.9c-3.1-0.4-6.3-0.5-9.4-0.1c-3.1,0.4-6.3,1.7-8.2,4.2c-0.4,0.5-1.1,1.6-0.5,2.2
				c0.7,0.8,1.9,0.3,2.7-0.1l-0.4-0.6c-0.6,0.6-1.4,1.6-0.6,2.4c0.7,0.8,2.2,0.1,3-0.3l-0.4-0.6c-0.5,0.4-0.8,1-0.5,1.6
				c0.4,0.6,1.3,0.5,1.8,0.4c0.8-0.2,1.6-0.6,2.4-1c0.8-0.4,1.7-0.9,2.5-1.4l-0.4-0.6c-0.5,0.4-1,0.9-1.4,1.4
				c-0.4,0.5-0.8,1.1-0.9,1.7c-0.1,0.5,0.3,0.9,0.8,1.1c0.6,0.2,1.3,0,1.9-0.3c0.6-0.3,1.2-0.8,1.7-1.2c0.3-0.2,0.6-0.4,0.9-0.6
				c0.4-0.2,0.8-0.1,1.2,0c1.2,0.2,2.5,0.3,3.7,0.2c1.4-0.2,2.9-0.6,4-1.4c0.4-0.3,0-0.9-0.4-0.6c-1.2,0.8-2.6,1.2-4,1.3
				c-0.7,0.1-1.4,0-2.1,0c-0.7,0-1.4-0.3-2-0.3c-1.5,0-2.5,1.6-3.8,2.1c-0.3,0.1-0.8,0.2-1.1,0c-0.2-0.2-0.1-0.4,0-0.6
				c0.1-0.2,0.2-0.3,0.3-0.5c0.4-0.7,0.9-1.2,1.6-1.7c0.4-0.3,0-0.8-0.4-0.6c-1,0.6-2.1,1.2-3.2,1.7c-0.5,0.3-1.1,0.6-1.7,0.7
				c-0.2,0-0.5,0.1-0.7,0c-0.3-0.2-0.2-0.5,0.1-0.7c0.4-0.3,0.1-0.8-0.4-0.6c-0.3,0.1-0.7,0.3-1,0.4c-0.3,0.1-0.8,0.3-1,0.1
				c-0.6-0.4,0.2-1.2,0.5-1.5c0.3-0.3-0.1-0.7-0.4-0.6c-0.5,0.2-2.3,0.8-1.7-0.4c0.3-0.7,0.9-1.2,1.4-1.7c1.1-1,2.5-1.7,3.8-2.2
				c2.5-0.9,5.2-0.9,7.9-0.9c1.5,0,2.9,0.1,4.4,0.3C226.7,112.7,226.7,112,226.2,111.9L226.2,111.9z"/>
			<path class="st7" d="M211.5,117.7c1-0.8,2-1.4,3.1-1.9c0.2-0.1,0.2-0.3,0.1-0.5c-0.1-0.2-0.3-0.2-0.5-0.1c-1.2,0.5-2.3,1.2-3.3,2
				c-0.1,0.1-0.1,0.4,0,0.5C211.1,117.8,211.4,117.8,211.5,117.7L211.5,117.7z"/>
			<path class="st7" d="M213.4,119.2c1-0.8,2-1.4,3.1-1.9c0.2-0.1,0.2-0.3,0.1-0.5c-0.1-0.2-0.3-0.2-0.5-0.1c-1.2,0.5-2.3,1.2-3.3,2
				c-0.1,0.1-0.1,0.4,0,0.5C213.1,119.3,213.3,119.3,213.4,119.2L213.4,119.2z"/>
			<path class="st7" d="M242.9,109.7c-4.7-0.4-9.4-0.3-14.1,0.5c-0.5,0.1-1.1,0.2-1.6,0.3c-0.4,0.1-0.9,0.1-1,0.6
				c0,0.4,0.4,0.9,0.6,1.2c0.7,1.3,1.4,2.7,2,4.1c0.9,2.2,1.5,4.5,1.7,6.8c0,0.1,0.1,0.3,0.3,0.3c1,0.2,2,0.3,3,0.3
				c2.5,0.1,5-0.1,7.4-0.5c3.5-0.6,6.9-1.7,10-3.3c1-0.5,1.9-1.1,2.5-2c0.7-0.9,1.1-1.9,1.4-2.9c0.8-2.5,0.9-5.2,0.6-7.8
				c-0.2-2.8-0.8-5.6-1.6-8.2c-1-3-2.4-5.9-4.2-8.5c-1.8-2.6-4.1-4.8-6.7-6.8c-2.4-1.8-5.1-3.3-7.8-4.5c-0.8-0.4-1.6-0.7-2.3-1.1
				c-0.4-0.2-0.7-0.4-0.8-0.8c-0.1-0.4-0.2-0.9-0.2-1.3c-0.2-1.8-0.3-3.7-0.4-5.5c0-0.9-0.1-1.9-0.2-2.8c0-0.5-0.8-0.5-0.7,0
				c0.2,1.8,0.2,3.7,0.3,5.5c0.1,0.9,0.1,1.8,0.2,2.7c0.1,0.7,0.1,1.6,0.5,2.1c0.4,0.6,1.3,0.9,2,1.2c0.7,0.3,1.5,0.7,2.2,1
				c1.3,0.6,2.6,1.3,3.9,2.1c2.6,1.6,5,3.5,7.1,5.7c2.2,2.4,3.9,5.2,5.3,8.1c1.2,2.6,1.9,5.4,2.4,8.2c0.5,2.8,0.6,5.4,0.3,8.1
				c-0.3,2.1-1,4.4-2.6,5.9c-0.4,0.4-0.9,0.7-1.4,0.9c-0.8,0.4-1.7,0.8-2.6,1.2c-1.6,0.7-3.3,1.2-5,1.6c-4,0.9-8.4,1.3-12.3,0.7
				c-0.1,0-0.1,0-0.2,0l0.3,0.3c-0.3-3.6-1.6-7.1-3.2-10.3c-0.2-0.5-0.5-1-0.8-1.4c-0.1-0.1-0.1-0.2-0.1-0.3c0,0-0.1-0.3-0.1-0.1
				l0,0.1c0.1,0,0.2,0,0.3-0.1c0.1,0,0.2,0,0.3-0.1c0.3-0.1,0.6-0.1,0.9-0.2c2.3-0.4,4.5-0.6,6.8-0.7c2.5-0.1,5,0,7.6,0.2
				C243.3,110.4,243.3,109.7,242.9,109.7L242.9,109.7z"/>
			<path class="st7" d="M207.1,92.9c-1.4,7.1-2.1,14.4-2.5,21.7c-0.1,2-0.2,3.9-0.2,5.9c0,0.5,0.7,0.5,0.7,0
				c0.1-7.2,0.7-14.5,1.7-21.6c0.3-1.9,0.6-3.9,1-5.8C207.8,92.6,207.2,92.4,207.1,92.9z"/>
			<path class="st8" d="M230.5,65.2c0.4-0.6,0.4-0.8,0.7-1c0.3-0.3,0.8-0.4,1.3-0.3c0.6,0.1,0.9,0.7,1,1.2c0.1,0.7-0.2,1.5-0.7,2.1
				c-0.5,0.6-1.2,1-1.8,1.3"/>
			<path class="st7" d="M230.8,65.4c0.3-0.4,0.5-1,1-1.2c0.3-0.1,0.6-0.1,0.8,0c0.2,0.1,0.4,0.4,0.4,0.7c0.2,0.7-0.1,1.4-0.6,1.9
				c-0.5,0.6-1.1,0.9-1.8,1.2c-0.4,0.2-0.1,0.8,0.4,0.6c1.3-0.6,2.6-1.6,2.7-3.1c0.1-0.6-0.1-1.3-0.6-1.8c-0.5-0.4-1.2-0.5-1.8-0.2
				c-0.6,0.3-0.9,0.9-1.2,1.4C229.9,65.4,230.5,65.7,230.8,65.4L230.8,65.4z"/>
			<path class="st7" d="M224.3,57.9c-0.2-0.2-0.4-0.3-0.6-0.4c-0.9-0.3-1.9,0.1-2.6,0.8c-0.7,0.7-1.1,1.6-1.7,2.3
				c-1.1,1.4-2.8,2.2-4.5,2.4l-0.3,2l0.1,3.2c-2.1-2.9-2.7-6.9-1.5-10.3c1.2-3.6,4.4-6.4,8.1-7.2c1-0.2,2-0.3,3,0
				c0.7,0.2,1.4,0.8,1.7,1.5l0,0.1c1.3-1.2,3.3-1.4,4.8-0.6c1.6,0.8,2.7,2.4,3.2,4.1c0.5,1.7,0.6,3.6,0.3,5.5
				c-0.1,1.1-0.4,2.3-0.9,3.2c0,0-0.6-0.8-1.1-0.8s-1.4,0.7-1.4,0.7c-1.5-1.3-2.3-3.2-3.4-4.8c-0.3-0.4-0.6-0.8-1-1.1
				c-0.4-0.3-1-0.4-1.4-0.2"/>
			<path class="st7" d="M224.5,57.6c-0.7-0.7-1.7-0.7-2.5-0.4c-0.9,0.4-1.6,1.2-2.1,2c-0.6,0.9-1.2,1.7-2.1,2.3
				c-0.9,0.6-1.9,1-2.9,1.1c-0.1,0-0.3,0.1-0.3,0.3c-0.1,0.8-0.3,1.6-0.3,2.3c0,1,0,1.9,0.1,2.9L215,68c-2.1-2.9-2.7-6.7-1.5-10.1
				c1.1-3.1,3.7-5.6,6.8-6.6c1.8-0.6,4.3-0.9,5.4,1.1c0.1,0.2,0.4,0.2,0.6,0.1c1.1-0.9,2.6-1.2,3.9-0.7c1.3,0.4,2.4,1.6,3.1,2.9
				c0.8,1.5,1,3.1,1,4.7c0,1.6-0.2,3.4-1,4.9l0.6-0.1c-0.4-0.5-0.9-0.9-1.5-0.9c-0.6,0-1.1,0.4-1.5,0.8h0.5c-1.2-1-2-2.5-2.8-3.8
				c-0.7-1.2-1.7-3-3.4-2.4c-0.4,0.1-0.2,0.8,0.2,0.7c0.8-0.3,1.5,0.4,1.9,1c0.4,0.6,0.7,1.2,1.1,1.8c0.7,1.2,1.4,2.4,2.5,3.2
				c0.2,0.1,0.3,0.1,0.5,0c0.3-0.2,0.7-0.5,1-0.6c0.4,0,0.8,0.4,1,0.7c0.1,0.2,0.5,0.1,0.6-0.1c0.7-1.3,0.9-2.7,1.1-4.1
				c0.1-1.5,0.1-3.1-0.3-4.5c-0.7-2.4-2.4-4.7-5-5.1c-1.4-0.2-2.7,0.2-3.8,1.1l0.6,0.1c-1.9-3.7-7.3-1.4-9.7,0.5
				c-3,2.3-4.6,6-4.4,9.8c0.1,2.2,0.9,4.3,2.2,6.1c0.2,0.3,0.7,0.2,0.7-0.2c0-1,0-1.9-0.1-2.9c0-0.1,0-0.4,0-0.2
				c0-0.2,0.1-0.4,0.1-0.6l0.2-1.4l-0.3,0.3c1.8-0.2,3.5-1,4.7-2.4c0.6-0.8,1.1-1.6,1.8-2.4c0.7-0.7,1.9-1.3,2.7-0.5
				C224.4,58.4,224.9,58,224.5,57.6L224.5,57.6z"/>
			<path class="st7" d="M222.1,87.6c1.1,0.1,2.3,0.2,3.4,0c0.2,0,0.4-0.1,0.4-0.4c0-0.2-0.2-0.4-0.4-0.4c-1.1,0.1-2.3,0.1-3.4,0
				c-0.2,0-0.4,0.2-0.4,0.4C221.7,87.4,221.9,87.5,222.1,87.6z"/>
			<path class="st7" d="M220.9,89.3c2.1,0.4,4.2,0.4,6.3,0c0.4-0.1,0.3-0.8-0.2-0.7c-2,0.4-4,0.4-6,0
				C220.6,88.5,220.4,89.2,220.9,89.3L220.9,89.3z"/>
			<path class="st8" d="M234.8,79.5l-11.1,5.6l3.9,4.2l9.1-8.9L234.8,79.5z"/>
			<path class="st8" d="M224.4,86c1,1,2.6,2.6,3.6,3.6c0.2,0.2,0.5,0.4,0.8,0.3c0.1,0,0.2-0.1,0.3-0.2c2.4-2.9,4.7-5.9,7.1-8.8"/>
			<path class="st7" d="M224.1,86.2c1,1,1.9,1.9,2.9,2.9c0.4,0.4,0.9,1,1.5,1.2c0.7,0.1,1.1-0.7,1.5-1.1c2.2-2.7,4.3-5.4,6.5-8.1
				c0.3-0.4-0.2-0.9-0.5-0.5c-1.9,2.4-3.9,4.8-5.8,7.3c-0.2,0.3-0.5,0.6-0.7,0.9c-0.2,0.2-0.5,0.8-0.8,0.8c-0.3,0-0.5-0.4-0.7-0.5
				c-0.2-0.2-0.4-0.4-0.6-0.6c-0.9-0.9-1.8-1.7-2.6-2.6C224.3,85.4,223.8,85.9,224.1,86.2L224.1,86.2z"/>
			<path class="st8" d="M213.5,78.4l2.4,4.9l3.6,6.6l4-4.6l-6.9-6.5l-3.1-0.1"/>
			<path class="st8" d="M223.1,86c-0.7,1-2,2.6-2.7,3.6c-0.1,0.2-0.4,0.4-0.6,0.3c-0.1,0-0.1-0.1-0.2-0.2c-1.7-2.9-3.8-7.2-5.5-10.1
				"/>
			<path class="st7" d="M222.8,85.8c-0.8,1.1-1.7,2.1-2.5,3.2c-0.1,0.1-0.1,0.2-0.2,0.3c-0.1,0.1-0.1,0.2-0.2,0.2c0,0.1,0,0.1-0.1,0
				c-0.2-0.2-0.3-0.6-0.4-0.8c-0.3-0.6-0.7-1.2-1-1.8c-1.3-2.5-2.6-5-4-7.5c-0.2-0.4-0.8,0-0.6,0.4c1.2,2.1,2.4,4.3,3.5,6.5
				c0.6,1.1,1.1,2.1,1.7,3.2c0.2,0.4,0.4,0.9,1,0.9c0.5-0.1,0.8-0.6,1-0.9c0.8-1.1,1.6-2.1,2.4-3.2
				C223.7,85.8,223.1,85.4,222.8,85.8L222.8,85.8z"/>
			<path class="st7" d="M233.3,79.9c-1.5,0.9-3.1,1.8-4.7,2.7c-0.8,0.4-1.6,0.8-2.4,1.2c-0.4,0.2-0.8,0.4-1.2,0.6
				c-0.4,0.2-0.8,0.5-1.3,0.5c-0.6,0-1.3-0.7-1.8-1.1c-0.6-0.4-1.1-0.9-1.6-1.4c-1.2-1-2.4-2-3.6-3c-0.3-0.3-0.9,0.2-0.5,0.5
				c1.9,1.6,3.8,3.2,5.7,4.8c0.4,0.3,0.8,0.7,1.3,0.8c0.7,0.2,1.3-0.2,1.9-0.5c1.3-0.6,2.7-1.3,4-1.9c1.5-0.8,3-1.6,4.5-2.5
				C234,80.3,233.7,79.6,233.3,79.9L233.3,79.9z"/>
			<path class="st7" d="M192.3,78.2c7.3-0.6,14.6-0.2,21.8,0.6c1.8,0.2,3.5,0.4,5.2,0.7c0.4,0.1,0.6-0.6,0.2-0.7
				c-7-1.2-14.1-1.7-21.2-1.6c-2,0-4.1,0.1-6.1,0.2C191.8,77.6,191.8,78.3,192.3,78.2z"/>
			<path class="st7" d="M246.2,86.2c-1.9-1.7-4-3.3-6.3-4.6c-1.1-0.7-2.3-1.2-3.4-1.8c-0.6-0.3-1.3-0.6-1.9-0.9
				c-0.6-0.3-1.5-0.5-1.9-1.1c-0.3-0.4-0.8,0.1-0.5,0.5c0.4,0.5,1.2,0.8,1.8,1c0.6,0.3,1.3,0.6,1.9,0.9c1.2,0.6,2.4,1.2,3.5,1.8
				c2.3,1.3,4.4,2.9,6.4,4.7C246,87,246.5,86.5,246.2,86.2L246.2,86.2z"/>
		</g>
		<path class="st8" d="M226.2,112.3c-3-0.3-8.2-0.5-10.8,0.1c-2.8,0.7-5.6,2.1-7,4.6c-0.2,0.3-0.3,0.8-0.1,1
			c0.1,0.1,0.3,0.2,0.5,0.3c0.6,0.1,1.2-0.1,1.8-0.4c-0.3,0.3-0.6,0.6-0.8,1c-0.1,0.4,0,0.9,0.4,1.1c0.2,0.1,0.4,0.1,0.7,0
			c0.6-0.1,1.1-0.3,1.6-0.5c-0.4,0.3-0.5,0.7-0.4,1c0.1,0.3,0.5,0.4,0.9,0.4c0.4,0,0.7-0.1,1.1-0.2c1.5-0.6,2.9-1.4,4.4-2.2
			c-0.9,0.7-1.6,1.6-2.1,2.6c-0.1,0.2-0.1,0.4-0.1,0.5c0.1,0.2,0.3,0.3,0.5,0.3c0.7,0.2,1.5-0.1,2.1-0.5c0.6-0.4,1.2-0.9,1.8-1.3
			c0.2-0.1,0.4-0.2,0.7-0.3c0.3,0,0.6,0,0.9,0.1c2.4,0.5,5.5,0.4,7.6-1.2"/>
		<path class="st7" d="M226.2,111.9c-3.1-0.4-6.3-0.5-9.4-0.1c-3.1,0.4-6.3,1.7-8.2,4.2c-0.4,0.5-1.1,1.6-0.5,2.2
			c0.7,0.8,1.9,0.3,2.7-0.1l-0.4-0.6c-0.6,0.6-1.4,1.6-0.6,2.4c0.7,0.8,2.2,0.1,3-0.3l-0.4-0.6c-0.5,0.4-0.8,1-0.5,1.6
			c0.4,0.6,1.3,0.5,1.8,0.4c0.8-0.2,1.6-0.6,2.4-1c0.8-0.4,1.7-0.9,2.5-1.4l-0.4-0.6c-0.5,0.4-1,0.9-1.4,1.4
			c-0.4,0.5-0.8,1.1-0.9,1.7c-0.1,0.5,0.3,0.9,0.8,1.1c0.6,0.2,1.3,0,1.9-0.3c0.6-0.3,1.2-0.8,1.7-1.2c0.3-0.2,0.6-0.4,0.9-0.6
			c0.4-0.2,0.8-0.1,1.2,0c1.2,0.2,2.5,0.3,3.7,0.2c1.4-0.2,2.9-0.6,4-1.4c0.4-0.3,0-0.9-0.4-0.6c-1.2,0.8-2.6,1.2-4,1.3
			c-0.7,0.1-1.4,0-2.1,0c-0.7,0-1.4-0.3-2-0.3c-1.5,0-2.5,1.6-3.8,2.1c-0.3,0.1-0.8,0.2-1.1,0c-0.2-0.2-0.1-0.4,0-0.6
			c0.1-0.2,0.2-0.3,0.3-0.5c0.4-0.7,0.9-1.2,1.6-1.7c0.4-0.3,0-0.8-0.4-0.6c-1,0.6-2.1,1.2-3.2,1.7c-0.5,0.3-1.1,0.6-1.7,0.7
			c-0.2,0-0.5,0.1-0.7,0c-0.3-0.2-0.2-0.5,0.1-0.7c0.4-0.3,0.1-0.8-0.4-0.6c-0.3,0.1-0.7,0.3-1,0.4c-0.3,0.1-0.8,0.3-1,0.1
			c-0.6-0.4,0.2-1.2,0.5-1.5c0.3-0.3-0.1-0.7-0.4-0.6c-0.5,0.2-2.3,0.8-1.7-0.4c0.3-0.7,0.9-1.2,1.4-1.7c1.1-1,2.5-1.7,3.8-2.2
			c2.5-0.9,5.2-0.9,7.9-0.9c1.5,0,2.9,0.1,4.4,0.3C226.7,112.7,226.7,112,226.2,111.9L226.2,111.9z"/>
		<path class="st7" d="M211.5,117.7c1-0.8,2-1.4,3.1-1.9c0.2-0.1,0.2-0.3,0.1-0.5c-0.1-0.2-0.3-0.2-0.5-0.1c-1.2,0.5-2.3,1.2-3.3,2
			c-0.1,0.1-0.1,0.4,0,0.5C211.1,117.8,211.4,117.8,211.5,117.7L211.5,117.7z"/>
		<path class="st7" d="M213.4,119.2c1-0.8,2-1.4,3.1-1.9c0.2-0.1,0.2-0.3,0.1-0.5c-0.1-0.2-0.3-0.2-0.5-0.1c-1.2,0.5-2.3,1.2-3.3,2
			c-0.1,0.1-0.1,0.4,0,0.5C213.1,119.3,213.3,119.3,213.4,119.2L213.4,119.2z"/>
		<path class="st7" d="M226.7,110.5c-0.9,0.4-0.2,1.3,0.1,1.8c0.5,0.9,0.9,1.8,1.4,2.7c1.2,2.6,2.1,5.4,2.3,8.2c0,0.5,0.7,0.5,0.7,0
			c-0.2-2.6-1-5.2-2-7.7c-0.4-1-0.8-1.9-1.3-2.8c-0.2-0.3-0.3-0.7-0.5-1c-0.1-0.1-0.2-0.3-0.2-0.4c0,0-0.1-0.1-0.1-0.1
			c0,0,0-0.1-0.1-0.1c0-0.1-0.1-0.1-0.1,0.1C227.3,111.1,227.1,110.4,226.7,110.5L226.7,110.5z"/>
		<path class="st6" d="M28,28.3L24.3,32"/>
		<path class="st6" d="M24.3,28.3L28,32"/>
		<path class="st6" d="M38.4,19.6c0,0.9-0.8,1.7-1.7,1.7c-1,0-1.7-0.8-1.7-1.7c0-0.9,0.8-1.7,1.7-1.7C37.6,17.9,38.4,18.6,38.4,19.6
			z"/>
		<path class="st12" d="M34.1,30c-0.7,0-1.3-0.6-1.3-1.3s0.6-1.3,1.3-1.3c0.7,0,1.3,0.6,1.3,1.3S34.8,30,34.1,30z"/>
		<path class="st12" d="M271.4,124.1c0,0.6-0.5,1.2-1.2,1.2c-0.6,0-1.2-0.5-1.2-1.2s0.5-1.2,1.2-1.2
			C270.9,123,271.4,123.5,271.4,124.1z"/>
		<path class="st13" d="M275.5,118c0,1.2-1,2.1-2.2,2.1c-1.2,0-2.2-1-2.2-2.1c0-1.2,1-2.1,2.2-2.1
			C274.6,115.8,275.5,116.8,275.5,118z"/>
	</g>
</g>
</svg>
