<?xml version="1.0" encoding="utf-8"?>
<!-- Generator: Adobe Illustrator 27.1.1, SVG Export Plug-In . SVG Version: 6.00 Build 0)  -->
<svg version="1.1" id="레이어_1" xmlns="http://www.w3.org/2000/svg" xmlns:xlink="http://www.w3.org/1999/xlink" x="0px"
	 y="0px" viewBox="0 0 200 160" style="enable-background:new 0 0 200 160;" xml:space="preserve">
<style type="text/css">
	.st0{clip-path:url(#SVGID_00000055678502027616638490000002047027342260362151_);}
	.st1{opacity:0.2;fill:#0046AB;enable-background:new    ;}
	.st2{fill:#01447D;}
	.st3{fill:#FFBB5C;}
	.st4{fill:#FFCE85;}
	.st5{fill:#CC9B64;}
	.st6{fill:#FFFFFF;}
	.st7{fill:#FFEEB9;}
	.st8{fill:#FFE371;}
	.st9{fill:#EF7B5D;}
	.st10{fill:#01223F;}
	.st11{fill:#02355B;}
	.st12{fill:#FFD2A9;}
	.st13{fill:#EFEFF4;}
	.st14{fill:#002E8A;}
	.st15{fill:url(#SVGID_00000083074391333942040360000001517598250090392247_);}
	.st16{fill:#FFBC90;}
	.st17{fill:#1E1273;}
	.st18{fill-rule:evenodd;clip-rule:evenodd;fill:#D87819;}
	.st19{fill-rule:evenodd;clip-rule:evenodd;fill:#FFA255;}
	.st20{fill-rule:evenodd;clip-rule:evenodd;fill:#EFEFF4;}
	.st21{fill-rule:evenodd;clip-rule:evenodd;fill:#FF9015;}
	.st22{fill-rule:evenodd;clip-rule:evenodd;fill:#C4C6D0;}
</style>
<g>
	<defs>
		<rect id="SVGID_1_" x="12.3" y="4.5" width="175.4" height="151"/>
	</defs>
	<clipPath id="SVGID_00000088836499642869022420000015224428095969548957_">
		<use xlink:href="#SVGID_1_"  style="overflow:visible;"/>
	</clipPath>
	<g style="clip-path:url(#SVGID_00000088836499642869022420000015224428095969548957_);">
		<path class="st1" d="M85.9,125.9c13.1-0.4,32.1,5.8,42.4,14c10.3,8.2,8.1,15.1-4.9,15.6c-13.1,0.4-32.1-5.8-42.4-14
			C70.6,133.3,72.8,126.3,85.9,125.9z"/>
		<path class="st2" d="M75.4,57.6c0,4.8-3,9.2-7.5,10.8c-4.5,1.7-9.7,0.2-12.8-3.5c-3.1-3.7-3.5-9.1-1-13.3
			c2.5-4.1,7.4-6.3,12.1-5.3c4.6,0.9,8.3,4.8,9,9.5C75.4,56.4,75.4,57,75.4,57.6c0,0.3,0.5,0.3,0.5,0c0-2.5-0.8-4.9-2.2-7
			c-1.4-2-3.4-3.5-5.7-4.3c-4.7-1.7-10.1-0.2-13.3,3.7c-3.2,3.9-3.6,9.5-1,13.8c2.6,4.3,7.7,6.6,12.6,5.5c4.8-1,8.7-5,9.4-9.9
			c0.1-0.6,0.1-1.2,0.1-1.8C75.9,57.2,75.4,57.2,75.4,57.6z"/>
		<path class="st2" d="M35.7,93.1c0,4.8-3,9.2-7.5,10.8c-4.5,1.7-9.7,0.2-12.8-3.5c-3.1-3.7-3.5-9.1-1-13.3
			c2.5-4.1,7.4-6.3,12.1-5.3c4.6,0.9,8.3,4.8,9,9.5C35.6,91.9,35.7,92.5,35.7,93.1c0,0.3,0.5,0.3,0.5,0c0-2.5-0.8-4.9-2.2-7
			c-1.4-2-3.4-3.5-5.7-4.3c-4.7-1.7-10.1-0.2-13.3,3.7c-3.2,3.9-3.6,9.5-1,13.8c2.6,4.3,7.7,6.6,12.6,5.5c4.8-1,8.7-5,9.4-9.9
			c0.1-0.6,0.1-1.2,0.1-1.8C36.2,92.8,35.7,92.8,35.7,93.1z"/>
		<path class="st2" d="M149,57.8c0,4.8-3,9.2-7.5,10.8c-4.5,1.7-9.7,0.2-12.8-3.5c-3.1-3.7-3.5-9.1-1-13.3c2.5-4.1,7.4-6.3,12.1-5.3
			c4.6,0.9,8.3,4.8,9,9.5C148.9,56.6,148.9,57.2,149,57.8c0,0.3,0.5,0.3,0.5,0c0-2.5-0.8-4.9-2.2-7c-1.4-2-3.4-3.5-5.7-4.3
			c-4.7-1.7-10.1-0.2-13.3,3.7c-3.2,3.9-3.6,9.5-1,13.8c2.6,4.3,7.7,6.6,12.6,5.5c4.8-1,8.7-5,9.4-9.9c0.1-0.6,0.1-1.2,0.1-1.8
			C149.5,57.5,149,57.5,149,57.8z"/>
		<path class="st2" d="M187.2,103.1c0,4.8-3,9.2-7.5,10.8c-4.5,1.7-9.7,0.2-12.8-3.5c-3.1-3.7-3.5-9.1-1-13.3
			c2.5-4.1,7.4-6.3,12.1-5.3c4.6,0.9,8.3,4.8,9,9.5C187.2,101.9,187.2,102.5,187.2,103.1c0,0.3,0.5,0.3,0.5,0c0-2.5-0.8-4.9-2.2-7
			c-1.4-2-3.4-3.5-5.7-4.3c-4.7-1.7-10.1-0.2-13.3,3.7c-3.2,3.9-3.6,9.5-1,13.8c2.6,4.3,7.7,6.6,12.6,5.5c4.8-1,8.7-5,9.4-9.9
			c0.1-0.6,0.1-1.2,0.1-1.8C187.7,102.8,187.2,102.8,187.2,103.1z"/>
		<path class="st2" d="M171.8,74.7c0,2.1-1.3,3.9-3.2,4.6c-2,0.7-4.2,0.1-5.5-1.5c-1.3-1.6-1.5-3.9-0.4-5.7c1.1-1.8,3.2-2.7,5.2-2.3
			C170.1,70.3,171.8,72.4,171.8,74.7c0,0.3,0.5,0.3,0.5,0c0-2.3-1.4-4.3-3.6-5.1c-2.1-0.8-4.6-0.1-6,1.7c-1.4,1.8-1.6,4.3-0.5,6.2
			c1.2,2,3.5,3,5.7,2.5c2.5-0.5,4.3-2.8,4.3-5.3C172.3,74.4,171.8,74.4,171.8,74.7L171.8,74.7z"/>
		<path class="st2" d="M150.2,89.2c0,2.1-1.3,3.9-3.2,4.6c-1.9,0.7-4.2,0.1-5.5-1.5c-1.3-1.6-1.5-3.9-0.4-5.7
			c1.1-1.8,3.2-2.7,5.2-2.3C148.5,84.9,150.1,86.9,150.2,89.2c0,0.3,0.5,0.3,0.5,0c0-2.3-1.4-4.3-3.6-5.1c-2.1-0.8-4.6-0.1-6,1.7
			c-1.4,1.8-1.6,4.3-0.5,6.2c1.2,2,3.5,3,5.7,2.5c2.5-0.5,4.3-2.8,4.3-5.3C150.7,88.9,150.2,88.9,150.2,89.2L150.2,89.2z"/>
		<path class="st3" d="M109.1,65.1c0,2.1-1.3,3.9-3.2,4.6c-1.9,0.7-4.2,0.1-5.5-1.5c-1.3-1.6-1.5-3.9-0.4-5.7
			c1.1-1.8,3.2-2.7,5.2-2.3C107.5,60.7,109.1,62.7,109.1,65.1c0,0.3,0.5,0.3,0.5,0c0-2.3-1.4-4.3-3.6-5.1c-2.1-0.8-4.6-0.1-6,1.7
			c-1.4,1.8-1.6,4.3-0.5,6.2c1.2,2,3.5,3,5.7,2.5c2.5-0.5,4.3-2.8,4.3-5.3C109.6,64.7,109.1,64.7,109.1,65.1L109.1,65.1z"/>
		<path class="st2" d="M61.3,87.9c0,2.1-1.3,3.9-3.2,4.6c-1.9,0.7-4.2,0.1-5.5-1.5c-1.3-1.6-1.5-3.9-0.4-5.7
			c1.1-1.8,3.2-2.7,5.2-2.3C59.6,83.6,61.3,85.6,61.3,87.9c0,0.3,0.5,0.3,0.5,0c0-2.3-1.4-4.3-3.6-5.1c-2.1-0.8-4.6-0.1-6,1.7
			c-1.4,1.8-1.6,4.3-0.5,6.2c1.2,2,3.5,3,5.7,2.5c2.5-0.5,4.3-2.8,4.3-5.3C61.8,87.6,61.3,87.6,61.3,87.9L61.3,87.9z"/>
		<path class="st2" d="M43.3,66.7c0,2.1-1.3,3.9-3.2,4.6c-1.9,0.7-4.2,0.1-5.5-1.5c-1.3-1.6-1.5-3.9-0.4-5.7
			c1.1-1.8,3.2-2.7,5.2-2.3C41.7,62.3,43.3,64.3,43.3,66.7c0,0.3,0.5,0.3,0.5,0c0-2.3-1.4-4.3-3.6-5.1c-2.1-0.8-4.6-0.1-6,1.7
			c-1.4,1.8-1.6,4.3-0.5,6.2c1.2,2,3.5,3,5.7,2.5c2.5-0.5,4.3-2.8,4.3-5.3C43.8,66.3,43.3,66.3,43.3,66.7L43.3,66.7z"/>
		<path class="st2" d="M45,90.8c1.3-0.2,2.6-0.4,3.8-0.6c0.3,0,0.2-0.5-0.1-0.5c-1.3,0.2-2.6,0.4-3.8,0.6
			C44.6,90.4,44.7,90.9,45,90.8z"/>
		<path class="st2" d="M37.4,92.1c1.6-0.2,3.1-0.5,4.7-0.8c0.3,0,0.2-0.5-0.1-0.5c-1.6,0.2-3.1,0.5-4.7,0.8
			C36.9,91.7,37,92.1,37.4,92.1z"/>
		<path class="st2" d="M48.6,79.1c0.9,1,1.7,2,2.6,3c0.2,0.2,0.6-0.1,0.3-0.3c-0.9-1-1.7-2-2.6-3C48.7,78.6,48.4,78.9,48.6,79.1z"/>
		<path class="st2" d="M43.3,72.9c1.1,1.3,2.2,2.5,3.2,3.8c0.2,0.2,0.6-0.1,0.3-0.3c-1.1-1.3-2.2-2.5-3.2-3.8
			C43.4,72.4,43.1,72.7,43.3,72.9z"/>
		<path class="st2" d="M58.8,76.7c-0.3,1.2-0.5,2.3-0.8,3.5c-0.1,0.3,0.4,0.4,0.5,0.1c0.3-1.2,0.5-2.3,0.8-3.5
			C59.3,76.5,58.9,76.4,58.8,76.7z"/>
		<path class="st2" d="M60.2,70.4c-0.3,1.2-0.5,2.3-0.8,3.5c-0.1,0.3,0.4,0.4,0.5,0.1c0.3-1.2,0.5-2.3,0.8-3.5
			C60.7,70.2,60.2,70.1,60.2,70.4z"/>
		<path class="st2" d="M141.8,77.6c0.4,1.3,0.7,2.6,1.1,3.9c0.1,0.3,0.6,0.2,0.5-0.1c-0.4-1.3-0.7-2.6-1.1-3.9
			C142.1,77.2,141.7,77.3,141.8,77.6z"/>
		<path class="st2" d="M139.9,71.1c0.3,1.2,0.7,2.4,1,3.6c0.1,0.3,0.6,0.2,0.5-0.1c-0.3-1.2-0.7-2.4-1-3.6
			C140.3,70.7,139.8,70.8,139.9,71.1z"/>
		<path class="st2" d="M155.2,68.8c1.4,0.8,2.9,1.6,4.3,2.3c0.3,0.1,0.5-0.3,0.2-0.4c-1.4-0.8-2.9-1.6-4.3-2.3
			C155.2,68.3,154.9,68.7,155.2,68.8z"/>
		<path class="st2" d="M148.5,65.2c1.4,0.8,2.8,1.5,4.2,2.3c0.3,0.1,0.5-0.3,0.2-0.4c-1.4-0.8-2.8-1.5-4.2-2.3
			C148.5,64.6,148.2,65.1,148.5,65.2z"/>
		<path class="st2" d="M158.9,96c1.5,0.6,3,1.2,4.5,1.9c0.3,0.1,0.4-0.4,0.1-0.5c-1.5-0.6-3-1.2-4.5-1.9
			C158.8,95.4,158.6,95.9,158.9,96z"/>
		<path class="st2" d="M151.9,93.1c1.5,0.6,2.9,1.2,4.4,1.8c0.3,0.1,0.4-0.4,0.1-0.5c-1.5-0.6-2.9-1.2-4.4-1.8
			C151.7,92.5,151.6,93,151.9,93.1z"/>
		<path class="st3" d="M81.2,60.3c-1.3-0.3-2.6-0.6-4-0.9c-0.3-0.1-0.4,0.4-0.1,0.5c1.3,0.3,2.6,0.6,4,0.9
			C81.4,60.9,81.5,60.4,81.2,60.3z"/>
		<path class="st3" d="M89.2,62.1c-1.6-0.4-3.2-0.7-4.8-1.1c-0.3-0.1-0.4,0.4-0.1,0.5c1.6,0.4,3.2,0.7,4.8,1.1
			C89.4,62.7,89.5,62.2,89.2,62.1z"/>
		<path class="st3" d="M96.3,63.7c-1.4-0.3-2.8-0.6-4.1-0.9c-0.3-0.1-0.4,0.4-0.1,0.5c1.4,0.3,2.8,0.6,4.1,0.9
			C96.5,64.2,96.6,63.8,96.3,63.7z"/>
		<path class="st3" d="M119.3,62.1c1.6-0.4,3.2-0.8,4.8-1.2c0.3-0.1,0.2-0.6-0.1-0.5l-4.8,1.2C118.9,61.7,119,62.2,119.3,62.1z"/>
		<path class="st3" d="M112.2,63.9c1.4-0.3,2.7-0.7,4.1-1c0.3-0.1,0.2-0.6-0.1-0.5l-4.1,1C111.8,63.5,111.9,64,112.2,63.9z"/>
		<path class="st4" d="M17.7,88.1l-0.1,7.8l8.7,0.1l0.1-7.8L17.7,88.1z"/>
		<path class="st5" d="M26.3,96l4,0.1l0.1-7.8l-4-0.1L26.3,96z"/>
		<path class="st6" d="M25.6,95.2l-2.8,0c0,0-0.1,0-0.1-0.1l0-1.9c0,0,0,0,0,0c0,0,0,0,0,0l2.8,0c0,0,0.1,0,0.1,0.1L25.6,95.2
			C25.7,95.2,25.7,95.2,25.6,95.2C25.6,95.2,25.6,95.2,25.6,95.2z M22.9,95.1l2.7,0l0-1.8l-2.7,0L22.9,95.1z"/>
		<path class="st6" d="M25.1,94l-1.8,0c0,0-0.1,0-0.1-0.1c0,0,0-0.1,0.1-0.1l1.8,0C25.1,93.9,25.2,93.9,25.1,94
			C25.2,94,25.1,94,25.1,94z"/>
		<path class="st6" d="M25,94.5h-1.2c0,0-0.1,0-0.1-0.1s0-0.1,0.1-0.1H25C25,94.4,25.1,94.4,25,94.5C25.1,94.5,25.1,94.5,25,94.5z"
			/>
		<path class="st4" d="M168.9,99.1l-0.1,7.8l8.7,0.1l0.1-7.8L168.9,99.1z"/>
		<path class="st5" d="M177.4,107l4,0.1l0.1-7.8l-4-0.1L177.4,107z"/>
		<path class="st6" d="M176.8,106.3l-2.8,0c0,0-0.1,0-0.1-0.1l0-1.9c0,0,0,0,0,0c0,0,0,0,0,0l2.8,0c0,0,0.1,0,0.1,0.1L176.8,106.3
			C176.8,106.2,176.8,106.2,176.8,106.3C176.8,106.3,176.8,106.3,176.8,106.3z M174,106.1l2.7,0l0-1.8l-2.7,0L174,106.1z"/>
		<path class="st6" d="M176.3,105l-1.8,0c0,0-0.1,0-0.1-0.1s0-0.1,0.1-0.1l1.8,0C176.3,104.9,176.3,104.9,176.3,105
			C176.3,105,176.3,105,176.3,105z"/>
		<path class="st6" d="M176.2,105.6H175c0,0-0.1,0-0.1-0.1s0-0.1,0.1-0.1h1.2C176.2,105.4,176.3,105.5,176.2,105.6
			C176.3,105.5,176.2,105.6,176.2,105.6z"/>
		<path class="st7" d="M143.5,53.6h-12.1v11.2h12.1V53.6z"/>
		<path class="st8" d="M144.1,53.2h-13.3v1.5h13.3V53.2z"/>
		<path class="st6" d="M142.5,55.8h-1.3v8.2h1.3V55.8z"/>
		<path class="st6" d="M140.2,55.8h-1.3v8.2h1.3V55.8z"/>
		<path class="st9" d="M143.8,43.7c0,3.8-6.3,11.2-6.3,11.2s-6.3-7.4-6.3-11.2c0-3.8,2.8-6.8,6.3-6.8S143.8,39.9,143.8,43.7z"/>
		<path class="st6" d="M140.8,43c0,1.9-1.5,3.4-3.3,3.4s-3.3-1.5-3.3-3.4c0-1.9,1.5-3.4,3.3-3.4S140.8,41.1,140.8,43z"/>
		<path class="st7" d="M69.7,53.6H57.6v11.2h12.1V53.6z"/>
		<path class="st8" d="M70.3,53.2H57v1.5h13.3V53.2z"/>
		<path class="st6" d="M68.7,55.8h-1.3v8.2h1.3V55.8z"/>
		<path class="st6" d="M66.4,55.8h-1.3v8.2h1.3V55.8z"/>
		<path class="st9" d="M70,43.7c0,3.8-6.3,11.2-6.3,11.2s-6.3-7.4-6.3-11.2c0-3.8,2.8-6.8,6.3-6.8C67.2,36.9,70,39.9,70,43.7z"/>
		<path class="st6" d="M67,43c0,1.9-1.5,3.4-3.3,3.4s-3.3-1.5-3.3-3.4c0-1.9,1.5-3.4,3.3-3.4S67,41.1,67,43z"/>
		<path class="st10" d="M92.3,129.6c-2,0.8-7.7,0.6-9.4,2.1c-1.7,1.5,0.4,3,2.5,3.4c2.1,0.4,3.9,0.2,4.8-0.1
			c0.9-0.3,3.4-0.7,6.3-0.2c2.3,0.4,2.8-1.5,2.9-2.3c0.1-0.9,0.2-3.3,0.2-3.3l-6.4-2C93.1,127.2,93.2,129.3,92.3,129.6L92.3,129.6z"
			/>
		<path class="st2" d="M95.8,92.4c-1.3,7-3.4,31.1-3.3,34.6c0,1.8,8.7,5.2,9.5,1.1c2.5-14,4.5-30.8,4.5-32.6
			C106.5,89.8,96.6,88,95.8,92.4L95.8,92.4z"/>
		<path class="st11" d="M98.4,90c2.7,0.5,5.5,2.4,5.5,5.4c0,1.8-2,18.7-4.5,32.6c-0.2,1-0.9,1.6-1.8,1.8c2.1,0.4,4,0,4.4-1.8
			c2.5-14,4.5-30.8,4.5-32.6C106.5,91.5,101.5,89.4,98.4,90z"/>
		<path class="st10" d="M122.6,140.7c-0.1-1.1-0.6-2-0.6-2l-5.5,1.1c0,0-0.2,0.8-0.1,1.1c0,0.3-0.3,3.6-0.6,5.1
			c-0.3,1.5-0.4,4.3,1.7,5c2,0.7,2.8,0,4.3-1.7c1.5-1.7,1.4-3.5,1.4-4.2C122.9,144.3,122.7,141.8,122.6,140.7L122.6,140.7z"/>
		<path class="st2" d="M111.4,104.3c0,7.1,2.1,31.3,2.8,34.7c0.4,1.8,9.5,3.2,9.5-0.9c0-14.2-0.9-31.2-1.3-33
			C121.5,99.5,111.4,99.8,111.4,104.3L111.4,104.3z"/>
		<path class="st11" d="M115.2,101c2,0.5,3.7,1.8,4.1,4c0.3,1.8,1.3,19.2,1.3,33.8c0,0.9-0.4,1.5-1,1.9c2.1,0,4.1-0.8,4.1-2.7
			c0-14.2-0.9-31.2-1.3-33C121.9,101.8,118.2,100.6,115.2,101L115.2,101z"/>
		<path class="st12" d="M77.9,52.4c-0.8-0.3-2.7-0.3-3.2-0.1c-1.6,0.7-3.5,0-3.2,1c0.3,0.8,1.5,0.7,2.1,0.7c0.2,0,0.9-0.1,0.6,0.3
			c-0.6,1.1-5.9,2.9-6,3.5c-0.1,0.6,0.6,0.5,0.8,0.5c1.8,0,2.1,1.9,4.1,1.5c1.7-0.4,4.4-2,5.1-2.4c0.7-0.4,4.3-1.7,4.3-1.7
			s-1-3.6-1.4-3.5C80.9,52.3,78.7,52.7,77.9,52.4L77.9,52.4z"/>
		<path class="st12" d="M95.5,52.6c-8.5,0.7-14.2,3.8-14.2,3.8s-3.1,1.8-2.8-3c0,0,8.8-7.9,16.3-9C100.5,43.5,100.2,52.2,95.5,52.6z
			"/>
		<path class="st13" d="M97.5,28.2c-0.5,1.1-1.6,7.7-3.9,15c-2.3,7.3,0.9,9.4,3.2,8.8c2.3-0.6,3.7-2.4,7.6-10.7
			c3.9-8.4,3.6-13,1.2-16.2C104,23,99.7,22.9,97.5,28.2z"/>
		<path class="st2" d="M97.2,56.8c-2.5,16-2,36.6-2,38.6c0,6.4,9.6,8,11,3.2c1-3.7,2.9-14.8,3.7-18.6c0.8-3.8,2.1-9.3,2-13.3
			C111.9,64.6,98,52.1,97.2,56.8z"/>
		<path class="st11" d="M105.5,83.1c-0.1,1.4-0.2,2.5-0.3,3.2c-0.4,2.9-1.2,9.9-1.9,14.9c1.3-0.4,2.4-1.2,2.8-2.6
			c1-3.7,2.9-14.8,3.7-18.6c0.3-1.6,0.7-3.5,1.1-5.4c-0.9,1.7-2,3.4-2.9,5.1C107.4,80.7,106.5,82,105.5,83.1L105.5,83.1z"/>
		<path class="st2" d="M107.6,70.6c0,15.7,3.6,35.1,4,37.1c1,6.1,10.7,5.4,11.2,0.5c0.4-3.8,0.6-14.7,0.8-18.5
			c0.2-3.7,0.7-15.3,0-19C123.2,68.7,107.6,66,107.6,70.6L107.6,70.6z"/>
		<path class="st11" d="M120.3,69.8c0,0,0,0.1,0.1,0.1c0.7,3.8,0.2,15.5,0,19.3c-0.2,3.6-0.7,22.2-0.7,22.4c1.6-0.6,2.9-1.8,3.1-3.5
			c0.4-3.8,0.6-14.7,0.8-18.5c0.2-3.7,0.7-15.3,0-19C123.4,70.2,122.1,69.9,120.3,69.8z"/>
		<path class="st14" d="M117.9,69.8c0.9,0,1.7,0,2.4,0.1C120.1,69.5,119.2,69.6,117.9,69.8z"/>
		<path class="st14" d="M117.9,69.8c-2.6,0-5.6,0-7.7-0.4C112.9,70.4,115.9,70,117.9,69.8z"/>
		
			<linearGradient id="SVGID_00000062895719945129689150000001988161295829275557_" gradientUnits="userSpaceOnUse" x1="95.4186" y1="113.1781" x2="128.4838" y2="113.1781" gradientTransform="matrix(1 0 0 -1 0 161)">
			<stop  offset="0" style="stop-color:#FFAD00"/>
			<stop  offset="1" style="stop-color:#FF7700"/>
		</linearGradient>
		<path style="fill:url(#SVGID_00000062895719945129689150000001988161295829275557_);" d="M120.4,23.7c-0.3-0.8-0.8-1.7-1.5-2.4
			c-0.4-0.4-2-0.6-2-0.6l-8.4,2.1c0,0-4.7,0.2-6,0.9c-1.9,0.9-7.4,45.1-7.1,45.4c0.2,0.3,5.6,2.6,8.1,3.2l1.6-3.6l2.1,5.1
			c7.1,1.5,17,1.2,17,1.2l4.4-43.4l-6.3-5.3C121.4,25.6,120.8,24.7,120.4,23.7z"/>
		<path class="st13" d="M118.3,20.7c-3.1-2.4-8.8,1.3-10.1,6.1c-0.5,2-0.6,10.3-0.5,11c0.1,2.9,0.1,4.7,0.1,4.7
			c0.6-2,5.1-9.3,5.9-10.7c1.5-2.5,2.9-4.6,3.9-5.8C120,22.9,119.3,21.5,118.3,20.7L118.3,20.7z"/>
		<path class="st13" d="M107.9,29.1c-0.2,1.7-0.3,4.1-0.3,6.5c0,0.8,0,1.5,0,2.1l0.8,2.6c0,0,2.5-3.8,2.7-4.2c0.8-1.5,1.7-3,2.5-4.4
			l-2.6-3.3L107.9,29.1L107.9,29.1z"/>
		<path class="st12" d="M117.3,18.1c0,0-7,3.8-7,5.5c0,1.7,1.9,3.2,1.9,3.2c2.6,0,5-2.8,5.9-3.9c0.2-0.3,0.3-0.7,0.2-1
			C117.4,19.5,117.3,18.1,117.3,18.1L117.3,18.1z"/>
		<path class="st16" d="M117.3,18.1c0,0-7,3.8-7,5.5c0,0.3,0.1,0.6,0.2,0.9c0.5-0.2,1.1-0.3,1.7-0.3c1.4,0,2.5,0.5,3.3,1.2
			c1.2-0.9,2.1-1.9,2.6-2.5c0.2-0.3,0.3-0.7,0.2-1C117.4,19.5,117.3,18.1,117.3,18.1L117.3,18.1z"/>
		<path class="st12" d="M119.7,14c0,0,1.9-9-6.1-9c-8,0-6.7,9.1-6.3,10c0.4,0.9-0.2,0.8-0.1,2.3c0.1,2.1,2,4.7,2.3,5.6
			c0.3,0.9,1.5,1.2,2.4,0.9c5.2-2,6.3-5.1,6.3-5.1c0.8,0.1,1.2-0.9,1.3-1.5c0.1-0.6,0.2-0.7,0.5-1.9C120.3,14.3,119.7,14.1,119.7,14
			L119.7,14z"/>
		<path class="st16" d="M119.7,14c0,0,1.7-7.9-4.7-8.9c0.8,0.9,1.3,2,1.3,3.2c0,1.7,0.2,5-0.8,6.3c0.7,0.8,1.3,5.6-1,7.3
			c-1.1,0.8-2.2,1.5-3.6,1.6c-0.4,0-0.7,0-1.1-0.1c0.5,0.5,1.4,0.7,2.1,0.4c5.2-2,6.3-5.1,6.3-5.1c0.8,0.1,1.2-0.9,1.3-1.5
			c0.1-0.6,0.2-0.7,0.5-1.9C120.3,14.3,119.7,14.1,119.7,14L119.7,14z"/>
		<path class="st17" d="M113.1,4.5c-7.2,0.2-7.8,8.9-5,8.8c3.1-0.1,6.1-3.5,7.7-2.8c1.9,0.8,0.6,1.8,0.7,5.6c0,0,0.2,1.3,0.5,1.3
			c0.5,0,0.7-1.4,0.8-1.7c0.1-0.6,1.3-2.5,2.3-1C122.6,8.5,118.5,4.3,113.1,4.5z"/>
		<path class="st18" d="M111.6,64.9L91.9,76.7V58.3l19.7-11.8V64.9z"/>
		<path class="st19" d="M111.6,46.5L91.9,58.3L72.3,46.5l19.7-11.8L111.6,46.5z"/>
		<path class="st20" d="M103,41.4L83.3,53.1l-2.4-1.5l19.7-11.8L103,41.4z"/>
		<path class="st21" d="M91.9,76.7L72.3,64.9V46.5l19.7,11.8V76.7z"/>
		<path class="st22" d="M83.3,57l-2.4-1.5v-3.9l2.4,1.5V57z"/>
		<path class="st22" d="M83.3,71.6l-2.4-1.5v-3.8l2.4,1.5V71.6z"/>
		<path class="st12" d="M105.4,60.7c-0.3,0-2.6,0.2-3.3-0.1c-0.7-0.4-2.7-0.6-3.2-0.4c-1.6,0.5-3.5-0.4-3.2,0.7
			c0.2,0.8,1.4,0.9,2.1,0.9c0.2,0,0.9,0,0.6,0.4c-0.7,1-6.2,2.2-6.3,2.8c-0.2,0.6,0.5,0.6,0.8,0.6c1.8,0.2,1.9,2.1,3.9,1.9
			c1.7-0.2,4.5-1.5,5.3-1.9c0.8-0.4,4.2-0.8,4.2-0.8S105.7,60.7,105.4,60.7L105.4,60.7z"/>
		<path class="st16" d="M98.8,66.5c-1.8,0.7-2.3-1.3-4-1.3c-0.2,0-0.9,0.1-0.8-0.5c0-0.5,5-2.1,5.5-3.1c0.2-0.3-0.3-0.3-0.5-0.3
			c-0.3,0.2-0.7,0.3-1.1,0.4c0.3,0,0.6,0,0.4,0.3c-0.7,1-6.2,2.2-6.3,2.8s0.5,0.6,0.8,0.6c1.8,0.2,1.9,2.1,3.9,1.9
			c1.7-0.2,4.5-1.5,5.3-1.9c0.8-0.4,4.2-0.8,4.2-0.8s-0.1-0.5-0.1-1.2c-1,0.2-3.2-1.3-3.6-1.2C100.9,62.8,102.9,65,98.8,66.5
			L98.8,66.5z"/>
		<path class="st12" d="M119.7,54.1c-8.1,4.5-16.3,6.7-16.3,6.7s-3.2,1,0.2,4.4c0,0,12.4-1.7,19-5.2
			C129.3,56.4,123.8,51.8,119.7,54.1z"/>
		<path class="st13" d="M128.6,31.6c-1.8-1.9-6.1-1.3-7.6,4.2c-0.3,1.2-1.3,7.7-2.6,15.3c-1.3,7.5,3.3,7.5,5.5,6.6
			c2.2-0.9,2.2-1.2,4.9-10C131.6,38.8,131.4,34.4,128.6,31.6L128.6,31.6z"/>
	</g>
</g>
</svg>
