<?xml version="1.0" encoding="utf-8"?>
<!-- Generator: Adobe Illustrator 27.1.1, SVG Export Plug-In . SVG Version: 6.00 Build 0)  -->
<svg version="1.1" id="레이어_1" xmlns="http://www.w3.org/2000/svg" xmlns:xlink="http://www.w3.org/1999/xlink" x="0px"
	 y="0px" viewBox="0 0 300 150" style="enable-background:new 0 0 300 150;" xml:space="preserve">
<style type="text/css">
	.st0{fill:#FF9015;}
	.st1{fill:#FFFFFF;filter:url(#Adobe_OpacityMaskFilter);}
	.st2{mask:url(#mask0_934_109_00000092415488032030799220000007602966937304945301_);}
	.st3{fill:#122641;}
	.st4{fill:#FFFFFF;}
	.st5{fill:#FFFFFF;stroke:#122641;stroke-miterlimit:10;}
	.st6{fill:none;stroke:#FF9015;stroke-linecap:round;stroke-miterlimit:10;}
	.st7{fill:#DAE5EB;}
	.st8{fill:none;stroke:#122641;stroke-linecap:round;stroke-miterlimit:10;}
	.st9{fill:none;stroke:#122641;stroke-miterlimit:10;}
	.st10{fill:none;stroke:#FF9015;stroke-linecap:round;stroke-linejoin:round;}
</style>
<path class="st0" d="M68.3,91.8c0,2.5-2.1,4.6-4.6,4.6c-2.5,0-4.6-2.1-4.6-4.6c0-2.5,2.1-4.6,4.6-4.6C66.2,87.2,68.3,89.2,68.3,91.8
	z"/>
<path class="st0" d="M77.1,118.8l-0.9,0.4c-1.7,0.8-3.8,0-4.6-1.7l-6.7-14.7c-1-2.2,0-4.9,2.2-5.9c2.3-1,4.9,0,6,2.2l6.3,13.7
	C80.4,115.1,79.4,117.8,77.1,118.8z"/>
<path class="st0" d="M60.4,109.2c-0.7-0.5-1-1.4-0.5-2.2l4.9-7.8c0.5-0.7,1.5-1,2.2-0.5c0.7,0.5,1,1.4,0.5,2.2l-4.9,7.8
	C62.1,109.4,61.2,109.7,60.4,109.2z"/>
<path class="st0" d="M50.3,108c0-0.9,0.7-1.6,1.6-1.6h9.2c0.9,0,1.6,0.7,1.6,1.6c0,0.9-0.7,1.6-1.6,1.6h-9.2
	C51,109.5,50.3,108.8,50.3,108z"/>
<path class="st0" d="M69.3,128.3c-1.4-0.8-1.8-2.5-1-3.8l5.3-9.1c0.8-1.3,2.5-1.8,3.9-1c1.3,0.8,1.8,2.5,1,3.8l-5.3,9.1
	C72.3,128.6,70.6,129,69.3,128.3z"/>
<path class="st0" d="M70.4,142.4c-1.5,0-2.6-1.2-2.6-2.6v-13.6c0-1.4,1.2-2.6,2.6-2.6c1.5,0,2.6,1.2,2.6,2.6v13.6
	C73.1,141.2,71.9,142.4,70.4,142.4z"/>
<path class="st0" d="M59.3,113.7H48.1c-0.9,0-1.6-0.7-1.6-1.6c0-0.9,0.7-1.6,1.6-1.6h11.2c0.9,0,1.6,0.7,1.6,1.6
	C60.9,112.9,60.2,113.7,59.3,113.7"/>
<path class="st0" d="M59.3,120.6H48.1c-0.9,0-1.6-0.7-1.6-1.6c0-0.9,0.7-1.6,1.6-1.6h11.2c0.9,0,1.6,0.7,1.6,1.6
	C60.9,119.8,60.2,120.6,59.3,120.6"/>
<path class="st0" d="M49.7,112.4l-4.9,27.2c-0.2,0.9-1,1.5-1.9,1.3c-0.9-0.2-1.5-1-1.3-1.9l4.9-27.2c0.2-0.9,1-1.5,1.9-1.3
	C49.2,110.7,49.8,111.6,49.7,112.4"/>
<path class="st0" d="M57.7,112.4l5.1,28.7c0.2,0.9,1,1.5,1.9,1.3c0.9-0.2,1.5-1,1.3-1.9L61,111.9c-0.2-0.9-1-1.5-1.9-1.3
	C58.2,110.7,57.6,111.6,57.7,112.4z"/>
<path class="st0" d="M47.2,139.5c0,2.2-1.8,4-4,4c-2.2,0-4-1.8-4-4s1.8-4,4-4C45.4,135.5,47.2,137.3,47.2,139.5z"/>
<path class="st0" d="M45.6,139.5c0,1.3-1.1,2.4-2.4,2.4c-1.3,0-2.4-1.1-2.4-2.4s1.1-2.4,2.4-2.4C44.5,137.1,45.6,138.2,45.6,139.5z"
	/>
<path class="st0" d="M44.3,139.5c0,0.6-0.5,1.1-1.1,1.1s-1.1-0.5-1.1-1.1s0.5-1.1,1.1-1.1C43.8,138.4,44.3,138.9,44.3,139.5z"/>
<path class="st0" d="M237.4,92.3c0,2.4-2,4.4-4.5,4.4c-2.5,0-4.5-2-4.5-4.4s2-4.4,4.5-4.4C235.4,87.9,237.4,89.9,237.4,92.3z"/>
<path class="st0" d="M233,120.2c-2.6,0-4.6-2.1-4.6-4.6v-12.3c0-2.5,2.1-4.6,4.6-4.6c2.6,0,4.6,2.1,4.6,4.6v12.3
	C237.6,118.1,235.5,120.2,233,120.2z"/>
<path class="st0" d="M247.3,120.2h-15.7c-1.5,0-2.8-1.2-2.8-2.7s1.2-2.7,2.8-2.7h15.7c1.5,0,2.8,1.2,2.8,2.7
	S248.8,120.2,247.3,120.2z"/>
<path class="st0" d="M253.7,129.6l-8.5-10.3c-1-1.2-0.8-2.9,0.4-3.9c1.2-1,2.9-0.8,3.9,0.4l8.5,10.3c1,1.2,0.8,2.9-0.4,3.9
	C256.4,130.9,254.6,130.7,253.7,129.6z"/>
<path class="st0" d="M224.8,109.1l6.2-6.2c0.6-0.5,1.5-0.5,2,0c0.6,0.5,0.6,1.4,0,2l-6.2,6.2c-0.6,0.5-1.5,0.5-2,0
	C224.3,110.6,224.3,109.7,224.8,109.1z"/>
<path class="st0" d="M213.3,92.6h-4.5c-0.6,0-1.2,0.5-1.2,1.2c0,0.6,0.5,1.2,1.2,1.2h4.5c0.6,0,1.2-0.5,1.2-1.2
	C214.5,93.1,214,92.6,213.3,92.6z"/>
<path class="st0" d="M223.4,126.3h20c1.2,0,2.2-1,2.2-2.2c0-1.2-1-2.2-2.2-2.2h-20c-1.2,0-2.2,1-2.2,2.2
	C221.3,125.3,222.2,126.3,223.4,126.3z"/>
<path class="st0" d="M220.3,113.8h22.5c0.6,0,1.1-0.5,1.1-1.1c0-0.6-0.5-1.1-1.1-1.1h-22.5c-0.6,0-1.1,0.5-1.1,1.1
	C219.2,113.3,219.7,113.8,220.3,113.8z"/>
<path class="st0" d="M241.8,112.7v22.5c0,0.6,0.5,1.1,1.1,1.1s1.1-0.5,1.1-1.1v-22.5c0-0.6-0.5-1.1-1.1-1.1S241.8,112.1,241.8,112.7
	z"/>
<path class="st0" d="M214.2,100.7l6.9,23.6c0.4,1.5,2,2.3,3.5,1.9c1.5-0.4,2.4-2,1.9-3.5l-6.9-23.6c-0.4-1.5-2-2.3-3.5-1.9
	C214.7,97.7,213.8,99.2,214.2,100.7z"/>
<path class="st0" d="M212.3,94.1l3.8,12.9c0.2,0.6,0.8,1,1.4,0.8c0.6-0.2,1-0.8,0.8-1.4l-3.8-12.9c-0.2-0.6-0.8-1-1.4-0.8
	C212.5,92.8,212.1,93.4,212.3,94.1"/>
<path class="st0" d="M251.2,135.9h10c0.9,0,1.6-0.7,1.6-1.6c0-0.9-0.7-1.6-1.6-1.6h-10c-0.9,0-1.6,0.7-1.6,1.6
	C249.6,135.2,250.3,135.9,251.2,135.9z"/>
<path class="st0" d="M241.9,125.6l7.6,9.5c0.8,0.9,2.1,1.1,3.1,0.3c0.9-0.8,1.1-2.1,0.3-3.1l-7.6-9.5c-0.8-0.9-2.1-1.1-3.1-0.3
	C241.3,123.3,241.1,124.7,241.9,125.6z"/>
<path class="st0" d="M246.4,135.7c0.1,2-1.5,3.6-3.4,3.6c-2,0.1-3.6-1.5-3.7-3.4c-0.1-1.9,1.5-3.6,3.4-3.6
	C244.7,132.3,246.3,133.8,246.4,135.7z"/>
<path class="st0" d="M244.4,135.8c0,0.8-0.6,1.5-1.5,1.5c-0.8,0-1.5-0.6-1.5-1.4c0-0.8,0.6-1.5,1.5-1.5
	C243.6,134.3,244.3,135,244.4,135.8z"/>
<path class="st0" d="M224.4,117.5v-7.3c0-0.8,0.6-1.4,1.4-1.4c0.8,0,1.4,0.6,1.4,1.4v7.3c0,0.8-0.6,1.4-1.4,1.4
	C225,118.9,224.4,118.3,224.4,117.5z"/>
<path class="st0" d="M221.5,114.9c-6.8,0.2-12.2,5.8-12,12.6c0.2,6.8,5.9,12.1,12.7,11.9c6.8-0.2,12.2-5.8,12-12.6
	C234,120,228.3,114.7,221.5,114.9L221.5,114.9z M222.1,135.7c-1,0-2-0.1-2.9-0.4c-3.4-1.1-5.9-4.2-6-7.9c0-1.5,0.3-2.8,0.9-4.1
	c0,0,0,0,0-0.1c0,0,0,0,0-0.1c1.4-2.7,4.2-4.6,7.4-4.7c2.6-0.1,5,1,6.6,2.8c1.4,1.5,2.2,3.4,2.3,5.6c0,0.8-0.1,1.5-0.2,2.2
	C229.4,132.8,226.1,135.6,222.1,135.7L222.1,135.7z"/>
<path class="st0" d="M230.5,126.9c0,0.8-0.1,1.5-0.2,2.2C230.4,128.4,230.5,127.6,230.5,126.9z"/>
<path class="st0" d="M214.1,123.3C214.1,123.3,214.1,123.2,214.1,123.3C214.1,123.2,214.1,123.2,214.1,123.3z"/>
<path class="st0" d="M213.2,127.4c0-1.5,0.3-2.8,0.9-4.1C213.5,124.5,213.2,125.9,213.2,127.4c0.1,3.7,2.6,6.8,6,7.9
	C215.8,134.2,213.3,131.1,213.2,127.4L213.2,127.4z"/>
<path class="st0" d="M221.7,122.7c-2.5,0.1-4.4,2.1-4.4,4.6c0.1,2.5,2.2,4.4,4.6,4.3c2.5-0.1,4.5-2.1,4.4-4.6
	C226.3,124.5,224.2,122.6,221.7,122.7L221.7,122.7z"/>
<defs>
	<filter id="Adobe_OpacityMaskFilter" filterUnits="userSpaceOnUse" x="87.1" y="47.9" width="122" height="143">
		<feColorMatrix  type="matrix" values="1 0 0 0 0  0 1 0 0 0  0 0 1 0 0  0 0 0 1 0"/>
	</filter>
</defs>
<mask maskUnits="userSpaceOnUse" x="87.1" y="47.9" width="122" height="143" id="mask0_934_109_00000092415488032030799220000007602966937304945301_">
	<path class="st1" d="M217.5,34.6H76.4v106.5h141.1V34.6z"/>
</mask>
<g class="st2">
	<path class="st3" d="M193.2,91.7c-0.4-0.5-0.9-1.1-1.5-1c-0.8,0-1.2,0.8-1.5,1.5c-0.9,2.4-0.8,4.9-0.4,7.3c0.2,1.2,0.5,2.4,1.4,3.3
		c0.1,0.1,0.2,0.2,0.3,0.2c0.2,0,0.3,0,0.4-0.1c0.9-0.5,1.5-1.4,1.5-2.3"/>
	<path class="st3" d="M193.5,91.5c-0.4-0.5-0.8-1-1.4-1.1c-0.6-0.2-1.2,0.1-1.6,0.5c-0.4,0.4-0.7,1.1-0.9,1.6
		c-0.2,0.8-0.4,1.6-0.5,2.4c-0.2,1.6-0.1,3.2,0.2,4.8c0.1,0.7,0.3,1.3,0.5,1.9c0.2,0.5,0.6,1.3,1.2,1.6c0.6,0.3,1.3-0.3,1.7-0.7
		c0.5-0.5,0.8-1.2,0.9-1.9c0-0.4-0.6-0.4-0.7,0c-0.1,0.7-0.4,1.3-0.9,1.7c-0.1,0.1-0.3,0.3-0.5,0.3c-0.3,0.1-0.4,0-0.6-0.2
		c-0.2-0.2-0.4-0.5-0.5-0.8c-0.6-1.3-0.7-2.8-0.8-4.2c-0.1-1.6,0-3.1,0.5-4.7c0.2-0.6,0.4-1.3,0.9-1.6c0.7-0.4,1.2,0.3,1.6,0.8
		C193.2,92.2,193.8,91.9,193.5,91.5L193.5,91.5z"/>
	<path class="st4" d="M142.1,65l0.4,14h10.6l0.1-14.1L142.1,65z"/>
	<path class="st5" d="M115.7,93.3l5-7.9c2-3.1,4.6-5.7,7.8-7.6c3.9-2.3,9.2-4.7,13.4-3.8l3.4,3.3l4.8-0.2l3.8-3.1
		c0,0,2.6-0.4,6.9,1.4c2.3,1,6.4,2.7,9,5.3c1,0.9,2.9,2.8,3.7,3.9c6.3,9,6.2,14.7,6.2,14.7l-13.4,1.3l-0.3,8.9l-32.8-3.8l-1.7-6.8
		l-2.7,2.2l-4.2,2.2l-7.6,2.4l-5.3-2.1L115.7,93.3L115.7,93.3z"/>
	<path class="st4" d="M140.8,74.1h-2.3l9.8,33.3l8.9-33.1l-1.9-0.3l-1.7,2.6l-8.9,0.7L140.8,74.1z"/>
	<path class="st6" d="M127.6,64.8h-2.7"/>
	<path class="st6" d="M126.2,63.4v2.7"/>
	<path class="st0" d="M131.8,63.8c-0.3,0.3-0.9,0.3-1.3,0c-0.3-0.3-0.3-0.9,0-1.2c0.3-0.3,0.9-0.3,1.3,0
		C132.1,62.9,132.1,63.4,131.8,63.8z"/>
	<path class="st7" d="M129,68.4c-0.3-0.3-0.3-0.7,0-1c0.3-0.3,0.7-0.3,1,0c0.3,0.3,0.3,0.7,0,1C129.7,68.7,129.2,68.7,129,68.4z"/>
	<path class="st3" d="M140.7,52.1c0.1-1.2,0.9-2.2,1.8-2.9c1-0.7,2.1-1,3.3-1.2c1.6-0.2,3.2-0.2,4.7,0.2c2.4,0.7,4.3,2.6,5.3,4.8
		c1,2.3,1,4.9,0.1,7.2l-2.9,2.8l-11.7-0.6l-2-0.5l-0.5-1.8c-0.3-1.2-0.4-2.4-0.3-3.6c0-1,0.1-2,0.4-2.9c0.4-0.9,1.1-1.7,2-2"/>
	<path class="st3" d="M177.2,90.2c-2-4.1-4.8-7.8-8.4-10.7c-2.8-2.2-6-3.9-9.4-5c-1.4-0.4-2.9-0.8-4.4-0.9c-0.4,0-0.4,0.6,0,0.7
		c2.8,0.3,5.5,1.2,8.1,2.5c3.5,1.7,6.7,4.1,9.2,7.1c1.7,2,3.2,4.3,4.3,6.7C176.8,90.9,177.4,90.6,177.2,90.2L177.2,90.2z"/>
	<path class="st4" d="M154.4,61.7c0.3-0.5,0.3-0.7,0.6-0.9c0.2-0.3,0.7-0.4,1-0.3c0.4,0.1,0.7,0.6,0.8,1.1c0.1,0.7-0.2,1.3-0.6,1.9
		c-0.4,0.5-0.9,0.9-1.5,1.2"/>
	<path class="st3" d="M154.7,61.9c0.2-0.3,0.4-0.9,0.8-1c0.2-0.1,0.4-0.1,0.6,0c0.2,0.1,0.3,0.4,0.3,0.6c0.2,1.3-0.9,2.2-1.9,2.8
		c-0.4,0.2,0,0.8,0.3,0.6c1.1-0.6,2.1-1.5,2.2-2.8c0.1-0.6,0-1.2-0.4-1.6c-0.4-0.4-1-0.4-1.5-0.2c-0.5,0.2-0.7,0.8-1,1.3
		C153.9,61.9,154.5,62.2,154.7,61.9L154.7,61.9z"/>
	<path class="st3" d="M130.1,120c1,16.2,2.1,31.3,3.1,47.5c0.4,7,0.9,16.1,1.3,23.1h10.3l3.3-65.4"/>
	<path class="st3" d="M129.8,120c0.6,9.7,1.2,19.3,1.9,29c0.6,9.1,1.2,18.2,1.7,27.4c0.3,4.7,0.5,9.5,0.8,14.2
		c0,0.2,0.2,0.3,0.3,0.3h10.3c0.2,0,0.3-0.2,0.3-0.3c0-0.6,0.1-1.2,0.1-1.8l0.2-4.7l0.4-7l0.4-8.6l0.5-9.4c0.2-3.2,0.3-6.3,0.5-9.5
		l0.4-8.9l0.4-7.5l0.3-5.4c0-0.8,0.1-1.7,0.1-2.6c0,0,0-0.1,0-0.1c0-0.4-0.7-0.4-0.7,0c0,0.6-0.1,1.2-0.1,1.8l-0.2,4.7l-0.4,7
		l-0.4,8.6l-0.5,9.4c-0.2,3.2-0.3,6.3-0.5,9.5l-0.4,8.9l-0.4,7.5l-0.3,5.4l-0.1,1.7c0,0.3-0.1,0.6,0,0.9c0,0,0,0.1,0,0.1l0.3-0.3
		h-10.3l0.3,0.3c-0.5-8.5-0.9-16.9-1.5-25.4c-0.6-9.6-1.2-19.2-1.9-28.7c-0.4-5.5-0.7-10.9-1.1-16.4
		C130.5,119.6,129.8,119.6,129.8,120L129.8,120z"/>
	<path class="st3" d="M165.3,120c-1,16.2-2.1,31.3-3.1,47.5c-0.4,7-0.9,16.1-1.3,23.1h-10.3l-3.2-64.6"/>
	<path class="st3" d="M165,120c-0.6,9.7-1.2,19.3-1.9,29c-0.6,9.1-1.2,18.2-1.7,27.4c-0.3,4.7-0.5,9.5-0.8,14.2l0.3-0.3h-10.3
		l0.3,0.3c0-0.6-0.1-1.2-0.1-1.7l-0.2-4.7c-0.1-2.3-0.2-4.6-0.3-7l-0.4-8.5c-0.2-3.1-0.3-6.2-0.5-9.3l-0.5-9.4
		c-0.1-2.9-0.3-5.8-0.4-8.7l-0.4-7.4l-0.3-5.3c0-0.8-0.1-1.7-0.1-2.5c0,0,0-0.1,0-0.1c0-0.4-0.7-0.4-0.7,0c0,0.6,0.1,1.2,0.1,1.7
		l0.2,4.7c0.1,2.3,0.2,4.6,0.3,7l0.4,8.5c0.2,3.1,0.3,6.2,0.5,9.3l0.5,9.4c0.1,2.9,0.3,5.8,0.4,8.7l0.4,7.4l0.3,5.3
		c0,0.8,0.1,1.7,0.1,2.5c0,0,0,0.1,0,0.1c0,0.2,0.1,0.3,0.3,0.3h10.3c0.2,0,0.3-0.2,0.3-0.3c0.5-8.5,0.9-16.9,1.5-25.4
		c0.6-9.6,1.2-19.2,1.9-28.7c0.4-5.5,0.7-10.9,1.1-16.4C165.7,119.6,165,119.6,165,120z"/>
	<path class="st4" d="M129.7,105.4v23.4l36.3-0.2c0,0,0.6-17.8,0-22.9"/>
	<path class="st3" d="M129.3,105.4v23.4c0,0.2,0.2,0.3,0.3,0.3c1.2,0,2.4,0,3.6,0c2.9,0,5.8,0,8.7,0l10.5-0.1c3,0,6,0,9,0l3,0
		c0.5,0,1,0,1.4,0c0,0,0,0,0.1,0c0.2,0,0.3-0.2,0.3-0.3c0.1-2.1,0.1-4.2,0.2-6.3c0.1-3.9,0.2-7.8,0.1-11.7c0-1.6-0.1-3.3-0.3-4.9
		c-0.1-0.4-0.7-0.4-0.7,0c0.2,1.4,0.2,2.8,0.2,4.2c0,1.9,0,3.8,0,5.7c0,3.6-0.1,7.1-0.2,10.7c0,0.8,0,1.5-0.1,2.3l0.3-0.3
		c-1.2,0-2.4,0-3.6,0l-8.7,0l-10.5,0.1l-9,0l-3,0c-0.4,0-1-0.1-1.4,0c0,0,0,0-0.1,0l0.3,0.3v-23.4C130,105,129.3,105,129.3,105.4
		L129.3,105.4z"/>
	<path class="st4" d="M140.6,61.7c-0.3-0.5-0.3-0.7-0.6-0.9c-0.2-0.3-0.7-0.4-1-0.3c-0.4,0.1-0.7,0.6-0.8,1.1
		c-0.1,0.7,0.2,1.3,0.6,1.9c0.4,0.5,0.9,0.9,1.5,1.2"/>
	<path class="st3" d="M140.9,61.5c-0.2-0.4-0.4-0.9-0.8-1.2c-0.4-0.3-1.1-0.4-1.6-0.1c-1,0.8-0.7,2.4,0,3.2c0.4,0.6,1,1,1.6,1.3
		c0.4,0.2,0.7-0.4,0.3-0.6c-1-0.5-2.1-1.5-1.9-2.8c0-0.2,0.1-0.5,0.3-0.6c0.2-0.1,0.4-0.1,0.6,0c0.4,0.1,0.6,0.7,0.8,1
		C140.5,62.2,141.1,61.9,140.9,61.5L140.9,61.5z"/>
	<path class="st4" d="M151.3,52.5l2.4,3.5c0.7,3.3,0.9,6.2,0.6,9.4c-0.4,3.2-1.7,4.6-2.9,5.3c-3.2,2-6.2,1.1-7.9,0
		c-1.1-0.7-2.5-2.1-2.9-5.3c-0.4-3.2-0.1-6.1,0.6-9.4l0.8-3.5"/>
	<path class="st3" d="M151,52.6c0.5,0.7,1,1.4,1.5,2.1l0.8,1.2c0,0.1,0.1,0.1,0.2,0.2c0.1,0.2,0.1,0.5,0.1,0.7
		c0.1,0.3,0.1,0.6,0.2,1c0.4,2.2,0.5,4.5,0.3,6.7c-0.1,1.7-0.5,3.5-1.6,4.8c-2.1,2.5-6,2.8-8.7,1c-1.1-0.7-1.8-1.7-2.2-2.9
		c-0.7-2-0.7-4.3-0.6-6.4c0.1-2.9,0.9-5.7,1.5-8.6c0.1-0.4-0.6-0.6-0.7-0.2c-0.6,2.6-1.3,5.2-1.5,7.8c-0.2,2.3-0.2,4.7,0.4,6.9
		c0.4,1.4,1.1,2.6,2.2,3.5c2.7,2.1,6.7,2.1,9.3-0.1c1.1-0.9,1.8-2.3,2.2-3.7c0.6-2.2,0.5-4.7,0.3-6.9c-0.1-0.6-0.1-1.3-0.2-1.9
		c0-0.3-0.1-0.6-0.2-0.9c-0.1-0.4-0.1-0.8-0.2-1.1c-0.1-0.3-0.4-0.6-0.6-0.9c-0.6-0.9-1.2-1.8-1.9-2.7
		C151.3,51.9,150.7,52.3,151,52.6L151,52.6z"/>
	<path class="st3" d="M144,61.9c0,0.3-0.2,0.5-0.6,0.5c-0.3,0-0.6-0.2-0.6-0.5c0-0.3,0.2-0.5,0.6-0.5C143.8,61.4,144,61.6,144,61.9z
		"/>
	<path class="st3" d="M151.3,61.9c0,0.3-0.2,0.5-0.6,0.5c-0.3,0-0.6-0.2-0.6-0.5c0-0.3,0.2-0.5,0.6-0.5
		C151,61.4,151.3,61.6,151.3,61.9z"/>
	<path class="st3" d="M146.5,62.1c0,1,0,1.9,0.1,2.9c0,0.2,0.1,0.3,0.3,0.3c0.2,0,0.4-0.2,0.3-0.3c-0.1-1-0.1-1.9-0.1-2.9
		C147.2,61.7,146.5,61.7,146.5,62.1z"/>
	<path class="st3" d="M149.3,66.3c-0.1,0.1-0.1,0.1-0.1,0.2c-0.1,0.1-0.1,0.1-0.2,0.2c0,0-0.1,0-0.1,0.1c0,0-0.1,0-0.1,0.1
		c-0.1,0.1-0.1,0.1-0.2,0.1c-0.4,0.1-0.8,0.1-1.1-0.1c-0.2-0.1-0.5,0-0.5,0.3c0,0.3,0.1,0.5,0.2,0.8c0.2,0.5,0.6,0.8,1.1,0.9
		c0.5,0.1,1-0.1,1.3-0.5c0.3-0.3,0.4-0.7,0.4-1.2c0-0.2,0-0.5,0-0.7c0-0.2-0.3-0.3-0.4-0.2c-0.2,0.1-0.3,0.2-0.2,0.4c0,0,0,0,0,0
		c0,0,0,0,0,0c0,0,0-0.1,0-0.1c0,0,0,0,0,0c0,0.1,0,0.2,0,0.3c0,0.1,0,0.1,0,0.2c0,0,0,0.1,0,0.1c0,0,0,0,0,0c0,0.1,0,0,0,0
		s0,0.1,0,0.1c0,0.1,0,0.2-0.1,0.2c0,0,0,0.1,0,0.1c0,0.1,0-0.1,0,0c0,0,0,0,0,0.1c0,0,0,0.1-0.1,0.1c0,0,0,0,0,0c0,0,0-0.1,0,0
		c0,0,0,0,0,0c0,0-0.1,0.1-0.1,0.1c0,0-0.1,0.1,0,0c0,0,0,0,0,0c0,0-0.1,0-0.1,0.1c0,0,0,0,0,0c0,0,0,0,0,0c0,0,0,0-0.1,0
		c0,0-0.1,0-0.1,0c-0.1,0,0.1,0,0,0c0,0-0.1,0-0.1,0c-0.1,0-0.1,0-0.2,0c-0.1,0,0,0,0,0c0,0-0.1,0-0.1,0c0,0,0,0-0.1,0c0,0,0,0,0,0
		c0,0,0.1,0,0,0c0,0-0.1,0-0.1-0.1c0,0,0,0,0,0c0,0,0,0,0,0c0,0-0.1-0.1-0.1-0.1c0,0.1,0,0,0,0c0,0,0,0,0-0.1c0,0,0-0.1-0.1-0.1
		c0,0,0,0,0-0.1c0,0.1,0,0,0,0c0,0,0-0.1,0-0.1c0-0.1,0-0.1-0.1-0.2c0,0,0-0.1,0-0.1c0,0,0,0.1,0,0c0,0,0,0,0,0c0,0,0,0,0-0.1
		l-0.5,0.3c0.5,0.3,1.1,0.3,1.6,0.1c0.5-0.2,0.9-0.5,1.2-0.9c0.1-0.2,0-0.4-0.1-0.5C149.6,66.1,149.4,66.2,149.3,66.3L149.3,66.3z"
		/>
	<path class="st3" d="M141.7,69.4c0,1.8-0.1,3.7-0.1,5.5c0,0.4,0.7,0.4,0.7,0c0-1.8,0.1-3.7,0.1-5.5C142.4,69,141.7,69,141.7,69.4z"
		/>
	<path class="st3" d="M152.8,69c0,1.7,0.1,3.4,0.1,5.1c0,0.4,0.7,0.4,0.7,0c0-1.7-0.1-3.4-0.1-5.1C153.5,68.6,152.8,68.6,152.8,69z"
		/>
	<path class="st0" d="M148.1,76.6h-0.7l-0.8,1.4v1.1h2.1l-0.1-1.1L148.1,76.6z"/>
	<path class="st0" d="M146.4,78.4c-0.4,0.8-0.3,1.7,0,2.5c0,0.1,0.1,0.3,0.3,0.4c0.2,0.1,0.5,0.2,0.9,0.2c0.5,0,0.9-0.1,1.1-0.3
		c0.2-0.1,0.3-0.2,0.3-0.4c0.2-0.8,0.3-1.7-0.1-2.4"/>
	<path class="st0" d="M151.1,98l-3.1,8.3l-2.6-7.8l-0.1-1.3c-0.1-3.7,0.6-10.4,1.4-16h1.8c0.8,3.6,2.1,10.9,2.2,15L151.1,98
		L151.1,98z"/>
	<path class="st4" d="M148.3,107.9L138.7,75l-9,14.6l0,17.2L148.3,107.9z"/>
	<path class="st8" d="M138.7,75l10.3,34.8"/>
	<path class="st4" d="M157,75.1l-9.7,33.7v17.5"/>
	<path class="st9" d="M157,75.1l-9.7,33.7v17.5"/>
	<path class="st3" d="M157.4,78c0.4,1.7,0.7,3.5,1,5.3c0.1,0.9,0.3,1.7,0.4,2.6c0,0.5,0,0.9-0.3,1.3c-0.3,0.4-0.8,0.5-1.1,0.9
		c-0.5,0.6-0.4,1.5-0.4,2.3c0.1,1,0.4,2.1,0.2,3.1c-0.1,0.6-0.4,1.2-0.7,1.7c-2,3.8-4,7.5-6,11.3c-0.7,1.2-1.3,2.5-2,3.7
		c-0.2,0.4,0.4,0.7,0.6,0.3c1.7-3.2,3.4-6.3,5.1-9.5c0.9-1.8,1.9-3.5,2.8-5.3c0.2-0.4,0.4-0.7,0.6-1.1c0.4-1,0.5-2,0.4-3
		c-0.1-0.9-0.4-1.9-0.1-2.8c0.1-0.5,0.6-0.7,1-1c0.4-0.3,0.7-0.7,0.7-1.2c0.2-0.9-0.1-1.9-0.2-2.8c-0.3-2-0.7-4.1-1.1-6.1
		C158,77.4,157.3,77.5,157.4,78L157.4,78z"/>
	<path class="st3" d="M136.7,77.8c-0.4,1.8-0.7,3.6-1,5.4c-0.1,0.8-0.3,1.7-0.4,2.5c-0.1,1,0.1,1.8,0.9,2.4c0.4,0.3,0.7,0.4,0.8,0.9
		c0.1,0.4,0.1,0.9,0.1,1.3c-0.1,1.1-0.4,2.1-0.2,3.1c0.1,0.8,0.4,1.4,0.8,2.1l6,11.2c0.7,1.3,1.4,2.6,2,3.8c0.2,0.4,0.8,0,0.6-0.3
		c-1.7-3.1-3.3-6.2-5-9.3l-2.8-5.3c-0.2-0.3-0.3-0.6-0.5-0.9c-0.5-0.9-0.6-1.9-0.4-2.9c0.1-0.9,0.3-1.9,0.1-2.8
		c-0.1-0.4-0.2-0.7-0.5-1c-0.4-0.4-0.9-0.5-1.2-1c-0.2-0.5-0.1-1.2-0.1-1.7c0.1-0.4,0.1-0.9,0.2-1.3c0.3-2,0.7-4,1.1-6
		C137.4,77.5,136.8,77.4,136.7,77.8L136.7,77.8z"/>
	<path class="st4" d="M155.5,74.2c0.4,0.3,0.4,0.9,0,1.2l-4.4,3.9c-0.6,0.6-1.3,0.8-1.7,0.1c-0.3-0.5-1-2-1.5-2.7l5.7-4.1
		L155.5,74.2z"/>
	<path class="st3" d="M155.3,74.4c0.5,0.5-0.2,0.9-0.5,1.2l-1.7,1.5l-1.7,1.5c-0.3,0.3-0.8,0.8-1.2,0.9c-0.5,0.1-0.8-0.9-1-1.2
		c-0.3-0.6-0.6-1.1-1-1.7l-0.1,0.5c1.7-1.2,3.3-2.4,5-3.6c0.2-0.2,0.5-0.3,0.7-0.5l-0.4-0.1C154,73.4,154.6,73.9,155.3,74.4
		c0.3,0.3,0.8-0.2,0.5-0.5c-0.6-0.5-1.2-1-1.9-1.6c-0.1-0.1-0.3-0.1-0.4-0.1c-1.7,1.2-3.3,2.4-5,3.6c-0.2,0.2-0.5,0.3-0.7,0.5
		c-0.1,0.1-0.2,0.3-0.1,0.5c0.4,0.6,0.7,1.1,1,1.7c0.2,0.5,0.5,1.1,0.9,1.4c0.8,0.5,1.5-0.3,2.1-0.8l3.7-3.3
		c0.2-0.1,0.3-0.3,0.4-0.4c0.5-0.5,0.5-1.2,0-1.7C155.4,73.6,154.9,74.1,155.3,74.4L155.3,74.4z"/>
	<path class="st4" d="M139.8,74.2c-0.4,0.3-0.4,0.9,0,1.2l4.5,3.9c0.6,0.6,1.3,0.8,1.7,0.1c0.3-0.5,1-2,1.5-2.7l-5.8-4.1L139.8,74.2
		z"/>
	<path class="st3" d="M139.5,73.9c-0.5,0.4-0.5,1.1-0.1,1.6c0.1,0.1,0.3,0.2,0.4,0.3l1.8,1.6l1.9,1.7c0.5,0.5,1.1,1.1,1.9,1
		c0.7-0.1,0.9-0.8,1.2-1.3c0.4-0.7,0.7-1.3,1.1-2c0.1-0.2,0-0.4-0.1-0.5c-1.7-1.2-3.4-2.4-5-3.6l-0.7-0.5c-0.1-0.1-0.3,0-0.4,0.1
		L139.5,73.9c-0.3,0.3,0.1,0.8,0.5,0.5l1.9-1.6l-0.4,0.1c1.7,1.2,3.4,2.4,5,3.6l0.7,0.5l-0.1-0.5c-0.3,0.5-0.6,1-0.9,1.5
		c-0.2,0.4-0.4,0.9-0.7,1.3c-0.4,0.5-1.1-0.3-1.5-0.6l-3.4-3c-0.3-0.3-1.2-0.8-0.7-1.3C140.3,74.1,139.9,73.6,139.5,73.9z"/>
	<path class="st3" d="M118.1,90.6c1.9-4.1,4.7-7.7,8.2-10.5c2.7-2.2,5.9-3.8,9.2-4.9c1.4-0.4,2.8-0.8,4.2-0.9c0.4,0,0.4-0.7,0-0.7
		c-2.9,0.3-5.7,1.2-8.3,2.5c-3.6,1.7-6.9,4.2-9.5,7.3c-1.8,2.1-3.3,4.4-4.4,6.8C117.3,90.6,117.9,90.9,118.1,90.6L118.1,90.6z"/>
	<path class="st3" d="M129.3,90.8v37.9c0,0.2,0.2,0.3,0.3,0.3h34.8c0.5,0,1,0,1.4,0c0,0,0,0,0.1,0c0.2,0,0.3-0.2,0.3-0.3
		c0-3.4,0-6.8,0.1-10.1c0-6.5,0.1-12.9,0.1-19.4c0-2.9,0-5.8,0.1-8.8c0-0.4-0.7-0.4-0.7,0c0,5.8-0.1,11.6-0.1,17.4
		c0,5.8-0.1,11.6-0.1,17.4c0,1.2,0,2.4,0,3.5l0.3-0.3h-34.8c-0.4,0-1-0.1-1.4,0c0,0,0,0-0.1,0l0.3,0.3V90.8
		C130,90.3,129.3,90.3,129.3,90.8z"/>
	<path class="st3" d="M140.5,60.4c0.6-0.3,1-1,1.3-1.6c0.5-1.2,0.9-2.4,1.1-3.7l-2-1.2l-1.2,4.3L140.5,60.4L140.5,60.4z"/>
	<path class="st3" d="M140.6,60.7c0.9-0.5,1.3-1.4,1.7-2.3c0.4-1.1,0.7-2.2,0.9-3.4c0-0.1-0.1-0.2-0.2-0.3c-0.7-0.4-1.3-0.8-2-1.2
		c-0.2-0.1-0.4,0-0.5,0.2c-0.3,0.9-0.5,1.9-0.8,2.8c-0.1,0.4-0.3,0.9-0.4,1.3c-0.1,0.3,0.1,0.6,0.2,1c0.2,0.5,0.4,1,0.6,1.6
		c0.2,0.4,0.8,0.2,0.7-0.2l-0.5-1.3l-0.3-0.8c0,0,0-0.1-0.1-0.2c0,0-0.1,0.2,0,0.1c0.1-0.1,0.1-0.3,0.1-0.4l0.2-0.8l0.5-1.8l0.3-1.2
		l-0.5,0.2c0.7,0.4,1.3,0.8,2,1.2l-0.2-0.3c-0.1,1-0.4,2-0.8,3c-0.3,0.8-0.7,1.7-1.4,2.1C139.9,60.3,140.3,60.9,140.6,60.7
		L140.6,60.7z"/>
	<path class="st3" d="M152.2,56c0.2,1,0.6,2.1,1,3c0.3,0.6,0.7,1.2,1.2,1.5l0.8-3.6l-2.2-5l-9.3-0.1l-1.1,1.6l0.2,1
		c-0.1-0.4,0.5-0.7,0.9-0.6c0.4,0.1,0.7,0.5,1,0.7c1.4,1.4,3.5,1.9,5.5,2c2.7,0.2,4.8-0.6,4.8-0.6"/>
	<path class="st3" d="M151.9,56.1c0.2,1,0.5,1.9,0.9,2.8c0.4,0.8,0.8,1.5,1.5,2c0.2,0.1,0.5,0,0.5-0.2c0.1-0.6,0.3-1.2,0.4-1.7
		c0.1-0.6,0.4-1.2,0.4-1.8c0-0.4-0.3-1-0.5-1.3l-1-2.4c-0.2-0.5-0.5-1.1-0.7-1.6c0-0.1-0.2-0.2-0.3-0.2c-1.7,0-3.4-0.1-5.1-0.1
		l-3.2-0.1c-0.3,0-0.5,0-0.8,0c-0.3,0-0.4,0.1-0.5,0.4c-0.3,0.5-0.7,0.9-1,1.4c-0.2,0.3,0,0.9,0.1,1.3c0.1,0.4,0.7,0.3,0.7-0.1
		c0-0.4,0.5-0.2,0.7-0.1c0.3,0.2,0.4,0.4,0.7,0.6c0.4,0.4,0.9,0.7,1.5,1c1.1,0.5,2.3,0.8,3.5,0.9c1.8,0.2,3.8,0.1,5.5-0.6
		c0.4-0.2,0.2-0.8-0.2-0.6c-2,0.8-4.3,0.8-6.3,0.4c-1.3-0.3-2.6-0.7-3.6-1.7c-0.4-0.4-0.8-0.9-1.4-0.9c-0.5,0-1,0.4-1,0.9l0.7-0.1
		l-0.2-1l0,0.3l1.1-1.6l-0.3,0.2c2.7,0,5.4,0.1,8.1,0.1c0.4,0,0.8,0,1.1,0l-0.3-0.2c0.7,1.7,1.4,3.3,2.2,5l0-0.3
		c-0.3,1.2-0.6,2.4-0.8,3.6l0.5-0.2c-0.6-0.5-1-1.2-1.3-1.9c-0.3-0.8-0.6-1.6-0.8-2.5C152.4,55.5,151.8,55.7,151.9,56.1L151.9,56.1z
		"/>
	<path class="st3" d="M141.9,55.5l0.6-0.4l0.8-1.6l0.9-2.1h-1.9l-1.5,2.1L141.9,55.5z"/>
	<path class="st3" d="M102.6,91.7c0.4-0.5,0.9-1.1,1.5-1c0.8,0,1.2,0.8,1.5,1.5c0.9,2.4,0.8,4.9,0.4,7.3c-0.2,1.2-0.5,2.4-1.4,3.3
		c-0.1,0.1-0.2,0.2-0.3,0.2c-0.2,0-0.3,0-0.4-0.1c-0.9-0.5-1.5-1.4-1.5-2.3"/>
	<path class="st3" d="M102.9,91.9c0.4-0.5,0.9-1.1,1.6-0.8c0.6,0.3,0.8,1,0.9,1.6c0.5,1.5,0.6,3.1,0.5,4.7c-0.1,1.4-0.2,3-0.8,4.2
		c-0.1,0.3-0.3,0.5-0.5,0.8c-0.2,0.2-0.3,0.3-0.6,0.2c-0.2-0.1-0.3-0.2-0.5-0.3c-0.5-0.4-0.8-1-0.9-1.7c0-0.4-0.7-0.4-0.7,0
		c0.1,0.6,0.3,1.2,0.7,1.7c0.3,0.4,0.9,1,1.5,1.1c0.6,0,1.1-0.7,1.4-1.2c0.3-0.6,0.5-1.2,0.7-1.9c0.3-1.5,0.4-3.2,0.3-4.7
		c-0.1-0.8-0.2-1.6-0.4-2.4c-0.2-0.7-0.4-1.4-0.8-1.9c-0.4-0.5-0.9-0.9-1.6-0.8c-0.7,0.1-1.2,0.6-1.7,1.2
		C102.1,91.9,102.6,92.2,102.9,91.9L102.9,91.9z"/>
	<path class="st4" d="M97.5,90.7l-6.7-1.1l2,2.4l9.2,7.6c0,0,2.6,0.7,5.4-1.4c2.9-2,0-3,0-3L97.5,90.7z"/>
	<path class="st4" d="M104.7,94.9c0.5-1.7-0.8-3.4-2.3-4.4c-1.5-1-3.2-1.5-4.6-2.7c-1.3-1.1-2.2-2.8-3.9-3.1c-0.4-0.1-0.8,0-1.1,0.2
		c-0.5,0.5-0.1,1.4,0.3,2c0.8,1,1.7,2,2.6,2.8"/>
	<path class="st3" d="M105,95c0.4-1.5-0.4-3-1.5-4.1c-1.3-1.2-2.9-1.7-4.3-2.6c-0.7-0.4-1.3-1-1.9-1.6c-0.5-0.5-1-1.1-1.6-1.5
		c-0.6-0.4-1.2-0.8-1.9-0.8c-0.7-0.1-1.4,0.3-1.5,1.1c-0.1,0.9,0.5,1.6,1.1,2.2c0.7,0.8,1.4,1.6,2.2,2.3c0.3,0.3,0.8-0.2,0.5-0.5
		c-0.6-0.5-1.1-1.1-1.7-1.7c-0.5-0.5-1.1-1.1-1.3-1.8c-0.1-0.3-0.2-0.6,0.1-0.8c0.3-0.3,0.8-0.1,1.1,0c0.6,0.2,1.1,0.6,1.6,1
		c0.9,0.9,1.7,1.9,2.9,2.6c1.2,0.8,2.6,1.2,3.7,2c1.2,0.9,2.4,2.3,2,3.9C104.2,95.2,104.9,95.4,105,95L105,95z"/>
	<path class="st4" d="M87.9,89.4c-0.2-0.3-0.4-0.6-0.5-0.9c-0.1-0.3,0-0.7,0.3-0.9c0.1-0.1,0.3-0.1,0.4-0.1c0.8-0.1,1.6,0.3,2.3,0.8
		c1.5,1.3,4.4,2.5,6,2.4"/>
	<path class="st3" d="M88.2,89.2c-0.2-0.3-0.8-1.2-0.1-1.4c0.4-0.2,1,0,1.4,0.2c0.8,0.4,1.5,1.1,2.3,1.5c1.4,0.8,3.1,1.5,4.7,1.5
		c0.4,0,0.4-0.7,0-0.7c-0.9,0-1.9-0.3-2.8-0.7c-1-0.4-2-0.9-2.9-1.6c-0.9-0.7-1.8-1.3-2.9-1c-0.5,0.1-0.8,0.5-0.8,0.9
		c-0.1,0.6,0.2,1.1,0.5,1.5C87.9,89.9,88.5,89.6,88.2,89.2z"/>
	<path class="st4" d="M93.4,91.5c-0.7-0.2-1.4-0.8-1.9-1.4c-0.4-0.4-0.9-0.8-1.5-0.8c-0.6,0-1.2,0.4-1.3,0.9c-0.2,0.5,0,1.1,0.3,1.5
		c0.8,1.2,2.1,1.9,3.4,2.3"/>
	<path class="st3" d="M93.5,91.2c-0.4-0.1-0.8-0.3-1.1-0.6c-0.3-0.3-0.6-0.6-0.8-0.9c-0.6-0.5-1.4-0.8-2.2-0.5c-0.8,0.3-1.2,1.2-1,2
		c0.2,0.8,0.8,1.5,1.5,2c0.7,0.6,1.6,0.9,2.5,1.2c0.4,0.1,0.6-0.5,0.2-0.6c-1.3-0.4-2.7-1.1-3.4-2.3c-0.3-0.6-0.3-1.3,0.4-1.6
		c0.7-0.3,1.3,0.1,1.7,0.6c0.5,0.6,1.2,1.2,2.1,1.4C93.7,91.9,93.9,91.3,93.5,91.2L93.5,91.2z"/>
	<path class="st4" d="M97.3,93.8c-0.6-0.3-1.2-0.8-1.7-1.3c-0.6-0.6-1.2-1.4-2-1.2c-0.6,0.1-1.1,0.4-1.4,0.9c-0.2,0.4-0.1,1,0,1.4
		c0.1,0.5,0.5,0.8,0.9,1.1c0.9,0.8,2.1,1.6,3.3,2.1"/>
	<path class="st3" d="M97.5,93.5c-0.4-0.2-0.9-0.5-1.2-0.8c-0.3-0.3-0.6-0.7-1-1c-0.3-0.3-0.6-0.6-1.1-0.7c-0.4-0.1-0.9,0-1.3,0.1
		c-0.4,0.2-0.8,0.4-1,0.8c-0.2,0.4-0.2,0.8-0.1,1.2c0.1,0.5,0.2,0.8,0.5,1.2c0.3,0.4,0.7,0.6,1,0.9c0.9,0.7,1.9,1.3,3,1.7
		c0.4,0.2,0.6-0.5,0.2-0.6c-0.8-0.3-1.6-0.8-2.3-1.2c-0.3-0.2-0.7-0.5-1-0.8c-0.3-0.2-0.6-0.5-0.7-0.9c-0.1-0.3-0.1-0.7-0.1-1
		c0.1-0.3,0.3-0.6,0.7-0.7c0.3-0.1,0.7-0.2,1-0.1c0.3,0.1,0.6,0.4,0.8,0.7c0.7,0.7,1.3,1.3,2.2,1.7C97.6,94.3,97.9,93.7,97.5,93.5
		L97.5,93.5z"/>
	<path class="st4" d="M100.3,96.8c-0.4-0.4-0.6-0.9-0.8-1.4c-0.2-0.5-0.5-1-1-1.3c-0.5-0.3-1.1-0.4-1.6,0c-0.6,0.5-0.4,1.3-0.3,2
		c0.3,1.1,0.8,2.2,1.7,2.9c1.1,0.9,2.7,1.1,4.2,1.1c1.1,0,2.2-0.1,3-0.8"/>
	<path class="st3" d="M100.5,96.5c-0.8-1-1-2.7-2.5-3c-0.6-0.1-1.2,0-1.5,0.4c-0.4,0.4-0.4,1-0.3,1.5c0.2,1.2,0.7,2.6,1.6,3.5
		c0.9,1,2.2,1.3,3.5,1.4c1.4,0.1,3.2,0.2,4.4-0.8c0.3-0.3,0-0.8-0.3-0.6c-1.1,0.8-2.7,0.8-4.1,0.7c-1.5-0.1-2.8-0.6-3.6-1.9
		c-0.4-0.6-0.6-1.3-0.8-1.9c-0.1-0.5-0.3-1.4,0.3-1.6c0.7-0.3,1.4,0.4,1.7,0.9c0.4,0.6,0.6,1.3,1.1,1.9
		C100.3,97.3,100.8,96.9,100.5,96.5L100.5,96.5z"/>
	<path class="st3" d="M97.4,91.2c0.5,1,1.3,1.8,2.4,2.2c0.2,0.1,0.4-0.1,0.4-0.2c0-0.2-0.1-0.3-0.2-0.4c-0.1,0,0.1,0,0,0
		c0,0,0,0-0.1,0c-0.1,0-0.1-0.1-0.2-0.1c-0.1-0.1-0.2-0.1-0.3-0.2c-0.1,0-0.1-0.1-0.1-0.1c0,0,0,0-0.1,0c-0.1-0.1,0,0,0,0
		C99,92.1,98.9,92,98.8,92c-0.4-0.3-0.6-0.7-0.8-1.1c-0.1-0.2-0.3-0.2-0.5-0.1C97.4,90.8,97.3,91,97.4,91.2L97.4,91.2z"/>
	<path class="st4" d="M193.4,92.6l7.6-3.3l-1.5,1.4l2.3-0.3l3.7-0.8l-4.6,5.5l-6.7,4.6c0,0-2.6,0.7-5.4-1.4c-2.9-2,0-3,0-3
		L193.4,92.6L193.4,92.6z"/>
	<path class="st4" d="M191.5,94.9c-0.5-1.7,0.8-3.4,2.3-4.4c1.5-1,3.2-1.5,4.6-2.7c1.3-1.1,2.2-2.8,3.9-3.1c0.4-0.1,0.8,0,1.1,0.2
		c0.5,0.5,0.1,1.4-0.3,2c-0.8,1-1.7,2-2.6,2.8"/>
	<path class="st3" d="M191.9,94.8c-0.4-1.4,0.5-2.7,1.5-3.6c1.1-0.9,2.5-1.4,3.7-2.1c1.2-0.7,2.1-1.6,3-2.6c0.4-0.5,0.9-0.9,1.5-1.2
		c0.4-0.2,1.6-0.6,1.7,0.2c0.1,0.7-0.7,1.5-1.2,2c-0.6,0.7-1.2,1.4-1.9,2c-0.3,0.3,0.2,0.8,0.5,0.5c0.7-0.7,1.4-1.4,2-2.1
		c0.5-0.6,1-1.2,1.2-1.9c0.2-0.7-0.2-1.4-0.9-1.6c-0.7-0.2-1.4,0.1-2,0.5c-1.3,0.8-2.1,2.2-3.4,3.1c-1.4,1-3.1,1.5-4.5,2.5
		c-1.4,1-2.5,2.7-2,4.5C191.3,95.4,192,95.2,191.9,94.8L191.9,94.8z"/>
	<path class="st4" d="M208.3,89.4c0.2-0.3,0.4-0.6,0.5-0.9c0.1-0.3,0-0.7-0.3-0.9c-0.1-0.1-0.3-0.1-0.4-0.1
		c-0.8-0.1-1.6,0.3-2.3,0.8c-1.5,1.3-4.4,2.5-6,2.4"/>
	<path class="st3" d="M208.6,89.6c0.3-0.5,0.6-1,0.5-1.5c-0.1-0.4-0.4-0.8-0.8-0.9c-1.1-0.3-2.1,0.4-3,1c-0.8,0.6-1.8,1.2-2.8,1.6
		c-0.9,0.4-1.8,0.7-2.8,0.7c-0.4,0-0.4,0.7,0,0.7c1.6,0,3.3-0.7,4.7-1.5c0.8-0.4,1.4-1.1,2.2-1.5c0.4-0.2,1-0.4,1.5-0.3
		c0.7,0.2,0.1,1.1-0.1,1.4C207.7,89.6,208.3,89.9,208.6,89.6L208.6,89.6z"/>
	<path class="st4" d="M202.8,91.5c0.7-0.2,1.4-0.8,1.9-1.4c0.4-0.4,0.9-0.8,1.5-0.8c0.6,0,1.2,0.4,1.3,0.9c0.2,0.5,0,1.1-0.3,1.5
		c-0.8,1.2-2.1,1.9-3.4,2.3"/>
	<path class="st3" d="M202.9,91.8c0.7-0.2,1.4-0.7,1.9-1.2c0.4-0.5,0.9-1,1.7-0.9c0.3,0,0.6,0.2,0.7,0.4c0.2,0.3,0.2,0.6,0.1,1
		c-0.2,0.6-0.8,1.2-1.3,1.6c-0.7,0.5-1.4,0.8-2.2,1c-0.4,0.1-0.2,0.8,0.2,0.6c1.5-0.5,3.2-1.3,3.9-2.9c0.4-0.8,0.2-1.7-0.6-2.2
		c-0.7-0.4-1.6-0.3-2.2,0.2c-0.4,0.3-0.6,0.7-1,1c-0.3,0.3-0.8,0.6-1.2,0.7C202.3,91.3,202.5,91.9,202.9,91.8L202.9,91.8z"/>
	<path class="st4" d="M198.9,93.8c0.6-0.3,1.2-0.8,1.7-1.3c0.6-0.6,1.2-1.4,2-1.2c0.6,0.1,1.1,0.4,1.4,0.9c0.2,0.4,0.1,1,0,1.4
		c-0.1,0.5-0.5,0.8-0.9,1.1c-0.9,0.8-2.1,1.6-3.3,2.1"/>
	<path class="st3" d="M199,94.1c0.7-0.4,1.4-0.9,1.9-1.5c0.5-0.5,1-1.1,1.7-0.9c0.3,0.1,0.7,0.3,0.9,0.6c0.2,0.3,0.1,0.7,0.1,1
		c-0.1,0.8-0.8,1.3-1.4,1.7c-0.8,0.6-1.6,1.1-2.6,1.5c-0.4,0.1-0.2,0.8,0.2,0.6c1-0.4,1.8-0.9,2.7-1.5c0.7-0.5,1.6-1.1,1.8-2.1
		c0.1-0.4,0.1-0.9,0-1.3s-0.4-0.7-0.8-1c-0.4-0.2-0.8-0.4-1.2-0.3c-0.4,0-0.8,0.2-1.1,0.5c-0.4,0.3-0.7,0.7-1.1,1.1
		c-0.4,0.4-0.9,0.7-1.4,1C198.3,93.7,198.6,94.3,199,94.1L199,94.1z"/>
	<path class="st4" d="M195.9,96.8c0.4-0.4,0.6-0.9,0.8-1.4c0.2-0.5,0.5-1,1-1.3c0.5-0.3,1.1-0.4,1.6,0c0.6,0.5,0.4,1.3,0.3,2
		c-0.3,1.1-0.8,2.2-1.7,2.9c-1.1,0.9-2.7,1.1-4.2,1.1c-1.1,0-2.2-0.1-3-0.8"/>
	<path class="st3" d="M196.1,97c0.5-0.6,0.7-1.2,1.1-1.9c0.3-0.5,1-1.3,1.7-0.9c0.6,0.3,0.5,1.1,0.3,1.6c-0.2,0.7-0.4,1.3-0.8,1.9
		c-0.8,1.3-2.1,1.8-3.6,1.9c-1.3,0.1-3,0.2-4.1-0.7c-0.3-0.3-0.7,0.3-0.3,0.6c1.1,0.8,2.5,0.8,3.8,0.8c1.3,0,2.7-0.3,3.7-1.1
		c1.1-0.8,1.6-2.1,1.9-3.4c0.2-1,0-2.4-1.3-2.5c-1.8-0.1-2.1,2-3,3.1C195.4,96.8,195.9,97.3,196.1,97L196.1,97z"/>
	<path class="st3" d="M198.2,90.8c-0.1,0.2-0.2,0.4-0.4,0.6c0,0-0.1,0.1,0,0c0,0,0,0-0.1,0.1c0,0-0.1,0.1-0.1,0.1
		c-0.1,0.1-0.2,0.2-0.3,0.3c-0.1,0.1-0.2,0.2-0.3,0.2c0,0,0,0,0,0c0,0,0,0-0.1,0c-0.1,0-0.1,0.1-0.2,0.1c-0.1,0.1-0.2,0.1-0.3,0.2
		c-0.1,0-0.1,0.1-0.2,0.1c0,0-0.1,0-0.1,0c-0.1,0,0,0,0,0c-0.2,0.1-0.3,0.2-0.2,0.4c0.1,0.2,0.2,0.3,0.4,0.2c1-0.4,1.9-1.2,2.4-2.2
		c0.1-0.2,0-0.4-0.1-0.5C198.5,90.6,198.3,90.7,198.2,90.8L198.2,90.8z"/>
	<path class="st4" d="M129.4,100.8c-1.3,2.2-3.6,4.9-7.3,5.1c-6.1,0.2-12.4-0.6-18.2-2.9c0,0,3.2-4.5,0.6-12.4c0,0,9.7-1.5,17,0.5"
		/>
	<path class="st3" d="M129.1,100.6c-1.4,2.5-3.7,4.7-6.8,4.9c-1.9,0.1-3.9,0.1-5.9-0.1c-1.9-0.1-4-0.4-6-0.8c-2.2-0.5-4.4-1.1-6.5-2
		l0.2,0.5c0.4-0.6,0.7-1.4,1-2.1c0.6-1.9,0.8-3.9,0.7-5.8c-0.1-1.6-0.5-3.2-1-4.8l-0.2,0.4c0.3,0,0.6-0.1,1-0.1
		c0.9-0.1,1.8-0.2,2.7-0.2c2.7-0.2,5.4-0.2,8.1,0c1.7,0.1,3.4,0.4,5,0.8c0.4,0.1,0.6-0.5,0.2-0.6c-2.9-0.8-5.9-1-8.9-1
		c-2.3,0-4.6,0.1-6.9,0.4c-0.4,0-0.9,0.1-1.3,0.2c-0.2,0-0.3,0.3-0.2,0.4c1.2,3.6,1.6,8-0.2,11.5c-0.1,0.2-0.2,0.4-0.4,0.6
		c-0.1,0.2,0,0.4,0.2,0.5c3.9,1.6,8,2.5,12.2,2.8c2.1,0.2,4.1,0.2,6.2,0.1c1.6-0.1,3.1-0.7,4.4-1.6c1.3-1,2.3-2.2,3.1-3.6
		C129.9,100.6,129.3,100.2,129.1,100.6L129.1,100.6z"/>
	<path class="st4" d="M166.4,100.8c1.3,2.2,3.6,4.9,7.3,5.1c6.1,0.2,12.4-0.6,18.2-2.9c0,0-3.2-4.5-0.6-12.4c0,0-9.7-1.5-17,0.5"/>
	<path class="st3" d="M166.1,100.9c1.5,2.6,3.8,4.8,6.9,5.2c1,0.1,2,0.1,2.9,0.1c1,0,2.1,0,3.1-0.1c2.1-0.1,4.1-0.4,6.1-0.8
		c2.3-0.5,4.6-1.2,6.9-2.1c0.2-0.1,0.3-0.3,0.2-0.5c-0.4-0.6-0.7-1.2-0.9-1.9c-0.6-1.8-0.8-3.7-0.7-5.5c0.1-1.6,0.5-3.2,0.9-4.7
		c0.1-0.2-0.1-0.4-0.2-0.4c-4-0.6-8.1-0.7-12.1-0.3c-1.7,0.2-3.4,0.4-5,0.9c-0.4,0.1-0.2,0.8,0.2,0.6c2.9-0.8,5.9-1,8.8-1
		c2.2,0,4.5,0.1,6.7,0.4c0.3,0,0.6,0.1,0.9,0.1c0.1,0,0.2,0,0.3,0l-0.2-0.4c-1.2,3.8-1.6,8.3,0.3,12c0.1,0.2,0.2,0.5,0.4,0.7
		l0.2-0.5c-3.7,1.5-7.7,2.4-11.7,2.8c-2,0.2-3.9,0.2-5.9,0.2c-1.7,0-3.2-0.5-4.5-1.5c-1.2-0.9-2.2-2.2-3-3.5
		C166.5,100.2,165.9,100.6,166.1,100.9L166.1,100.9z"/>
</g>
<path class="st0" d="M220.3,61.5V30.2h8.4l-16.4-12.5l-15.1,12.5h8.4v31.3"/>
<path class="st10" d="M224.5,24.8h0.7"/>
<path class="st10" d="M226.1,24.8h1.4"/>
<path class="st10" d="M228,24.8h0.7l-0.5-0.4"/>
<path class="st10" d="M227.1,23.6l-13.8-10.5"/>
<path class="st10" d="M212.8,12.7l-0.5-0.4l-0.5,0.4"/>
<path class="st10" d="M210.6,13.6l-12.4,10.3"/>
<path class="st10" d="M197.6,24.3l-0.5,0.4h0.7"/>
<path class="st10" d="M198.7,24.8h1.3"/>
<path class="st10" d="M200.4,24.8h0.7"/>
<path class="st0" d="M185.9,78.1V47.9h7.8l-12.5-9.5l-11.5,9.5h6.4v30.2"/>
<path class="st10" d="M190.6,44.2h0.7"/>
<path class="st10" d="M193,44.2h0.7l-0.5-0.4"/>
<path class="st10" d="M192.1,43l-9.9-7.5"/>
<path class="st10" d="M181.7,35.1l-0.5-0.4l-0.5,0.4"/>
<path class="st10" d="M179.7,35.9l-9.1,7.5"/>
<path class="st10" d="M170.1,43.8l-0.5,0.4h0.7"/>
<path class="st10" d="M171.4,44.2h0.7"/>
<path class="st0" d="M62.1,69.3V29.7h-8.7l17-12.9l15.7,12.9H76v39.6"/>
<path class="st10" d="M57.7,24h-0.7"/>
<path class="st10" d="M56.1,24h-1.5"/>
<path class="st10" d="M54.1,24h-0.7l0.5-0.4"/>
<path class="st10" d="M55,22.8l14.4-10.9"/>
<path class="st10" d="M69.9,11.5l0.5-0.4l0.5,0.4"/>
<path class="st10" d="M72.1,12.4l12.9,10.7"/>
<path class="st10" d="M85.6,23.6l0.5,0.4h-0.7"/>
<path class="st10" d="M84.5,24h-1.4"/>
<path class="st10" d="M82.7,24H82"/>
<path class="st0" d="M90.4,81.3v-26h-5.5l10.8-8.2l9.9,8.2h-6.9v26"/>
<path class="st10" d="M87.5,52.1h-0.7"/>
<path class="st10" d="M85.6,52.1h-0.7l0.5-0.4"/>
<path class="st10" d="M86.5,50.9l8.1-6.1"/>
<path class="st10" d="M95.2,44.4l0.5-0.4l0.5,0.4"/>
<path class="st10" d="M97.2,45.2l7.4,6.1"/>
<path class="st10" d="M105.1,51.7l0.5,0.4h-0.7"/>
<path class="st10" d="M104.2,52.1h-0.7"/>
</svg>
