<?xml version="1.0" encoding="utf-8"?>
<!-- Generator: Adobe Illustrator 27.1.1, SVG Export Plug-In . SVG Version: 6.00 Build 0)  -->
<svg version="1.1" id="레이어_1" xmlns="http://www.w3.org/2000/svg" xmlns:xlink="http://www.w3.org/1999/xlink" x="0px"
	 y="0px" viewBox="0 0 300 150" style="enable-background:new 0 0 300 150;" xml:space="preserve">
<style type="text/css">
	.st0{clip-path:url(#SVGID_00000138546037861006425930000006647624173816323969_);}
	.st1{fill:#FF9015;}
	.st2{fill:#122641;}
	.st3{fill:#FFFFFF;}
	.st4{fill:none;stroke:#122641;stroke-linecap:round;stroke-miterlimit:10;}
	.st5{fill:none;stroke:#122641;stroke-linecap:round;stroke-linejoin:round;}
	.st6{fill:none;stroke:#DAE5EB;stroke-linecap:round;stroke-miterlimit:10;}
	.st7{fill:none;stroke:#FF9015;stroke-miterlimit:10;}
	.st8{fill:#DAE5EB;}
	.st9{fill:none;stroke:#DAE5EB;stroke-linecap:round;stroke-linejoin:round;}
	.st10{fill:#DAE5EB;stroke:#DAE5EB;stroke-linecap:round;stroke-linejoin:round;}
	.st11{fill:#FFFFFF;stroke:#DAE5EB;stroke-miterlimit:10;}
	.st12{fill:#DAE5EB;stroke:#DAE5EB;stroke-miterlimit:10;}
	.st13{fill:none;stroke:#FFFFFF;stroke-linecap:round;stroke-miterlimit:10;}
	.st14{fill:none;stroke:#FFFFFF;stroke-linecap:round;stroke-linejoin:round;}
</style>
<g>
	<defs>
		<rect id="SVGID_1_" x="52" y="3.1" width="194" height="143.7"/>
	</defs>
	<clipPath id="SVGID_00000084506051637455948180000010802636674969532315_">
		<use xlink:href="#SVGID_1_"  style="overflow:visible;"/>
	</clipPath>
	<g style="clip-path:url(#SVGID_00000084506051637455948180000010802636674969532315_);">
		<path class="st1" d="M169,139.1c-0.1-1.2-0.6-2.3-1-3.5c-0.2-0.4-0.4-0.9-0.5-1.3c-0.1-0.4-0.3-0.8-0.4-1.3c-0.2-1-0.4-2-0.4-3
			l-6.1-0.4c0.3,1,0.3,2,0.2,3c-0.1,0.8-0.2,1.6-0.3,2.4c-0.2,1.4-0.5,2.8-0.3,4.2c0.2,1.3,0.9,2.4,2.1,4.6c2.8,4.9,5.1,2.6,5.5,1.5
			C168.4,143.3,169.2,141.3,169,139.1L169,139.1z"/>
		<path class="st2" d="M153.4,93.3c3.1,3.4,10,8.7,13.1,12.1c0.7,0.8,1.4,1.6,1.8,2.6c0.3,0.7,0.4,1.5,0.3,2.2
			c-0.5,9.4-0.5,10.5-1,20.7c0,0.3-0.2,0.5-0.5,0.5l-7.6,0.3c-0.3,0-0.5-0.2-0.6-0.5c-0.9-7.1-1.7-9.3-2.5-16.6
			c0-0.4-0.1-0.8-0.3-1.2c-0.2-0.3-0.6-0.6-1-0.8c-4.9-2.6-12.1-4.9-15.6-9.1c-1.6-1.9-3.2-4.2-3.4-6.7"/>
		<path class="st2" d="M153.2,93.6c2.2,2.4,4.8,4.5,7.2,6.7c1.3,1.1,2.6,2.2,3.8,3.4c1.2,1.2,2.5,2.3,3.4,3.7c0.6,1,0.7,2.1,0.7,3.2
			c-0.1,1-0.1,1.9-0.2,2.9c-0.1,1.5-0.2,3-0.2,4.5c-0.1,2.7-0.2,5.5-0.4,8.2c0,1-0.1,1.9-0.1,2.9c0,0.5,0,1.1-0.1,1.6
			c0,0.2,0,0.4-0.2,0.5c-0.2,0.1-0.5,0-0.8,0l-1.5,0.1l-3.4,0.1l-1.3,0c-0.2,0-0.4,0.1-0.6,0c-0.3-0.1-0.3-0.8-0.3-1.1
			c-0.1-0.5-0.1-1-0.2-1.5c-0.1-0.9-0.3-1.8-0.4-2.7c-0.3-1.5-0.5-3.1-0.8-4.6c-0.3-1.8-0.6-3.6-0.8-5.5c-0.1-0.9-0.1-2.1-0.6-2.8
			c-0.5-0.6-1.3-1-2-1.3c-3.2-1.6-6.5-2.9-9.6-4.6c-3.1-1.8-5.9-4.2-7.5-7.5c-0.4-0.9-0.8-1.9-0.9-2.9c0-0.5-0.8-0.5-0.8,0
			c0.2,2.1,1.1,3.9,2.3,5.5c1.1,1.5,2.3,2.7,3.7,3.8c3,2.2,6.4,3.6,9.7,5.2c0.8,0.4,1.6,0.8,2.4,1.1c0.8,0.4,1.9,0.8,2.1,1.7
			c0.2,1.1,0.3,2.2,0.4,3.3c0.1,0.9,0.3,1.8,0.4,2.7c0.6,3.5,1.2,7,1.7,10.5c0.1,0.7,0.2,1.4,1,1.4c0.2,0,0.5,0,0.7,0l3.2-0.1
			l3.1-0.1c0.2,0,0.4,0,0.6,0c1-0.1,0.9-1.1,0.9-1.8c0.3-6.5,0.6-13,0.9-19.5c0.1-1.1-0.1-2.1-0.5-3.1c-0.4-0.9-1.1-1.6-1.7-2.3
			c-1.1-1.2-2.3-2.2-3.4-3.3c-2.7-2.4-5.5-4.7-8.1-7.2c-0.5-0.5-1-1-1.5-1.5C153.4,92.7,152.8,93.3,153.2,93.6L153.2,93.6z"/>
		<path class="st2" d="M163.9,90.1c4.1,2.3,8,4.9,11.8,7.8c0.8,0.6,1.6,1.3,2.1,2.2c1,2.1-0.4,4.6-1.9,6.5
			c-3.2,4.2-8.3,8.3-11.8,12.3l-12.6-15.2l-8.5-4.4"/>
		<path class="st2" d="M163.7,90.4c2.5,1.4,4.9,2.9,7.2,4.5c1.1,0.8,2.2,1.5,3.3,2.3c1,0.8,2.3,1.5,3,2.6c1.5,2.3-0.6,5.1-2,6.9
			c-1.6,2-3.5,3.9-5.3,5.7c-2.1,2-4.2,4-6.1,6.1h0.5c-2.6-3.2-5.2-6.3-7.9-9.5l-4.2-5c-0.2-0.2-0.4-0.6-0.7-0.8
			c-0.7-0.4-1.4-0.7-2.1-1.1c-2.1-1.1-4.3-2.2-6.4-3.3c-0.4-0.2-0.8,0.4-0.4,0.7c1.8,0.9,3.7,1.9,5.5,2.8l2.8,1.4
			c0.1,0,0.2,0.1,0.2,0.1c0.1,0-0.1-0.1,0,0c0.1,0.1,0.2,0.3,0.3,0.4l9.1,11c1,1.3,2.1,2.5,3.2,3.8c0.1,0.2,0.4,0.1,0.5,0
			c3.6-4,8-7.4,11.4-11.7c1.5-1.9,3.4-4.4,2.6-6.9c-0.4-1.2-1.3-2.1-2.3-2.8c-1.1-0.9-2.3-1.7-3.5-2.6c-2.7-1.9-5.5-3.7-8.4-5.3
			C163.7,89.5,163.3,90.2,163.7,90.4L163.7,90.4z"/>
		<path class="st3" d="M146.7,94.5l-16.4-10.1c-0.3,7.2,2.3,14.6,7.1,19.9C137.3,101.9,141.9,95.4,146.7,94.5z"/>
		<path class="st2" d="M146.9,94.1c-1.8-1.1-3.7-2.3-5.5-3.4l-8.8-5.5c-0.7-0.4-1.3-0.8-2-1.3c-0.3-0.2-0.6,0.1-0.6,0.3
			c-0.3,5.7,1.3,11.5,4.3,16.4c0.9,1.4,1.8,2.7,2.9,3.9c0.2,0.2,0.7,0.1,0.6-0.3c-0.1-0.8,0.3-1.6,0.7-2.3c0.5-1,1.2-2,2-2.9
			c1.6-1.9,3.8-3.7,6.3-4.2c0.5-0.1,0.3-0.8-0.2-0.7c-2.1,0.4-3.9,1.7-5.4,3.2c-1.4,1.4-2.7,3-3.5,4.8c-0.3,0.7-0.6,1.5-0.6,2.2
			l0.6-0.3c-3.7-4.1-6.1-9.4-6.8-15c-0.2-1.6-0.3-3.1-0.2-4.7l-0.6,0.3c1.8,1.1,3.7,2.3,5.5,3.4l8.8,5.5c0.7,0.4,1.3,0.8,2,1.3
			C146.9,95.1,147.3,94.4,146.9,94.1L146.9,94.1z"/>
		<path class="st3" d="M140,53.9c-1.4,0.1-2.7,0.9-3.7,2c-1,1.1-1.6,2.3-2.3,3.6c-0.7,1.3-1.4,2.7-1.8,4.2c-0.4,1.3-0.6,2.7-0.6,4.1
			c-0.2,4.6,0.9,9.3,3.1,13.3c0.6,1.1,1.3,2.2,2.3,3.1c1.2,1.1,2.6,1.9,4,2.6c1.4,0.7,2.9,1.3,4.5,1.7c3.1,0.8,6.4,0.6,9.6-0.1
			c2.6-0.6,5.1-1.5,7.4-2.7c1-0.5,2-1.1,2.8-1.9c1.7-1.8,2.4-4.3,2.9-6.7c0.4-1.6,1.5-1.4,1.2-3c-0.3-1.7-1.4-6.2-2.3-7.6
			c-1.7-2.7-3.3-4.7-5.4-7c-2.1-2.3-5.4-3.8-8.4-4.7c-2.1-0.6-4.2-0.7-6.4-0.7c-2.1-0.1-4.2-0.1-6.3-0.1"/>
		<path class="st2" d="M159.3,98.7c2.7,2.4,5.5,4.8,7.3,6.7c0.7,0.8,1.4,1.6,1.8,2.6c0.3,0.7,0.4,1.5,0.3,2.2c0,0.8-0.1,1.6-0.1,2.3
			"/>
		<path class="st3" d="M159,99c2.2,1.9,4.5,3.9,6.5,5.9c0.9,0.9,2,1.9,2.4,3.1c0.5,1.4,0.3,3,0.2,4.5c0,0.5,0.7,0.5,0.8,0
			c0.1-1.5,0.3-3-0.1-4.5c-0.4-1.3-1.4-2.4-2.4-3.3c-2.1-2.2-4.5-4.2-6.8-6.2C159.2,98.2,158.6,98.7,159,99L159,99z"/>
		<path class="st3" d="M147.2,33.7l-6.2,4.5v9.6l-0.4,4.2c0,0,0,0.8-1.7,1.6l-1.2,0.7l6.5,2.9l3.6,0.1c1.1-0.1,3.8-1.2,4.7-1.7
			l0.9-0.5c0,0-0.6-0.9-3.4-0.8l0.2-5.4l2.7-14L147.2,33.7L147.2,33.7z"/>
		<path class="st3" d="M153.2,37.4c0.8,2.8,1.1,5.3,0.9,8.2c-0.2,2.8-1.3,4.1-2.4,4.8c-1.5,0.9-3.5,1-5.2,0.4
			c-2.3-0.8-3.8-3-4.2-4.3"/>
		<path class="st2" d="M152.8,37.5c0.5,1.9,0.9,3.9,1,5.9c0.1,1.7,0,3.6-0.8,5.1c-1.4,2.6-5,2.9-7.4,1.4c-1.3-0.8-2.5-2.1-2.9-3.6
			c-0.1-0.5-0.9-0.3-0.7,0.2c1,3.2,4.4,5.3,7.6,5c1.4-0.2,2.7-0.8,3.6-1.9c1.1-1.4,1.3-3.2,1.3-4.9c0.1-2.5-0.3-5-1-7.4
			C153.4,36.8,152.7,37,152.8,37.5L152.8,37.5z"/>
		<path class="st2" d="M151.1,42.7c0,0.3,0.2,0.5,0.5,0.5c0.3,0,0.5-0.2,0.5-0.5c0-0.3-0.2-0.5-0.5-0.5
			C151.3,42.2,151.1,42.4,151.1,42.7z"/>
		<path class="st2" d="M146,43c0,0.3,0.2,0.5,0.5,0.5c0.3,0,0.5-0.2,0.5-0.5c0-0.3-0.2-0.5-0.5-0.5C146.2,42.5,146,42.7,146,43z"/>
		<path class="st2" d="M149,43c0.1,0.8,0.1,1.7,0.1,2.5c0,0.2,0.2,0.4,0.4,0.4c0.2,0,0.4-0.2,0.4-0.4c0-0.8,0-1.7-0.1-2.5
			c0-0.2-0.2-0.4-0.4-0.4C149.2,42.6,149,42.8,149,43z"/>
		<path class="st2" d="M148.9,46.9c0,0-0.1,0-0.1,0.1c0,0,0,0,0,0c0,0,0,0-0.1,0c-0.1,0-0.2,0.1-0.2,0.1c0.1,0,0,0-0.1,0
			c0,0-0.1,0-0.1,0c0,0,0,0-0.1,0c0.1,0,0.1,0,0,0c0,0-0.1,0-0.1,0c0,0-0.1,0-0.1,0c0,0,0,0-0.1,0c0,0,0,0,0,0
			c-0.1,0-0.1-0.1-0.2-0.1c0,0,0,0,0,0c0,0,0,0,0,0c0,0-0.1-0.1-0.1-0.1c0,0-0.1-0.1-0.1-0.1c0,0,0,0,0,0c0,0,0,0,0,0
			c-0.1-0.2-0.3-0.3-0.5-0.1c-0.2,0.1-0.3,0.3-0.1,0.5c0.3,0.3,0.6,0.6,1,0.7c0.4,0.1,0.9,0,1.3-0.2c0.2-0.1,0.2-0.3,0.1-0.5
			C149.3,46.9,149,46.8,148.9,46.9L148.9,46.9z"/>
		<path class="st2" d="M149.8,51.2c-0.1,1.3-0.1,2.6-0.2,3.9c0,0.5,0.7,0.5,0.8,0c0.1-1.3,0.1-2.6,0.2-3.9
			C150.6,50.7,149.9,50.7,149.8,51.2z"/>
		<path class="st2" d="M150.6,54.7c3.9,0.3,7.7,2.3,10.6,4.8c1.6,1.4,3,3,4.1,4.7c1.2,1.7,2.2,3.6,2.8,5.5c0.8,2.6,1.1,5.3,1.4,8
			c0.1,0.5,0.8,0.5,0.8,0c-0.3-2.5-0.6-5.1-1.2-7.5c-0.5-2.1-1.5-4-2.7-5.8c-2.3-3.6-5.5-6.7-9.3-8.6c-2-1-4.2-1.7-6.4-1.8
			C150.1,53.9,150.1,54.7,150.6,54.7L150.6,54.7z"/>
		<path class="st1" d="M149,97.9l-0.2,0.7c-0.1,0.3-0.5,0.5-0.8,0.3l-8.9-5.6l0.4-1l30.3-6.6l9.9,3.4c1,0.4,0.8,1.8-0.2,2l-30,6.4
			C149.3,97.6,149.1,97.7,149,97.9L149,97.9z"/>
		<path class="st2" d="M146.5,94.5c0.5-0.2,1.5-0.9,1.9-1.3c1.4-1.6,2-3.7,2.1-5.8c0-0.5,0.1-1.1,0-1.6c-0.1-0.5-0.3-0.9-0.5-1.3
			l-4.8,2.7l-0.7,4.7L146.5,94.5L146.5,94.5z"/>
		<path class="st2" d="M161.3,79.8c0,0.4,0,0.7,0,1.1c0,0.2,0.2,0.4,0.4,0.4c0.2,0,0.4-0.2,0.4-0.4c0-0.4,0-0.7,0-1.1
			c0-0.2-0.2-0.4-0.4-0.4C161.4,79.5,161.3,79.6,161.3,79.8z"/>
		<path class="st3" d="M141.8,43c-0.3-0.4-0.4-0.6-0.6-0.8c-0.3-0.2-0.7-0.3-1-0.2c-0.4,0.1-0.7,0.6-0.7,1c0,0.6,0.3,1.2,0.7,1.6
			c0.4,0.4,0.9,0.7,1.5,0.9"/>
		<path class="st2" d="M142.1,42.8c-0.3-0.4-0.5-0.8-0.9-1c-0.5-0.2-1.1-0.3-1.6,0.1c-1,0.8-0.6,2.2,0.2,3c0.5,0.5,1.1,0.8,1.7,1.1
			c0.2,0.1,0.4-0.1,0.5-0.3c0.1-0.2-0.1-0.4-0.3-0.5c-0.5-0.2-1-0.5-1.4-0.9c-0.3-0.3-0.5-0.9-0.5-1.3c0.1-0.4,0.3-0.6,0.8-0.5
			c0.2,0,0.3,0.1,0.5,0.3c0,0,0,0,0,0.1c0,0,0.1,0.1,0.1,0.1c0.1,0.1,0.2,0.2,0.3,0.4c0.1,0.2,0.3,0.2,0.5,0.1
			C142.2,43.2,142.3,42.9,142.1,42.8L142.1,42.8z"/>
		<path class="st2" d="M134.7,69.7c1.9,4.1,3.3,8.4,4.1,12.8c0.1,0.5,0.8,0.3,0.7-0.2c-0.8-4.5-2.2-8.9-4.2-13
			C135.1,68.9,134.5,69.3,134.7,69.7L134.7,69.7z"/>
		<path class="st3" d="M147,86.3l2-0.1l-1.5,3.4l-1.8-0.3L147,86.3z"/>
		<path class="st3" d="M147.9,86.3c2.4-0.3,6.8-0.4,8.9,0.1c2.3,0.6,4.6,1.7,5.8,3.8c0.1,0.2,0.2,0.6,0.1,0.8
			c-0.1,0.1-0.3,0.2-0.4,0.2c-0.5,0.1-1-0.1-1.5-0.3c0.3,0.2,0.5,0.5,0.6,0.8c0.1,0.3,0,0.8-0.3,0.9c-0.2,0.1-0.4,0.1-0.5,0
			c-0.5-0.1-0.9-0.2-1.3-0.4c0.4,0.2,0.4,0.5,0.3,0.8c-0.1,0.3-0.4,0.3-0.7,0.3c-0.3,0-0.6-0.1-0.9-0.2c-1.2-0.5-2.4-1.2-3.6-1.8
			c0.7,0.5,1.3,1.3,1.7,2.1c0.1,0.1,0.1,0.3,0.1,0.5c-0.1,0.2-0.2,0.3-0.4,0.3c-0.6,0.1-1.2-0.1-1.7-0.5c-0.5-0.3-1-0.8-1.5-1.1
			c-0.2-0.1-0.3-0.2-0.5-0.2c-0.2,0-0.5,0-0.7,0.1c-2,0.4-4.5,0.3-6.3-1"/>
		<path class="st2" d="M147.9,86.7c1.3-0.2,2.7-0.2,4.1-0.3c1.4,0,2.8,0,4.1,0.2c1.4,0.2,2.8,0.8,4,1.5c0.6,0.4,1.2,0.9,1.6,1.4
			c0.2,0.2,0.7,0.8,0.6,1c-0.1,0.5-1.1,0-1.4-0.1c-0.4-0.2-0.8,0.3-0.5,0.6c0.2,0.2,0.9,0.9,0.4,1.1c-0.4,0.2-1.2-0.2-1.5-0.4
			c-0.4-0.2-0.8,0.4-0.4,0.7c0.3,0.2,0.2,0.4-0.1,0.4c-0.2,0.1-0.4,0-0.6-0.1c-0.5-0.1-0.9-0.3-1.3-0.6c-0.8-0.4-1.6-0.9-2.5-1.3
			c-0.4-0.3-0.8,0.4-0.4,0.7c0.5,0.4,0.9,0.8,1.3,1.4c0.1,0.2,0.5,0.6,0.2,0.8c-0.3,0.1-0.8-0.1-1-0.2c-1-0.5-1.8-1.7-3-1.6
			c-0.5,0-1,0.2-1.5,0.2c-0.6,0-1.1,0.1-1.7,0c-1.2-0.1-2.3-0.4-3.2-1.1c-0.4-0.3-0.8,0.4-0.4,0.7c1.2,0.8,2.5,1.1,3.9,1.2
			c0.7,0,1.3,0,2-0.1c0.3,0,0.7-0.2,1-0.2c0.4,0,0.8,0.2,1.1,0.5c0.6,0.4,1.1,0.9,1.9,1.2c0.5,0.2,1.4,0.3,1.8-0.2
			c0.5-0.5,0-1.2-0.3-1.7c-0.4-0.6-0.9-1.1-1.5-1.6l-0.4,0.7c0.7,0.4,1.4,0.8,2.1,1.2c0.7,0.3,1.4,0.7,2.1,0.9
			c0.5,0.1,1.2,0,1.4-0.5c0.3-0.5,0-1-0.5-1.3l-0.4,0.7c0.7,0.3,1.9,0.9,2.5,0.2c0.6-0.7,0-1.6-0.5-2.1l-0.5,0.6
			c0.6,0.3,1.4,0.6,2,0.2c0.5-0.3,0.5-0.9,0.3-1.4c-0.6-1.2-1.8-2.2-2.9-2.8c-2.4-1.3-5-1.6-7.6-1.6c-1.5,0-2.9,0.1-4.4,0.3
			C147.4,85.9,147.4,86.7,147.9,86.7L147.9,86.7z"/>
		<path class="st2" d="M160.4,90.2c-0.8-0.7-1.7-1.3-2.7-1.7c-0.2-0.1-0.4-0.1-0.5,0.1c-0.1,0.2-0.1,0.4,0.1,0.5
			c0.9,0.4,1.8,0.9,2.6,1.6c0.2,0.1,0.4,0.2,0.5,0C160.6,90.6,160.6,90.4,160.4,90.2L160.4,90.2z"/>
		<path class="st2" d="M158.9,91.5c-0.8-0.7-1.7-1.3-2.7-1.7c-0.2-0.1-0.4-0.1-0.5,0.1c-0.1,0.2-0.1,0.4,0.1,0.5
			c0.9,0.4,1.8,0.9,2.6,1.6c0.2,0.1,0.4,0.2,0.5,0C159,91.9,159,91.6,158.9,91.5L158.9,91.5z"/>
		<path class="st1" d="M180.2,90.1l4-16.8c0.2-0.8-0.5-1.5-1.3-1.4l-27.5,6c-0.9,0.2-1.7,0.9-1.9,1.9l-4.1,17"/>
		<path class="st1" d="M149.8,98.2l-0.4,1.2l30.3-6.6l0.4-1.2L149.8,98.2z"/>
		<path class="st3" d="M168.9,83.6c-0.6-0.4-1.6-0.3-2.4,0.3c-0.9,0.7-1.2,1.9-0.7,2.5c0.5,0.7,1.7,0.6,2.7-0.1
			c0.5-0.4,0.9-1,0.9-1.5"/>
		<path class="st4" d="M168.9,83.6c-0.6-0.4-1.6-0.3-2.4,0.3c-0.9,0.7-1.2,1.9-0.7,2.5c0.5,0.7,1.7,0.6,2.7-0.1
			c0.5-0.4,0.9-1,0.9-1.5"/>
		<path class="st2" d="M141.6,42.4c0.8-0.3,1.3-1.1,1.7-1.9c0.4-0.8,0.6-1.8,0.8-2.7c0,0,6.5,3,10.4-0.5c1.1-1,2.2-3.7,2-4.5
			c-0.1-0.3-1.5-0.1-1.8-0.2c-0.2,0-0.4-0.1-0.6-0.2c-0.7-0.3-1.3-1-1.9-1.5c-1.1-0.8-2.4-1.1-3.7-0.8c-1.3,0.2-2.4,1-3.3,2
			c-1.3-0.8-3-0.6-4.2,0.5c-1.2,1-2.2,3.3-2.2,5c0,1.4,0.4,3.1,0.9,4.5c0,0,0.3-0.4,1-0.4C141.3,41.8,141.6,42.4,141.6,42.4
			L141.6,42.4z"/>
		<path class="st2" d="M141.7,42.7c1.8-0.9,2.3-3,2.7-4.8l-0.6,0.2c2.8,1.3,6.4,1.8,9.3,0.5c2-0.9,3.2-2.9,3.6-5
			c0.1-0.3,0.2-0.7,0-1c-0.2-0.4-0.6-0.4-1-0.4c-0.4,0-0.9,0.1-1.3,0c-0.7-0.1-1.2-0.7-1.7-1.2c-1.2-1-2.6-1.5-4.1-1.3
			c-1.5,0.2-2.8,1-3.8,2.2l0.5-0.1c-1.1-0.7-2.4-0.7-3.6-0.2c-1.2,0.5-1.9,1.6-2.5,2.7c-0.6,1.1-0.9,2.3-0.9,3.6
			c0,1.4,0.4,2.9,0.9,4.2c0.1,0.3,0.5,0.4,0.7,0.1c-0.1,0.1,0.1-0.1,0.1-0.1c0.2-0.1,0.4-0.2,0.7-0.1s0.4,0.2,0.4,0.4
			c0.2,0.4,0.9,0.1,0.7-0.4c-0.4-1-1.9-1-2.5-0.2l0.7,0.1c-0.5-1.2-0.8-2.4-0.9-3.7c-0.1-1.1,0.2-2.2,0.6-3.2c0.4-1,1-2,1.9-2.5
			c1-0.7,2.3-0.8,3.4-0.1c0.1,0.1,0.4,0.1,0.5-0.1c1.7-2,4.5-2.7,6.7-1c0.9,0.7,1.6,1.5,2.8,1.6c0.4,0,0.7,0,1.1,0c0,0,0.2,0,0.2,0
			c0,0,0-0.2-0.1-0.1c0,0.1,0,0.4,0,0.5c-0.3,1.9-1.5,3.7-3.2,4.5c-1.7,0.8-3.7,0.8-5.5,0.5c-1-0.2-2.3-0.6-3.2-0.9
			c-0.2-0.1-0.5,0-0.6,0.2c-0.4,1.6-0.8,3.5-2.4,4.3C140.9,42.3,141.3,42.9,141.7,42.7L141.7,42.7z"/>
		<path class="st2" d="M159.5,63.7c0.6,4,0.5,8.2,0.3,12.2c0,0.5,0.7,0.5,0.8,0c0.2-4.1,0.2-8.3-0.4-12.4
			C160.1,63.1,159.4,63.3,159.5,63.7L159.5,63.7z"/>
		<path class="st1" d="M148.6,119.7c-1.3,0.9-2.2,2-2.8,3c-0.6,0.9-0.4,2,0.3,2.8l10.2,10.4c0.4,0.5,1.2,0.1,1.1-0.5
			c-0.4-3.9-1.7-7.8-3.7-11.2"/>
		<path class="st2" d="M166.5,115.7c-3.9,3.4-7.8,6.8-11.8,10.2l-6.3-6.4l12.7-13.8"/>
		<path class="st2" d="M166.3,115.4c-3.9,3.4-7.8,6.8-11.8,10.2h0.5c-1.8-1.9-3.7-3.7-5.5-5.6l-0.8-0.8v0.5c1.4-1.6,2.9-3.1,4.3-4.7
			l6.8-7.4c0.5-0.6,1.1-1.1,1.6-1.7c0.3-0.4-0.2-0.9-0.5-0.5c-1.4,1.6-2.9,3.1-4.3,4.7l-6.8,7.4c-0.5,0.6-1.1,1.1-1.6,1.7
			c-0.1,0.2-0.2,0.4,0,0.5c1.8,1.9,3.7,3.7,5.5,5.6l0.8,0.8c0.2,0.2,0.4,0.1,0.5,0c3.9-3.4,7.8-6.8,11.8-10.2
			C167.2,115.6,166.6,115.1,166.3,115.4z"/>
		<path class="st3" d="M139,53.8c-3.4,1.2-5.8,2.5-8.5,4.8c-0.9,0.8-2.2,1.8-2.9,2.9c-0.7,1.1-1.7,2.8-2.1,4.1
			c-0.5,1.8-0.7,2.8-0.8,4.6c-0.2,1.9,0.1,5,0.6,6.8c0.3,1.1,0.8,2.2,1.3,3.3c0.8,1.7,1.7,3.5,2.5,5.2c1.1,2.4,2.3,4.7,3.7,6.9
			c0.2,0.4,0.5,0.7,0.8,1c0.4,0.3,0.9,0.4,1.4,0.4c4.3,0.6,6.8,0.6,11.2,0.3c-1.2-5.8,1.8-7.8,3.6-9.5c-5.6-2.5-7-1.7-11.7-3.2
			c-0.1-1.8-1-3.4-1.8-5c-1.3-2.4-2.5-4.9-3.6-7.5c-0.1-0.2-0.2-0.4-0.2-0.6c0-0.2,0.2-0.5,0.3-0.6c1.6-2.1,3.3-4,5-6
			c0.3-0.3,0.6-0.7,0.7-1.1c0.1-0.4,0.1-0.8,0-1.2c-0.3-1.8,1.2-3.5,0.9-5.4"/>
		<path class="st2" d="M136.2,82c4.7,0.4,9.3,1.3,13.7,3l-0.1-0.7c-1.2,0.6-2.1,1.8-2.8,3c-0.7,1.2-1.1,2.6-1.2,3.9
			c-0.1,1.1,0,2.2,0.2,3.2l0.4-0.5c-1.5,0.2-2.9,0.2-4.4,0.1c-2.1-0.1-4.2-0.3-6.2-1c-1.1-0.4-2-1-2.7-1.9c-0.7-0.9-1.3-1.8-1.9-2.8
			c-1.3-2-2.4-4.1-3.4-6.2c-2.1-4.6-3.4-9.7-2.4-14.7c0.5-2.5,1.5-4.7,3.2-6.6c1.5-1.6,3.3-2.9,5.1-4.1c1-0.6,2-1.2,3-1.7
			c0.5-0.3,1.1-0.5,1.6-0.8c0.6-0.3,1.3-0.5,1.8-0.9c0.5-0.3,0.7-0.8,0.7-1.4c0.1-0.7,0.2-1.4,0.2-2.1c0.1-1.5,0.2-3,0.3-4.4
			c0-0.5-0.7-0.5-0.8,0c-0.1,1.4-0.1,2.7-0.2,4.1c0,0.6-0.1,1.3-0.2,1.9c0,0.3-0.1,0.8-0.2,1.1c-0.1,0.3-0.5,0.4-0.7,0.5
			c-2,1-4.1,1.9-6,3.1c-1.8,1.1-3.6,2.5-5.1,4c-1.7,1.8-2.8,4-3.4,6.4c-1.3,5.1-0.2,10.2,1.8,14.9c0.9,2.3,2.1,4.4,3.3,6.5
			c0.6,1,1.2,1.9,1.9,2.8c0.6,0.9,1.3,1.7,2.2,2.3c1,0.7,2.3,1,3.5,1.2c1.2,0.2,2.3,0.4,3.5,0.5c1.8,0.1,3.6,0.1,5.3-0.1
			c0.3,0,0.4-0.2,0.4-0.5c-0.2-0.9-0.3-1.9-0.2-2.9c0.1-1.3,0.6-2.7,1.2-3.8c0.6-1,1.4-2,2.4-2.6c0.3-0.2,0.2-0.6-0.1-0.7
			c-4.4-1.7-9.2-2.6-13.9-3C135.7,81.2,135.7,81.9,136.2,82L136.2,82z"/>
		<path class="st2" d="M152.7,55.2c-2.3,1.4-4.9,1.9-7.6,1.7c-2.6-0.3-5.1-1.5-7.2-2.9c-0.4-0.3-0.8,0.4-0.4,0.7
			c2.3,1.5,4.9,2.7,7.6,3c2.8,0.3,5.6-0.3,8-1.8C153.5,55.6,153.1,54.9,152.7,55.2L152.7,55.2z"/>
		<path class="st2" d="M154.4,55.7c-3.8,2.9-8.9,3.1-13.3,1.6c-0.5-0.2-0.7,0.6-0.2,0.7c4.6,1.6,9.9,1.4,13.9-1.7
			C155.2,56,154.8,55.4,154.4,55.7z"/>
		<path class="st3" d="M158.1,122.9c-0.3-1.6-0.6-3.3-0.8-4.9c-0.2-1-0.3-2.1-0.4-3.1c-0.1-1-0.3-1.7-1.2-2.3
			c-0.4-0.3-0.8,0.4-0.4,0.7c0.9,0.6,0.8,1.8,0.9,2.7c0.1,0.9,0.2,1.8,0.4,2.7c0.2,1.5,0.5,3,0.7,4.5
			C157.4,123.6,158.1,123.4,158.1,122.9z"/>
		<path class="st5" d="M148.5,97.4l-3.6-2.3"/>
		<path class="st6" d="M113.4,45.6l5.2,5.2h13"/>
		<path class="st7" d="M88.1,98.8l6.1-6.1h32.2"/>
		<path class="st7" d="M208.2,53.1l-6,5.9h-36.4"/>
		<path class="st6" d="M202.7,82.7l-5.2-5.2h-13"/>
		<path class="st7" d="M242,8.8h-50.4c-2,0-3.6,1.6-3.6,3.6v35.8c0,2,1.6,3.6,3.6,3.6H242c2,0,3.6-1.6,3.6-3.6V12.4
			C245.6,10.4,244,8.8,242,8.8z"/>
		<path class="st1" d="M223.7,83.2h-22.9c-1.8,0-3.3,1.5-3.3,3.3v9.9c0,1.8,1.5,3.3,3.3,3.3h22.9c1.8,0,3.3-1.5,3.3-3.3v-9.9
			C227,84.7,225.5,83.2,223.7,83.2z"/>
		<path class="st3" d="M210.9,91.5v-2.3c0-0.4,0.4-0.6,0.7-0.4l2,1.1l2,1.1c0.3,0.2,0.3,0.6,0,0.8l-2,1.1l-2,1.1
			c-0.3,0.2-0.7,0-0.7-0.4V91.5z"/>
		<path class="st8" d="M123.7,19.8H87.6v24.5h36.1V19.8z"/>
		<path class="st7" d="M241,13.5h-47.8v5.2H241V13.5z"/>
		<path class="st9" d="M207.7,37.9h-14.4v7.9h14.4V37.9z"/>
		<path class="st10" d="M224.4,37.9H210v7.9h14.4V37.9z"/>
		<path class="st9" d="M241,37.9h-14.4v7.9H241V37.9z"/>
		<path class="st7" d="M195.3,16.1h22.8"/>
		<path class="st7" d="M220.6,16.1h4"/>
		<path class="st9" d="M193.2,23.9H221"/>
		<path class="st9" d="M193.2,27.1h35.6"/>
		<path class="st9" d="M193.2,30.2h41.9"/>
		<path class="st9" d="M193.2,33.7h39.4"/>
		<path class="st11" d="M91,17.2l-7.5,11.4c2.2,1.4,4.8,2.3,7.5,2.3V17.2z"/>
		<path class="st12" d="M80.9,8c-2.2,2.4-3.6,5.7-3.6,9.2c0,4.8,2.4,9,6.2,11.4L91,17.2L80.9,8z"/>
		<path class="st11" d="M100.7,7.5c-2.5-2.5-5.9-4-9.7-4c-4,0-7.6,1.7-10.1,4.5L91,17.2L100.7,7.5z"/>
		<path class="st1" d="M95.2,15.6l13.7,0.5c0-0.2,0-0.3,0-0.5c0-3.8-1.5-7.2-4-9.7L95.2,15.6z"/>
		<path class="st11" d="M91,17.2v13.7c7.4,0,13.4-5.9,13.7-13.2L91,17.2z"/>
		<path class="st13" d="M108.4,24h10.9"/>
		<path class="st13" d="M106.4,27.5h12.8"/>
		<path class="st13" d="M103.9,30.8h15.4"/>
		<path class="st13" d="M95.2,38.2h24.1"/>
		<path class="st13" d="M108.4,34.3h10.9"/>
		<path class="st1" d="M89.9,118.1H61.4c-5.2,0-9.4-4.2-9.4-9.3c0-5.2,4.2-9.3,9.4-9.3h28.5c5.2,0,9.4,4.2,9.4,9.3
			C99.3,113.9,95.1,118.1,89.9,118.1L89.9,118.1z"/>
		<path class="st3" d="M77,106.4v-2.7c0-0.2-0.1-0.3-0.3-0.3h-2.9c-0.2,0-0.3,0.1-0.3,0.3v2.6c0,0.2-0.1,0.3-0.3,0.3h-0.8
			c-0.2,0-0.4,0.3-0.2,0.4l1.4,2.1l1.4,2.2c0.1,0.2,0.4,0.2,0.5,0l1.5-2.2l1.4-2.1c0.1-0.2,0-0.4-0.2-0.4h-0.8
			C77.2,106.7,77,106.5,77,106.4L77,106.4z"/>
		<path class="st14" d="M82.1,110.8v3.5H68.5v-3.5"/>
		<path class="st8" d="M113.2,63.3c-0.5,0-0.9-0.4-0.9-0.8c0-0.5,0.4-0.9,0.8-0.9c0.5,0,0.9,0.4,0.9,0.8
			C114.1,62.8,113.7,63.2,113.2,63.3z"/>
		<path class="st7" d="M117.4,68.9c-0.6,0-1.1-0.4-1.1-1c0-0.6,0.4-1.1,1-1.1c0.6,0,1.1,0.4,1.1,1C118.5,68.4,118,68.9,117.4,68.9z"
			/>
		<path class="st6" d="M116.2,60.9l-0.1-1.9"/>
		<path class="st6" d="M117.1,59.9l-1.9,0.1"/>
	</g>
</g>
</svg>
