<?xml version="1.0" encoding="utf-8"?>
<!-- Generator: Adobe Illustrator 27.1.1, SVG Export Plug-In . SVG Version: 6.00 Build 0)  -->
<svg version="1.1" id="레이어_1" xmlns="http://www.w3.org/2000/svg" xmlns:xlink="http://www.w3.org/1999/xlink" x="0px"
	 y="0px" viewBox="0 0 148 148" style="enable-background:new 0 0 148 148;" xml:space="preserve">
<style type="text/css">
	.st0{clip-path:url(#SVGID_00000116928630132575350400000016685562363889261731_);}
	.st1{fill:#FF9015;}
	.st2{fill:#0B0E11;}
	.st3{fill:#FFAA37;}
	.st4{fill:#AFAFAF;}
</style>
<g>
	<defs>
		<rect id="SVGID_1_" x="1.9" y="18.8" width="144.1" height="110.3"/>
	</defs>
	<clipPath id="SVGID_00000083789141698305102610000018402435290045516716_">
		<use xlink:href="#SVGID_1_"  style="overflow:visible;"/>
	</clipPath>
	<g style="clip-path:url(#SVGID_00000083789141698305102610000018402435290045516716_);">
		<path class="st1" d="M131.1,87.8v16.5l-6.4-2.2l-7.2,2.2V87.8h-15v35.9h42V87.8H131.1z"/>
		<path class="st2" d="M145.3,125.1h-42.9c-0.4,0-0.7-0.3-0.7-0.7V87.6c0-0.4,0.3-0.7,0.7-0.7h42.9c0.4,0,0.7,0.3,0.7,0.7v36.9
			C146.1,124.8,145.7,125.1,145.3,125.1z M103.1,123.8h41.5V88.3h-41.5V123.8z"/>
		<path class="st2" d="M116.9,105.4c-0.1,0-0.3,0-0.4-0.1c-0.2-0.1-0.3-0.3-0.3-0.6V91h1.4v12.7l6.2-2c0.2-0.1,0.3,0,0.5,0l5.4,1.9
			V88.3h1.4v16.4c0,0.2-0.1,0.4-0.3,0.6c-0.2,0.1-0.5,0.2-0.7,0.1l-6.1-2.2l-6.9,2.2C117.1,105.3,116.9,105.4,116.9,105.4
			L116.9,105.4z"/>
		<path class="st2" d="M2.5,76.4h44.7v-1.1H3.1V20.9c0-0.5,0.4-0.9,1-0.9h49.3v-1.1H4.1c-1.2,0-2.1,0.9-2.1,2v55
			C1.9,76.2,2.2,76.4,2.5,76.4z"/>
		<path class="st2" d="M53.4,19.9h-1.2v57.3h1.2V19.9z"/>
		<path class="st3" d="M39.5,44.2H28.9c-0.3,0-0.6-0.3-0.6-0.6V33.5c0-0.3,0.3-0.6,0.6-0.6h7.7v1.1h-7.1v9H39v-2.8h1.2v3.4
			C40.1,44,39.9,44.2,39.5,44.2z"/>
		<path class="st3" d="M35.1,40.7c-0.2,0-0.4-0.1-0.5-0.2l-2.4-2.9l0.9-0.7l2,2.4l5-5.3l0.9,0.7l-5.5,5.8
			C35.4,40.6,35.2,40.6,35.1,40.7L35.1,40.7z"/>
		<path class="st2" d="M46.2,70H18.3v1.1h27.8V70z"/>
		<path class="st2" d="M7.9,71.9h8.9v-1.1H8.4V23.9h40.8v-1.1H7.9c-0.3,0-0.6,0.3-0.6,0.6v48C7.3,71.7,7.5,71.9,7.9,71.9z"/>
		<path class="st2" d="M39.8,57.2H26.2v1.1h13.6V57.2z"/>
		<path class="st2" d="M38,63.4h-9.5v1.1H38V63.4z"/>
		<path class="st3" d="M18.9,37.9c0-0.1,0-0.3,0.1-0.4l5-5.8c0.1-0.2,0.4-0.2,0.6-0.1c0.2,0.1,0.4,0.3,0.3,0.5l-0.2,7.8
			c0,0.2-0.1,0.3-0.2,0.4c-0.1,0.1-0.3,0.1-0.5,0l-4.7-2c0,0-0.1-0.1-0.1-0.1C19,38.1,18.9,38,18.9,37.9L18.9,37.9z M23.7,33.4
			l-3.6,4.2l3.4,1.5L23.7,33.4z"/>
		<path class="st3" d="M23.8,31.8l1,0.4l0.6-2l-1-0.4L23.8,31.8z"/>
		<path class="st3" d="M8.3,64.3l1.1-2.7c0-0.1,0.1-0.2,0.2-0.2c0.1,0,0.2,0,0.4,0l4.8,2.1c0.3,0.1,0.4,0.4,0.3,0.6L14,66.8
			c0,0.1-0.1,0.2-0.2,0.2c-0.1,0-0.2,0-0.4,0l-4.8-2.1c0,0-0.1-0.1-0.1-0.1C8.3,64.7,8.3,64.5,8.3,64.3z M14,64l-3.8-1.7l-0.7,1.9
			l3.8,1.7L14,64z"/>
		<path class="st3" d="M9.4,61.6l0.9,0.4L19.8,38l-0.9-0.4L9.4,61.6z"/>
		<path class="st3" d="M14.1,63.6l0.9,0.4l9.4-24l-0.9-0.4L14.1,63.6z"/>
		<path class="st4" d="M76.5,63.5c0-0.2,0.1-0.3,0.2-0.5l13.6-13.1c0.1-0.1,0.3-0.2,0.5-0.2c0.2,0,0.4,0.1,0.5,0.2L104.8,63
			c0.2,0.2,0.2,0.5,0.1,0.7c-0.1,0.2-0.4,0.4-0.6,0.4h-6.6v10.2h-1.3V63.5c0-0.4,0.3-0.6,0.7-0.6h5.6l-12-11.6l-12,11.6h5.6
			c0.4,0,0.7,0.3,0.7,0.6v21.3h-1.3V64.1h-6.6c-0.3,0-0.5-0.2-0.6-0.4C76.5,63.6,76.5,63.5,76.5,63.5L76.5,63.5z"/>
		<path class="st4" d="M57.1,66.7c0-0.2,0.1-0.3,0.2-0.5l9.3-9c0.1-0.1,0.3-0.2,0.5-0.2s0.4,0.1,0.5,0.2l9.3,9
			c0.2,0.2,0.2,0.5,0.1,0.7c-0.1,0.2-0.4,0.4-0.6,0.4H72v20.3h-1.3v-21c0-0.4,0.3-0.6,0.7-0.6h3.4L67,58.6L59.3,66h3.4
			c0.4,0,0.7,0.3,0.7,0.6v8.3H62v-7.6h-4.3c-0.3,0-0.5-0.2-0.6-0.4C57,66.8,57,66.7,57.1,66.7L57.1,66.7z"/>
		<path class="st3" d="M17.8,100.3v3.1c0,1.9,1.6,3.4,3.6,3.4h76.9c-0.6-2.4-0.6-4.6-0.4-6.5H17.8z"/>
		<path class="st2" d="M115.2,37.4c2,0,3.6,1.5,3.6,3.4V85h1.9V40.8c0-2.9-2.4-5.2-5.4-5.2H53.4v1.8L115.2,37.4L115.2,37.4z"/>
		<path class="st2" d="M60.9,108v0.6h14.8V108h1.9v0.6h21v-1.8h-0.2c0,0.2,0.1,0.4,0.1,0.6H21c-2.1,0-3.8-1.6-3.8-3.6v-4h0.6V79
			h-1.9v24.4c0,2.9,2.4,5.2,5.4,5.2h37.7V108L60.9,108L60.9,108z"/>
		<path class="st2" d="M17.8,103.4v-3.6h-0.6v4c0,2,1.7,3.6,3.8,3.6h77.4c-0.1-0.2-0.1-0.4-0.1-0.6H21.4
			C19.4,106.8,17.8,105.3,17.8,103.4z"/>
		<path class="st2" d="M60.9,112.5v-3.9h-1.9v3.9c0,2.4-1.2,5.9-2.5,8.4h2C59.8,118.4,60.9,115.1,60.9,112.5L60.9,112.5z"/>
		<path class="st2" d="M60.9,108h-1.9v0.6h1.9V108z"/>
		<path class="st2" d="M75.7,112.5c0,2.6,0.8,5.8,1.9,8.4h2c-1.2-2.4-2.1-5.8-2.1-8.4v-3.9h-1.9L75.7,112.5L75.7,112.5z"/>
		<path class="st2" d="M77.6,108h-1.9v0.6h1.9V108z"/>
		<path class="st2" d="M49.8,122.7h12.9v-1.8h-4.2c-0.2,0.5-0.5,1-0.7,1.5l-1.7-0.8c0.1-0.2,0.2-0.4,0.3-0.7h-7.7
			c-0.5,0-0.9,0.4-0.9,0.9v5.6h1.9V122.7z"/>
		<path class="st2" d="M78.2,122.2c-0.2-0.4-0.4-0.8-0.6-1.2h-6.8v1.8h16.6v4.7h1.9v-5.6c0-0.5-0.4-0.9-0.9-0.9h-8.7
			c0.1,0.1,0.1,0.3,0.2,0.4L78.2,122.2L78.2,122.2z"/>
		<path class="st2" d="M57.9,122.4c0.2-0.4,0.5-0.9,0.7-1.5h-2c-0.1,0.2-0.2,0.4-0.3,0.7L57.9,122.4z"/>
		<path class="st2" d="M78.2,122.2l1.7-0.8c-0.1-0.1-0.1-0.3-0.2-0.4h-2C77.8,121.3,78,121.8,78.2,122.2L78.2,122.2z"/>
		<path class="st2" d="M89.3,127.4v0.9c0,0.5-0.4,0.9-0.9,0.9h37.3v-1.8H89.3z"/>
		<path class="st2" d="M48,128.3v-0.9H12.2v1.8h36.7C48.4,129.2,48,128.8,48,128.3z"/>
		<path class="st2" d="M89.3,128.3v-0.9H48v0.9c0,0.5,0.4,0.9,0.9,0.9h39.4C88.9,129.2,89.3,128.8,89.3,128.3L89.3,128.3z"/>
		<path class="st2" d="M19,98.6h-1.2v1.2H19V98.6z"/>
		<path class="st2" d="M19,99.7h-1.2v0.6H19V99.7z"/>
		<path class="st2" d="M97.9,100.3v-0.6C97.9,99.9,97.9,100.1,97.9,100.3L97.9,100.3z"/>
		<path class="st2" d="M97.9,98.6H19v1.2h78.9V98.6z"/>
		<path class="st2" d="M19,100.3h78.8c0-0.2,0-0.4,0-0.6H19V100.3z"/>
		<path class="st2" d="M49.3,23.9h-2.1v47.3h2.1V23.9z"/>
	</g>
</g>
</svg>
