<?xml version="1.0" encoding="utf-8"?>
<!-- Generator: Adobe Illustrator 27.1.1, SVG Export Plug-In . SVG Version: 6.00 Build 0)  -->
<svg version="1.1" id="레이어_1" xmlns="http://www.w3.org/2000/svg" xmlns:xlink="http://www.w3.org/1999/xlink" x="0px"
	 y="0px" viewBox="0 0 148 148" style="enable-background:new 0 0 148 148;" xml:space="preserve">
<style type="text/css">
	.st0{clip-path:url(#SVGID_00000155853805929497725820000014032209943462485687_);}
	.st1{fill:#AAAAAA;}
	.st2{fill:#FF9015;}
	.st3{fill:#F84242;}
	.st4{fill:#65A8FF;}
	.st5{fill:#FFFFFF;}
</style>
<g>
	<defs>
		<rect id="SVGID_1_" x="19.5" y="6" width="111" height="138"/>
	</defs>
	<clipPath id="SVGID_00000021813046607578266270000014467901024583384219_">
		<use xlink:href="#SVGID_1_"  style="overflow:visible;"/>
	</clipPath>
	<g style="clip-path:url(#SVGID_00000021813046607578266270000014467901024583384219_);">
		<path class="st1" d="M65.2,28.5h-8.8c-0.3,0-0.5-0.2-0.5-0.5c0-0.2,0.2-0.5,0.5-0.5h8.8c0.3,0,0.5,0.2,0.5,0.5
			C65.6,28.3,65.4,28.5,65.2,28.5z"/>
		<path class="st1" d="M74.7,18.8H56.6c-0.3,0-0.5-0.2-0.5-0.5c0-0.2,0.2-0.5,0.5-0.5h18.2c0.3,0,0.5,0.2,0.5,0.5
			C75.2,18.6,75,18.8,74.7,18.8z"/>
		<path class="st1" d="M86.8,29.5c-0.3,0-0.5-0.2-0.5-0.5V6.9H38.8v10.5c0,0.3-0.2,0.5-0.5,0.5s-0.5-0.2-0.5-0.5v-11
			C37.8,6.2,38,6,38.3,6h48.5c0.3,0,0.5,0.2,0.5,0.5V29C87.2,29.2,87,29.4,86.8,29.5L86.8,29.5z"/>
		<path class="st1" d="M86.8,43.5c-0.3,0-0.5-0.1-0.5-0.2v-5.9c0,0,0.2-0.2,0.5-0.2c0.2,0,0.5,0.1,0.5,0.2v5.9
			C87.2,43.3,87,43.5,86.8,43.5z"/>
		<path class="st1" d="M64.2,49.8c-0.2,0-0.3-0.1-0.4-0.2c-0.1-0.1-0.1-0.3,0-0.5l2.8-6.2c0,0,0.1-0.2,0.2-0.2l26.5-18.5
			c1-0.7,2.4-0.5,3.1,0.5l1.8,2.4c0.4,0.5,0.5,1.1,0.4,1.7c-0.1,0.6-0.4,1.1-0.9,1.5L71.1,48.8c0,0-0.1,0.1-0.2,0.1L64.2,49.8
			C64.2,49.9,64.2,49.9,64.2,49.8L64.2,49.8z M67.3,43.5l-2.4,5.3l5.7-0.8L97,29.6c0.3-0.2,0.4-0.5,0.5-0.8c0-0.3,0-0.7-0.2-0.9
			l-1.8-2.4c-0.4-0.6-1.2-0.7-1.8-0.3L67.3,43.5L67.3,43.5z"/>
		<path class="st1" d="M93.2,32.3c-0.2,0-0.3-0.1-0.4-0.2L90,28.3c-0.2-0.2-0.1-0.5,0.1-0.7c0.2-0.2,0.5-0.1,0.7,0.1l2.8,3.8
			c0.2,0.2,0.1,0.5-0.1,0.7C93.4,32.3,93.3,32.3,93.2,32.3z"/>
		<path class="st1" d="M90.5,26.6c-0.3,0-0.5-0.2-0.5-0.5v-18h-3c-0.3,0-0.5-0.2-0.5-0.5c0-0.2,0.2-0.5,0.5-0.5h3.4
			c0.3,0,0.5,0.2,0.5,0.5v18.5C91,26.4,90.8,26.6,90.5,26.6z"/>
		<path class="st1" d="M90.5,41.3c-0.3,0-0.5-0.1-0.5-0.2v-6.5c0,0,0.2-0.2,0.5-0.2c0.2,0,0.5,0.1,0.5,0.2v6.5
			C91,41.1,90.8,41.3,90.5,41.3z"/>
		<path class="st1" d="M65.2,34.8h-8.8c-0.3,0-0.5-0.2-0.5-0.5c0-0.2,0.2-0.5,0.5-0.5h8.8c0.3,0,0.5,0.2,0.5,0.5
			C65.6,34.6,65.4,34.8,65.2,34.8z"/>
		<path class="st2" d="M76.1,58.5h-8.4c-0.3,0-0.5-0.2-0.5-0.5c0-0.2,0.2-0.5,0.5-0.5h8.4c0.7,0,1.4-0.3,1.8-0.9
			c0.4-0.6,0.5-1.3,0.3-2c-0.3-0.9-1.1-1.5-2.1-1.5H65.2c-0.3,0-0.5-0.2-0.5-0.5c0-0.2,0.2-0.5,0.5-0.5h10.9c1.4,0,2.6,0.8,3,2.1
			c0.3,1,0.2,2-0.4,2.8C78,58.1,77.1,58.6,76.1,58.5L76.1,58.5z"/>
		<path class="st2" d="M33.4,30.1H22.7c-1.4,0-2.6-0.8-3-2.1c-0.3-1-0.2-2,0.4-2.8c0.6-0.8,1.5-1.3,2.5-1.3h10.7
			c1.4,0,2.6,0.8,3,2.1c0.3,1,0.2,2-0.4,2.8C35.3,29.6,34.4,30.1,33.4,30.1z M22.6,24.8c-0.7,0-1.4,0.3-1.8,0.9
			c-0.4,0.6-0.5,1.3-0.3,2c0.3,0.9,1.1,1.5,2.1,1.5h10.7c0.7,0,1.4-0.3,1.8-0.9c0.4-0.6,0.5-1.3,0.3-2c-0.3-0.9-1.1-1.5-2.1-1.5
			H22.6z"/>
		<path class="st3" d="M41.6,28.2h-4.7c-0.3,0-0.5-0.2-0.5-0.5c0-0.2,0.2-0.5,0.5-0.5h4.7c0.3,0,0.5,0.2,0.5,0.5
			C42.1,28,41.9,28.2,41.6,28.2z"/>
		<path class="st2" d="M55.2,54.2h-0.9v-0.9h0.9V54.2z M53.4,54.2h-0.9v-0.9h0.9V54.2z M51.5,54.2h-0.9v-0.9h0.9V54.2z M49.6,54.2
			h-0.9v-0.9h0.9V54.2z M47.7,54.2h-0.9v-0.9h0.9V54.2z M45.9,54.2h-0.9v-0.9h0.9V54.2z M44,54.2H43v-0.9H44V54.2z M42.1,54.2h-0.9
			v-0.9h0.9V54.2z M40.2,54.2h-0.9v-0.9h0.9V54.2z M38.4,54.2h-0.9v-0.9h0.9V54.2z M36.5,54.2h-0.9v-0.9h0.9V54.2z M34.6,54.2h-0.9
			v-0.9h0.9V54.2z M32.7,54.2h-0.9v-0.9h0.9V54.2z M30.8,54.2h-0.9v-0.9h0.9V54.2z M28.9,54.1c-0.3,0-0.6-0.1-1-0.1l0.2-0.9
			c0.3,0.1,0.6,0.1,0.9,0.1L28.9,54.1z M27,53.8c-0.3-0.1-0.6-0.2-0.9-0.3l0.3-0.9c0.3,0.1,0.6,0.2,0.9,0.3L27,53.8z M25.2,53.1
			c-0.3-0.2-0.6-0.3-0.9-0.5l0.5-0.8c0.2,0.2,0.5,0.3,0.8,0.4L25.2,53.1L25.2,53.1z M23.5,52c-0.3-0.2-0.5-0.4-0.8-0.7l0.7-0.7
			c0.2,0.2,0.4,0.4,0.7,0.6L23.5,52z M22.1,50.6c-0.2-0.3-0.4-0.6-0.5-0.8l0.8-0.4c0.1,0.2,0.3,0.5,0.5,0.7L22.1,50.6z M21.2,48.9
			c-0.1-0.3-0.2-0.6-0.3-1l0.9-0.2c0.1,0.3,0.1,0.6,0.2,0.8L21.2,48.9z M20.8,46.9c0-0.2,0-0.3,0-0.5c0-0.2,0-0.4,0-0.5l0.9,0
			c0,0.2,0,0.3,0,0.5c0,0.1,0,0.3,0,0.4L20.8,46.9L20.8,46.9z M21.8,45.1l-0.9-0.1c0-0.3,0.1-0.7,0.2-1l0.9,0.2
			C21.9,44.5,21.8,44.8,21.8,45.1z M22.2,43.4L21.4,43c0.1-0.3,0.3-0.6,0.4-0.9l0.8,0.5C22.5,42.8,22.3,43.1,22.2,43.4L22.2,43.4z
			 M23.1,41.8l-0.8-0.6c0.2-0.3,0.4-0.5,0.7-0.8l0.7,0.7C23.5,41.4,23.3,41.6,23.1,41.8L23.1,41.8z M24.3,40.6l-0.6-0.7
			c0.3-0.2,0.5-0.4,0.8-0.6l0.5,0.8C24.8,40.2,24.5,40.4,24.3,40.6z M25.8,39.7l-0.4-0.9c0.3-0.1,0.6-0.3,0.9-0.4l0.3,0.9
			C26.3,39.4,26.1,39.5,25.8,39.7L25.8,39.7z M27.5,39.1l-0.2-0.9c0.3-0.1,0.6-0.1,1-0.2l0.1,0.9C28.1,39,27.8,39,27.5,39.1z
			 M29.2,38.9v-0.9c0,0,0.1,0,0.2,0h0.7v0.9h-0.7C29.4,38.9,29.3,38.9,29.2,38.9L29.2,38.9z M48.6,38.9H48v-0.9h0.7V38.9z
			 M47.1,38.9h-0.9v-0.9h0.9V38.9z M45.2,38.9h-0.9v-0.9h0.9V38.9z M43.3,38.9h-0.9v-0.9h0.9V38.9z M41.4,38.9h-0.9v-0.9h0.9V38.9z
			 M39.5,38.9h-0.9v-0.9h0.9V38.9z M37.7,38.9h-0.9v-0.9h0.9V38.9z M35.8,38.9h-0.9v-0.9h0.9V38.9z M33.9,38.9H33v-0.9h0.9V38.9z
			 M32,38.9h-0.9v-0.9H32V38.9z"/>
		<path class="st2" d="M57.4,105.1l-0.1,0.1c-0.3-1.1-1.3-1.8-2.5-1.8c-1.2,0-2.1,0.8-2.5,1.8l-0.1-0.1c-3.1,1.6-5.1,4.8-5.1,8.3
			v3.7l1.9-0.8c2.6-1.1,4.5-3.3,5.3-6l0.5-1.7l0.5,1.7c0.8,2.7,2.7,4.9,5.3,6l1.9,0.8v-3.7C62.4,109.8,60.4,106.6,57.4,105.1
			L57.4,105.1z"/>
		<path class="st2" d="M75.1,94.9c0,0,5.2-3.4,13-2.4c0,0,2.4,2.6,10.2,2.6c7.8,0,9.1-3.3,9.1-3.3s15.5-1,19.9,7.5
			c4.3,8.5,2.3,22.2,2.3,22.2H80.3L80,106.1l-1.5-7.5L75.1,94.9L75.1,94.9z"/>
		<path class="st2" d="M72.2,94.9c0,0-4-3.3-10.8-3.3c0,0-1.3,5.5-7.2,5.5s-8.2-3-9-5.1c0,0-6.1-0.1-8.8,1.9l13.6,10.1l2.3-1.5
			l2.9,0.8l1.9,1.6L72.2,94.9L72.2,94.9z"/>
		<path class="st4" d="M66.6,60.5c0.2,0,0.3,0,0.5,0C66.9,60.4,66.7,60.4,66.6,60.5z"/>
		<path class="st2" d="M62.4,49.3c-0.3-3.1-2.7-5.6-5.7-5.6h-3.1c-2.5,0-4.7,1.8-5.4,4.3c-3.2,1.1-5.8,3.5-7,7.9
			c-2.4,9.5-1.4,8.4-1.4,8.4s9.2,2.7,13.2-2.6l3.1-3.7c0,0,3.5,2.8,10.1,2.4C66.3,60.4,68.5,52.4,62.4,49.3L62.4,49.3z"/>
		<path class="st4" d="M68.6,60.3c-0.2,0-0.3,0-0.5,0C68.3,60.4,68.5,60.3,68.6,60.3z"/>
		<path class="st4" d="M67.2,60.4c0.3,0,0.5,0,0.7,0C67.7,60.4,67.4,60.4,67.2,60.4z"/>
		<path d="M60.3,50.9c-0.4,0-0.6-0.3-0.6-0.6v-2.2c0-3.1-2.3-5.6-5-5.6h-3c-2.8,0-5,2.5-5,5.6v2.2c0,0.4-0.3,0.6-0.6,0.6
			c-0.3,0-0.6-0.3-0.6-0.6v-2.2c0-3.8,2.8-6.8,6.3-6.8h3c3.5,0,6.3,3.1,6.3,6.8v2.2C60.9,50.7,60.7,50.9,60.3,50.9L60.3,50.9z"/>
		<path d="M96.8,61.9c-3.5,0-6.6-1.9-8.2-5l-5.3,3.4c-0.3,0.2-0.7,0.1-0.9-0.2c-0.2-0.3-0.1-0.7,0.2-0.9l5.9-3.8
			c0.2-0.1,0.4-0.1,0.5-0.1c0.2,0,0.3,0.2,0.4,0.4c1.2,3,4.1,4.9,7.3,4.9s6.1-1.9,7.3-4.9c0.1-0.2,0.2-0.3,0.4-0.4
			c0.2-0.1,0.4,0,0.5,0.1l5.9,3.8c0.3,0.2,0.4,0.6,0.2,0.9c-0.2,0.3-0.6,0.4-0.9,0.2l-5.3-3.4C103.4,60,100.2,61.9,96.8,61.9z"/>
		<path d="M111.5,71.3c-0.4,0-0.6-0.3-0.6-0.6c0-0.3,0.3-0.6,0.6-0.6c1.9,0,3.4-1.5,3.4-3.4c0-1.9-1.5-3.4-3.4-3.4
			c-0.4,0-0.6-0.3-0.6-0.6c0-0.3,0.3-0.6,0.6-0.6c2.6,0,4.7,2.1,4.7,4.7C116.2,69.2,114.1,71.3,111.5,71.3L111.5,71.3z"/>
		<path d="M82.5,71.3c-2.6,0-4.6-2.1-4.6-4.7c0-2.6,2-4.7,4.6-4.7c0.4,0,0.6,0.3,0.6,0.6c0,0.3-0.3,0.6-0.6,0.6
			c-1.9,0-3.4,1.5-3.4,3.4s1.5,3.5,3.4,3.5c0.4,0,0.6,0.3,0.6,0.6C83.1,71,82.8,71.3,82.5,71.3L82.5,71.3z"/>
		<path d="M112.9,120.7c-0.4,0-0.6-0.3-0.6-0.6v-6.9c0-0.4,0.3-0.6,0.6-0.6c0.3,0,0.6,0.3,0.6,0.6v6.9
			C113.5,120.4,113.2,120.7,112.9,120.7z"/>
		<path d="M129.4,121.9H80c-0.4,0-0.6-0.3-0.6-0.6c0-0.3,0.3-0.6,0.6-0.6h48.8v-11.8c0-10.2-8.3-18.6-18.6-18.6h-4.6
			c-0.4,0-0.6-0.3-0.6-0.6c0-0.3,0.3-0.6,0.6-0.6h4.6c10.9,0,19.8,8.9,19.8,19.8v12.4C130,121.7,129.7,121.9,129.4,121.9
			L129.4,121.9z"/>
		<path d="M54.3,121.9H26.2c-0.4,0-0.6-0.3-0.6-0.6v-14.7c0-9.6,7.9-17.5,17.5-17.5h2.8c0.4,0,0.6,0.3,0.6,0.6
			c0,0.3-0.3,0.6-0.6,0.6h-2.8c-9,0-16.3,7.3-16.3,16.2v14.1h27.5c0.4,0,0.6,0.3,0.6,0.6C55,121.6,54.7,121.9,54.3,121.9L54.3,121.9
			z"/>
		<path d="M97.4,92.9h-1.7c-7.6,0-13.8-6.2-13.8-13.8V56c0-7.6,6.2-13.8,13.8-13.8h1.7c7.6,0,13.8,6.2,13.8,13.8v23
			C111.3,86.7,105.1,92.9,97.4,92.9z M95.7,43.4c-6.9,0-12.6,5.7-12.6,12.6v23c0,6.9,5.7,12.6,12.6,12.6h1.7
			c6.9,0,12.6-5.7,12.6-12.6V56c0-6.9-5.7-12.6-12.6-12.6H95.7z"/>
		<path d="M72.8,92.6c-0.2,0-0.4-0.1-0.6-0.3c-0.2-0.3,0-0.7,0.3-0.8c2.8-1.5,6.1-2.3,9.3-2.3h6c0.4,0,0.6,0.3,0.6,0.6
			c0,0.3-0.3,0.6-0.6,0.6h-6c-3,0-6.1,0.8-8.7,2.2C73,92.6,72.9,92.6,72.8,92.6L72.8,92.6z"/>
		<path d="M100,79.1c-1.2,0-2.5-0.3-3.7-1c-3,1.7-6.7,0.8-7.8-0.3c-0.2-0.2-0.2-0.6,0-0.8l2.2-2.7c1.1-1.3,2.8-1.9,4.4-1.5l1.2,0.3
			l1.2-0.3c1.6-0.4,3.4,0.2,4.4,1.5l2.2,2.7c0.2,0.2,0.2,0.6,0,0.8C103.5,78.5,101.8,79.1,100,79.1z M96.3,76.8c0.1,0,0.2,0,0.4,0.1
			c2.2,1.5,4.9,1,6.1,0.4L101,75c-0.8-0.9-2-1.3-3.2-1.1l-1.4,0.4c0,0-0.2,0-0.3,0L94.8,74c-1.2-0.3-2.4,0.1-3.2,1.1l-1.8,2.2
			c1.2,0.6,3.9,1.1,6.1-0.4C96.1,76.8,96.2,76.8,96.3,76.8L96.3,76.8z"/>
		<path d="M80,121.9H51.8c-0.4,0-0.6-0.3-0.6-0.6c0-0.3,0.3-0.6,0.6-0.6h27.5v-14.1c0-9-7.3-16.2-16.3-16.2h-2.8
			c-0.4,0-0.6-0.3-0.6-0.6c0-0.3,0.3-0.6,0.6-0.6h2.8c9.6,0,17.5,7.9,17.5,17.5v14.7C80.6,121.7,80.4,122,80,121.9L80,121.9z"/>
		<path d="M53.1,81.3c-1.9,0-3.5-1.2-4-2.9c-0.1-0.3,0.1-0.7,0.4-0.8c0.3-0.1,0.7,0.1,0.8,0.4c0.3,1.2,1.5,2,2.8,2
			c1.3,0,2.5-0.8,2.8-2c0.1-0.3,0.4-0.5,0.8-0.4c0.3,0.1,0.5,0.4,0.4,0.8C56.7,80.1,55,81.3,53.1,81.3L53.1,81.3z"/>
		<path d="M52.9,87c-0.6,0-1.2,0-1.7-0.1C44.3,86.1,39,80.1,39,73V62.1c0-7.1,5.2-13.1,12.1-14c4-0.5,8,0.7,11,3.4
			c3,2.6,4.7,6.4,4.7,10.4v11.1c0,4-1.7,7.8-4.7,10.4C59.6,85.8,56.3,87.1,52.9,87L52.9,87z M53,49.3c-0.6,0-1.1,0-1.7,0.1
			c-6.3,0.8-11,6.2-11,12.7V73c0,6.5,4.7,11.9,11,12.7c3.7,0.5,7.2-0.6,10-3.1c2.7-2.4,4.3-5.9,4.3-9.5V62c0-3.6-1.6-7.1-4.3-9.5
			C59,50.4,56,49.3,53,49.3L53,49.3z"/>
		<path d="M54.7,71.3h-3.1c-0.4,0-0.6-0.3-0.6-0.6c0-0.3,0.3-0.6,0.6-0.6h3.1c0.4,0,0.6,0.3,0.6,0.6C55.3,71,55,71.3,54.7,71.3z"/>
		<path d="M52.9,95.5c-1.8,0-3.4-0.6-4.7-1.9c-1.5-1.3-2.3-3.2-2.3-5.2v-3.1c0-0.4,0.3-0.6,0.6-0.6s0.6,0.3,0.6,0.6v3.1
			c0,1.6,0.7,3.2,1.9,4.3c1.2,1.1,2.8,1.6,4.4,1.5c2.9-0.3,5.3-2.8,5.3-5.9v-3c0-0.4,0.3-0.6,0.6-0.6c0.3,0,0.6,0.3,0.6,0.6v3
			c0,3.7-2.8,6.8-6.4,7.2C53.3,95.5,53.1,95.5,52.9,95.5L52.9,95.5z"/>
		<path d="M48.1,73.8c-2.3,0-4.1-1.8-4.1-4.1c0-2.2,1.8-4.1,4.1-4.1c2.2,0,4.1,1.8,4.1,4.1C52.2,71.9,50.3,73.8,48.1,73.8z
			 M48.1,66.9c-1.5,0-2.8,1.3-2.8,2.8c0,1.6,1.3,2.8,2.8,2.8c1.6,0,2.8-1.3,2.8-2.8C50.9,68.1,49.7,66.9,48.1,66.9z"/>
		<path d="M58.1,73.8c-2.3,0-4.1-1.8-4.1-4.1c0-2.2,1.8-4.1,4.1-4.1c2.2,0,4.1,1.8,4.1,4.1C62.2,71.9,60.3,73.8,58.1,73.8z
			 M58.1,66.9c-1.5,0-2.8,1.3-2.8,2.8c0,1.6,1.3,2.8,2.8,2.8c1.6,0,2.8-1.3,2.8-2.8C60.9,68.1,59.7,66.9,58.1,66.9z"/>
		<path d="M39.6,74.7h-0.9c-2.3,0-4.2-2-4.2-4.5c0-2.5,1.9-4.5,4.2-4.5h0.9c0.4,0,0.6,0.3,0.6,0.6c0,0.3-0.3,0.6-0.6,0.6h-0.9
			c-1.6,0-3,1.5-3,3.3c0,1.8,1.3,3.3,3,3.3h0.9c0.4,0,0.6,0.3,0.6,0.6C40.3,74.4,40,74.7,39.6,74.7z"/>
		<path d="M67.7,74.7h-1.1c-0.4,0-0.6-0.3-0.6-0.6c0-0.3,0.3-0.6,0.6-0.6h1.1c1.5,0,2.8-1.5,2.8-3.3c0-1.8-1.3-3.3-2.8-3.3h-1.1
			c-0.4,0-0.6-0.3-0.6-0.6c0-0.3,0.3-0.6,0.6-0.6h1.1c2.2,0,4,2,4,4.5C71.7,72.7,69.9,74.7,67.7,74.7z"/>
		<path d="M90.3,68.8c0.7,0,1.3-0.6,1.3-1.3s-0.6-1.3-1.3-1.3s-1.3,0.6-1.3,1.3S89.6,68.8,90.3,68.8z"/>
		<path d="M102.2,68.8c0.7,0,1.3-0.6,1.3-1.3s-0.6-1.3-1.3-1.3s-1.3,0.6-1.3,1.3S101.5,68.8,102.2,68.8z"/>
		<path d="M65.9,63.5h-4c-3.4,0-6.6-1.4-8.9-3.9c-2.3,2.5-5.5,3.9-8.9,3.9h-3.9c-0.4,0-0.6-0.3-0.6-0.6c0-0.3,0.3-0.6,0.6-0.6h3.9
			c3.3,0,6.4-1.5,8.4-4c0.2-0.3,0.8-0.3,1,0c2.1,2.6,5.1,4,8.4,4h4c0.4,0,0.6,0.3,0.6,0.6C66.5,63.2,66.2,63.5,65.9,63.5z"/>
		<path d="M51.4,102.8c-0.1,0-0.2,0-0.4-0.1L35.6,92.4c-0.3-0.2-0.4-0.6-0.2-0.9c0.2-0.3,0.6-0.4,0.9-0.2l15.4,10.2
			c0.3,0.2,0.4,0.6,0.2,0.9C51.8,102.7,51.6,102.8,51.4,102.8L51.4,102.8z"/>
		<path d="M53.1,107.9c-1.7,0-3.1-1.4-3.1-3.1s1.4-3.1,3.1-3.1s3.1,1.4,3.1,3.1S54.8,107.9,53.1,107.9z M53.1,102.9
			c-1,0-1.9,0.8-1.9,1.9s0.8,1.9,1.9,1.9s1.9-0.8,1.9-1.9S54.1,102.9,53.1,102.9z"/>
		<path d="M54.8,102.8c-0.2,0-0.4-0.1-0.5-0.3c-0.2-0.3-0.1-0.7,0.2-0.9l15.4-10.2c0.3-0.2,0.7-0.1,0.9,0.2c0.2,0.3,0.1,0.7-0.2,0.9
			l-15.4,10.2C55.1,102.7,54.9,102.8,54.8,102.8L54.8,102.8z"/>
		<path d="M45.3,116.5c-0.1,0-0.2,0-0.4-0.1c-0.2-0.1-0.3-0.3-0.3-0.5v-3.7c0-3.8,2.1-7.2,5.5-8.9c0.3-0.2,0.7,0,0.8,0.3
			c0.2,0.3,0,0.7-0.3,0.8c-3,1.5-4.8,4.4-4.8,7.7v2.7l1.1-0.5c2.4-1,4.2-3.1,4.9-5.6l0.5-1.7c0.1-0.3,0.4-0.5,0.8-0.4
			c0.3,0.1,0.5,0.4,0.4,0.8l-0.5,1.7c-0.8,2.9-2.9,5.2-5.6,6.4l-1.9,0.8C45.5,116.4,45.3,116.4,45.3,116.5L45.3,116.5z"/>
		<path d="M60.9,116.5c0,0-0.2,0-0.2,0l-1.9-0.8c-2.8-1.2-4.8-3.5-5.6-6.4l-0.5-1.7c-0.1-0.3,0.1-0.7,0.4-0.8
			c0.3-0.1,0.7,0.1,0.8,0.4l0.5,1.7c0.7,2.5,2.5,4.5,4.9,5.6l1.1,0.5v-2.7c0-3.3-1.8-6.3-4.8-7.7c-0.3-0.2-0.4-0.5-0.3-0.8
			c0.2-0.3,0.5-0.4,0.8-0.3c3.4,1.7,5.5,5.1,5.5,8.9v3.7c0,0.2-0.1,0.4-0.3,0.5C61.1,116.4,61,116.5,60.9,116.5L60.9,116.5z"/>
		<path class="st5" d="M33.7,137.7l45.7,6.4l23.6-7.8l22.3-7.9l3.2-1.1c0,0,2.8-3.9-3.1-6.4l-2.2-0.2l-28.8,4.1l1.3-2.1
			c0,0-0.2-8.5-8.3-8.7H71.8c0,0-9.2-2.1-12.5-4c0,0-13.6-4.8-22.4,1.7c-8.8,6.5-0.6,0-0.6,0l-4.6,1.4l0.2,23.9L33.7,137.7
			L33.7,137.7z"/>
		<path class="st2" d="M34,111.6H22.4v31.1H34V111.6z"/>
		<path d="M79.5,144c-0.7,0-1.3,0-2-0.2l-43.7-6.2h-1.2c-0.4,0-0.7-0.3-0.7-0.7c0-0.4,0.3-0.7,0.7-0.7h1.3c0,0,0.1,0,0.1,0l43.8,6.2
			c1.7,0.2,3.4,0.2,4.9-0.3l44.7-14.6c1-0.3,1.7-1.2,1.7-2.3c0-1.4-0.6-2.7-1.7-3.7c-1.1-0.9-2.6-1.3-4.1-1.1l-28,4.7
			c-0.4,0.1-0.8-0.2-0.8-0.6c-0.1-0.4,0.2-0.7,0.6-0.8l28-4.7c1.9-0.2,3.8,0.3,5.3,1.5c1.4,1.2,2.3,2.9,2.2,4.7c0,1.6-1.1,3-2.7,3.5
			l-44.7,14.6C81.9,143.8,80.7,144,79.5,144L79.5,144z"/>
		<path d="M31.8,141H20.3c-0.4,0-0.7-0.3-0.7-0.7v-31.1c0-0.4,0.3-0.7,0.7-0.7h11.6c0.4,0,0.7,0.3,0.7,0.7v31.1
			C32.5,140.7,32.2,141,31.8,141z M21,139.7h10.1V110H21V139.7z"/>
		<path d="M92.3,126.2H67.6c-0.4,0-0.7-0.3-0.7-0.7s0.3-0.7,0.7-0.7h24.7c1.5,0,2.7-1.1,2.8-2.5c0-2-0.8-3.9-2.3-5.4
			c-1.5-1.4-3.5-2.2-5.7-2.2H73c-5,0-8.5-1.2-12.5-3.1c-4.4-2.1-8.7-2.8-14.8-2.7c-4.4,0.1-7.6,2-10,3.4c-1.4,0.8-2.4,1.4-3.4,1.4
			c-0.4,0-0.7-0.3-0.7-0.7s0.3-0.7,0.7-0.7c0.5,0,1.5-0.6,2.6-1.2c2.3-1.4,5.9-3.4,10.7-3.6c6.3-0.2,10.9,0.7,15.5,2.8
			c3.8,1.8,7.2,2.9,11.9,2.9h14.1c2.5,0,4.9,0.9,6.7,2.6c1.8,1.7,2.7,4,2.7,6.3C96.4,124.4,94.6,126.1,92.3,126.2L92.3,126.2z"/>
	</g>
</g>
</svg>
