<?xml version="1.0" encoding="utf-8"?>
<!-- Generator: Adobe Illustrator 27.1.1, SVG Export Plug-In . SVG Version: 6.00 Build 0)  -->
<svg version="1.1" id="레이어_1" xmlns="http://www.w3.org/2000/svg" xmlns:xlink="http://www.w3.org/1999/xlink" x="0px"
	 y="0px" viewBox="0 0 148 148" style="enable-background:new 0 0 148 148;" xml:space="preserve">
<style type="text/css">
	.st0{clip-path:url(#SVGID_00000031185480056247812870000013378199730655864475_);}
	.st1{fill:#FFAA37;}
	.st2{fill:#0B0E11;}
	.st3{fill:#FF9015;}
	.st4{fill:none;stroke:#0B0E11;stroke-miterlimit:10;}
</style>
<g>
	<defs>
		<rect id="SVGID_1_" x="16" y="9.5" width="118" height="131"/>
	</defs>
	<clipPath id="SVGID_00000121252745496115592620000013824772556797763503_">
		<use xlink:href="#SVGID_1_"  style="overflow:visible;"/>
	</clipPath>
	<g style="clip-path:url(#SVGID_00000121252745496115592620000013824772556797763503_);">
		<path class="st1" d="M97.3,106.1l-4.8,4l-15-17.5l4.6-3.8L97.3,106.1z"/>
		<path class="st2" d="M61,137.6c-0.2,0-0.4-0.1-0.5-0.2c-0.3-0.3-0.3-0.8,0-1c0,0,0.1-0.1,0.1-0.1l0,0c0.4-0.3,0.8-0.2,1,0
			c0.3,0.2,0.4,0.7,0.2,1c0,0.1-0.1,0.1-0.1,0.2l-0.1,0.1C61.3,137.5,61.2,137.6,61,137.6L61,137.6z M60.5,136.3l0.2,0.1L60.5,136.3
			z"/>
		<path class="st2" d="M83.9,122.7l-1-1.1c2.5-2.5,3.7-4.9,4.8-7c1.1-2.1,2-3.9,3.8-5.3l0.9,1.2c-1.6,1.1-2.4,2.7-3.4,4.7
			C87.9,117.6,86.6,120.1,83.9,122.7z"/>
		<path class="st2" d="M43.6,134c-1.1,0-2.1-0.4-3-1.2c-1.6-1.6-1.6-4.3,0-5.9l3.4-3.4c1.6-1.6,4.3-1.6,5.9,0c0.8,0.8,1.2,1.8,1.2,3
			c0,1.1-0.4,2.2-1.2,3l-3.4,3.4C45.7,133.6,44.7,134,43.6,134z M47,123.6c-0.7,0-1.4,0.3-1.9,0.8l-3.4,3.4c-1.1,1.1-1.1,2.8,0,3.8
			s2.8,1.1,3.8,0l3.4-3.4c0.5-0.5,0.8-1.2,0.8-1.9c0-0.7-0.3-1.4-0.8-1.9C48.4,123.9,47.7,123.6,47,123.6z"/>
		<path class="st2" d="M38.8,129.1c-1.1,0-2.2-0.4-3-1.2c-0.8-0.8-1.2-1.8-1.2-3c0-1.1,0.4-2.2,1.2-3l0.5-0.5c0.8-0.8,1.8-1.2,3-1.2
			c1.1,0,2.2,0.4,3,1.2c1.6,1.6,1.6,4.3,0,5.9l-0.5,0.5C40.9,128.7,39.9,129.1,38.8,129.1z M39.3,121.7c-0.7,0-1.4,0.3-1.9,0.8
			l-0.5,0.5c-0.5,0.5-0.8,1.2-0.8,1.9c0,0.7,0.3,1.4,0.8,1.9c0.5,0.5,1.2,0.8,1.9,0.8s1.4-0.3,1.9-0.8l0.5-0.5
			c1.1-1.1,1.1-2.8,0-3.8C40.7,121.9,40,121.7,39.3,121.7z"/>
		<path class="st2" d="M56.8,140.3c-1.1,0-2.2-0.4-3-1.2c-1.4-1.4-1.6-3.7-0.5-5.3c0.1-0.2,0.3-0.4,0.5-0.6l2.1-2
			c0.8-0.8,1.9-1.2,3-1.2c0.8,0,1.6,0.2,2.3,0.7c0,0,0,0,0,0c0.2,0.1,0.4,0.3,0.6,0.5c0.2,0.2,0.3,0.4,0.5,0.6
			c1.2,1.7,1,3.9-0.5,5.4l-2,2c-0.2,0.2-0.4,0.4-0.6,0.5C58.5,140,57.7,140.3,56.8,140.3L56.8,140.3z M58.9,131.4
			c-0.7,0-1.4,0.3-1.9,0.8l-2,2c-0.1,0.1-0.2,0.2-0.3,0.4c-0.8,1.1-0.6,2.6,0.3,3.5c0.5,0.5,1.2,0.8,1.9,0.8c0.5,0,1.1-0.2,1.5-0.5
			c0.2-0.1,0.3-0.2,0.4-0.3l2-2c0.9-0.9,1-2.4,0.3-3.5c-0.1-0.1-0.2-0.3-0.3-0.4c-0.1-0.1-0.3-0.2-0.4-0.3c0,0,0,0,0,0
			C59.9,131.5,59.4,131.4,58.9,131.4L58.9,131.4z"/>
		<path class="st2" d="M48.6,138.8c-1.1,0-2.1-0.4-3-1.2c-0.8-0.8-1.2-1.8-1.2-3s0.4-2.2,1.2-3l4.3-4.3c1.6-1.6,4.3-1.6,5.9,0
			c1.6,1.6,1.6,4.3,0,5.9l-4.3,4.3C50.7,138.4,49.7,138.8,48.6,138.8z M52.9,127.5c-0.7,0-1.4,0.3-1.9,0.8l-4.3,4.3
			c-0.5,0.5-0.8,1.2-0.8,1.9c0,0.7,0.3,1.4,0.8,1.9c1.1,1.1,2.8,1.1,3.8,0l4.3-4.3c1.1-1.1,1.1-2.8,0-3.8
			C54.3,127.8,53.6,127.5,52.9,127.5z"/>
		<path class="st2" d="M92.4,110.9c-0.2,0-0.4-0.1-0.6-0.3L76.3,92.8c-0.1-0.1-0.2-0.4-0.2-0.5c0-0.2,0.1-0.4,0.3-0.5l5.1-4
			c0.3-0.2,0.8-0.2,1,0.1l15.6,17.6c0.1,0.1,0.2,0.3,0.2,0.5c0,0.2-0.1,0.4-0.3,0.5l-5.1,4.3C92.8,110.8,92.6,110.9,92.4,110.9
			L92.4,110.9z M77.9,92.4l14.6,16.7l4-3.3L81.9,89.3L77.9,92.4z"/>
		<path class="st2" d="M35.2,123.2c-1.5-1.3-2.1-1.9-2.7-2.5l-0.2-0.2c-2.1-2.1-3.4-4.4-4.3-6.2c-0.3-0.6-0.6-1.2-0.9-1.8
			c-0.6-1.2-1-2.2-1.6-3c0,0,0-0.1-0.1-0.1c0,0,0-0.1-0.1-0.1l1.2-0.9c0.1,0.1,0.1,0.2,0.2,0.3c0.6,0.9,1.1,2,1.7,3.1
			c0.3,0.6,0.5,1.2,0.9,1.8c0.9,1.7,2.1,3.9,4.1,5.8l0.2,0.2c0.6,0.6,1.2,1.2,2.6,2.4L35.2,123.2L35.2,123.2z"/>
		<path class="st2" d="M69.9,139c-1.1,0-2.3-0.4-3.1-1.2l-5.1-4.1l0.9-1.1l5.1,4.1c0,0,0,0,0.1,0c1,1,3.1,1,4.2,0
			c1.1-1.1,1.1-2.8,0-3.8l-8.4-7.8l1-1.1l8.4,7.8c1.7,1.7,1.7,4.3,0,5.9C72.2,138.5,71.1,139,69.9,139L69.9,139z"/>
		<path class="st2" d="M50.7,111.2C50.7,111.2,50.6,111.2,50.7,111.2c-1.1,0-2.1-0.5-2.8-1.2l-0.5-0.5c-0.1-0.1-0.2-0.2-0.3-0.4
			c-1.1-1.5-1-3.7,0.4-5l10-9.5c0.5-0.5,1-0.9,1.6-1.3c3-2.2,7.1-2.8,10.9-1.7c2.8,0.8,4.9,0.9,6.8,0.3l0.5,1.4
			c-2.2,0.7-4.7,0.6-7.7-0.3c-3.4-1-7-0.5-9.6,1.5c-0.5,0.4-1,0.8-1.4,1.2l-10,9.5c-0.9,0.8-1,2.2-0.3,3.1c0,0,0,0,0,0
			c0,0.1,0.1,0.1,0.2,0.2L49,109c0.4,0.5,1,0.7,1.7,0.7c0.6,0,1.2-0.2,1.7-0.7c0.1-0.1,0.6-0.6,1.3-1.2c1.4-1.3,3.5-3.3,5-4.8
			c1.3-1.2,3.3-1.2,4.5,0.1l6.1,5.9l-1,1.1l-6.1-5.9c-0.7-0.7-1.7-0.7-2.4,0c-1.5,1.4-3.6,3.5-5,4.8c-0.7,0.7-1.2,1.2-1.3,1.2
			C52.6,110.8,51.7,111.2,50.7,111.2L50.7,111.2z"/>
		<path class="st1" d="M20.3,105.3l5,3.8l15.1-17.5l-4.6-4L20.3,105.3z"/>
		<path class="st2" d="M25.2,110.1c-0.2,0-0.3,0-0.5-0.1l-5.1-3.9c-0.2-0.1-0.3-0.3-0.3-0.5c0-0.2,0-0.4,0.2-0.6l15.9-17.8
			c0.3-0.3,0.7-0.3,1-0.1l4.8,3.9c0.2,0.1,0.3,0.3,0.3,0.5c0,0.2,0,0.4-0.2,0.5l-15.6,17.9C25.6,110,25.4,110.1,25.2,110.1
			L25.2,110.1z M21.2,105.3l3.9,3l14.6-16.8L36,88.7L21.2,105.3z"/>
		<path class="st2" d="M58.3,94.6c-2.7-2-7-2.6-10.3-1.6c-2.7,0.8-5.6,0.8-8.1-0.1l0.5-1.4c1.3,0.4,4,1,7.2,0
			c3.8-1.1,8.6-0.4,11.6,1.8L58.3,94.6z"/>
		<path class="st2" d="M63.4,140.5c-0.4,0-0.7,0-1.1-0.2c-1.9-0.6-2.7-1.8-2.8-1.9l1.2-0.8l-0.6,0.4l0.6-0.4c0,0,0.6,0.8,2,1.3
			c1.8,0.6,3.7-1.8,3.7-1.8l1.2,0.9C67.6,138.1,65.8,140.5,63.4,140.5L63.4,140.5z"/>
		<path class="st2" d="M75.9,135c-1.2,0-2.3-0.5-3.3-1.5l1-1.1c0.8,0.8,1.6,1.1,2.4,1.1c0.7,0,1.4-0.4,2-1c0.5-0.5,0.8-1.3,0.7-2
			c0-0.8-0.4-1.5-0.9-2l-10.4-8.9l1-1.1l10.4,8.9c0.9,0.8,1.4,1.9,1.4,3c0,1.1-0.4,2.3-1.1,3.1C78.3,134.5,77.2,135,75.9,135
			C76,135,76,135,75.9,135L75.9,135z"/>
		<path class="st2" d="M79.5,128.7c-0.9,0-1.9-0.3-2.6-1l1-1.1c1.2,1.1,3.1,0.6,4.1-0.5c0.5-0.5,0.8-1.3,0.7-2c0-0.8-0.4-1.5-0.9-2
			l-9.6-8.1l1-1.1l9.6,8.1c0.9,0.8,1.4,1.9,1.4,3c0,1.1-0.4,2.3-1.1,3.1C82.2,128.1,80.9,128.7,79.5,128.7z"/>
		<path class="st3" d="M105.4,36.9h-1.5c-3.7,0-6.8,3-6.8,6.8v2.1h13.4v-3.8C110.5,39.2,108.2,36.9,105.4,36.9L105.4,36.9z"/>
		<path class="st2" d="M97.8,70.6h-1.9V44.5c0-2.4,1-4.7,2.7-6.3c1.8-1.7,4.2-2.6,6.7-2.5c3.9,0.2,7.1,3.5,7.1,7.4v3.7
			c0,0.5-0.4,1-1,1H97.8V70.6L97.8,70.6z M97.8,45.8h12.7v-2.7c0-2.9-2.4-5.4-5.3-5.5c-2-0.1-3.9,0.6-5.3,2c-1.4,1.3-2.1,3.1-2.1,5
			L97.8,45.8L97.8,45.8z"/>
		<path class="st2" d="M25.9,50.3H24v43.2h1.9V50.3z"/>
		<path class="st2" d="M104.8,35.7H58.3v1.9h46.4V35.7z"/>
		<path class="st2" d="M80.6,50.9h-8.3v1.9h8.3V50.9z"/>
		<path class="st2" d="M80.6,61.1H41.1V63h39.4V61.1z"/>
		<path class="st2" d="M64,50.9H41.1v1.9H64V50.9z"/>
		<path class="st3" d="M96.3,70.2l7.9,5l24.9-36.8l-7.9-5.3L96.3,70.2z"/>
		<path class="st2" d="M133.9,32.7c0,0,0,0.1-0.1,0.1l-4,6.1c-0.1,0.2-0.4,0.4-0.6,0.4c-0.2,0-0.5,0-0.7-0.1l-7.2-4.7
			c-0.4-0.3-0.6-0.9-0.3-1.3l4-6.1c0.1-0.2,0.4-0.4,0.6-0.4c0.2,0,0.5,0,0.7,0.1l7.2,4.7C134,31.8,134.1,32.3,133.9,32.7L133.9,32.7
			z M128.8,37.1l2.9-4.5l-5.6-3.7l-2.9,4.5L128.8,37.1z"/>
		<path class="st2" d="M105.1,76c-0.1,0.1-0.1,0.2-0.3,0.3l-11.6,9.6c-0.3,0.3-0.8,0.3-1.1,0.1c-0.4-0.2-0.5-0.7-0.4-1.1l4.2-14.4
			c0.1-0.3,0.3-0.5,0.6-0.6c0.3-0.1,0.6-0.1,0.9,0.1l7.4,4.9c0.3,0.2,0.4,0.4,0.4,0.7C105.2,75.7,105.2,75.9,105.1,76L105.1,76z
			 M94.4,82.5l8.2-6.8l-5.2-3.4L94.4,82.5L94.4,82.5z"/>
		<path class="st2" d="M128.3,37.9l-24.8,37.2l1.6,1.1l24.8-37.2L128.3,37.9z"/>
		<path class="st4" d="M70.7,69.4l-6.7,11.2l14.8-0.7l-1.9,6.2l10.9-0.5"/>
		<path class="st2" d="M35.5,48.4c-0.5,0-0.9,0-1.4,0l0.2-2.6c0.4,0,0.8,0,1.2,0c0.2,0,0.4,0,0.6,0l0.1,2.6
			C36,48.4,35.7,48.4,35.5,48.4z M37.6,48.3l-0.3-2.6c0.6-0.1,1.2-0.2,1.8-0.3l0.5,2.5C39,48.1,38.3,48.2,37.6,48.3z M32.7,48.2
			c-0.7-0.1-1.4-0.2-2.1-0.4l0.6-2.5c0.6,0.1,1.2,0.3,1.8,0.4L32.7,48.2z M41,47.7l-0.7-2.5c0.6-0.2,1.1-0.4,1.7-0.6l1,2.4
			C42.3,47.2,41.7,47.5,41,47.7L41,47.7z M29.3,47.4c-0.7-0.2-1.3-0.5-1.9-0.8l1.1-2.4c0.5,0.3,1.1,0.5,1.7,0.7L29.3,47.4L29.3,47.4
			z M44.2,46.4l-1.2-2.3c0.5-0.3,1.1-0.6,1.6-0.9l1.4,2.2C45.5,45.7,44.8,46.1,44.2,46.4L44.2,46.4z M26.1,46.1
			c-0.6-0.3-1.2-0.7-1.8-1.1l1.5-2.1c0.5,0.3,1,0.7,1.5,1L26.1,46.1z M47.2,44.5l-1.6-2.1c0.5-0.4,1-0.8,1.4-1.2l1.8,1.9
			C48.3,43.7,47.7,44.1,47.2,44.5z M23.3,44.1c-0.5-0.4-1.1-0.9-1.6-1.4l1.8-1.8c0.4,0.4,0.9,0.8,1.3,1.2L23.3,44.1z M49.8,42.2
			l-1.9-1.8c0.4-0.4,0.8-0.9,1.2-1.4l2.1,1.6C50.7,41.2,50.2,41.7,49.8,42.2z M20.7,41.7c-0.5-0.5-0.9-1.1-1.3-1.6l2.1-1.5
			c0.3,0.5,0.7,1,1.1,1.4L20.7,41.7L20.7,41.7z M51.9,39.5l-2.2-1.4c0.3-0.5,0.6-1,0.9-1.6l2.3,1.2C52.6,38.3,52.3,38.9,51.9,39.5z
			 M18.7,38.9c-0.4-0.6-0.7-1.2-1-1.9l2.4-1.1c0.3,0.5,0.5,1.1,0.8,1.6L18.7,38.9L18.7,38.9z M53.5,36.4l-2.4-1
			c0.2-0.5,0.4-1.1,0.6-1.7l2.5,0.7C54,35.1,53.8,35.8,53.5,36.4L53.5,36.4z M17.2,35.8c-0.2-0.6-0.5-1.3-0.6-2l2.5-0.6
			c0.1,0.6,0.3,1.2,0.5,1.7L17.2,35.8L17.2,35.8z M54.6,33.1L52,32.5c0.1-0.6,0.2-1.2,0.3-1.8l2.6,0.3
			C54.8,31.7,54.7,32.4,54.6,33.1z M16.3,32.4c-0.1-0.7-0.2-1.4-0.3-2.1l2.6-0.2c0,0.6,0.1,1.2,0.2,1.8L16.3,32.4z M55,29.7
			l-2.6-0.1c0-0.2,0-0.4,0-0.6c0-0.6,0-1.2-0.1-1.8l2.6-0.3C55,27.6,55,28.3,55,29C55,29.2,55,29.4,55,29.7z M18.6,29H16
			c0-0.7,0-1.4,0.1-2.1l2.6,0.3C18.6,27.8,18.6,28.4,18.6,29z M18.9,26l-2.6-0.5c0.1-0.7,0.3-1.4,0.5-2l2.5,0.7
			C19.1,24.8,19,25.4,18.9,26L18.9,26z M52.1,26c-0.1-0.6-0.2-1.2-0.4-1.8l2.5-0.7c0.2,0.7,0.4,1.3,0.5,2L52.1,26z M19.6,23.1
			l-2.4-0.9c0.2-0.6,0.5-1.3,0.8-1.9l2.3,1.2C20.1,21.9,19.9,22.5,19.6,23.1z M51.3,23.1c-0.2-0.6-0.5-1.1-0.7-1.7l2.3-1.2
			c0.3,0.6,0.6,1.3,0.8,1.9L51.3,23.1z M21,20.4L18.7,19c0.4-0.6,0.7-1.2,1.2-1.7l2.1,1.6C21.6,19.4,21.3,19.9,21,20.4L21,20.4z
			 M50,20.4c-0.3-0.5-0.6-1-1-1.5l2.1-1.6c0.4,0.5,0.8,1.1,1.2,1.7L50,20.4L50,20.4z M22.7,17.9l-2-1.7c0.5-0.5,0.9-1,1.5-1.5
			l1.8,1.9C23.5,17,23.1,17.5,22.7,17.9z M48.3,17.9c-0.4-0.5-0.8-0.9-1.3-1.3l1.8-1.9c0.5,0.5,1,1,1.5,1.5L48.3,17.9z M24.9,15.8
			l-1.6-2c0.5-0.4,1.1-0.8,1.7-1.2l1.4,2.2C25.9,15.1,25.4,15.4,24.9,15.8z M46.1,15.8c-0.5-0.4-1-0.7-1.5-1.1l1.4-2.2
			c0.6,0.4,1.1,0.8,1.7,1.2L46.1,15.8z M27.4,14.1l-1.2-2.3c0.6-0.3,1.2-0.6,1.9-0.9l1,2.4C28.5,13.6,27.9,13.9,27.4,14.1L27.4,14.1
			z M43.6,14.1c-0.5-0.3-1.1-0.5-1.6-0.8l1-2.4c0.6,0.3,1.3,0.6,1.9,0.9L43.6,14.1L43.6,14.1z M40.8,12.9c-0.6-0.2-1.2-0.4-1.7-0.5
			l0.5-2.5c0.7,0.1,1.4,0.3,2,0.5L40.8,12.9z M30.2,12.9l-0.8-2.5c0.7-0.2,1.3-0.4,2-0.5l0.5,2.5C31.3,12.6,30.7,12.7,30.2,12.9z
			 M37.9,12.2c-0.6-0.1-1.2-0.1-1.8-0.2l0.1-2.6c0.7,0,1.4,0.1,2.1,0.2L37.9,12.2z M33.1,12.2l-0.4-2.6c0.7-0.1,1.4-0.2,2.1-0.2
			l0.1,2.6C34.3,12.1,33.7,12.2,33.1,12.2L33.1,12.2z"/>
		<path class="st1" d="M32.9,40c-1.1,0-2.2-0.5-3-1.3l-6.2-6.2c-0.8-0.8-1.3-1.9-1.3-3c0-1.1,0.5-2.2,1.3-3c0.8-0.8,1.9-1.3,3-1.3
			c1.1,0,2.2,0.5,3,1.3l3.1,3.1l7.8-7.8c0.8-0.8,1.9-1.3,3-1.3c1.1,0,2.2,0.5,3,1.3c0.8,0.8,1.3,1.9,1.3,3c0,1.1-0.5,2.2-1.3,3
			L36,38.8C35.2,39.6,34.1,40,32.9,40z M26.8,27.9c-0.5,0-0.9,0.2-1.2,0.5c-0.3,0.3-0.5,0.7-0.5,1.2s0.2,0.9,0.5,1.2l6.2,6.2
			c0.6,0.6,1.8,0.6,2.4,0L45,26.1c0.3-0.3,0.5-0.7,0.5-1.2s-0.2-0.9-0.5-1.2c-0.6-0.6-1.8-0.6-2.4,0l-8.7,8.7
			c-0.5,0.5-1.3,0.5-1.8,0L28,28.4C27.6,28.1,27.2,27.9,26.8,27.9z"/>
	</g>
</g>
</svg>
