<svg width="19" height="16" viewBox="0 0 19 16" fill="none" xmlns="http://www.w3.org/2000/svg">
<path d="M3.17417 3.21648C3.17417 2.62784 3.42645 2.06023 3.86792 1.63977C4.3094 1.21932 4.91906 0.988068 5.54974 0.988068C6.18042 0.988068 6.79008 1.21932 7.23156 1.63977C7.67304 2.06023 7.92531 2.62784 7.92531 3.21648C7.92531 3.80511 7.67304 4.37273 7.23156 4.79318C6.79008 5.21364 6.18042 5.44489 5.54974 5.44489C4.91906 5.44489 4.3094 5.21364 3.86792 4.79318C3.42645 4.37273 3.17417 3.80511 3.17417 3.21648ZM5.54974 0C4.63525 0 3.76281 0.336364 3.12162 0.946023C2.48042 1.54517 2.11253 2.36506 2.11253 3.21648C2.11253 4.0679 2.46991 4.88778 3.12162 5.48693C3.76281 6.08608 4.64577 6.43295 5.54974 6.43295C6.45372 6.43295 7.33667 6.09659 7.97787 5.48693C8.61906 4.88778 8.98696 4.0679 8.98696 3.21648C8.98696 2.36506 8.62957 1.54517 7.97787 0.946023C7.33667 0.346875 6.45372 0 5.54974 0ZM8.98696 7.42102C9.53355 7.42102 10.0696 7.62074 10.4585 7.97812C10.858 8.33551 11.0787 8.82955 11.0997 9.3446L9.59662 10.7426C9.82787 10.3852 9.97503 9.97528 10.0276 9.55483C10.0276 9.51278 10.0276 9.49176 10.0276 9.47074V9.44971V9.38665C10.0276 9.12386 9.91196 8.87159 9.72275 8.68239C9.52304 8.49318 9.26025 8.38807 8.97645 8.38807H2.11253C1.82872 8.38807 1.56594 8.49318 1.36622 8.68239C1.1665 8.87159 1.06139 9.12386 1.06139 9.38665V9.54432C1.12446 10.0173 1.30315 10.4693 1.59747 10.8687C2.11253 11.5625 3.1952 12.3614 5.56025 12.3614C7.21054 12.3614 8.24065 11.9724 8.88184 11.5099C8.66111 11.8148 8.49292 12.1511 8.39832 12.519L8.2827 12.9395C7.55741 13.1918 6.66395 13.3599 5.56025 13.3599C2.90088 13.3599 1.47133 12.4455 0.725027 11.4469C0.336106 10.9108 0.0943448 10.3011 0.0207653 9.65994C0.0207653 9.60738 0.0102539 9.54432 0.0102539 9.49176V9.40767C0.0102539 8.8821 0.230993 8.37756 0.630424 8.00966C1.02986 7.64176 1.56594 7.43153 2.12304 7.43153H8.99747L8.98696 7.42102ZM16.387 3.95227C16.387 4.60398 16.1032 5.23466 15.6091 5.69716C15.1151 6.15966 14.4424 6.42244 13.7381 6.42244C13.0338 6.42244 12.3611 6.15966 11.8671 5.69716C11.373 5.23466 11.0892 4.60398 11.0892 3.95227C11.0892 3.30057 11.373 2.66989 11.8671 2.20739C12.3611 1.74489 13.0338 1.4821 13.7381 1.4821C14.4424 1.4821 15.1151 1.74489 15.6091 2.20739C16.1032 2.66989 16.387 3.30057 16.387 3.95227ZM12.1509 3.95227C12.1509 4.34119 12.3191 4.7196 12.6134 5.00341C12.9077 5.2767 13.3176 5.43437 13.7381 5.43437C14.1585 5.43437 14.558 5.2767 14.8628 5.00341C15.1571 4.7196 15.3253 4.3517 15.3253 3.95227C15.3253 3.55284 15.1571 3.18494 14.8628 2.90114C14.5685 2.62784 14.1585 2.47017 13.7381 2.47017C13.3176 2.47017 12.9182 2.62784 12.6134 2.90114C12.3191 3.18494 12.1509 3.55284 12.1509 3.95227ZM15.1256 6.96903L10.0171 11.7517C9.72275 12.025 9.51253 12.3824 9.40741 12.7608L9.00798 14.2429C8.96594 14.3901 8.96594 14.5477 9.00798 14.6949C9.05003 14.842 9.13412 14.9787 9.24974 15.0838C9.36537 15.1889 9.51253 15.273 9.65969 15.3045C9.80684 15.3361 9.98554 15.3466 10.1432 15.3045L11.7304 14.9366C12.1404 14.842 12.5083 14.6423 12.8131 14.369L17.9216 9.58636C18.2895 9.23949 18.4892 8.76648 18.4892 8.28295C18.4892 7.78892 18.279 7.32642 17.9111 6.97954C17.5432 6.63267 17.0387 6.44347 16.5236 6.43295C15.998 6.43295 15.504 6.62216 15.1256 6.96903Z" fill="#333333"/>
</svg>
