<svg width="98" height="96" viewBox="0 0 98 96" fill="none" xmlns="http://www.w3.org/2000/svg">
<rect x="1" y="1" width="62" height="94" rx="9" fill="white" stroke="#222222" stroke-width="2"/>
<g clip-path="url(#clip0_711_121)">
<path d="M97.9999 56.9551C95.0188 56.9551 92.6089 54.5186 92.6089 51.5045C92.6089 48.4905 95.0188 46.0539 97.9999 46.0539V35.1528C97.9999 32.3192 95.7061 30 92.9035 30H39.9043V73H92.9035C95.7061 73 97.9999 70.6808 97.9999 67.8472V56.9461V56.9551Z" fill="#FF9015"/>
<path d="M22 46.0539C24.9811 46.0539 27.391 48.4904 27.391 51.5045C27.391 54.5186 24.9811 56.9551 22 56.9551V67.8562C22 70.6898 24.2938 73.009 27.0964 73.009H40.5738V30H27.0964C24.2938 30 22 32.3192 22 35.1528V46.0539Z" fill="#93D500"/>
<path d="M76.0611 59.8424H73.5353V46.7393L68.2514 55.6552H66.743L61.5038 46.7393V59.8424H59.1475V44.6367H62.5927L67.6534 53.1014L72.5535 44.6367H76.0611V59.8424Z" fill="white"/>
</g>
<circle cx="33" cy="16" r="2" fill="#222222"/>
<defs>
<clipPath id="clip0_711_121">
<rect width="76" height="43" fill="white" transform="translate(22 30)"/>
</clipPath>
</defs>
</svg>
