<svg width="30" height="24" viewBox="0 0 30 24" fill="none" xmlns="http://www.w3.org/2000/svg">
<g clip-path="url(#clip0_602_969)">
<path d="M14.0489 22.2567C11.9558 20.7131 8.09246 19.8416 3.2176 19.8416C2.55621 19.8416 2.06989 19.8601 1.84035 19.8711C1.80533 19.8711 1.7781 19.8711 1.75087 19.8711C1.01555 19.8711 0.393066 19.2803 0.393066 18.5786V1.71334C0.393066 1.66164 0.428081 1.61363 0.478658 1.59886C3.05809 0.782741 5.38464 0.369141 7.39605 0.369141C11.1543 0.369141 13.084 1.76135 14.0489 2.95414V22.2567Z" fill="white"/>
<path d="M7.39593 0.738572C10.8935 0.738572 12.7221 1.97937 13.6597 3.08354V21.5442C11.411 20.2 7.79276 19.4725 3.21748 19.4725C2.54442 19.4725 2.05421 19.4909 1.8091 19.502C1.78965 19.502 1.7702 19.502 1.75075 19.502C1.2333 19.502 0.782 19.0699 0.782 18.5788V1.89444C3.2525 1.12632 5.47789 0.738572 7.39982 0.738572M7.39982 0C5.34172 0 2.97238 0.420986 0.350149 1.24819C0.14006 1.31466 0 1.50299 0 1.71349V18.5788C0 19.4798 0.793671 20.2406 1.74685 20.2406C1.78187 20.2406 1.82078 20.2406 1.85579 20.2406C2.05032 20.2295 2.53275 20.211 3.21359 20.211C8.59422 20.211 12.6521 21.2598 14.4339 23.0915V2.82135C14.4339 2.82135 14.4067 2.79919 14.395 2.78442C13.3913 1.51407 11.3604 0 7.39204 0H7.39982Z" fill="#333333"/>
<path d="M15.9512 2.95414C16.916 1.76135 18.8457 0.369141 22.604 0.369141C24.6154 0.369141 26.9419 0.782741 29.5214 1.59886C29.572 1.61363 29.607 1.66164 29.607 1.71334V18.5786C29.607 18.9221 29.4669 19.247 29.2062 19.4945C28.9495 19.7382 28.611 19.8748 28.2492 19.8748C28.218 19.8748 28.1869 19.8748 28.1441 19.8748C27.9146 19.8638 27.4399 19.8453 26.7785 19.8453C21.9076 19.8453 18.0404 20.7168 15.9473 22.2604V2.95414H15.9512Z" fill="white"/>
<path d="M22.6039 0.738572C24.5297 0.738572 26.7551 1.12632 29.2178 1.89444V18.5825C29.2178 18.8299 29.1167 19.0625 28.9338 19.2361C28.751 19.4097 28.5097 19.5057 28.253 19.5057C28.2296 19.5057 28.2063 19.5057 28.1635 19.5057C27.9378 19.4946 27.4554 19.4762 26.7823 19.4762C22.2071 19.4762 18.5889 20.2036 16.3401 21.5478V3.08354C17.2739 1.98307 19.1063 0.738572 22.6039 0.738572ZM22.6039 0C18.6317 0 16.6008 1.51407 15.6009 2.78442C15.5892 2.79919 15.5737 2.80657 15.562 2.82135V23.0915C17.3478 21.2598 21.4056 20.211 26.7823 20.211C27.4671 20.211 27.9495 20.2295 28.1207 20.2406C28.1752 20.2406 28.2141 20.2443 28.2491 20.2443C28.7159 20.2443 29.1517 20.0707 29.4824 19.7568C29.8131 19.4429 29.9959 19.0256 29.9959 18.5825V1.71349C29.9959 1.50299 29.8559 1.31466 29.6419 1.24819C27.0236 0.420986 24.6542 0 22.6 0H22.6039Z" fill="#333333"/>
<path d="M17.7061 22.1976L22.8999 17.4117C23.5497 16.8134 23.5497 15.8385 22.8999 15.2402L22.8338 15.1812C22.1841 14.5829 21.1258 14.5829 20.4761 15.1812L16.998 18.3866V8.44539C16.998 7.55171 16.2121 6.82422 15.2394 6.82422C14.3174 6.82422 13.5704 7.51109 13.5704 8.36045V18.3866L10.0923 15.1812C9.44253 14.5829 8.3843 14.5829 7.73458 15.1812L7.66844 15.2402C7.01872 15.8385 7.01872 16.8134 7.66844 17.4117L12.8623 22.1976L14.1073 23.3424C14.4185 23.6304 14.8426 23.7929 15.2861 23.7929C15.7297 23.7929 16.1537 23.6304 16.465 23.3424L17.7099 22.1976H17.7061Z" fill="#333333"/>
</g>
<defs>
<clipPath id="clip0_602_969">
<rect width="30" height="23.7931" fill="white"/>
</clipPath>
</defs>
</svg>
