<svg width="20" height="20" viewBox="0 0 20 20" fill="none" xmlns="http://www.w3.org/2000/svg">
<path d="M14.275 1C15.0508 1 15.7947 1.30817 16.3433 1.85671C16.8918 2.40526 17.2 3.14924 17.2 3.925V10.045C16.8736 10.1114 16.5662 10.2498 16.3 10.45C16.3 9.9433 16.1326 9.4762 15.85 9.1V5.95H2.35V14.275C2.35 15.1444 3.0556 15.85 3.925 15.85H8.2V17.2H3.925C3.14924 17.2 2.40526 16.8918 1.85671 16.3433C1.30817 15.7947 1 15.0508 1 14.275V3.925C1 3.14924 1.30817 2.40526 1.85671 1.85671C2.40526 1.30817 3.14924 1 3.925 1H14.275ZM14.275 2.35H3.925C3.50728 2.35 3.10668 2.51594 2.81131 2.81131C2.51594 3.10668 2.35 3.50728 2.35 3.925V4.6H15.85V3.925C15.85 3.50728 15.6841 3.10668 15.3887 2.81131C15.0933 2.51594 14.6927 2.35 14.275 2.35ZM14.05 9.1C13.692 9.1 13.3486 9.24223 13.0954 9.49541C12.8422 9.74858 12.7 10.092 12.7 10.45V17.65C12.7 18.008 12.8422 18.3514 13.0954 18.6046C13.3486 18.8578 13.692 19 14.05 19C14.408 19 14.7514 18.8578 15.0046 18.6046C15.2578 18.3514 15.4 18.008 15.4 17.65V10.45C15.4 10.092 15.2578 9.74858 15.0046 9.49541C14.7514 9.24223 14.408 9.1 14.05 9.1ZM10.45 12.7C10.092 12.7 9.74858 12.8422 9.49541 13.0954C9.24223 13.3486 9.1 13.692 9.1 14.05V17.65C9.1 18.008 9.24223 18.3514 9.49541 18.6046C9.74858 18.8578 10.092 19 10.45 19C10.808 19 11.1514 18.8578 11.4046 18.6046C11.6578 18.3514 11.8 18.008 11.8 17.65V14.05C11.8 13.692 11.6578 13.3486 11.4046 13.0954C11.1514 12.8422 10.808 12.7 10.45 12.7ZM16.3 12.25C16.3 11.892 16.4422 11.5486 16.6954 11.2954C16.9486 11.0422 17.292 10.9 17.65 10.9C18.008 10.9 18.3514 11.0422 18.6046 11.2954C18.8578 11.5486 19 11.892 19 12.25V17.65C19 18.008 18.8578 18.3514 18.6046 18.6046C18.3514 18.8578 18.008 19 17.65 19C17.292 19 16.9486 18.8578 16.6954 18.6046C16.4422 18.3514 16.3 18.008 16.3 17.65V12.25Z" fill="#333333"/>
</svg>
