<?xml version="1.0" encoding="utf-8"?>
<!-- Generator: Adobe Illustrator 27.3.1, SVG Export Plug-In . SVG Version: 6.00 Build 0)  -->
<svg version="1.1" id="레이어_1" xmlns="http://www.w3.org/2000/svg" xmlns:xlink="http://www.w3.org/1999/xlink" x="0px"
	 y="0px" viewBox="0 0 25 25" style="enable-background:new 0 0 25 25;" xml:space="preserve">
<style type="text/css">
	.st0{clip-path:url(#SVGID_00000183948706245854823850000009606253057093622686_);}
	.st1{fill:#FFFFFF;}
	.st2{fill:#333333;}
	.st3{fill:none;stroke:#333333;stroke-width:2;stroke-miterlimit:10;}
	.st4{fill:#F58220;}
</style>
<g>
	<defs>
		<rect id="SVGID_1_" x="2.1" y="0.9" width="20.7" height="23.2"/>
	</defs>
	<clipPath id="SVGID_00000176035875217525440720000017299090466579909555_">
		<use xlink:href="#SVGID_1_"  style="overflow:visible;"/>
	</clipPath>
	<g style="clip-path:url(#SVGID_00000176035875217525440720000017299090466579909555_);">
		<path class="st1" d="M20,7.5l-0.6-0.7l-1.8-2l1.8,2L20,7.5z"/>
		<path class="st1" d="M18.7,8l-0.3-0.3l-1.9-2l-3.1-3.3l-0.2-0.3H3.7c-0.1,0-0.3,0.2-0.3,0.4v19c0,0.2,0.1,0.4,0.3,0.4H10l8.7-9.8
			V8L18.7,8z"/>
		<path class="st1" d="M17.5,4.8l-3.1-3.3l-0.6-0.7l0.6,0.7L17.5,4.8z"/>
		<path d="M2.2,22.2c-0.1-0.2-0.1-0.4-0.1-0.6C2.1,21.8,2.2,22,2.2,22.2z"/>
		<path class="st2" d="M3.7,22.9c-0.3,0-0.6-0.1-0.9-0.4c-0.1-0.1-0.2-0.3-0.3-0.4c-0.1-0.2-0.1-0.3-0.1-0.5V2.5
			c0-0.2,0-0.4,0.1-0.5c0.2-0.5,0.6-0.8,1.1-0.8h10l6,6.4v3L19,11.3V8.2l-0.3-0.3h-5.1c-0.3,0-0.6-0.3-0.6-0.6V2.2l-0.3-0.3h-9
			c-0.3,0-0.6,0.3-0.6,0.7v19c0,0.4,0.3,0.7,0.6,0.7h5.6l-0.6,0.6L3.7,22.9L3.7,22.9z"/>
		<path class="st2" d="M13.6,1.5L14,2l3.1,3.3l1.9,2l0.4,0.5v2.7V8.2l-0.6-0.6h-5.1c-0.2,0-0.3-0.1-0.3-0.3V2.2l-0.6-0.6H13.6z
			 M3.2,1.7C2.9,1.9,2.8,2.2,2.8,2.5c0-0.1,0-0.3,0.1-0.4C2.9,2,3,1.8,3.2,1.7z M2.8,21.6c0,0.2,0.1,0.5,0.2,0.6
			c-0.1-0.1-0.1-0.2-0.1-0.2C2.8,21.9,2.8,21.7,2.8,21.6z M3.2,22.4c0.1,0.1,0.2,0.1,0.3,0.1C3.4,22.6,3.3,22.5,3.2,22.4z M3.7,22.6
			h4.9H3.7 M13.8,0.9H3.7c-0.6,0-1.2,0.4-1.4,1C2.2,2.1,2.1,2.3,2.1,2.5v19c0,0.2,0,0.4,0.1,0.6c0.1,0.2,0.2,0.4,0.3,0.5
			c0.3,0.3,0.7,0.5,1.1,0.5h5.2l1.1-1.3H3.7c-0.1,0-0.3-0.2-0.3-0.4v-19c0-0.2,0.1-0.4,0.3-0.4h9v5.1c0,0.5,0.4,0.9,0.9,0.9h5.1v3.9
			l1.3-1.4V7.5l-0.6-0.7l-1.9-2l-3.1-3.3L13.8,0.9L13.8,0.9z"/>
		<path class="st3" d="M5,8.9h6.4"/>
		<path class="st3" d="M5,12.1h3.2"/>
		<path class="st4" d="M14,10.7c-3,0-5.5,2.5-5.5,5.5s2.5,5.5,5.5,5.5c1.4,0,2.7-0.5,3.6-1.4l1.2,1.1c0.2,0.1,0.4,0.1,0.5,0l0.5-0.6
			c0.1-0.2,0.1-0.4,0-0.5l-1.2-1.1c0.6-0.9,0.9-1.9,0.9-3C19.5,13.2,17,10.7,14,10.7L14,10.7z M14,19.3c-1.7,0-3.1-1.4-3.1-3.1
			c0-1.7,1.4-3.1,3.1-3.1s3.1,1.4,3.1,3.1S15.7,19.3,14,19.3z"/>
		<path class="st4" d="M21.1,20.5c-0.2-0.2-0.5-0.1-0.7,0.1l-1.2,1.4c-0.2,0.2-0.2,0.5,0.1,0.7l1.7,1.4c0.2,0.2,0.5,0.1,0.7-0.1
			l1.2-1.4c0.2-0.2,0.1-0.5-0.1-0.7L21.1,20.5L21.1,20.5z"/>
	</g>
</g>
</svg>
