<?xml version="1.0" encoding="utf-8"?>
<!-- Generator: Adobe Illustrator 27.3.1, SVG Export Plug-In . SVG Version: 6.00 Build 0)  -->
<svg version="1.1" id="레이어_1" xmlns="http://www.w3.org/2000/svg" xmlns:xlink="http://www.w3.org/1999/xlink" x="0px"
	 y="0px" viewBox="0 0 25 25" style="enable-background:new 0 0 25 25;" xml:space="preserve">
<style type="text/css">
	.st0{clip-path:url(#SVGID_00000136372089903286835380000008565741824114171573_);}
	.st1{fill:#FFFFFF;}
	.st2{fill:#333333;}
	.st3{fill:none;stroke:#333333;stroke-width:2;stroke-miterlimit:10;}
	.st4{fill:#F58220;}
</style>
<g>
	<defs>
		<rect id="SVGID_1_" x="2.1" y="0.9" width="20.7" height="22.8"/>
	</defs>
	<clipPath id="SVGID_00000131346088148686961680000017438055763816221591_">
		<use xlink:href="#SVGID_1_"  style="overflow:visible;"/>
	</clipPath>
	<g style="clip-path:url(#SVGID_00000131346088148686961680000017438055763816221591_);">
		<path class="st1" d="M20.4,7.6l-0.6-0.7l-1.9-2l1.9,2L20.4,7.6z"/>
		<path class="st1" d="M19.1,8.1l-0.3-0.3l-1.9-2l-3.1-3.4l-0.2-0.3H3.7c-0.1,0-0.3,0.2-0.3,0.4V22c0,0.2,0.1,0.4,0.3,0.4h6.5
			l8.9-10V8.1L19.1,8.1z"/>
		<path class="st1" d="M17.8,4.9l-3.1-3.4l-0.6-0.7l0.6,0.7L17.8,4.9z"/>
		<path d="M2.3,22.7c-0.1-0.2-0.1-0.4-0.1-0.7C2.1,22.2,2.2,22.5,2.3,22.7z"/>
		<path class="st2" d="M3.7,23.3c-0.3,0-0.6-0.1-0.9-0.4c-0.1-0.1-0.2-0.3-0.3-0.4c-0.1-0.2-0.1-0.3-0.1-0.5V2.6
			c0-0.2,0-0.4,0.1-0.5c0.2-0.5,0.7-0.8,1.1-0.8h10.2L20,7.7v3.1l-0.7,0.7V8.4L19,8.1h-5.3c-0.3,0-0.6-0.3-0.6-0.6V2.2l-0.3-0.3H3.7
			c-0.3,0-0.6,0.3-0.6,0.7V22c0,0.4,0.3,0.7,0.6,0.7h5.8l-0.6,0.7L3.7,23.3L3.7,23.3z"/>
		<path class="st2" d="M13.8,1.5L14.2,2l3.1,3.4l1.9,2l0.4,0.5v2.8V8.4l-0.7-0.7h-5.3c-0.2,0-0.3-0.1-0.3-0.3V2.2l-0.7-0.7H13.8z
			 M3.2,1.7C2.9,1.9,2.8,2.2,2.8,2.6c0-0.1,0-0.3,0.1-0.4C2.9,2,3,1.8,3.2,1.7z M2.8,22c0,0.3,0.1,0.5,0.2,0.7
			c-0.1-0.1-0.1-0.2-0.1-0.2C2.8,22.3,2.8,22.1,2.8,22z M3.2,22.9C3.3,22.9,3.4,23,3.6,23C3.4,23,3.3,22.9,3.2,22.9z M3.7,23h5H3.7
			 M14.1,0.9H3.7c-0.7,0-1.2,0.4-1.4,1C2.2,2.1,2.1,2.3,2.1,2.6V22c0,0.2,0,0.4,0.1,0.7c0.1,0.2,0.2,0.4,0.3,0.5
			c0.3,0.3,0.7,0.5,1.1,0.5H9l1.2-1.3H3.7c-0.1,0-0.3-0.2-0.3-0.4V2.6c0-0.2,0.1-0.4,0.3-0.4h9.2v5.3c0,0.5,0.4,0.9,0.9,0.9h5.3v4
			l1.3-1.5V7.6l-0.6-0.7l-1.9-2l-3.1-3.4L14.1,0.9L14.1,0.9z"/>
		<path class="st3" d="M5.1,9h5.2"/>
		<path class="st3" d="M5.1,12.3h7.8"/>
		<path class="st4" d="M9.1,18.2c-0.4,0-0.8,0.1-1.1,0.4c-0.2,0.3-0.4,0.6-0.4,1l5.8,2.2l5.1-1.4v-6.5h-1.4l-5.3,1.9
			c-0.4,0.1-0.6,0.4-0.6,0.8c0,0.2,0.1,0.4,0.2,0.6c0.1,0.1,0.4,0.3,0.7,0.3h2l1.3-0.5l0.2,0.6l-1.5,0.6L9.1,18.2L9.1,18.2z
			 M22.9,13.9H20v7.9h2.9V13.9z"/>
	</g>
</g>
</svg>
