<svg width="20" height="20" viewBox="0 0 20 20" fill="none" xmlns="http://www.w3.org/2000/svg">
<path d="M15.7415 17.733H3.5915C2.84438 17.7331 2.12556 17.4472 1.5825 16.9341C1.03943 16.421 0.713303 15.7195 0.671004 14.9736L0.666504 14.808V5.35801C0.666441 4.84489 0.86117 4.35089 1.21134 3.97583C1.5615 3.60077 2.04099 3.37263 2.5529 3.33751L2.6915 3.33301H13.9415C14.4546 3.33294 14.9486 3.52767 15.3237 3.87784C15.6987 4.22801 15.9269 4.7075 15.962 5.21941L15.9665 5.35801V6.03301H16.6415C17.1546 6.03294 17.6486 6.22767 18.0237 6.57784C18.3987 6.92801 18.6269 7.4075 18.662 7.91941L18.6665 8.05801V14.808C18.6666 15.5551 18.3807 16.274 17.8676 16.817C17.3545 17.3601 16.653 17.6862 15.9071 17.7285L15.7415 17.733ZM3.5915 16.383H15.7415C16.1369 16.383 16.5179 16.2342 16.8086 15.9663C17.0994 15.6983 17.2788 15.3308 17.3111 14.9367L17.3165 14.808V8.05801C17.3165 7.89489 17.2574 7.7373 17.1502 7.61437C17.043 7.49144 16.8949 7.41149 16.7333 7.38931L16.6415 7.38301H15.9665V14.358C15.9665 14.5211 15.9074 14.6787 15.8002 14.8016C15.693 14.9246 15.5449 15.0045 15.3833 15.0267L15.2915 15.033C15.1284 15.033 14.9708 14.9739 14.8479 14.8667C14.7249 14.7595 14.645 14.6114 14.6228 14.4498L14.6165 14.358V5.35801C14.6165 5.19489 14.5574 5.0373 14.4502 4.91437C14.343 4.79144 14.1949 4.71149 14.0333 4.68931L13.9415 4.68301H2.6915C2.52839 4.68301 2.3708 4.74209 2.24787 4.8493C2.12494 4.95651 2.04499 5.10461 2.0228 5.26621L2.0165 5.35801V14.808C2.01652 15.2033 2.16516 15.5841 2.43292 15.8749C2.70067 16.1656 3.06797 16.3451 3.4619 16.3776L3.5915 16.383ZM9.8879 12.783H12.5933C12.7643 12.7831 12.929 12.848 13.0539 12.9648C13.1789 13.0815 13.2549 13.2414 13.2665 13.412C13.2782 13.5826 13.2246 13.7513 13.1167 13.884C13.0088 14.0166 12.8545 14.1034 12.6851 14.1267L12.5933 14.133H9.8879C9.71688 14.133 9.55226 14.068 9.42729 13.9512C9.30233 13.8345 9.22634 13.6746 9.21468 13.504C9.20302 13.3334 9.25657 13.1647 9.36449 13.032C9.47242 12.8994 9.62668 12.8126 9.7961 12.7893L9.8879 12.783ZM7.1852 9.63751C7.36422 9.63751 7.53591 9.70862 7.6625 9.83521C7.78909 9.9618 7.8602 10.1335 7.8602 10.3125V13.458C7.8602 13.637 7.78909 13.8087 7.6625 13.9353C7.53591 14.0619 7.36422 14.133 7.1852 14.133H4.0397C3.86068 14.133 3.68899 14.0619 3.56241 13.9353C3.43582 13.8087 3.3647 13.637 3.3647 13.458V10.3125C3.3647 10.1335 3.43582 9.9618 3.56241 9.83521C3.68899 9.70862 3.86068 9.63751 4.0397 9.63751H7.1852ZM6.5102 10.9875H4.7147V12.783H6.5102V10.9875ZM9.8879 9.63751H12.5933C12.7643 9.63756 12.929 9.70253 13.0539 9.81928C13.1789 9.93604 13.2549 10.0959 13.2665 10.2665C13.2782 10.4371 13.2246 10.6058 13.1167 10.7385C13.0088 10.8711 12.8545 10.9579 12.6851 10.9812L12.5933 10.9875H9.8879C9.71566 10.9893 9.54927 10.9251 9.4228 10.8082C9.29633 10.6912 9.21934 10.5304 9.20761 10.3585C9.19587 10.1867 9.25028 10.0168 9.35969 9.8838C9.4691 9.75076 9.62522 9.66458 9.7961 9.64291L9.8879 9.63751ZM4.0397 6.48481H12.5933C12.7655 6.48306 12.9319 6.54722 13.0584 6.66415C13.1849 6.78109 13.2619 6.94195 13.2736 7.1138C13.2853 7.28564 13.2309 7.45547 13.1215 7.58851C13.0121 7.72155 12.856 7.80773 12.6851 7.82941L12.5933 7.83481H4.0397C3.86868 7.83476 3.70406 7.76979 3.57909 7.65303C3.45413 7.53628 3.37814 7.37644 3.36648 7.20582C3.35482 7.03519 3.40837 6.86651 3.51629 6.73384C3.62422 6.60117 3.77848 6.51442 3.9479 6.49111L4.0397 6.48481Z" fill="#333333"/>
</svg>
