<svg width="19" height="17" viewBox="0 0 19 17" fill="none" xmlns="http://www.w3.org/2000/svg">
<g clip-path="url(#clip0_457_35822)">
<path d="M8.70603 7.57543C8.60037 7.62825 8.53698 7.73391 8.53698 7.85013V16.2075L7.92418 16.4928L0.83468 13.1752C0.327533 12.9322 0 12.425 0 11.865V4.49028C0 3.88804 0.348664 3.3492 0.887508 3.09562L7.14232 0.168961C7.63891 -0.0634817 8.20945 -0.0634817 8.70603 0.168961L15.0137 3.11675C15.5208 3.35976 15.8484 3.86691 15.8484 4.42689V9.83646C15.8484 10.0055 15.711 10.1323 15.5525 10.1323H14.9291C14.7601 10.1323 14.6333 9.99494 14.6333 9.83646V5.26157C14.6333 5.03969 14.4009 4.90234 14.2107 4.98686L8.71659 7.55429L8.70603 7.57543ZM7.79739 1.15156L6.20199 1.89115C5.96955 1.9968 5.96955 2.32434 6.20199 2.42999L11.4108 4.89177C11.4953 4.93403 11.5799 4.93403 11.6644 4.89177L13.2915 4.13105C13.5239 4.02539 13.5239 3.69786 13.2915 3.59221L8.05096 1.15156C7.96644 1.1093 7.88191 1.1093 7.79739 1.15156ZM7.31137 14.4536V7.83956C7.31137 7.72334 7.24798 7.61769 7.14232 7.56486L1.64823 4.99743C1.44748 4.90234 1.22561 5.05025 1.22561 5.27213V11.8862C1.22561 12.0024 1.289 12.1081 1.39466 12.1609L6.88875 14.7389C7.0895 14.834 7.31137 14.6861 7.31137 14.4642V14.4536ZM2.55687 4.14161L7.80795 6.59283C7.89248 6.63509 7.977 6.63509 8.06153 6.59283L9.62523 5.8638C9.85767 5.75815 9.85767 5.43061 9.62523 5.32496L4.40584 2.86318C4.32132 2.82092 4.23679 2.82092 4.15227 2.86318L2.56743 3.60277C2.33499 3.70843 2.33499 4.03596 2.56743 4.14161H2.55687ZM12.2032 14.4113V13.8725C12.2032 13.7035 12.3406 13.5767 12.4991 13.5767H17.9932C18.1622 13.5767 18.289 13.714 18.289 13.8725V14.4113C18.289 14.5804 18.1516 14.7072 17.9932 14.7072H12.4991C12.33 14.7072 12.2032 14.5698 12.2032 14.4113ZM12.4991 11.2839H17.9932C18.1622 11.2839 18.289 11.4213 18.289 11.5798V12.1186C18.289 12.2877 18.1516 12.4145 17.9932 12.4145H12.4991C12.33 12.4145 12.2032 12.2771 12.2032 12.1186V11.5798C12.2032 11.4107 12.3406 11.2839 12.4991 11.2839ZM9.76258 16.6935V16.1547C9.76258 15.9856 9.89994 15.8588 10.0584 15.8588H10.6818C10.8508 15.8588 10.9776 15.9962 10.9776 16.1547V16.6935C10.9776 16.8626 10.8403 16.9893 10.6818 16.9893H10.0584C9.88937 16.9893 9.76258 16.852 9.76258 16.6935ZM9.76258 12.1292V11.5903C9.76258 11.4213 9.89994 11.2945 10.0584 11.2945H10.6818C10.8508 11.2945 10.9776 11.4319 10.9776 11.5903V12.1292C10.9776 12.2982 10.8403 12.425 10.6818 12.425H10.0584C9.88937 12.425 9.76258 12.2877 9.76258 12.1292ZM9.76258 14.4113V13.8725C9.76258 13.7035 9.89994 13.5767 10.0584 13.5767H10.6818C10.8508 13.5767 10.9776 13.714 10.9776 13.8725V14.4113C10.9776 14.5804 10.8403 14.7072 10.6818 14.7072H10.0584C9.88937 14.7072 9.76258 14.5698 9.76258 14.4113ZM12.2032 16.6935V16.1547C12.2032 15.9856 12.3406 15.8588 12.4991 15.8588H17.9932C18.1622 15.8588 18.289 15.9962 18.289 16.1547V16.6935C18.289 16.8626 18.1516 16.9893 17.9932 16.9893H12.4991C12.33 16.9893 12.2032 16.852 12.2032 16.6935Z" fill="#333333"/>
</g>
<defs>
<clipPath id="clip0_457_35822">
<rect width="18.2996" height="17" fill="white"/>
</clipPath>
</defs>
</svg>
