<svg width="18" height="16" viewBox="0 0 18 16" fill="none" xmlns="http://www.w3.org/2000/svg">
<g clip-path="url(#clip0_457_35826)">
<path d="M9.32341 9.75811C9.19837 9.75811 9.05942 9.68876 8.92743 9.48763C8.84406 9.36279 8.85796 9.17554 8.94827 9.06457C9.04553 8.9536 9.19142 8.96748 9.27478 9.09231C9.33036 9.17554 9.33731 9.18941 9.56656 8.98135C9.74719 8.82183 9.9695 8.61377 10.2682 8.61377C10.5947 8.61377 10.7754 8.76635 10.9143 8.88425C11.0324 8.98828 11.1158 9.05764 11.3103 9.05764C11.5048 9.05764 11.5882 8.98135 11.7063 8.88425C11.8452 8.75941 12.0258 8.61377 12.3524 8.61377C12.6789 8.61377 12.8595 8.76635 12.9984 8.88425C13.1165 8.98828 13.1999 9.05764 13.3944 9.05764C13.5889 9.05764 13.6723 8.98135 13.7904 8.88425C13.9294 8.75941 14.11 8.61377 14.4365 8.61377C14.7283 8.61377 14.9575 8.8149 15.1312 8.98135C15.3605 9.18941 15.3674 9.17554 15.423 9.09231C15.5064 8.96748 15.6522 8.9536 15.7495 9.06457C15.8468 9.17554 15.8537 9.36279 15.7703 9.48763C15.4369 9.98698 15.0826 9.66795 14.8672 9.47376C14.7213 9.34199 14.5824 9.21715 14.4296 9.21715C14.242 9.21715 14.1517 9.29344 14.0336 9.39054C13.8946 9.51537 13.714 9.66102 13.3875 9.66102C13.061 9.66102 12.8803 9.50844 12.7414 9.39054C12.6233 9.2865 12.5399 9.21715 12.3454 9.21715C12.1509 9.21715 12.0675 9.29344 11.9494 9.39054C11.8105 9.51537 11.6299 9.66102 11.3033 9.66102C10.9768 9.66102 10.7962 9.50844 10.6573 9.39054C10.5392 9.2865 10.4558 9.21715 10.2613 9.21715C10.1084 9.21715 9.9695 9.34199 9.82361 9.47376C9.69161 9.59166 9.51099 9.75118 9.31647 9.75118L9.32341 9.75811Z" fill="#333333"/>
<path d="M15.5896 9.52926C15.4645 9.52926 15.3603 9.39749 15.3603 9.23104V0.749025C15.3603 0.6658 15.3047 0.596446 15.2422 0.596446H9.44136C9.37883 0.596446 9.32326 0.6658 9.32326 0.749025V9.23797C9.32326 9.40442 9.21905 9.53619 9.094 9.53619C8.96895 9.53619 8.86475 9.40442 8.86475 9.23797V0.749025C8.86475 0.339835 9.12179 0 9.44136 0H15.2422C15.5618 0 15.8188 0.3329 15.8188 0.749025V9.23797C15.8188 9.40442 15.7146 9.53619 15.5896 9.53619V9.52926Z" fill="#333333"/>
<path d="M14.1236 2.62135H10.5667C10.4416 2.62135 10.3374 2.48957 10.3374 2.32313C10.3374 2.15668 10.4416 2.0249 10.5667 2.0249H14.1236C14.2486 2.0249 14.3528 2.15668 14.3528 2.32313C14.3528 2.48957 14.2486 2.62135 14.1236 2.62135Z" fill="#333333"/>
<path d="M13.3386 4.72975H10.518C10.4208 4.72975 10.3374 4.59797 10.3374 4.43152C10.3374 4.26507 10.4208 4.1333 10.518 4.1333H13.3386C13.4358 4.1333 13.5192 4.26507 13.5192 4.43152C13.5192 4.59797 13.4358 4.72975 13.3386 4.72975Z" fill="#333333"/>
<path d="M12.6577 6.83131H10.4763C10.3999 6.83131 10.3374 6.69954 10.3374 6.53309C10.3374 6.36664 10.3999 6.23486 10.4763 6.23486H12.6577C12.7342 6.23486 12.7967 6.36664 12.7967 6.53309C12.7967 6.69954 12.7342 6.83131 12.6577 6.83131Z" fill="#333333"/>
<path d="M6.80123 14.6266H1.02123C0.45851 14.6266 0 14.1689 0 13.6071V10.2157C0 9.60539 0.257044 9.00895 0.70166 8.58589L3.27904 6.14462C3.51524 5.92269 3.82092 5.79785 4.14049 5.79785H6.80123V14.6197V14.6266ZM4.14049 6.49833C3.9946 6.49833 3.8626 6.55381 3.75145 6.65091L1.17406 9.09217C0.868391 9.38346 0.687765 9.79265 0.687765 10.2157V13.6071C0.687765 13.7874 0.833655 13.9331 1.01428 13.9331H6.09958V6.49833H4.13354H4.14049Z" fill="#333333"/>
<path d="M16.6868 3.77305H16.5131V4.46659H16.6868C17.0272 4.46659 17.3051 4.74401 17.3051 5.09078V13.3162C17.3051 13.656 17.0272 13.9334 16.6868 13.9334H7.42629C7.08588 13.9334 6.80799 13.656 6.80799 13.3162V5.08384C6.80799 4.74401 7.08588 4.45965 7.42629 4.45965H8.17658V3.76611H7.42629C6.70379 3.76611 6.11328 4.35562 6.11328 5.08384V13.3092C6.11328 14.0305 6.70379 14.62 7.42629 14.62H16.6868C17.4093 14.62 17.9998 14.0305 17.9998 13.3092V5.08384C17.9998 4.36256 17.4093 3.76611 16.6868 3.76611V3.77305Z" fill="#333333"/>
<path d="M15.1449 15.7571C16.0342 15.7571 16.7567 15.0358 16.7567 14.1481C16.7567 13.2603 16.0342 12.5391 15.1449 12.5391C14.2557 12.5391 13.5332 13.2603 13.5332 14.1481C13.5332 15.0358 14.2557 15.7571 15.1449 15.7571Z" fill="#333333"/>
<path d="M15.1449 15.9999C14.1237 15.9999 13.29 15.1676 13.29 14.1481C13.29 13.1286 14.1237 12.2964 15.1449 12.2964C16.1661 12.2964 16.9998 13.1286 16.9998 14.1481C16.9998 15.1676 16.1661 15.9999 15.1449 15.9999ZM15.1449 12.7888C14.3946 12.7888 13.7763 13.3991 13.7763 14.1551C13.7763 14.911 14.3877 15.5214 15.1449 15.5214C15.9022 15.5214 16.5135 14.911 16.5135 14.1551C16.5135 13.3991 15.9022 12.7888 15.1449 12.7888Z" fill="#333333"/>
<path d="M6.91251 15.7571C7.80175 15.7571 8.52425 15.0358 8.52425 14.1481C8.52425 13.2603 7.80175 12.5391 6.91251 12.5391C6.02328 12.5391 5.30078 13.2603 5.30078 14.1481C5.30078 15.0358 6.02328 15.7571 6.91251 15.7571Z" fill="#333333"/>
<path d="M6.9125 15.9999C5.89127 15.9999 5.05762 15.1676 5.05762 14.1481C5.05762 13.1286 5.89127 12.2964 6.9125 12.2964C7.93373 12.2964 8.76738 13.1286 8.76738 14.1481C8.76738 15.1676 7.93373 15.9999 6.9125 15.9999ZM6.9125 12.7888C6.16221 12.7888 5.54392 13.3991 5.54392 14.1551C5.54392 14.911 6.15526 15.5214 6.9125 15.5214C7.66974 15.5214 8.28108 14.911 8.28108 14.1551C8.28108 13.3991 7.66974 12.7888 6.9125 12.7888Z" fill="#333333"/>
</g>
<defs>
<clipPath id="clip0_457_35826">
<rect width="18" height="16" fill="white"/>
</clipPath>
</defs>
</svg>
