<svg width="17" height="18" viewBox="0 0 17 18" fill="none" xmlns="http://www.w3.org/2000/svg">
<g clip-path="url(#clip0_457_35808)">
<path d="M1.07008 17.7502C0.770082 17.7502 0.450082 17.6202 0.130082 17.2602C-0.069918 17.0302 -0.039918 16.6902 0.190082 16.4902C0.420082 16.2902 0.760082 16.3202 0.960082 16.5402C1.09008 16.6902 1.11008 16.7102 1.65008 16.3402C2.07008 16.0402 2.60008 15.6802 3.30008 15.6802C4.08008 15.6802 4.50008 15.9602 4.83008 16.1802C5.11008 16.3602 5.31008 16.5002 5.76008 16.5002C6.21008 16.5002 6.41008 16.3702 6.69008 16.1802C7.02008 15.9602 7.44008 15.6802 8.22008 15.6802C9.00008 15.6802 9.41008 15.9602 9.75008 16.1802C10.0301 16.3602 10.2301 16.5002 10.6801 16.5002C11.1301 16.5002 11.3301 16.3702 11.6101 16.1802C11.9401 15.9602 12.3601 15.6802 13.1401 15.6802C13.8401 15.6802 14.3701 16.0502 14.7901 16.3402C15.3301 16.7202 15.3501 16.7002 15.4801 16.5402C15.6801 16.3102 16.0201 16.2902 16.2501 16.4802C16.4801 16.6802 16.5001 17.0202 16.3101 17.2502C15.5201 18.1602 14.6801 17.5802 14.1801 17.2302C13.8301 16.9902 13.5101 16.7602 13.1501 16.7602C12.7001 16.7602 12.5001 16.8902 12.2201 17.0802C11.8901 17.3002 11.4701 17.5802 10.6901 17.5802C9.91008 17.5802 9.50008 17.3002 9.16008 17.0802C8.88008 16.9002 8.68008 16.7602 8.23008 16.7602C7.78008 16.7602 7.58008 16.8902 7.30008 17.0802C6.97008 17.3002 6.55008 17.5802 5.77008 17.5802C4.99008 17.5802 4.57008 17.3002 4.24008 17.0802C3.96008 16.9002 3.76008 16.7602 3.31008 16.7602C2.95008 16.7602 2.63008 16.9902 2.28008 17.2302C1.98008 17.4402 1.55008 17.7402 1.08008 17.7402L1.07008 17.7502Z" fill="#333333"/>
<path d="M15.88 17.34C15.58 17.34 15.34 17.1 15.34 16.8V1.36C15.34 1.21 15.22 1.09 15.07 1.09H1.36C1.21 1.09 1.09 1.21 1.09 1.36V16.8C1.09 17.1 0.85 17.34 0.55 17.34C0.25 17.34 0 17.1 0 16.8V1.36C0 0.61 0.61 0 1.36 0H15.07C15.82 0 16.43 0.61 16.43 1.36V16.8C16.43 17.1 16.19 17.34 15.89 17.34H15.88Z" fill="#333333"/>
<path d="M12.4202 4.76994H4.01022C3.71022 4.76994 3.47021 4.52994 3.47021 4.22994C3.47021 3.92994 3.71022 3.68994 4.01022 3.68994H12.4302C12.7302 3.68994 12.9702 3.92994 12.9702 4.22994C12.9702 4.52994 12.7302 4.76994 12.4302 4.76994H12.4202Z" fill="#333333"/>
<path d="M10.57 8.60002H3.88996C3.64996 8.60002 3.45996 8.36002 3.45996 8.06002C3.45996 7.76002 3.64996 7.52002 3.88996 7.52002H10.56C10.8 7.52002 10.99 7.76002 10.99 8.06002C10.99 8.36002 10.8 8.60002 10.56 8.60002H10.57Z" fill="#333333"/>
<path d="M8.94996 12.4301H3.78996C3.60996 12.4301 3.45996 12.1901 3.45996 11.8901C3.45996 11.5901 3.60996 11.3501 3.78996 11.3501H8.93996C9.11996 11.3501 9.26996 11.5901 9.26996 11.8901C9.26996 12.1901 9.11996 12.4301 8.93996 12.4301H8.94996Z" fill="#333333"/>
</g>
<defs>
<clipPath id="clip0_457_35808">
<rect width="16.43" height="17.75" fill="white"/>
</clipPath>
</defs>
</svg>
