<svg width="18" height="16" viewBox="0 0 18 16" fill="none" xmlns="http://www.w3.org/2000/svg">
<g clip-path="url(#clip0_1203_148)">
<path d="M11.867 9.25635H2.79883V11.3087H11.867V9.25635Z" fill="#333333"/>
<path d="M10.3146 1.31689L9.23633 11.2193H11.9575L13.0358 1.31689H10.3146Z" fill="#333333"/>
<path d="M5.53174 10.9195C5.53174 13.7209 7.83407 16.0001 10.664 16.0001C13.4939 16.0001 15.7962 13.7209 15.7962 10.9195C15.7962 8.11804 13.4939 5.83887 10.664 5.83887C7.83407 5.83887 5.53174 8.11804 5.53174 10.9195ZM6.4573 10.9195C6.4573 8.62426 8.34544 6.75512 10.664 6.75512C12.9825 6.75512 14.8706 8.62426 14.8706 10.9195C14.8706 13.2147 12.9848 15.0838 10.664 15.0838C8.34313 15.0838 6.4573 13.2147 6.4573 10.9195Z" fill="#333333"/>
<path d="M0.619141 13.3359C0.619141 14.5843 1.6442 15.599 2.90528 15.599C4.16635 15.599 5.19141 14.5843 5.19141 13.3359C5.19141 12.0875 4.16635 11.0728 2.90528 11.0728C1.6442 11.0728 0.619141 12.0875 0.619141 13.3359ZM1.31331 13.3359C1.31331 12.4655 2.02831 11.7599 2.90528 11.7599C3.78224 11.7599 4.49724 12.4677 4.49724 13.3359C4.49724 14.204 3.78224 14.9118 2.90528 14.9118C2.02831 14.9118 1.31331 14.204 1.31331 13.3359Z" fill="#333333"/>
<path d="M10.3422 6.06787H2.78271V10.7934H10.5736V6.06787H10.3422ZM10.1108 6.526V10.3353H3.2455V6.526H10.1108Z" fill="#333333"/>
<path d="M14.7063 0H17.1822C17.2909 0 17.3812 0.0870437 17.3812 0.196994V0.519971C17.3812 0.627631 17.2909 0.716965 17.1822 0.716965H14.7063C14.5976 0.716965 14.5073 0.627631 14.5073 0.519971V0.196994C14.5073 0.0893343 14.5976 0 14.7063 0Z" fill="#333333"/>
<path d="M12.4963 0.236177H12.325L11.8438 1.82129L12.288 1.95185C12.288 1.95185 12.5911 0.948561 12.6698 0.692011H15.5876V0.233887H12.4986L12.4963 0.236177Z" fill="#333333"/>
</g>
<defs>
<clipPath id="clip0_1203_148">
<rect width="16.7619" height="16" fill="white" transform="translate(0.619141)"/>
</clipPath>
</defs>
</svg>
