<svg width="18" height="18" viewBox="0 0 18 18" fill="none" xmlns="http://www.w3.org/2000/svg">
<path d="M17.4775 9.00098C17.4775 13.696 13.6764 17.501 8.98875 17.501C4.30113 17.501 0.5 13.696 0.5 9.00098C0.5 4.30597 4.30113 0.500977 8.98875 0.500977C13.6764 0.500977 17.4775 4.30597 17.4775 9.00098Z" fill="white" stroke="#333333"/>
<mask id="path-2-inside-1_1732_241" fill="white">
<path d="M18 8.9517C18 3.81982 13.6557 -0.301426 8.42628 0.0173244C3.95628 0.292949 0.313158 3.9042 0.0206583 8.34795C-0.149967 10.9411 0.793158 13.3092 2.41691 15.0417C2.65691 15.3004 3.02253 15.4092 3.36941 15.3248L3.40128 15.3173C3.69753 15.2479 3.94691 15.0417 4.06878 14.7642C4.65941 13.4423 5.77316 12.3979 7.14753 11.8973C7.49253 11.7717 7.53753 11.3067 7.21691 11.1248C5.85941 10.3523 5.05316 8.7267 5.54628 6.9792C5.87628 5.81107 6.82316 4.88482 8.00253 4.56982C10.4175 3.92295 12.6019 5.7192 12.6019 8.01607C12.6019 9.33795 11.8782 10.4948 10.8038 11.1136C10.4738 11.3029 10.515 11.7736 10.8694 11.9029C12.24 12.4036 13.3463 13.4442 13.9313 14.7661C14.0532 15.0454 14.3007 15.2479 14.595 15.3192L14.6232 15.3267C14.9738 15.4111 15.3394 15.2986 15.5832 15.0398C17.0794 13.4423 17.9982 11.3067 17.9982 8.95357"/>
</mask>
<path d="M8.42628 0.0173244L8.36544 -0.980823L8.36474 -0.98078L8.42628 0.0173244ZM0.0206583 8.34795L-0.977182 8.28227L-0.977184 8.28229L0.0206583 8.34795ZM2.41691 15.0417L3.15009 14.3616L3.14654 14.3579L2.41691 15.0417ZM3.36941 15.3248L3.14035 14.3514L3.13306 14.3532L3.36941 15.3248ZM3.40128 15.3173L3.17327 14.3437L3.17224 14.3439L3.40128 15.3173ZM4.06878 14.7642L3.15575 14.3563L3.15319 14.3621L4.06878 14.7642ZM7.14753 11.8973L6.80538 10.9577L6.80527 10.9577L7.14753 11.8973ZM7.21691 11.1248L6.72232 11.994L6.72351 11.9946L7.21691 11.1248ZM5.54628 6.9792L4.58395 6.70734L4.58387 6.70762L5.54628 6.9792ZM8.00253 4.56982L8.26058 5.53596L8.26127 5.53577L8.00253 4.56982ZM10.8038 11.1136L11.3015 11.9809L11.3028 11.9801L10.8038 11.1136ZM10.8694 11.9029L11.2125 10.9636L11.2123 10.9636L10.8694 11.9029ZM13.9313 14.7661L14.8479 14.3662L14.8457 14.3614L13.9313 14.7661ZM14.595 15.3192L14.8527 14.353L14.8415 14.35L14.8303 14.3473L14.595 15.3192ZM14.6232 15.3267L14.3655 16.2929L14.3773 16.2961L14.3892 16.2989L14.6232 15.3267ZM15.5832 15.0398L16.311 15.7255L16.313 15.7234L15.5832 15.0398ZM19 8.9517C19 3.24065 14.167 -1.33445 8.36544 -0.980823L8.48712 1.01547C13.1443 0.731598 17 4.399 17 8.9517H19ZM8.36474 -0.98078C3.39673 -0.674447 -0.651355 3.33219 -0.977182 8.28227L1.0185 8.41363C1.27767 4.47621 4.51584 1.26035 8.48783 1.01543L8.36474 -0.98078ZM-0.977184 8.28229C-1.16687 11.1651 -0.11629 13.8012 1.68727 15.7255L3.14654 14.3579C1.70261 12.8172 0.866937 10.717 1.0185 8.41361L-0.977184 8.28229ZM1.68374 15.7217C2.17355 16.2498 2.91157 16.4653 3.60576 16.2965L3.13306 14.3532C3.13437 14.3528 3.13612 14.3528 3.13805 14.3534C3.14002 14.354 3.14488 14.356 3.15008 14.3617L1.68374 15.7217ZM3.59845 16.2982L3.63033 16.2907L3.17224 14.3439L3.14036 14.3514L3.59845 16.2982ZM3.62929 16.291C4.22929 16.1505 4.73491 15.7343 4.98437 15.1663L3.15319 14.3621C3.15659 14.3543 3.16047 14.3504 3.16256 14.3487C3.16462 14.347 3.1679 14.3449 3.17327 14.3437L3.62929 16.291ZM4.98179 15.1721C5.46242 14.0964 6.3708 13.2445 7.48979 12.8369L6.80527 10.9577C5.17551 11.5514 3.8564 12.7882 3.15577 14.3563L4.98179 15.1721ZM7.48968 12.837C8.60988 12.4291 8.79702 10.8715 7.7103 10.255L6.72351 11.9946C6.27804 11.7419 6.37519 11.1143 6.80538 10.9577L7.48968 12.837ZM7.71149 10.2557C6.72958 9.69693 6.14784 8.52958 6.5087 7.25078L4.58387 6.70762C3.95848 8.92382 4.98923 11.0077 6.72232 11.994L7.71149 10.2557ZM6.50862 7.25106C6.74154 6.42657 7.41774 5.76107 8.26058 5.53596L7.74449 3.60369C6.22857 4.00858 5.01103 5.19558 4.58395 6.70734L6.50862 7.25106ZM8.26127 5.53577C10.034 5.06094 11.6019 6.36925 11.6019 8.01607H13.6019C13.6019 5.06915 10.8011 2.78496 7.7438 3.60388L8.26127 5.53577ZM11.6019 8.01607C11.6019 8.96359 11.0839 9.79826 10.3047 10.247L11.3028 11.9801C12.6724 11.1914 13.6019 9.7123 13.6019 8.01607H11.6019ZM10.3061 10.2462C9.24097 10.8575 9.37094 12.4204 10.5265 12.8423L11.2123 10.9636C11.6591 11.1267 11.7066 11.7484 11.3015 11.9809L10.3061 10.2462ZM10.5263 12.8423C11.6411 13.2494 12.5415 14.0967 13.0168 15.1708L14.8457 14.3614C14.1511 12.7917 12.8389 11.5577 11.2125 10.9636L10.5263 12.8423ZM13.0147 15.1659C13.2653 15.7404 13.7703 16.1484 14.3598 16.2911L14.8303 14.3473C14.8313 14.3475 14.8337 14.3483 14.8368 14.3509C14.8402 14.3537 14.8447 14.3589 14.8479 14.3662L13.0147 15.1659ZM14.3374 16.2854L14.3655 16.2929L14.8808 14.3605L14.8527 14.353L14.3374 16.2854ZM14.3892 16.2989C15.0932 16.4684 15.8246 16.2419 16.311 15.7255L14.8553 14.3541C14.8552 14.3542 14.855 14.3544 14.8548 14.3544C14.8547 14.3545 14.855 14.3544 14.8556 14.3543C14.8559 14.3543 14.8563 14.3543 14.8566 14.3544C14.8569 14.3544 14.8571 14.3545 14.8571 14.3545L14.3892 16.2989ZM16.313 15.7234C17.974 13.95 18.9982 11.5732 18.9982 8.95357H16.9982C16.9982 11.0402 16.1848 12.9346 14.8533 14.3562L16.313 15.7234Z" fill="#333333" mask="url(#path-2-inside-1_1732_241)"/>
<path d="M14.3085 11C14.205 11 14.1015 10.9476 14.0497 10.8428C13.9566 10.6856 13.998 10.4864 14.1429 10.3921C16.2543 8.96667 16.3888 6.3464 16.3888 6.31496C16.3888 6.13678 16.544 5.99005 16.7096 6.00053C16.8752 6.00053 17.0098 6.15774 16.9994 6.3464C16.9994 6.47218 16.8442 9.34399 14.4637 10.9476C14.412 10.979 14.3602 11 14.2981 11H14.3085Z" fill="#333333" stroke="#333333" stroke-width="0.5" stroke-miterlimit="10"/>
<path d="M12.7951 12.7365H10.265C9.56974 12.7365 9 12.1378 9 11.4039C9 10.67 9.56974 10.0713 10.265 10.0713H12.7951C13.4903 10.0713 14.0601 10.67 14.0601 11.4039C14.0601 12.1378 13.4903 12.7365 12.7951 12.7365Z" fill="#333333" stroke="#333333" stroke-width="0.5" stroke-miterlimit="10"/>
</svg>
