<svg width="20" height="32" viewBox="0 0 20 32" fill="none" xmlns="http://www.w3.org/2000/svg">
<g clip-path="url(#clip0_602_965)">
<path d="M14.962 31.4284H10.8957C9.39054 31.4284 7.98082 30.7604 7.02041 29.5941L1.76908 24.4746C0.746895 23.4781 0.746895 21.8574 1.76908 20.8609L1.85333 20.7788C2.34757 20.2969 3.00469 20.0287 3.70674 20.0287C4.40879 20.0287 5.06591 20.2969 5.56015 20.7788L5.8522 21.0635V9.40645C5.8522 8.1964 6.86316 7.21631 8.09876 7.21631C9.33437 7.21631 10.3453 8.20187 10.3453 9.40645V13.9729C10.6318 13.8415 10.9519 13.7703 11.2833 13.7703H11.3394C12.3054 13.7703 13.1254 14.3726 13.4287 15.2103C13.7432 15.0406 14.1083 14.942 14.4958 14.942H14.552C15.5686 14.942 16.4279 15.6155 16.6919 16.5244C16.9951 16.3711 17.3434 16.2835 17.714 16.2835H17.7702C18.9946 16.2835 19.9887 17.2526 19.9887 18.4463V26.3472C19.9887 29.1451 17.7309 31.4284 14.9508 31.4284H14.962ZM3.70674 21.277C3.34729 21.277 3.0103 21.4139 2.75757 21.6603L2.67332 21.7424C2.151 22.2516 2.151 23.0839 2.67332 23.5931L7.9752 28.7619L7.99767 28.7892C8.71657 29.6762 9.77245 30.18 10.8957 30.18H14.962C17.0345 30.18 18.725 28.4607 18.725 26.3472V18.4463C18.725 17.9425 18.3038 17.5319 17.7871 17.5319H17.7309C17.2142 17.5319 16.793 17.9425 16.793 18.4463H15.5124V17.1048C15.5124 16.6011 15.0912 16.1904 14.5745 16.1904H14.5183C14.0016 16.1904 13.5804 16.6011 13.5804 17.1048H12.2998V15.9331C12.2998 15.4293 11.8786 15.0187 11.3619 15.0187H11.3057C10.789 15.0187 10.3678 15.4293 10.3678 15.9331V16.9734L9.07602 16.3656L9.08725 15.9331V9.40645C9.08725 8.88629 8.65479 8.46469 8.12123 8.46469C7.58767 8.46469 7.15521 8.88629 7.15521 9.40645V24.0749L4.67838 21.6603C4.42564 21.4139 4.08865 21.277 3.7292 21.277H3.70674Z" fill="#333333"/>
<path d="M13.7433 13.004C13.5805 13.004 13.4232 12.9547 13.2884 12.8452C12.9739 12.5988 12.9233 12.1498 13.1761 11.8432C14.1196 10.6934 14.6195 9.30811 14.6195 7.83524C14.6195 4.29816 11.6709 1.42359 8.04268 1.42359C4.41449 1.42359 1.46026 4.30363 1.46026 7.83524C1.46026 9.30811 1.96012 10.6934 2.90368 11.8432C3.15642 12.1498 3.10587 12.5988 2.79135 12.8452C2.47683 13.0916 2.01629 13.0423 1.76355 12.7357C0.62342 11.3504 0 9.61473 0 7.83524C0 3.51518 3.60573 0 8.03707 0C12.4684 0 16.0741 3.51518 16.0741 7.83524C16.0741 9.60926 15.4451 11.3504 14.3106 12.7357C14.1646 12.9109 13.9568 13.004 13.7377 13.004H13.7433Z" fill="#333333"/>
<path d="M3.8754 10.0307C3.73499 10.0307 3.60582 9.95406 3.54404 9.82265C3.25198 9.19846 3.10596 8.53046 3.10596 7.84057C3.10596 5.19049 5.31882 3.0332 8.03716 3.0332C10.7555 3.0332 12.9684 5.19049 12.9684 7.84057C12.9684 8.47571 12.8448 9.09443 12.5977 9.67482C12.519 9.8555 12.3056 9.94311 12.1203 9.86645C11.9349 9.7898 11.8451 9.58173 11.9237 9.40105C12.1315 8.90826 12.2382 8.38263 12.2382 7.84057C12.2382 5.57925 10.3511 3.745 8.03716 3.745C5.7232 3.745 3.83609 5.58472 3.83609 7.84057C3.83609 8.43191 3.95965 8.99587 4.20677 9.52698C4.29102 9.70767 4.20677 9.91573 4.02705 9.99786C3.9765 10.0198 3.92595 10.0307 3.8754 10.0307Z" fill="#333333"/>
</g>
<defs>
<clipPath id="clip0_602_965">
<rect width="20" height="31.4286" fill="white"/>
</clipPath>
</defs>
</svg>
