<svg width="19" height="17" viewBox="0 0 19 17" fill="none" xmlns="http://www.w3.org/2000/svg">
<path d="M7.8125 15.3125C7.8125 15.6215 7.72086 15.9236 7.54917 16.1806C7.37748 16.4375 7.13345 16.6378 6.84794 16.7561C6.56243 16.8743 6.24827 16.9053 5.94517 16.845C5.64208 16.7847 5.36367 16.6359 5.14515 16.4174C4.92663 16.1988 4.77781 15.9204 4.71752 15.6173C4.65723 15.3142 4.68818 15.0001 4.80644 14.7146C4.9247 14.429 5.12497 14.185 5.38192 14.0133C5.63887 13.8416 5.94097 13.75 6.25 13.75C6.66377 13.7521 7.06 13.9173 7.35259 14.2099C7.64517 14.5025 7.81045 14.8987 7.8125 15.3125V15.3125ZM14.375 13.75C14.066 13.75 13.7639 13.8416 13.5069 14.0133C13.25 14.185 13.0497 14.429 12.9314 14.7146C12.8132 15.0001 12.7822 15.3142 12.8425 15.6173C12.9028 15.9204 13.0516 16.1988 13.2701 16.4174C13.4887 16.6359 13.7671 16.7847 14.0702 16.845C14.3733 16.9053 14.6874 16.8743 14.9729 16.7561C15.2585 16.6378 15.5025 16.4375 15.6742 16.1806C15.8459 15.9236 15.9375 15.6215 15.9375 15.3125C15.9354 14.8987 15.7702 14.5025 15.4776 14.2099C15.185 13.9173 14.7888 13.7521 14.375 13.75V13.75ZM18.2266 4.32031L16.3359 10.9141C16.2042 11.3701 15.9282 11.7711 15.5493 12.057C15.1704 12.343 14.709 12.4984 14.2344 12.5H6.39063C5.91596 12.4984 5.4546 12.343 5.07572 12.057C4.69683 11.7711 4.42082 11.3701 4.28906 10.9141L2.40625 4.33594C2.40625 4.32812 2.39844 4.3125 2.39844 4.30469L1.70312 1.875H0.9375C0.68886 1.875 0.450403 1.77623 0.274587 1.60041C0.098772 1.4246 0 1.18614 0 0.9375C0 0.68886 0.098772 0.450403 0.274587 0.274587C0.450403 0.0987721 0.68886 0 0.9375 0H1.9375C2.27698 0.00257483 2.60667 0.114015 2.87808 0.317931C3.1495 0.521847 3.34833 0.807476 3.44531 1.13281L4.00781 3.125H17.3203C17.4653 3.12583 17.6082 3.16001 17.7379 3.22489C17.8676 3.28977 17.9806 3.38362 18.0682 3.49918C18.1558 3.61473 18.2157 3.74889 18.2431 3.89128C18.2706 4.03367 18.2649 4.18047 18.2266 4.32031V4.32031ZM16.0781 5H4.54688L6.08594 10.3984C6.10593 10.4638 6.14628 10.521 6.20109 10.5617C6.25591 10.6025 6.32232 10.6247 6.39063 10.625H14.2344C14.3027 10.6247 14.3691 10.6025 14.4239 10.5617C14.4787 10.521 14.5191 10.4638 14.5391 10.3984L16.0781 5Z" fill="black"/>
</svg>
