<svg width="17" height="21" viewBox="0 0 17 21" fill="none" xmlns="http://www.w3.org/2000/svg">
<g clip-path="url(#clip0_457_36495)">
<path d="M15.75 15.83H0.59C0.27 15.83 0 15.57 0 15.24C0 13.82 0.66 12.51 1.79 11.67V6.37C1.79 2.86 4.65 0 8.17 0C11.69 0 14.55 2.86 14.55 6.38V11.68C15.68 12.52 16.34 13.83 16.34 15.25C16.34 15.57 16.08 15.84 15.75 15.84V15.83ZM1.22 14.66H15.11C14.95 13.77 14.43 12.98 13.64 12.48C13.47 12.37 13.37 12.19 13.37 11.99V6.39C13.37 3.52 11.03 1.18 8.16 1.18C5.29 1.18 2.96 3.51 2.96 6.38V11.98C2.96 12.18 2.86 12.37 2.69 12.47C1.91 12.97 1.38 13.76 1.22 14.65V14.66Z" fill="#333333"/>
<path d="M8 18C9.65685 18 11 16.6569 11 15C11 13.3431 9.65685 12 8 12C6.34315 12 5 13.3431 5 15C5 16.6569 6.34315 18 8 18Z" fill="#F58220"/>
</g>
<defs>
<clipPath id="clip0_457_36495">
<rect width="16.34" height="21" fill="white"/>
</clipPath>
</defs>
</svg>
