<?xml version="1.0" encoding="utf-8"?>
<!-- Generator: Adobe Illustrator 27.3.1, SVG Export Plug-In . SVG Version: 6.00 Build 0)  -->
<svg version="1.1" id="레이어_1" xmlns="http://www.w3.org/2000/svg" xmlns:xlink="http://www.w3.org/1999/xlink" x="0px"
	 y="0px" viewBox="0 0 25 25" style="enable-background:new 0 0 25 25;" xml:space="preserve">
<style type="text/css">
	.st0{clip-path:url(#SVGID_00000088101508013513939630000018401094412290629257_);}
	.st1{fill:#FFFFFF;}
	.st2{fill:#333333;}
	.st3{fill:#F58220;}
	.st4{fill:none;stroke:#333333;stroke-width:2;stroke-miterlimit:10;}
</style>
<g>
	<defs>
		<rect id="SVGID_1_" x="0" y="0.9" width="25" height="22.7"/>
	</defs>
	<clipPath id="SVGID_00000022533459403359195500000011961636026023325626_">
		<use xlink:href="#SVGID_1_"  style="overflow:visible;"/>
	</clipPath>
	<g style="clip-path:url(#SVGID_00000022533459403359195500000011961636026023325626_);">
		<path class="st1" d="M18.2,7.6l-0.6-0.7l-1.9-2l1.9,2L18.2,7.6z"/>
		<path class="st1" d="M16.9,8.1l-0.3-0.3l-1.9-2l-3.1-3.3l-0.2-0.3H1.6c-0.1,0-0.3,0.2-0.3,0.4v19.4c0,0.2,0.1,0.4,0.3,0.4H8
			l8.9-10V8.1L16.9,8.1z"/>
		<path class="st1" d="M15.7,4.9l-3.1-3.3l-0.6-0.7l0.6,0.7L15.7,4.9z"/>
		<path d="M0.1,22.6C0,22.4,0,22.2,0,21.9C0,22.2,0,22.4,0.1,22.6z"/>
		<path class="st2" d="M1.6,23.3c-0.3,0-0.6-0.1-0.9-0.4c-0.1-0.1-0.2-0.3-0.3-0.4c-0.1-0.2-0.1-0.3-0.1-0.5V2.6
			c0-0.2,0-0.4,0.1-0.5c0.2-0.5,0.6-0.8,1.1-0.8h10.2l6.1,6.5v3l-0.6,0.7V8.4L16.9,8h-5.2C11.3,8,11,7.8,11,7.4V2.2l-0.3-0.3H1.6
			C1.2,1.9,1,2.2,1,2.6v19.4c0,0.4,0.3,0.7,0.6,0.7h5.7l-0.6,0.6L1.6,23.3L1.6,23.3z"/>
		<path class="st2" d="M11.6,1.5L12.1,2l3.1,3.3l1.9,2l0.4,0.5v2.8V8.4l-0.6-0.6h-5.2c-0.2,0-0.3-0.1-0.3-0.3V2.2l-0.6-0.6H11.6z
			 M1.1,1.7C0.8,1.9,0.7,2.2,0.7,2.6c0-0.1,0-0.3,0.1-0.4C0.8,2,0.9,1.8,1.1,1.7z M0.7,21.9c0,0.3,0.1,0.5,0.2,0.7
			c-0.1-0.1-0.1-0.2-0.1-0.2C0.7,22.2,0.7,22.1,0.7,21.9z M1.1,22.8c0.1,0.1,0.2,0.1,0.3,0.1C1.3,22.9,1.2,22.9,1.1,22.8z M1.6,23h5
			H1.6 M11.9,0.9H1.6c-0.6,0-1.2,0.4-1.4,1C0,2.1,0,2.3,0,2.6v19.4c0,0.2,0,0.4,0.1,0.6c0.1,0.2,0.2,0.4,0.3,0.5
			c0.3,0.3,0.7,0.5,1.1,0.5h5.3L8,22.3H1.6c-0.1,0-0.3-0.2-0.3-0.4V2.6c0-0.2,0.1-0.4,0.3-0.4h9.1v5.2c0,0.5,0.4,0.9,0.9,0.9h5.2v4
			l1.3-1.5V7.6l-0.6-0.7l-1.9-2l-3.1-3.3L11.9,0.9L11.9,0.9z"/>
		<path class="st3" d="M21.3,14.2L15,20.4h-2.5v-2.5l6.2-6.2L21.3,14.2z M25,13.3c0,0.3-0.3,0.7-0.7,1L21.6,17l-1-1l2.8-2.8
			l-0.7-0.7L22,13.3l-2.5-2.5l2.4-2.3c0.2-0.2,0.7-0.2,1,0l1.5,1.5c0.2,0.2,0.2,0.7,0,1c-0.2,0.2-0.4,0.4-0.4,0.7
			c0,0.2,0.2,0.4,0.4,0.7C24.7,12.7,25.1,13,25,13.3L25,13.3z M11.8,18.8c-0.2,0-0.4,0.1-0.5,0.1l-0.5-2.4H9l-2.3,1.9l0.7-2.9H5.8
			l-1.1,5.5h1.6L9.5,18l0.7,2.5h1.1l0.5-0.1L11.8,18.8L11.8,18.8z"/>
		<path class="st4" d="M2.9,9h5.2"/>
		<path class="st4" d="M2.9,12.3h7.8"/>
	</g>
</g>
</svg>
