<?xml version="1.0" encoding="utf-8"?>
<!-- Generator: Adobe Illustrator 27.3.1, SVG Export Plug-In . SVG Version: 6.00 Build 0)  -->
<svg version="1.1" id="레이어_1" xmlns="http://www.w3.org/2000/svg" xmlns:xlink="http://www.w3.org/1999/xlink" x="0px"
	 y="0px" viewBox="0 0 25 25" style="enable-background:new 0 0 25 25;" xml:space="preserve">
<style type="text/css">
	.st0{clip-path:url(#SVGID_00000068679159139983328280000013582038468211098796_);}
	.st1{fill:#FFFFFF;}
	.st2{fill:#333333;}
	.st3{fill:none;stroke:#333333;stroke-width:2;stroke-miterlimit:10;}
	.st4{fill:#F58220;}
</style>
<g>
	<defs>
		<rect id="SVGID_1_" x="1.7" y="0.9" width="21.5" height="22.8"/>
	</defs>
	<clipPath id="SVGID_00000005227930461158364700000000619575478724038811_">
		<use xlink:href="#SVGID_1_"  style="overflow:visible;"/>
	</clipPath>
	<g style="clip-path:url(#SVGID_00000005227930461158364700000000619575478724038811_);">
		<path class="st1" d="M19.9,7.6l-0.6-0.7l-1.9-2l1.9,2L19.9,7.6z"/>
		<path class="st1" d="M18.6,8.1l-0.3-0.3l-1.9-2l-3.1-3.3l-0.2-0.3H3.3C3.2,2.2,3,2.3,3,2.6V22c0,0.2,0.1,0.4,0.3,0.4h6.5l8.9-10
			V8.1L18.6,8.1z"/>
		<path class="st1" d="M17.4,4.9l-3.1-3.3l-0.6-0.7l0.6,0.7L17.4,4.9z"/>
		<path d="M1.8,22.6c-0.1-0.2-0.1-0.4-0.1-0.7C1.7,22.2,1.8,22.4,1.8,22.6z"/>
		<path class="st2" d="M3.3,23.3c-0.3,0-0.6-0.1-0.9-0.4c-0.1-0.1-0.2-0.3-0.3-0.4c-0.1-0.2-0.1-0.3-0.1-0.5V2.6
			c0-0.2,0-0.4,0.1-0.5c0.2-0.5,0.7-0.8,1.1-0.8h10.2l6.1,6.5v3l-0.7,0.7V8.4L18.6,8h-5.2c-0.3,0-0.6-0.3-0.6-0.6V2.2l-0.3-0.3H3.3
			C3,1.9,2.7,2.2,2.7,2.6V22c0,0.4,0.3,0.7,0.6,0.7H9l-0.6,0.7L3.3,23.3L3.3,23.3z"/>
		<path class="st2" d="M13.4,1.5L13.8,2l3.1,3.3l1.9,2l0.4,0.5v2.8V8.4l-0.7-0.7h-5.2c-0.2,0-0.3-0.1-0.3-0.3V2.2l-0.7-0.7H13.4z
			 M2.8,1.7C2.5,1.9,2.4,2.2,2.4,2.6c0-0.1,0-0.3,0.1-0.4C2.5,2,2.6,1.8,2.8,1.7z M2.4,22c0,0.3,0.1,0.5,0.2,0.7
			c-0.1-0.1-0.1-0.2-0.1-0.2C2.4,22.3,2.4,22.1,2.4,22z M2.8,22.9C2.9,22.9,3,23,3.1,23C3,23,2.9,22.9,2.8,22.9z M3.3,23h5H3.3
			 M13.6,0.9H3.3c-0.7,0-1.2,0.4-1.4,1C1.8,2.1,1.7,2.3,1.7,2.6V22c0,0.2,0,0.4,0.1,0.7C1.9,22.8,2,23,2.2,23.2
			c0.3,0.3,0.7,0.5,1.1,0.5h5.3l1.2-1.3H3.3C3.2,22.3,3,22.2,3,22V2.6c0-0.2,0.1-0.4,0.3-0.4h9.2v5.2c0,0.5,0.4,0.9,0.9,0.9h5.2v4
			l1.3-1.5V7.6l-0.6-0.7l-1.9-2l-3.1-3.3L13.6,0.9L13.6,0.9z"/>
		<path class="st3" d="M5.3,12.3h9.8"/>
		<path class="st3" d="M5.3,15.5h7.2"/>
		<path class="st4" d="M23.3,14.3l-1.2,1.2L19.5,13l1.2-1.2c0.1-0.1,0.2-0.2,0.5-0.2c0.1,0,0.4,0.1,0.5,0.2l1.6,1.5"/>
		<path class="st4" d="M21.2,16.2l-7.5,7.1h-2.6v-2.5l7.5-7.1L21.2,16.2z"/>
	</g>
</g>
</svg>
